M48
;Layer_Color=9474304
;FILE_FORMAT=4:4
METRIC,LZ
;TYPE=PLATED
T1F00S00C0.3000
T2F00S00C0.5000
T3F00S00C0.6000
T4F00S00C0.9000
T5F00S00C1.0000
T6F00S00C1.2000
T7F00S00C2.2000
T8F00S00C3.2000
T9F00S00C4.0000
%
T01
X01192Y0075
X01232Y00749
X01272
X01311
X01321Y00782
X01281
X01242
X01202
X01389
X01429
X01468
X01508
X01485Y00708
X0149Y00696
X01134Y00782
X01113Y00775
X01094Y007755
X01086Y0075
X01047Y00749
X01053301Y0077675
X01015Y007765
X01005Y00749
X00938Y00748
X00899Y00749
X00859
X00694Y00951
X007Y0096
Y01
X00695Y01024
X00836Y00918
X008737Y009273
X00914Y00936
X01022Y00918
X010437Y009353
X010607Y009273
X01099Y00934
X010237Y009653
X01002Y00828
X00992Y008
X01023Y00802
X01038733Y00801
X01078667
X01102
X011186
X011858
X0107Y00825
X00922Y00802
X00884Y00801
X00842Y00802
X00803Y00803
X01225733Y00801
X01265667
X013056
X01344Y00815
X013728Y00801
X01396
X01413
X01436
X01452667
X01477
X01493
X014187Y008763
X01396Y00918
X014347Y009273
X01443Y00997
X01377Y01002
X01399Y01063
X01395Y01084
X01433Y01097
X01438Y01172
X01433Y0118
X01457
X01452Y01172
X01477Y01177
X0152Y0118
X01532Y01178
X01525Y01139
X01536881Y01047881
X01504Y0103
X01518Y01007
X01531Y00985
X0152Y00942
X01477Y01059
X01575Y01067
X01346Y0109
X01336Y01144
X01264Y01136
X01274236Y01071
X01296Y01033
X012967Y009623
X01286Y00935
X012477Y009273
X012207Y009333
X01209Y00918
X01626Y00973
X01465Y0121
X01457Y01208
X01423018Y01211285
X01431Y01246
X01377Y01247
X01491Y0127
X00759Y01303
X00743Y01309
T02
X01016Y01136498
X0114225Y01187
T03
X00705Y01153
X01531Y00954
X01476Y0086
X01631Y00853
X01091Y01224
T04
X013992Y00975
X014246
X0145
X014754
X015008
T05
X00936Y01189
X012301Y01293875
Y01328875
X0137375Y01328
X0139915
X0144995
X0150075
X00936Y01224
T06
X00575Y00878
X006
X00625
X0065
Y00915
X00625
X006
X00575
Y0095
X006
X00625
Y00975
Y01
Y01025
Y0105
Y01075
Y011
Y01125
Y0115
Y01175
X006
Y0115
Y01125
Y011
Y01075
Y0105
Y01025
Y01
Y00975
X00575
Y01
Y01025
Y0105
Y01075
Y011
Y01125
Y0115
Y01175
X0065
Y0115
Y01125
Y011
Y01075
Y0105
Y01025
Y01
Y00975
Y0095
T07
X0066Y008135
Y012395
T08
X0194Y0054
X0054
X0194Y0151
X0054
T09
X006215Y007725
Y012805
M30
