G04*
G04 #@! TF.GenerationSoftware,Altium Limited,Altium Designer,22.2.1 (43)*
G04*
G04 Layer_Color=8421504*
%FSAX44Y44*%
%MOMM*%
G71*
G04*
G04 #@! TF.SameCoordinates,097045FE-6C59-462F-8A7E-8FAF3A3C29C4*
G04*
G04*
G04 #@! TF.FilePolarity,Positive*
G04*
G01*
G75*
%ADD16R,0.9000X0.6000*%
%ADD17R,0.7000X0.9000*%
%ADD18R,0.8000X0.4000*%
%ADD19R,0.9000X0.7000*%
%ADD20R,0.6000X0.9000*%
%ADD21O,0.6000X1.3000*%
%ADD22R,1.1000X1.7000*%
%ADD23O,0.2540X1.5000*%
%ADD24O,1.5000X0.2540*%
G04:AMPARAMS|DCode=25|XSize=2mm|YSize=2.4mm|CornerRadius=0.5mm|HoleSize=0mm|Usage=FLASHONLY|Rotation=270.000|XOffset=0mm|YOffset=0mm|HoleType=Round|Shape=RoundedRectangle|*
%AMROUNDEDRECTD25*
21,1,2.0000,1.4000,0,0,270.0*
21,1,1.0000,2.4000,0,0,270.0*
1,1,1.0000,-0.7000,-0.5000*
1,1,1.0000,-0.7000,0.5000*
1,1,1.0000,0.7000,0.5000*
1,1,1.0000,0.7000,-0.5000*
%
%ADD25ROUNDEDRECTD25*%
%ADD26O,2.0000X0.6000*%
%ADD27R,2.0000X0.6000*%
G04:AMPARAMS|DCode=28|XSize=1.6mm|YSize=1.8mm|CornerRadius=0.16mm|HoleSize=0mm|Usage=FLASHONLY|Rotation=90.000|XOffset=0mm|YOffset=0mm|HoleType=Round|Shape=RoundedRectangle|*
%AMROUNDEDRECTD28*
21,1,1.6000,1.4800,0,0,90.0*
21,1,1.2800,1.8000,0,0,90.0*
1,1,0.3200,0.7400,0.6400*
1,1,0.3200,0.7400,-0.6400*
1,1,0.3200,-0.7400,-0.6400*
1,1,0.3200,-0.7400,0.6400*
%
%ADD28ROUNDEDRECTD28*%
%ADD29R,1.2000X0.7000*%
G04:AMPARAMS|DCode=30|XSize=1.5mm|YSize=0.8mm|CornerRadius=0.08mm|HoleSize=0mm|Usage=FLASHONLY|Rotation=90.000|XOffset=0mm|YOffset=0mm|HoleType=Round|Shape=RoundedRectangle|*
%AMROUNDEDRECTD30*
21,1,1.5000,0.6400,0,0,90.0*
21,1,1.3400,0.8000,0,0,90.0*
1,1,0.1600,0.3200,0.6700*
1,1,0.1600,0.3200,-0.6700*
1,1,0.1600,-0.3200,-0.6700*
1,1,0.1600,-0.3200,0.6700*
%
%ADD30ROUNDEDRECTD30*%
G04:AMPARAMS|DCode=31|XSize=2.2mm|YSize=2mm|CornerRadius=0.2mm|HoleSize=0mm|Usage=FLASHONLY|Rotation=90.000|XOffset=0mm|YOffset=0mm|HoleType=Round|Shape=RoundedRectangle|*
%AMROUNDEDRECTD31*
21,1,2.2000,1.6000,0,0,90.0*
21,1,1.8000,2.0000,0,0,90.0*
1,1,0.4000,0.8000,0.9000*
1,1,0.4000,0.8000,-0.9000*
1,1,0.4000,-0.8000,-0.9000*
1,1,0.4000,-0.8000,0.9000*
%
%ADD31ROUNDEDRECTD31*%
D16*
X01308000Y01318800D02*
D03*
Y01303200D02*
D03*
X01250000Y01022200D02*
D03*
Y01037800D02*
D03*
X01280250Y01022200D02*
D03*
Y01037800D02*
D03*
X01154000Y01198200D02*
D03*
Y01213800D02*
D03*
X01130000Y01198200D02*
D03*
Y01213800D02*
D03*
X01154000Y01090200D02*
D03*
Y01105800D02*
D03*
X01130000Y01090200D02*
D03*
Y01105800D02*
D03*
X01360000Y01090200D02*
D03*
Y01105800D02*
D03*
X01333000Y01090200D02*
D03*
Y01105800D02*
D03*
X01307000D02*
D03*
Y01090200D02*
D03*
X01630502Y01077800D02*
D03*
Y01062200D02*
D03*
X01595000Y01022200D02*
D03*
Y01037800D02*
D03*
X01570000Y01022200D02*
D03*
Y01037800D02*
D03*
X01543000Y01022200D02*
D03*
Y01037800D02*
D03*
X01518000Y01022200D02*
D03*
Y01037800D02*
D03*
X01412500Y01232800D02*
D03*
Y01217200D02*
D03*
X01477500Y01232800D02*
D03*
Y01217200D02*
D03*
X01382000Y01037800D02*
D03*
Y01022200D02*
D03*
D17*
X01198250Y01019500D02*
D03*
X01217250D02*
D03*
X01207750Y01040500D02*
D03*
X01630500Y01040500D02*
D03*
X01640000Y01019500D02*
D03*
X01621000D02*
D03*
D18*
X01100500Y01130000D02*
D03*
X01077500D02*
D03*
X01100500Y01143000D02*
D03*
X01077500D02*
D03*
D19*
X01005000Y01136498D02*
D03*
X01026000Y01145998D02*
D03*
Y01126998D02*
D03*
D20*
X01452800Y00762000D02*
D03*
X01468400D02*
D03*
X01477000Y00814000D02*
D03*
X01492600D02*
D03*
X01437067D02*
D03*
X01452667D02*
D03*
X01397133D02*
D03*
X01412733D02*
D03*
X01357200D02*
D03*
X01372800D02*
D03*
X01290000D02*
D03*
X01305600D02*
D03*
X01250067D02*
D03*
X01265667D02*
D03*
X01210133D02*
D03*
X01225733D02*
D03*
X01170200D02*
D03*
X01185800D02*
D03*
X01103000D02*
D03*
X01118600D02*
D03*
X01063067D02*
D03*
X01078667D02*
D03*
X01023133D02*
D03*
X01038733D02*
D03*
X00983200D02*
D03*
X00998800D02*
D03*
X00916000D02*
D03*
X00931600D02*
D03*
X00876067D02*
D03*
X00891667D02*
D03*
X00836133D02*
D03*
X00851733D02*
D03*
X00796200D02*
D03*
X00811800D02*
D03*
X01477000Y00788000D02*
D03*
X01492600D02*
D03*
X01437067Y00788000D02*
D03*
X01452667D02*
D03*
X01397133D02*
D03*
X01412733D02*
D03*
X01357200D02*
D03*
X01372800D02*
D03*
X01290000D02*
D03*
X01305600D02*
D03*
X01210133D02*
D03*
X01225733D02*
D03*
X01170200D02*
D03*
X01185800D02*
D03*
X01103000D02*
D03*
X01118600D02*
D03*
X01063067D02*
D03*
X01078667D02*
D03*
X01023133D02*
D03*
X01038733D02*
D03*
X00916000D02*
D03*
X00931600D02*
D03*
X00876067D02*
D03*
X00891667D02*
D03*
X00836133D02*
D03*
X00851733D02*
D03*
X00796200D02*
D03*
X00811800D02*
D03*
X01250067D02*
D03*
X01265667D02*
D03*
X01413000Y00762000D02*
D03*
X01428600D02*
D03*
X01373200D02*
D03*
X01388800D02*
D03*
X01305600D02*
D03*
X01321200D02*
D03*
X01265800D02*
D03*
X01281400D02*
D03*
X01226000D02*
D03*
X01241600D02*
D03*
X01186200D02*
D03*
X01201800D02*
D03*
X01118600D02*
D03*
X01134200D02*
D03*
X01039000D02*
D03*
X01054600D02*
D03*
X00999200D02*
D03*
X01014800D02*
D03*
X00931600D02*
D03*
X00947200D02*
D03*
X00891800D02*
D03*
X00907400D02*
D03*
X00852000D02*
D03*
X00867600D02*
D03*
X00812200D02*
D03*
X00827800D02*
D03*
X01078800D02*
D03*
X01094400D02*
D03*
X01452800Y00736000D02*
D03*
X01468400D02*
D03*
X01413000D02*
D03*
X01428600D02*
D03*
X01373200D02*
D03*
X01388800D02*
D03*
X01265800D02*
D03*
X01281400D02*
D03*
X01226000D02*
D03*
X01241600D02*
D03*
X01186200D02*
D03*
X01201800D02*
D03*
X01078800D02*
D03*
X01094400D02*
D03*
X01039000D02*
D03*
X01054600D02*
D03*
X00999200D02*
D03*
X01014800D02*
D03*
X00891800D02*
D03*
X00907400D02*
D03*
X00852000D02*
D03*
X00867600D02*
D03*
X00812200D02*
D03*
X00827800D02*
D03*
X01492600Y00762000D02*
D03*
X01508200D02*
D03*
X00931600Y00736000D02*
D03*
X00947200D02*
D03*
X01118600D02*
D03*
X01134200D02*
D03*
X01492600D02*
D03*
X01508200D02*
D03*
X01305600D02*
D03*
X01321200D02*
D03*
X01557800Y01193000D02*
D03*
X01542200D02*
D03*
X01557800Y01169000D02*
D03*
X01542200D02*
D03*
X01582200Y01140000D02*
D03*
X01597800D02*
D03*
X01582200Y01100000D02*
D03*
X01597800D02*
D03*
X01542200Y01067000D02*
D03*
X01557800D02*
D03*
X00998800Y00788000D02*
D03*
X00983200D02*
D03*
D21*
X01396600Y00840400D02*
D03*
X01409300D02*
D03*
X01422000D02*
D03*
X01434700D02*
D03*
X01447400D02*
D03*
X01460100D02*
D03*
X01472800D02*
D03*
X01485500D02*
D03*
Y00897900D02*
D03*
X01472800D02*
D03*
X01460100D02*
D03*
X01447400D02*
D03*
X01434700D02*
D03*
X01422000D02*
D03*
X01409300D02*
D03*
X01396600D02*
D03*
X00835600D02*
D03*
X00848300D02*
D03*
X00861000D02*
D03*
X00873700D02*
D03*
X00886400D02*
D03*
X00899100D02*
D03*
X00911800D02*
D03*
X00924500D02*
D03*
Y00840400D02*
D03*
X00911800D02*
D03*
X00899100D02*
D03*
X00886400D02*
D03*
X00873700D02*
D03*
X00861000D02*
D03*
X00848300D02*
D03*
X00835600D02*
D03*
X01022600Y00897900D02*
D03*
X01035300D02*
D03*
X01048000D02*
D03*
X01060700D02*
D03*
X01073400D02*
D03*
X01086100D02*
D03*
X01098800D02*
D03*
X01111500D02*
D03*
Y00840400D02*
D03*
X01098800D02*
D03*
X01086100D02*
D03*
X01073400D02*
D03*
X01060700D02*
D03*
X01048000D02*
D03*
X01035300D02*
D03*
X01022600D02*
D03*
X01209600Y00897900D02*
D03*
X01222300D02*
D03*
X01235000D02*
D03*
X01247700D02*
D03*
X01260400D02*
D03*
X01273100D02*
D03*
X01285800D02*
D03*
X01298500D02*
D03*
Y00840400D02*
D03*
X01285800D02*
D03*
X01273100D02*
D03*
X01260400D02*
D03*
X01247700D02*
D03*
X01235000D02*
D03*
X01222300D02*
D03*
X01209600D02*
D03*
D22*
X01106000Y01174000D02*
D03*
X01072000D02*
D03*
X01072000Y01098000D02*
D03*
X01106000D02*
D03*
D23*
X01442500Y01077000D02*
D03*
X01437500D02*
D03*
X01432500D02*
D03*
X01427500D02*
D03*
X01422500D02*
D03*
X01417500D02*
D03*
X01412500D02*
D03*
X01447500D02*
D03*
X01482500D02*
D03*
X01452500D02*
D03*
X01457500D02*
D03*
X01462500D02*
D03*
X01467500D02*
D03*
X01472500D02*
D03*
X01477500D02*
D03*
X01487500D02*
D03*
X01442500Y01193000D02*
D03*
X01437500D02*
D03*
X01432500D02*
D03*
X01427500D02*
D03*
X01422500D02*
D03*
X01417500D02*
D03*
X01412500D02*
D03*
X01447500D02*
D03*
X01452500D02*
D03*
X01457500D02*
D03*
X01462500D02*
D03*
X01467500D02*
D03*
X01472500D02*
D03*
X01477500D02*
D03*
X01482500D02*
D03*
X01487500D02*
D03*
D24*
X01392000Y01097500D02*
D03*
Y01102500D02*
D03*
Y01107500D02*
D03*
Y01112500D02*
D03*
Y01117500D02*
D03*
Y01122500D02*
D03*
Y01127500D02*
D03*
Y01132500D02*
D03*
Y01137500D02*
D03*
Y01142500D02*
D03*
Y01147500D02*
D03*
Y01152500D02*
D03*
Y01157500D02*
D03*
Y01162500D02*
D03*
Y01167500D02*
D03*
Y01172500D02*
D03*
X01508000Y01097500D02*
D03*
Y01102500D02*
D03*
Y01107500D02*
D03*
Y01112500D02*
D03*
Y01117500D02*
D03*
Y01122500D02*
D03*
Y01127500D02*
D03*
Y01132500D02*
D03*
Y01137500D02*
D03*
Y01142500D02*
D03*
Y01147500D02*
D03*
Y01152500D02*
D03*
Y01157500D02*
D03*
Y01162500D02*
D03*
Y01167500D02*
D03*
Y01172500D02*
D03*
D25*
X01550000Y01100000D02*
D03*
Y01140000D02*
D03*
D26*
X01182100Y01180301D02*
D03*
X01278100D02*
D03*
X01182100Y01091401D02*
D03*
X01278100Y01116801D02*
D03*
Y01129501D02*
D03*
Y01104101D02*
D03*
Y01167601D02*
D03*
X01182100Y01104101D02*
D03*
X01182100Y01116801D02*
D03*
X01182100Y01129501D02*
D03*
X01278100Y01154901D02*
D03*
Y01142201D02*
D03*
X01182100Y01167601D02*
D03*
Y01154901D02*
D03*
Y01142201D02*
D03*
D27*
X01278100Y01091401D02*
D03*
D28*
X01485625Y01030000D02*
D03*
X01414375D02*
D03*
D29*
X01549875Y00975000D02*
D03*
Y00938000D02*
D03*
D30*
X01595000Y00972500D02*
D03*
D31*
Y00946500D02*
D03*
M02*
