G04*
G04 #@! TF.GenerationSoftware,Altium Limited,Altium Designer,22.2.1 (43)*
G04*
G04 Layer_Color=16711935*
%FSAX44Y44*%
%MOMM*%
G71*
G04*
G04 #@! TF.SameCoordinates,097045FE-6C59-462F-8A7E-8FAF3A3C29C4*
G04*
G04*
G04 #@! TF.FilePolarity,Negative*
G04*
G01*
G75*
%ADD48C,2.1000*%
%ADD49C,1.6000*%
%ADD50C,1.6240*%
%ADD51C,5.9000*%
D48*
X00936000Y01189000D02*
D03*
Y01224000D02*
D03*
X01230100Y01293875D02*
D03*
Y01328875D02*
D03*
X01373750Y01328000D02*
D03*
X01399150D02*
D03*
X01449950D02*
D03*
X01500750D02*
D03*
D49*
X00625000Y01175000D02*
D03*
Y01150000D02*
D03*
Y01125000D02*
D03*
Y01100000D02*
D03*
Y01075000D02*
D03*
Y01050000D02*
D03*
Y01025000D02*
D03*
Y01000000D02*
D03*
Y00975000D02*
D03*
Y00950000D02*
D03*
Y00915000D02*
D03*
Y00878000D02*
D03*
X00600000Y01175000D02*
D03*
Y01150000D02*
D03*
Y01125000D02*
D03*
Y01100000D02*
D03*
Y01075000D02*
D03*
Y01050000D02*
D03*
Y01025000D02*
D03*
Y01000000D02*
D03*
Y00975000D02*
D03*
Y00950000D02*
D03*
Y00915000D02*
D03*
Y00878000D02*
D03*
X00575000Y01175000D02*
D03*
Y01150000D02*
D03*
Y01125000D02*
D03*
Y01100000D02*
D03*
Y01075000D02*
D03*
Y01050000D02*
D03*
Y01025000D02*
D03*
Y01000000D02*
D03*
Y00975000D02*
D03*
Y00950000D02*
D03*
Y00915000D02*
D03*
Y00878000D02*
D03*
X00650000D02*
D03*
Y00915000D02*
D03*
Y00950000D02*
D03*
Y01000000D02*
D03*
Y01025000D02*
D03*
Y01075000D02*
D03*
Y01100000D02*
D03*
Y01125000D02*
D03*
Y01150000D02*
D03*
Y01175000D02*
D03*
Y00975000D02*
D03*
Y01050000D02*
D03*
X01399200Y00975000D02*
D03*
X01424600D02*
D03*
X01450000D02*
D03*
X01475400D02*
D03*
X01500800D02*
D03*
D50*
X00621500Y01280500D02*
D03*
X00660000Y01239500D02*
D03*
Y00813500D02*
D03*
X00621500Y00772500D02*
D03*
D51*
X00540000Y01510000D02*
D03*
Y00540000D02*
D03*
X01940000D02*
D03*
Y01510000D02*
D03*
M02*
