G04*
G04 #@! TF.GenerationSoftware,Altium Limited,Altium Designer,22.2.1 (43)*
G04*
G04 Layer_Physical_Order=2*
G04 Layer_Color=16711680*
%FSLAX44Y44*%
%MOMM*%
G71*
G04*
G04 #@! TF.SameCoordinates,7A9A4B32-F866-4FC0-92F5-D822EF52183D*
G04*
G04*
G04 #@! TF.FilePolarity,Positive*
G04*
G01*
G75*
%ADD15C,0.3000*%
%ADD54C,0.5000*%
%ADD55C,0.2500*%
%ADD57C,2.8000*%
%ADD58C,4.0000*%
%ADD59C,5.8000*%
%ADD60C,2.5000*%
%ADD61C,3.0000*%
%ADD62C,2.0000*%
%ADD63C,1.5000*%
%ADD64C,1.2000*%
%ADD65C,0.6000*%
%ADD66C,1.0000*%
G36*
X2017322Y1136810D02*
X2022064Y1135540D01*
X2026600Y1133661D01*
X2030851Y1131206D01*
X2034746Y1128218D01*
X2038218Y1124746D01*
X2041206Y1120851D01*
X2043661Y1116600D01*
X2045540Y1112064D01*
X2046810Y1107322D01*
X2047451Y1102455D01*
Y1100000D01*
Y130000D01*
Y127545D01*
X2046810Y122678D01*
X2045540Y117936D01*
X2043661Y113400D01*
X2041206Y109149D01*
X2038218Y105254D01*
X2034746Y101782D01*
X2030851Y98794D01*
X2026600Y96339D01*
X2022064Y94460D01*
X2017322Y93190D01*
X2012455Y92549D01*
X607545D01*
X602678Y93190D01*
X597936Y94460D01*
X593400Y96339D01*
X589149Y98794D01*
X585254Y101782D01*
X581782Y105254D01*
X578794Y109149D01*
X576339Y113400D01*
X574460Y117936D01*
X573190Y122678D01*
X572549Y127545D01*
Y130000D01*
Y1100000D01*
Y1102455D01*
X573190Y1107322D01*
X574460Y1112064D01*
X576339Y1116600D01*
X578794Y1120851D01*
X581782Y1124746D01*
X585254Y1128218D01*
X589149Y1131206D01*
X593400Y1133661D01*
X597936Y1135540D01*
X602678Y1136810D01*
X607545Y1137451D01*
X2012455D01*
X2017322Y1136810D01*
D02*
G37*
%LPC*%
G36*
X2011270Y1130996D02*
Y1101270D01*
X2040996D01*
X2040713Y1104865D01*
X2039574Y1109609D01*
X2037707Y1114117D01*
X2035157Y1118278D01*
X2031988Y1121988D01*
X2028278Y1125157D01*
X2024117Y1127707D01*
X2019609Y1129574D01*
X2014864Y1130713D01*
X2011270Y1130996D01*
D02*
G37*
G36*
X2008730D02*
X2005135Y1130713D01*
X2000391Y1129574D01*
X1995883Y1127707D01*
X1991722Y1125157D01*
X1988012Y1121988D01*
X1984843Y1118278D01*
X1982293Y1114117D01*
X1980426Y1109609D01*
X1979287Y1104865D01*
X1979004Y1101270D01*
X2008730D01*
Y1130996D01*
D02*
G37*
G36*
X611270D02*
Y1101270D01*
X640996D01*
X640713Y1104865D01*
X639574Y1109609D01*
X637707Y1114117D01*
X635157Y1118278D01*
X631988Y1121988D01*
X628278Y1125157D01*
X624117Y1127707D01*
X619609Y1129574D01*
X614865Y1130713D01*
X611270Y1130996D01*
D02*
G37*
G36*
X608730D02*
X605135Y1130713D01*
X600391Y1129574D01*
X595883Y1127707D01*
X591722Y1125157D01*
X588012Y1121988D01*
X584843Y1118278D01*
X582293Y1114117D01*
X580426Y1109609D01*
X579287Y1104865D01*
X579004Y1101270D01*
X608730D01*
Y1130996D01*
D02*
G37*
G36*
X2040996Y1098730D02*
X2011270D01*
Y1069004D01*
X2014864Y1069287D01*
X2019609Y1070426D01*
X2024117Y1072293D01*
X2028278Y1074843D01*
X2031988Y1078012D01*
X2035157Y1081722D01*
X2037707Y1085883D01*
X2039574Y1090391D01*
X2040713Y1095136D01*
X2040996Y1098730D01*
D02*
G37*
G36*
X2008730D02*
X1979004D01*
X1979287Y1095136D01*
X1980426Y1090391D01*
X1982293Y1085883D01*
X1984843Y1081722D01*
X1988012Y1078012D01*
X1991722Y1074843D01*
X1995883Y1072293D01*
X2000391Y1070426D01*
X2005135Y1069287D01*
X2008730Y1069004D01*
Y1098730D01*
D02*
G37*
G36*
X640996D02*
X611270D01*
Y1069004D01*
X614865Y1069287D01*
X619609Y1070426D01*
X624117Y1072293D01*
X628278Y1074843D01*
X631988Y1078012D01*
X635157Y1081722D01*
X637707Y1085883D01*
X639574Y1090391D01*
X640713Y1095136D01*
X640996Y1098730D01*
D02*
G37*
G36*
X608730D02*
X579004D01*
X579287Y1095136D01*
X580426Y1090391D01*
X582293Y1085883D01*
X584843Y1081722D01*
X588012Y1078012D01*
X591722Y1074843D01*
X595883Y1072293D01*
X600391Y1070426D01*
X605135Y1069287D01*
X608730Y1069004D01*
Y1098730D01*
D02*
G37*
G36*
X1900000Y1016069D02*
X1897912Y1015794D01*
X1895966Y1014988D01*
X1894294Y1013706D01*
X1893012Y1012035D01*
X1892206Y1010088D01*
X1891931Y1008000D01*
X1892206Y1005912D01*
X1893012Y1003966D01*
X1894294Y1002294D01*
X1895966Y1001012D01*
X1897912Y1000206D01*
X1900000Y999931D01*
X1902088Y1000206D01*
X1904034Y1001012D01*
X1905706Y1002294D01*
X1906988Y1003966D01*
X1907794Y1005912D01*
X1908069Y1008000D01*
X1907794Y1010088D01*
X1906988Y1012035D01*
X1905706Y1013706D01*
X1904034Y1014988D01*
X1902088Y1015794D01*
X1900000Y1016069D01*
D02*
G37*
G36*
X1901270Y997902D02*
Y991270D01*
X1907902D01*
X1907794Y992088D01*
X1906988Y994035D01*
X1905706Y995706D01*
X1904034Y996988D01*
X1902088Y997794D01*
X1901270Y997902D01*
D02*
G37*
G36*
X1898730D02*
X1897912Y997794D01*
X1895966Y996988D01*
X1894294Y995706D01*
X1893012Y994035D01*
X1892206Y992088D01*
X1892098Y991270D01*
X1898730D01*
Y997902D01*
D02*
G37*
G36*
X914370Y997436D02*
Y986770D01*
X925036D01*
X924791Y988633D01*
X923582Y991552D01*
X921659Y994059D01*
X919152Y995982D01*
X916233Y997191D01*
X914370Y997436D01*
D02*
G37*
G36*
X911830D02*
X909967Y997191D01*
X907048Y995982D01*
X904542Y994059D01*
X902618Y991552D01*
X901409Y988633D01*
X901164Y986770D01*
X911830D01*
Y997436D01*
D02*
G37*
G36*
X1907902Y988730D02*
X1901270D01*
Y982098D01*
X1902088Y982206D01*
X1904034Y983012D01*
X1905706Y984294D01*
X1906988Y985965D01*
X1907794Y987912D01*
X1907902Y988730D01*
D02*
G37*
G36*
X1898730D02*
X1892098D01*
X1892206Y987912D01*
X1893012Y985965D01*
X1894294Y984294D01*
X1895966Y983012D01*
X1897912Y982206D01*
X1898730Y982098D01*
Y988730D01*
D02*
G37*
G36*
X925036Y984230D02*
X914370D01*
Y973564D01*
X916233Y973809D01*
X919152Y975018D01*
X921659Y976942D01*
X923582Y979448D01*
X924791Y982367D01*
X925036Y984230D01*
D02*
G37*
G36*
X911830D02*
X901164D01*
X901409Y982367D01*
X902618Y979448D01*
X904542Y976942D01*
X907048Y975018D01*
X909967Y973809D01*
X911830Y973564D01*
Y984230D01*
D02*
G37*
G36*
X1900000Y980069D02*
X1897912Y979794D01*
X1895966Y978988D01*
X1894294Y977706D01*
X1893012Y976034D01*
X1892206Y974088D01*
X1891931Y972000D01*
X1892206Y969912D01*
X1893012Y967965D01*
X1894294Y966294D01*
X1895966Y965012D01*
X1897912Y964206D01*
X1900000Y963931D01*
X1902088Y964206D01*
X1904034Y965012D01*
X1905706Y966294D01*
X1906988Y967965D01*
X1907794Y969912D01*
X1908069Y972000D01*
X1907794Y974088D01*
X1906988Y976034D01*
X1905706Y977706D01*
X1904034Y978988D01*
X1902088Y979794D01*
X1900000Y980069D01*
D02*
G37*
G36*
X913100Y962604D02*
X909967Y962191D01*
X907048Y960982D01*
X904542Y959059D01*
X902618Y956552D01*
X901409Y953633D01*
X900996Y950500D01*
X901409Y947367D01*
X902618Y944448D01*
X904542Y941942D01*
X907048Y940018D01*
X909967Y938809D01*
X913100Y938396D01*
X916233Y938809D01*
X919152Y940018D01*
X921659Y941942D01*
X923582Y944448D01*
X924791Y947367D01*
X925204Y950500D01*
X924791Y953633D01*
X923582Y956552D01*
X921659Y959059D01*
X919152Y960982D01*
X916233Y962191D01*
X913100Y962604D01*
D02*
G37*
G36*
X873170Y867458D02*
Y854270D01*
X886358D01*
X886027Y856785D01*
X884566Y860313D01*
X882242Y863342D01*
X879213Y865666D01*
X875685Y867127D01*
X873170Y867458D01*
D02*
G37*
G36*
X870630D02*
X868115Y867127D01*
X864587Y865666D01*
X861559Y863342D01*
X859234Y860313D01*
X857773Y856785D01*
X857442Y854270D01*
X870630D01*
Y867458D01*
D02*
G37*
G36*
X1900000Y866069D02*
X1897912Y865794D01*
X1895966Y864988D01*
X1894294Y863706D01*
X1893012Y862035D01*
X1892206Y860088D01*
X1891931Y858000D01*
X1892206Y855912D01*
X1893012Y853966D01*
X1894294Y852294D01*
X1895966Y851012D01*
X1897912Y850206D01*
X1900000Y849931D01*
X1902088Y850206D01*
X1904034Y851012D01*
X1905706Y852294D01*
X1906988Y853966D01*
X1907794Y855912D01*
X1908069Y858000D01*
X1907794Y860088D01*
X1906988Y862035D01*
X1905706Y863706D01*
X1904034Y864988D01*
X1902088Y865794D01*
X1900000Y866069D01*
D02*
G37*
G36*
X1901270Y847902D02*
Y841270D01*
X1907902D01*
X1907794Y842088D01*
X1906988Y844035D01*
X1905706Y845706D01*
X1904034Y846988D01*
X1902088Y847794D01*
X1901270Y847902D01*
D02*
G37*
G36*
X1898730D02*
X1897912Y847794D01*
X1895966Y846988D01*
X1894294Y845706D01*
X1893012Y844035D01*
X1892206Y842088D01*
X1892098Y841270D01*
X1898730D01*
Y847902D01*
D02*
G37*
G36*
X870630Y851730D02*
X857442D01*
X857773Y849215D01*
X859234Y845687D01*
X861559Y842658D01*
X864587Y840334D01*
X868115Y838873D01*
X870630Y838542D01*
Y851730D01*
D02*
G37*
G36*
X886358D02*
X873170D01*
Y838542D01*
X875685Y838873D01*
X879213Y840334D01*
X882242Y842658D01*
X884566Y845687D01*
X886027Y849215D01*
X886358Y851730D01*
D02*
G37*
G36*
X1024300Y867625D02*
X1020515Y867127D01*
X1016988Y865666D01*
X1013959Y863342D01*
X1011634Y860313D01*
X1010173Y856785D01*
X1009675Y853000D01*
X1010173Y849215D01*
X1011634Y845687D01*
X1013959Y842658D01*
X1016988Y840334D01*
X1020515Y838873D01*
X1024300Y838375D01*
X1028085Y838873D01*
X1031613Y840334D01*
X1034641Y842658D01*
X1036966Y845687D01*
X1038427Y849215D01*
X1038925Y853000D01*
X1038427Y856785D01*
X1036966Y860313D01*
X1034641Y863342D01*
X1031613Y865666D01*
X1028085Y867127D01*
X1024300Y867625D01*
D02*
G37*
G36*
X948100D02*
X944315Y867127D01*
X940788Y865666D01*
X937758Y863342D01*
X935434Y860313D01*
X933973Y856785D01*
X933475Y853000D01*
X933973Y849215D01*
X935434Y845687D01*
X937758Y842658D01*
X940788Y840334D01*
X944315Y838873D01*
X948100Y838375D01*
X951885Y838873D01*
X955413Y840334D01*
X958441Y842658D01*
X960766Y845687D01*
X962227Y849215D01*
X962725Y853000D01*
X962227Y856785D01*
X960766Y860313D01*
X958441Y863342D01*
X955413Y865666D01*
X951885Y867127D01*
X948100Y867625D01*
D02*
G37*
G36*
X1907902Y838730D02*
X1901270D01*
Y832098D01*
X1902088Y832206D01*
X1904034Y833012D01*
X1905706Y834294D01*
X1906988Y835965D01*
X1907794Y837912D01*
X1907902Y838730D01*
D02*
G37*
G36*
X1898730D02*
X1892098D01*
X1892206Y837912D01*
X1893012Y835965D01*
X1894294Y834294D01*
X1895966Y833012D01*
X1897912Y832206D01*
X1898730Y832098D01*
Y838730D01*
D02*
G37*
G36*
X645000Y865109D02*
X640589Y864674D01*
X636348Y863388D01*
X632439Y861299D01*
X629013Y858487D01*
X626201Y855061D01*
X624112Y851152D01*
X622826Y846911D01*
X622391Y842500D01*
X622826Y838089D01*
X624112Y833848D01*
X626201Y829939D01*
X629013Y826513D01*
X632439Y823701D01*
X636348Y821612D01*
X640589Y820325D01*
X645000Y819891D01*
X649411Y820325D01*
X653652Y821612D01*
X657561Y823701D01*
X660987Y826513D01*
X663799Y829939D01*
X665888Y833848D01*
X667174Y838089D01*
X667609Y842500D01*
X667174Y846911D01*
X665888Y851152D01*
X663799Y855061D01*
X660987Y858487D01*
X657561Y861299D01*
X653652Y863388D01*
X649411Y864674D01*
X645000Y865109D01*
D02*
G37*
G36*
X1900000Y830069D02*
X1897912Y829794D01*
X1895966Y828988D01*
X1894294Y827706D01*
X1893012Y826034D01*
X1892206Y824088D01*
X1891931Y822000D01*
X1892206Y819912D01*
X1893012Y817965D01*
X1894294Y816294D01*
X1895966Y815012D01*
X1897912Y814206D01*
X1900000Y813931D01*
X1902088Y814206D01*
X1904034Y815012D01*
X1905706Y816294D01*
X1906988Y817965D01*
X1907794Y819912D01*
X1908069Y822000D01*
X1907794Y824088D01*
X1906988Y826034D01*
X1905706Y827706D01*
X1904034Y828988D01*
X1902088Y829794D01*
X1900000Y830069D01*
D02*
G37*
G36*
X1380000Y782039D02*
X1170000Y782039D01*
X1170000Y782039D01*
X1169220Y781884D01*
X1168558Y781442D01*
X1156058Y768942D01*
X1155616Y768280D01*
X1155461Y767500D01*
X1155461Y655000D01*
X1155461Y655000D01*
X1155616Y654219D01*
X1156058Y653558D01*
X1156058Y653558D01*
X1168558Y641058D01*
X1168558Y641058D01*
X1169220Y640616D01*
X1170000Y640461D01*
X1380000D01*
X1380780Y640616D01*
X1381442Y641058D01*
X1381442Y641058D01*
X1393942Y653558D01*
X1394384Y654220D01*
X1394539Y655000D01*
X1394539Y767500D01*
X1394539Y767500D01*
X1394384Y768280D01*
X1393942Y768942D01*
X1381442Y781442D01*
X1380780Y781884D01*
X1380000Y782039D01*
D02*
G37*
G36*
X1555000Y811098D02*
X1553049Y810710D01*
X1551395Y809605D01*
X1550290Y807951D01*
X1549902Y806000D01*
X1549970Y805657D01*
X1527657Y783343D01*
X1526939Y782268D01*
X1526686Y781000D01*
Y698799D01*
X1526395Y698605D01*
X1525290Y696951D01*
X1524902Y695000D01*
X1525290Y693049D01*
X1526395Y691395D01*
X1526686Y691201D01*
Y641000D01*
X1526939Y639732D01*
X1527657Y638657D01*
X1534747Y631567D01*
X1535822Y630849D01*
X1537090Y630596D01*
X1694421D01*
X1694615Y630305D01*
X1696269Y629200D01*
X1698220Y628812D01*
X1698357Y628839D01*
X1698983Y627669D01*
X1650277Y578964D01*
X1648566D01*
X1647175Y580775D01*
X1645191Y582298D01*
X1642880Y583256D01*
X1640400Y583582D01*
X1637920Y583256D01*
X1635609Y582298D01*
X1633625Y580775D01*
X1632102Y578791D01*
X1631145Y576480D01*
X1630818Y574000D01*
X1631145Y571520D01*
X1632102Y569209D01*
X1633625Y567225D01*
X1635609Y565702D01*
X1637920Y564744D01*
X1640400Y564418D01*
X1642880Y564744D01*
X1645191Y565702D01*
X1647175Y567225D01*
X1648698Y569209D01*
X1649655Y571520D01*
X1649763Y572336D01*
X1651650D01*
X1652918Y572589D01*
X1653993Y573307D01*
X1655119Y574433D01*
X1656249Y573767D01*
X1656544Y571520D01*
X1657502Y569209D01*
X1659025Y567225D01*
X1661009Y565702D01*
X1663320Y564744D01*
X1664530Y564585D01*
Y574000D01*
X1665800D01*
Y575270D01*
X1675215D01*
X1675056Y576480D01*
X1674098Y578791D01*
X1672575Y580775D01*
X1670591Y582298D01*
X1668280Y583256D01*
X1666033Y583551D01*
X1665367Y584681D01*
X1707343Y626657D01*
X1708061Y627732D01*
X1708314Y629000D01*
Y641201D01*
X1708605Y641395D01*
X1709710Y643049D01*
X1710098Y645000D01*
X1709710Y646951D01*
X1708605Y648605D01*
X1706951Y649710D01*
X1705000Y650098D01*
X1703049Y649710D01*
X1702654Y649446D01*
X1701534Y650044D01*
Y761906D01*
X1734127D01*
X1735049Y761290D01*
X1737000Y760902D01*
X1738951Y761290D01*
X1740605Y762395D01*
X1741710Y764049D01*
X1742098Y766000D01*
X1741710Y767951D01*
X1740605Y769605D01*
X1738951Y770710D01*
X1737000Y771098D01*
X1735049Y770710D01*
X1733395Y769605D01*
X1732679Y768534D01*
X1699593D01*
X1671091Y797035D01*
X1670710Y798951D01*
X1669605Y800605D01*
X1667951Y801710D01*
X1666000Y802098D01*
X1664049Y801710D01*
X1662395Y800605D01*
X1661290Y798951D01*
X1660902Y797000D01*
X1661290Y795049D01*
X1662395Y793395D01*
X1664049Y792290D01*
X1666000Y791902D01*
X1666710Y792043D01*
X1694906Y763847D01*
Y637709D01*
X1694615Y637515D01*
X1694421Y637224D01*
X1538463D01*
X1533314Y642373D01*
Y691201D01*
X1533605Y691395D01*
X1534710Y693049D01*
X1535098Y695000D01*
X1534710Y696951D01*
X1533605Y698605D01*
X1533314Y698799D01*
Y779627D01*
X1554657Y800970D01*
X1555000Y800902D01*
X1556951Y801290D01*
X1558605Y802395D01*
X1559710Y804049D01*
X1560098Y806000D01*
X1559710Y807951D01*
X1558605Y809605D01*
X1556951Y810710D01*
X1555000Y811098D01*
D02*
G37*
G36*
X669600Y788577D02*
X666463Y788269D01*
X663447Y787354D01*
X660668Y785868D01*
X658232Y783868D01*
X656232Y781432D01*
X654746Y778652D01*
X653831Y775637D01*
X653523Y772500D01*
X653831Y769363D01*
X654746Y766347D01*
X656232Y763568D01*
X658232Y761132D01*
X660668Y759132D01*
X663447Y757646D01*
X666463Y756731D01*
X669600Y756423D01*
X672737Y756731D01*
X675753Y757646D01*
X678532Y759132D01*
X680968Y761132D01*
X682968Y763568D01*
X684454Y766347D01*
X685368Y769363D01*
X685677Y772500D01*
X685368Y775637D01*
X684454Y778652D01*
X682968Y781432D01*
X680968Y783868D01*
X678532Y785868D01*
X675753Y787354D01*
X672737Y788269D01*
X669600Y788577D01*
D02*
G37*
G36*
X634600D02*
X631464Y788269D01*
X628447Y787354D01*
X625668Y785868D01*
X623232Y783868D01*
X621232Y781432D01*
X619746Y778652D01*
X618831Y775637D01*
X618523Y772500D01*
X618831Y769363D01*
X619746Y766347D01*
X621232Y763568D01*
X623232Y761132D01*
X625668Y759132D01*
X628447Y757646D01*
X631464Y756731D01*
X634600Y756423D01*
X637737Y756731D01*
X640753Y757646D01*
X643532Y759132D01*
X645968Y761132D01*
X647968Y763568D01*
X649454Y766347D01*
X650368Y769363D01*
X650677Y772500D01*
X650368Y775637D01*
X649454Y778652D01*
X647968Y781432D01*
X645968Y783868D01*
X643532Y785868D01*
X640753Y787354D01*
X637737Y788269D01*
X634600Y788577D01*
D02*
G37*
G36*
X669600Y753577D02*
X666463Y753269D01*
X663447Y752354D01*
X660668Y750868D01*
X658232Y748868D01*
X656232Y746432D01*
X654746Y743653D01*
X653831Y740637D01*
X653523Y737500D01*
X653831Y734363D01*
X654746Y731347D01*
X656232Y728568D01*
X658232Y726132D01*
X660668Y724132D01*
X663447Y722646D01*
X666463Y721731D01*
X669600Y721423D01*
X672737Y721731D01*
X675753Y722646D01*
X678532Y724132D01*
X680968Y726132D01*
X682968Y728568D01*
X684454Y731347D01*
X685368Y734363D01*
X685677Y737500D01*
X685368Y740637D01*
X684454Y743653D01*
X682968Y746432D01*
X680968Y748868D01*
X678532Y750868D01*
X675753Y752354D01*
X672737Y753269D01*
X669600Y753577D01*
D02*
G37*
G36*
X634600D02*
X631464Y753269D01*
X628447Y752354D01*
X625668Y750868D01*
X623232Y748868D01*
X621232Y746432D01*
X619746Y743653D01*
X618831Y740637D01*
X618523Y737500D01*
X618831Y734363D01*
X619746Y731347D01*
X621232Y728568D01*
X623232Y726132D01*
X625668Y724132D01*
X628447Y722646D01*
X631464Y721731D01*
X634600Y721423D01*
X637737Y721731D01*
X640753Y722646D01*
X643532Y724132D01*
X645968Y726132D01*
X647968Y728568D01*
X649454Y731347D01*
X650368Y734363D01*
X650677Y737500D01*
X650368Y740637D01*
X649454Y743653D01*
X647968Y746432D01*
X645968Y748868D01*
X643532Y750868D01*
X640753Y752354D01*
X637737Y753269D01*
X634600Y753577D01*
D02*
G37*
G36*
X1900000Y716069D02*
X1897912Y715794D01*
X1895966Y714988D01*
X1894294Y713706D01*
X1893012Y712035D01*
X1892206Y710088D01*
X1891931Y708000D01*
X1892206Y705912D01*
X1893012Y703966D01*
X1894294Y702294D01*
X1895966Y701012D01*
X1897912Y700206D01*
X1900000Y699931D01*
X1902088Y700206D01*
X1904034Y701012D01*
X1905706Y702294D01*
X1906988Y703966D01*
X1907794Y705912D01*
X1908069Y708000D01*
X1907794Y710088D01*
X1906988Y712035D01*
X1905706Y713706D01*
X1904034Y714988D01*
X1902088Y715794D01*
X1900000Y716069D01*
D02*
G37*
G36*
X1901270Y697902D02*
Y691270D01*
X1907902D01*
X1907794Y692088D01*
X1906988Y694035D01*
X1905706Y695706D01*
X1904034Y696988D01*
X1902088Y697794D01*
X1901270Y697902D01*
D02*
G37*
G36*
X1898730D02*
X1897912Y697794D01*
X1895966Y696988D01*
X1894294Y695706D01*
X1893012Y694035D01*
X1892206Y692088D01*
X1892098Y691270D01*
X1898730D01*
Y697902D01*
D02*
G37*
G36*
X669600Y718577D02*
X666463Y718269D01*
X663447Y717354D01*
X660668Y715868D01*
X658232Y713868D01*
X656232Y711432D01*
X654746Y708653D01*
X653831Y705637D01*
X653523Y702500D01*
X653831Y699363D01*
X654746Y696347D01*
X656232Y693568D01*
X658232Y691132D01*
X660668Y689132D01*
X663447Y687646D01*
X666463Y686731D01*
X669600Y686423D01*
X672737Y686731D01*
X675753Y687646D01*
X678532Y689132D01*
X680968Y691132D01*
X682968Y693568D01*
X684454Y696347D01*
X685368Y699363D01*
X685677Y702500D01*
X685368Y705637D01*
X684454Y708653D01*
X682968Y711432D01*
X680968Y713868D01*
X678532Y715868D01*
X675753Y717354D01*
X672737Y718269D01*
X669600Y718577D01*
D02*
G37*
G36*
X634600D02*
X631464Y718269D01*
X628447Y717354D01*
X625668Y715868D01*
X623232Y713868D01*
X621232Y711432D01*
X619746Y708653D01*
X618831Y705637D01*
X618523Y702500D01*
X618831Y699363D01*
X619746Y696347D01*
X621232Y693568D01*
X623232Y691132D01*
X625668Y689132D01*
X628447Y687646D01*
X631464Y686731D01*
X634600Y686423D01*
X637737Y686731D01*
X640753Y687646D01*
X643532Y689132D01*
X645968Y691132D01*
X647968Y693568D01*
X649454Y696347D01*
X650368Y699363D01*
X650677Y702500D01*
X650368Y705637D01*
X649454Y708653D01*
X647968Y711432D01*
X645968Y713868D01*
X643532Y715868D01*
X640753Y717354D01*
X637737Y718269D01*
X634600Y718577D01*
D02*
G37*
G36*
X1907902Y688730D02*
X1901270D01*
Y682098D01*
X1902088Y682206D01*
X1904034Y683012D01*
X1905706Y684294D01*
X1906988Y685965D01*
X1907794Y687912D01*
X1907902Y688730D01*
D02*
G37*
G36*
X1898730D02*
X1892098D01*
X1892206Y687912D01*
X1893012Y685965D01*
X1894294Y684294D01*
X1895966Y683012D01*
X1897912Y682206D01*
X1898730Y682098D01*
Y688730D01*
D02*
G37*
G36*
X1900000Y680069D02*
X1897912Y679794D01*
X1895966Y678988D01*
X1894294Y677706D01*
X1893012Y676034D01*
X1892206Y674088D01*
X1891931Y672000D01*
X1892206Y669912D01*
X1893012Y667965D01*
X1894294Y666294D01*
X1895966Y665012D01*
X1897912Y664206D01*
X1900000Y663931D01*
X1902088Y664206D01*
X1904034Y665012D01*
X1905706Y666294D01*
X1906988Y667965D01*
X1907794Y669912D01*
X1908069Y672000D01*
X1907794Y674088D01*
X1906988Y676034D01*
X1905706Y677706D01*
X1904034Y678988D01*
X1902088Y679794D01*
X1900000Y680069D01*
D02*
G37*
G36*
X669600Y683577D02*
X666463Y683269D01*
X663447Y682354D01*
X660668Y680868D01*
X658232Y678868D01*
X656232Y676432D01*
X654746Y673653D01*
X653831Y670637D01*
X653523Y667500D01*
X653831Y664363D01*
X654746Y661347D01*
X656232Y658568D01*
X658232Y656132D01*
X660668Y654132D01*
X663447Y652646D01*
X666463Y651731D01*
X669600Y651423D01*
X672737Y651731D01*
X675753Y652646D01*
X678532Y654132D01*
X680968Y656132D01*
X682968Y658568D01*
X684454Y661347D01*
X685368Y664363D01*
X685677Y667500D01*
X685368Y670637D01*
X684454Y673653D01*
X682968Y676432D01*
X680968Y678868D01*
X678532Y680868D01*
X675753Y682354D01*
X672737Y683269D01*
X669600Y683577D01*
D02*
G37*
G36*
X634600D02*
X631464Y683269D01*
X628447Y682354D01*
X625668Y680868D01*
X623232Y678868D01*
X621232Y676432D01*
X619746Y673653D01*
X618831Y670637D01*
X618523Y667500D01*
X618831Y664363D01*
X619746Y661347D01*
X621232Y658568D01*
X623232Y656132D01*
X625668Y654132D01*
X628447Y652646D01*
X631464Y651731D01*
X634600Y651423D01*
X637737Y651731D01*
X640753Y652646D01*
X643532Y654132D01*
X645968Y656132D01*
X647968Y658568D01*
X649454Y661347D01*
X650368Y664363D01*
X650677Y667500D01*
X650368Y670637D01*
X649454Y673653D01*
X647968Y676432D01*
X645968Y678868D01*
X643532Y680868D01*
X640753Y682354D01*
X637737Y683269D01*
X634600Y683577D01*
D02*
G37*
G36*
X1633000Y656098D02*
X1631049Y655710D01*
X1629395Y654605D01*
X1628290Y652951D01*
X1627902Y651000D01*
X1627970Y650657D01*
X1626628Y649314D01*
X1547799D01*
X1547605Y649605D01*
X1545951Y650710D01*
X1544000Y651098D01*
X1542049Y650710D01*
X1540395Y649605D01*
X1539290Y647951D01*
X1538902Y646000D01*
X1539290Y644049D01*
X1540395Y642395D01*
X1542049Y641290D01*
X1544000Y640902D01*
X1545951Y641290D01*
X1547605Y642395D01*
X1547799Y642686D01*
X1628000D01*
X1629268Y642939D01*
X1630343Y643657D01*
X1632657Y645970D01*
X1633000Y645902D01*
X1634951Y646290D01*
X1636605Y647395D01*
X1637710Y649049D01*
X1638098Y651000D01*
X1637710Y652951D01*
X1636605Y654605D01*
X1634951Y655710D01*
X1633000Y656098D01*
D02*
G37*
G36*
X670870Y648452D02*
Y633770D01*
X685552D01*
X685368Y635636D01*
X684454Y638652D01*
X682968Y641432D01*
X680968Y643868D01*
X678532Y645868D01*
X675753Y647354D01*
X672737Y648269D01*
X670870Y648452D01*
D02*
G37*
G36*
X668330Y648452D02*
X666463Y648269D01*
X663447Y647354D01*
X660668Y645868D01*
X658232Y643868D01*
X656232Y641432D01*
X654746Y638652D01*
X653831Y635636D01*
X653648Y633770D01*
X668330D01*
Y648452D01*
D02*
G37*
G36*
Y631230D02*
X653648D01*
X653831Y629363D01*
X654746Y626347D01*
X656232Y623568D01*
X658232Y621132D01*
X660668Y619132D01*
X663447Y617646D01*
X666463Y616731D01*
X668330Y616548D01*
Y631230D01*
D02*
G37*
G36*
X685552D02*
X670870D01*
Y616548D01*
X672737Y616731D01*
X675753Y617646D01*
X678532Y619132D01*
X680968Y621132D01*
X682968Y623568D01*
X684454Y626347D01*
X685368Y629363D01*
X685552Y631230D01*
D02*
G37*
G36*
X634600Y648577D02*
X631464Y648269D01*
X628447Y647354D01*
X625668Y645868D01*
X623232Y643868D01*
X621232Y641432D01*
X619746Y638652D01*
X618831Y635636D01*
X618523Y632500D01*
X618831Y629363D01*
X619746Y626347D01*
X621232Y623568D01*
X623232Y621132D01*
X625668Y619132D01*
X628447Y617646D01*
X631464Y616731D01*
X634600Y616423D01*
X637737Y616731D01*
X640753Y617646D01*
X643532Y619132D01*
X645968Y621132D01*
X647968Y623568D01*
X649454Y626347D01*
X650368Y629363D01*
X650677Y632500D01*
X650368Y635636D01*
X649454Y638652D01*
X647968Y641432D01*
X645968Y643868D01*
X643532Y645868D01*
X640753Y647354D01*
X637737Y648269D01*
X634600Y648577D01*
D02*
G37*
G36*
X1377500Y594539D02*
X1167500Y594539D01*
X1167500Y594539D01*
X1166720Y594384D01*
X1166058Y593942D01*
X1153558Y581442D01*
X1153116Y580780D01*
X1152961Y580000D01*
X1152961Y467500D01*
X1152961Y467500D01*
X1153116Y466719D01*
X1153558Y466058D01*
X1153558Y466058D01*
X1166058Y453558D01*
X1166058Y453558D01*
X1166720Y453116D01*
X1167500Y452961D01*
X1377500D01*
X1378280Y453116D01*
X1378942Y453558D01*
X1378942Y453558D01*
X1391442Y466058D01*
X1391884Y466720D01*
X1392039Y467500D01*
X1392039Y580000D01*
X1392039Y580000D01*
X1391884Y580780D01*
X1391442Y581442D01*
X1378942Y593942D01*
X1378280Y594384D01*
X1377500Y594539D01*
D02*
G37*
G36*
X669600Y613577D02*
X666463Y613269D01*
X663447Y612354D01*
X660668Y610868D01*
X658232Y608868D01*
X656232Y606432D01*
X654746Y603653D01*
X653831Y600636D01*
X653523Y597500D01*
X653831Y594364D01*
X654746Y591347D01*
X656232Y588568D01*
X658232Y586132D01*
X660668Y584132D01*
X663447Y582646D01*
X666463Y581731D01*
X669600Y581423D01*
X672737Y581731D01*
X675753Y582646D01*
X678532Y584132D01*
X680968Y586132D01*
X682968Y588568D01*
X684454Y591347D01*
X685368Y594364D01*
X685677Y597500D01*
X685368Y600636D01*
X684454Y603653D01*
X682968Y606432D01*
X680968Y608868D01*
X678532Y610868D01*
X675753Y612354D01*
X672737Y613269D01*
X669600Y613577D01*
D02*
G37*
G36*
X634600D02*
X631464Y613269D01*
X628447Y612354D01*
X625668Y610868D01*
X623232Y608868D01*
X621232Y606432D01*
X619746Y603653D01*
X618831Y600636D01*
X618523Y597500D01*
X618831Y594364D01*
X619746Y591347D01*
X621232Y588568D01*
X623232Y586132D01*
X625668Y584132D01*
X628447Y582646D01*
X631464Y581731D01*
X634600Y581423D01*
X637737Y581731D01*
X640753Y582646D01*
X643532Y584132D01*
X645968Y586132D01*
X647968Y588568D01*
X649454Y591347D01*
X650368Y594364D01*
X650677Y597500D01*
X650368Y600636D01*
X649454Y603653D01*
X647968Y606432D01*
X645968Y608868D01*
X643532Y610868D01*
X640753Y612354D01*
X637737Y613269D01*
X634600Y613577D01*
D02*
G37*
G36*
X1675215Y572730D02*
X1667070D01*
Y564585D01*
X1668280Y564744D01*
X1670591Y565702D01*
X1672575Y567225D01*
X1674098Y569209D01*
X1675056Y571520D01*
X1675215Y572730D01*
D02*
G37*
G36*
X1615000Y583582D02*
X1612520Y583256D01*
X1610209Y582298D01*
X1608224Y580775D01*
X1606702Y578791D01*
X1605744Y576480D01*
X1605418Y574000D01*
X1605744Y571520D01*
X1606702Y569209D01*
X1608224Y567225D01*
X1610209Y565702D01*
X1612520Y564744D01*
X1615000Y564418D01*
X1617480Y564744D01*
X1619791Y565702D01*
X1621775Y567225D01*
X1623298Y569209D01*
X1624256Y571520D01*
X1624582Y574000D01*
X1624256Y576480D01*
X1623298Y578791D01*
X1621775Y580775D01*
X1619791Y582298D01*
X1617480Y583256D01*
X1615000Y583582D01*
D02*
G37*
G36*
X1589600D02*
X1587120Y583256D01*
X1584809Y582298D01*
X1582825Y580775D01*
X1581302Y578791D01*
X1580345Y576480D01*
X1580018Y574000D01*
X1580345Y571520D01*
X1581302Y569209D01*
X1582825Y567225D01*
X1584809Y565702D01*
X1587120Y564744D01*
X1589600Y564418D01*
X1592080Y564744D01*
X1594391Y565702D01*
X1596375Y567225D01*
X1597898Y569209D01*
X1598855Y571520D01*
X1599182Y574000D01*
X1598855Y576480D01*
X1597898Y578791D01*
X1596375Y580775D01*
X1594391Y582298D01*
X1592080Y583256D01*
X1589600Y583582D01*
D02*
G37*
G36*
X1564200D02*
X1561720Y583256D01*
X1559409Y582298D01*
X1557424Y580775D01*
X1555902Y578791D01*
X1554944Y576480D01*
X1554618Y574000D01*
X1554944Y571520D01*
X1555902Y569209D01*
X1557424Y567225D01*
X1559409Y565702D01*
X1561720Y564744D01*
X1564200Y564418D01*
X1566680Y564744D01*
X1568991Y565702D01*
X1570975Y567225D01*
X1572498Y569209D01*
X1573456Y571520D01*
X1573782Y574000D01*
X1573456Y576480D01*
X1572498Y578791D01*
X1570975Y580775D01*
X1568991Y582298D01*
X1566680Y583256D01*
X1564200Y583582D01*
D02*
G37*
G36*
X1900000Y566069D02*
X1897912Y565794D01*
X1895966Y564988D01*
X1894294Y563706D01*
X1893012Y562034D01*
X1892206Y560088D01*
X1891931Y558000D01*
X1892206Y555912D01*
X1893012Y553965D01*
X1894294Y552294D01*
X1895966Y551012D01*
X1897912Y550206D01*
X1900000Y549931D01*
X1902088Y550206D01*
X1904034Y551012D01*
X1905706Y552294D01*
X1906988Y553965D01*
X1907794Y555912D01*
X1908069Y558000D01*
X1907794Y560088D01*
X1906988Y562034D01*
X1905706Y563706D01*
X1904034Y564988D01*
X1902088Y565794D01*
X1900000Y566069D01*
D02*
G37*
G36*
X669600Y578577D02*
X666463Y578269D01*
X663447Y577354D01*
X660668Y575868D01*
X658232Y573868D01*
X656232Y571432D01*
X654746Y568653D01*
X653831Y565636D01*
X653523Y562500D01*
X653831Y559363D01*
X654746Y556347D01*
X656232Y553568D01*
X658232Y551132D01*
X660668Y549132D01*
X663447Y547646D01*
X666463Y546731D01*
X669600Y546423D01*
X672737Y546731D01*
X675753Y547646D01*
X678532Y549132D01*
X680968Y551132D01*
X682968Y553568D01*
X684454Y556347D01*
X685368Y559363D01*
X685677Y562500D01*
X685368Y565636D01*
X684454Y568653D01*
X682968Y571432D01*
X680968Y573868D01*
X678532Y575868D01*
X675753Y577354D01*
X672737Y578269D01*
X669600Y578577D01*
D02*
G37*
G36*
X634600D02*
X631464Y578269D01*
X628447Y577354D01*
X625668Y575868D01*
X623232Y573868D01*
X621232Y571432D01*
X619746Y568653D01*
X618831Y565636D01*
X618523Y562500D01*
X618831Y559363D01*
X619746Y556347D01*
X621232Y553568D01*
X623232Y551132D01*
X625668Y549132D01*
X628447Y547646D01*
X631464Y546731D01*
X634600Y546423D01*
X637737Y546731D01*
X640753Y547646D01*
X643532Y549132D01*
X645968Y551132D01*
X647968Y553568D01*
X649454Y556347D01*
X650368Y559363D01*
X650677Y562500D01*
X650368Y565636D01*
X649454Y568653D01*
X647968Y571432D01*
X645968Y573868D01*
X643532Y575868D01*
X640753Y577354D01*
X637737Y578269D01*
X634600Y578577D01*
D02*
G37*
G36*
X1901270Y547902D02*
Y541270D01*
X1907902D01*
X1907794Y542088D01*
X1906988Y544035D01*
X1905706Y545706D01*
X1904034Y546988D01*
X1902088Y547794D01*
X1901270Y547902D01*
D02*
G37*
G36*
X1898730D02*
X1897912Y547794D01*
X1895966Y546988D01*
X1894294Y545706D01*
X1893012Y544035D01*
X1892206Y542088D01*
X1892098Y541270D01*
X1898730D01*
Y547902D01*
D02*
G37*
G36*
X1907902Y538730D02*
X1901270D01*
Y532098D01*
X1902088Y532206D01*
X1904034Y533012D01*
X1905706Y534294D01*
X1906988Y535965D01*
X1907794Y537912D01*
X1907902Y538730D01*
D02*
G37*
G36*
X1898730D02*
X1892098D01*
X1892206Y537912D01*
X1893012Y535965D01*
X1894294Y534294D01*
X1895966Y533012D01*
X1897912Y532206D01*
X1898730Y532098D01*
Y538730D01*
D02*
G37*
G36*
X1900000Y530069D02*
X1897912Y529794D01*
X1895966Y528988D01*
X1894294Y527706D01*
X1893012Y526035D01*
X1892206Y524088D01*
X1891931Y522000D01*
X1892206Y519912D01*
X1893012Y517966D01*
X1894294Y516294D01*
X1895966Y515012D01*
X1897912Y514206D01*
X1900000Y513931D01*
X1902088Y514206D01*
X1904034Y515012D01*
X1905706Y516294D01*
X1906988Y517966D01*
X1907794Y519912D01*
X1908069Y522000D01*
X1907794Y524088D01*
X1906988Y526035D01*
X1905706Y527706D01*
X1904034Y528988D01*
X1902088Y529794D01*
X1900000Y530069D01*
D02*
G37*
G36*
X669600Y543577D02*
X666463Y543269D01*
X663447Y542354D01*
X660668Y540868D01*
X658232Y538868D01*
X656232Y536432D01*
X654746Y533653D01*
X653831Y530636D01*
X653523Y527500D01*
X653831Y524363D01*
X654746Y521347D01*
X656232Y518568D01*
X658232Y516132D01*
X660668Y514132D01*
X663447Y512646D01*
X666463Y511731D01*
X669600Y511423D01*
X672737Y511731D01*
X675753Y512646D01*
X678532Y514132D01*
X680968Y516132D01*
X682968Y518568D01*
X684454Y521347D01*
X685368Y524363D01*
X685677Y527500D01*
X685368Y530636D01*
X684454Y533653D01*
X682968Y536432D01*
X680968Y538868D01*
X678532Y540868D01*
X675753Y542354D01*
X672737Y543269D01*
X669600Y543577D01*
D02*
G37*
G36*
X634600D02*
X631464Y543269D01*
X628447Y542354D01*
X625668Y540868D01*
X623232Y538868D01*
X621232Y536432D01*
X619746Y533653D01*
X618831Y530636D01*
X618523Y527500D01*
X618831Y524363D01*
X619746Y521347D01*
X621232Y518568D01*
X623232Y516132D01*
X625668Y514132D01*
X628447Y512646D01*
X631464Y511731D01*
X634600Y511423D01*
X637737Y511731D01*
X640753Y512646D01*
X643532Y514132D01*
X645968Y516132D01*
X647968Y518568D01*
X649454Y521347D01*
X650368Y524363D01*
X650677Y527500D01*
X650368Y530636D01*
X649454Y533653D01*
X647968Y536432D01*
X645968Y538868D01*
X643532Y540868D01*
X640753Y542354D01*
X637737Y543269D01*
X634600Y543577D01*
D02*
G37*
G36*
X670870Y508452D02*
Y493770D01*
X685552D01*
X685368Y495636D01*
X684454Y498652D01*
X682968Y501432D01*
X680968Y503868D01*
X678532Y505868D01*
X675753Y507354D01*
X672737Y508269D01*
X670870Y508452D01*
D02*
G37*
G36*
X668330Y508452D02*
X666463Y508269D01*
X663447Y507354D01*
X660668Y505868D01*
X658232Y503868D01*
X656232Y501432D01*
X654746Y498652D01*
X653831Y495636D01*
X653648Y493770D01*
X668330D01*
Y508452D01*
D02*
G37*
G36*
Y491230D02*
X653648D01*
X653831Y489363D01*
X654746Y486347D01*
X656232Y483568D01*
X658232Y481132D01*
X660668Y479132D01*
X663447Y477646D01*
X666463Y476731D01*
X668330Y476548D01*
Y491230D01*
D02*
G37*
G36*
X685552D02*
X670870D01*
Y476548D01*
X672737Y476731D01*
X675753Y477646D01*
X678532Y479132D01*
X680968Y481132D01*
X682968Y483568D01*
X684454Y486347D01*
X685368Y489363D01*
X685552Y491230D01*
D02*
G37*
G36*
X634600Y508577D02*
X631464Y508269D01*
X628447Y507354D01*
X625668Y505868D01*
X623232Y503868D01*
X621232Y501432D01*
X619746Y498652D01*
X618831Y495636D01*
X618523Y492500D01*
X618831Y489363D01*
X619746Y486347D01*
X621232Y483568D01*
X623232Y481132D01*
X625668Y479132D01*
X628447Y477646D01*
X631464Y476731D01*
X634600Y476423D01*
X637737Y476731D01*
X640753Y477646D01*
X643532Y479132D01*
X645968Y481132D01*
X647968Y483568D01*
X649454Y486347D01*
X650368Y489363D01*
X650677Y492500D01*
X650368Y495636D01*
X649454Y498652D01*
X647968Y501432D01*
X645968Y503868D01*
X643532Y505868D01*
X640753Y507354D01*
X637737Y508269D01*
X634600Y508577D01*
D02*
G37*
G36*
X635870Y473452D02*
Y458770D01*
X650552D01*
X650368Y460636D01*
X649454Y463653D01*
X647968Y466432D01*
X645968Y468868D01*
X643532Y470868D01*
X640753Y472354D01*
X637737Y473269D01*
X635870Y473452D01*
D02*
G37*
G36*
X633330Y473452D02*
X631464Y473269D01*
X628447Y472354D01*
X625668Y470868D01*
X623232Y468868D01*
X621232Y466432D01*
X619746Y463653D01*
X618831Y460636D01*
X618648Y458770D01*
X633330D01*
Y473452D01*
D02*
G37*
G36*
Y456230D02*
X618648D01*
X618831Y454364D01*
X619746Y451347D01*
X621232Y448568D01*
X623232Y446132D01*
X625668Y444132D01*
X628447Y442646D01*
X631464Y441731D01*
X633330Y441548D01*
Y456230D01*
D02*
G37*
G36*
X650552D02*
X635870D01*
Y441548D01*
X637737Y441731D01*
X640753Y442646D01*
X643532Y444132D01*
X645968Y446132D01*
X647968Y448568D01*
X649454Y451347D01*
X650368Y454364D01*
X650552Y456230D01*
D02*
G37*
G36*
X669600Y473577D02*
X666463Y473269D01*
X663447Y472354D01*
X660668Y470868D01*
X658232Y468868D01*
X656232Y466432D01*
X654746Y463653D01*
X653831Y460636D01*
X653523Y457500D01*
X653831Y454364D01*
X654746Y451347D01*
X656232Y448568D01*
X658232Y446132D01*
X660668Y444132D01*
X663447Y442646D01*
X666463Y441731D01*
X669600Y441423D01*
X672737Y441731D01*
X675753Y442646D01*
X678532Y444132D01*
X680968Y446132D01*
X682968Y448568D01*
X684454Y451347D01*
X685368Y454364D01*
X685677Y457500D01*
X685368Y460636D01*
X684454Y463653D01*
X682968Y466432D01*
X680968Y468868D01*
X678532Y470868D01*
X675753Y472354D01*
X672737Y473269D01*
X669600Y473577D01*
D02*
G37*
G36*
X1900000Y416069D02*
X1897912Y415794D01*
X1895966Y414988D01*
X1894294Y413706D01*
X1893012Y412034D01*
X1892206Y410088D01*
X1891931Y408000D01*
X1892206Y405912D01*
X1893012Y403965D01*
X1894294Y402294D01*
X1895966Y401012D01*
X1897912Y400206D01*
X1900000Y399931D01*
X1902088Y400206D01*
X1904034Y401012D01*
X1905706Y402294D01*
X1906988Y403965D01*
X1907794Y405912D01*
X1908069Y408000D01*
X1907794Y410088D01*
X1906988Y412034D01*
X1905706Y413706D01*
X1904034Y414988D01*
X1902088Y415794D01*
X1900000Y416069D01*
D02*
G37*
G36*
X1503000Y657060D02*
X1501173Y656820D01*
X1499470Y656115D01*
X1498008Y654992D01*
X1496886Y653530D01*
X1496180Y651827D01*
X1495940Y650000D01*
X1496180Y648173D01*
X1496886Y646470D01*
X1498008Y645007D01*
X1498412Y644697D01*
Y576000D01*
X1498761Y574244D01*
X1499756Y572756D01*
X1560011Y512501D01*
Y408204D01*
X1559606Y407894D01*
X1558484Y406432D01*
X1557779Y404729D01*
X1557538Y402901D01*
X1557779Y401074D01*
X1558484Y399371D01*
X1559606Y397909D01*
X1561069Y396787D01*
X1562771Y396082D01*
X1564599Y395841D01*
X1566426Y396082D01*
X1568129Y396787D01*
X1569591Y397909D01*
X1570713Y399371D01*
X1571418Y401074D01*
X1571659Y402901D01*
X1571418Y404729D01*
X1570713Y406432D01*
X1569591Y407894D01*
X1569187Y408204D01*
Y514401D01*
X1568838Y516157D01*
X1567843Y517646D01*
X1507588Y577901D01*
Y644697D01*
X1507992Y645007D01*
X1509115Y646470D01*
X1509820Y648173D01*
X1510060Y650000D01*
X1509820Y651827D01*
X1509115Y653530D01*
X1507992Y654992D01*
X1506530Y656115D01*
X1504827Y656820D01*
X1503000Y657060D01*
D02*
G37*
G36*
X1901270Y397902D02*
Y391270D01*
X1907902D01*
X1907794Y392088D01*
X1906988Y394035D01*
X1905706Y395706D01*
X1904034Y396988D01*
X1902088Y397794D01*
X1901270Y397902D01*
D02*
G37*
G36*
X1898730D02*
X1897912Y397794D01*
X1895966Y396988D01*
X1894294Y395706D01*
X1893012Y394035D01*
X1892206Y392088D01*
X1892098Y391270D01*
X1898730D01*
Y397902D01*
D02*
G37*
G36*
X1907902Y388730D02*
X1901270D01*
Y382098D01*
X1902088Y382206D01*
X1904034Y383012D01*
X1905706Y384294D01*
X1906988Y385965D01*
X1907794Y387912D01*
X1907902Y388730D01*
D02*
G37*
G36*
X1898730D02*
X1892098D01*
X1892206Y387912D01*
X1893012Y385965D01*
X1894294Y384294D01*
X1895966Y383012D01*
X1897912Y382206D01*
X1898730Y382098D01*
Y388730D01*
D02*
G37*
G36*
X645000Y410109D02*
X640589Y409674D01*
X636348Y408388D01*
X632439Y406298D01*
X629013Y403487D01*
X626201Y400061D01*
X624112Y396152D01*
X622826Y391911D01*
X622391Y387500D01*
X622826Y383089D01*
X624112Y378848D01*
X626201Y374939D01*
X629013Y371513D01*
X632439Y368701D01*
X636348Y366612D01*
X640589Y365326D01*
X645000Y364891D01*
X649411Y365326D01*
X653652Y366612D01*
X657561Y368701D01*
X660987Y371513D01*
X663799Y374939D01*
X665888Y378848D01*
X667174Y383089D01*
X667609Y387500D01*
X667174Y391911D01*
X665888Y396152D01*
X663799Y400061D01*
X660987Y403487D01*
X657561Y406298D01*
X653652Y408388D01*
X649411Y409674D01*
X645000Y410109D01*
D02*
G37*
G36*
X1900000Y380069D02*
X1897912Y379794D01*
X1895966Y378988D01*
X1894294Y377706D01*
X1893012Y376035D01*
X1892206Y374088D01*
X1891931Y372000D01*
X1892206Y369912D01*
X1893012Y367966D01*
X1894294Y366294D01*
X1895966Y365012D01*
X1897912Y364206D01*
X1900000Y363931D01*
X1902088Y364206D01*
X1904034Y365012D01*
X1905706Y366294D01*
X1906988Y367966D01*
X1907794Y369912D01*
X1908069Y372000D01*
X1907794Y374088D01*
X1906988Y376035D01*
X1905706Y377706D01*
X1904034Y378988D01*
X1902088Y379794D01*
X1900000Y380069D01*
D02*
G37*
G36*
X911270Y359458D02*
Y346270D01*
X924458D01*
X924127Y348785D01*
X922666Y352313D01*
X920341Y355341D01*
X917313Y357666D01*
X913785Y359127D01*
X911270Y359458D01*
D02*
G37*
G36*
X873170Y361957D02*
Y346270D01*
X888857D01*
X888654Y348333D01*
X887682Y351537D01*
X886103Y354490D01*
X883979Y357079D01*
X881390Y359203D01*
X878437Y360782D01*
X875233Y361754D01*
X873170Y361957D01*
D02*
G37*
G36*
X908730Y359458D02*
X906215Y359127D01*
X902688Y357666D01*
X899659Y355341D01*
X897334Y352313D01*
X895873Y348785D01*
X895542Y346270D01*
X908730D01*
Y359458D01*
D02*
G37*
G36*
X870630Y361957D02*
X868567Y361754D01*
X865363Y360782D01*
X862410Y359203D01*
X859821Y357079D01*
X857697Y354490D01*
X856118Y351537D01*
X855146Y348333D01*
X854943Y346270D01*
X870630D01*
Y361957D01*
D02*
G37*
G36*
X924458Y343730D02*
X911270D01*
Y330542D01*
X913785Y330873D01*
X917313Y332334D01*
X920341Y334659D01*
X922666Y337687D01*
X924127Y341215D01*
X924458Y343730D01*
D02*
G37*
G36*
X908730D02*
X895542D01*
X895873Y341215D01*
X897334Y337687D01*
X899659Y334659D01*
X902688Y332334D01*
X906215Y330873D01*
X908730Y330542D01*
Y343730D01*
D02*
G37*
G36*
X986200Y359625D02*
X982415Y359127D01*
X978887Y357666D01*
X975859Y355341D01*
X973534Y352313D01*
X972073Y348785D01*
X971575Y345000D01*
X972073Y341215D01*
X973534Y337687D01*
X975859Y334659D01*
X978887Y332334D01*
X982415Y330873D01*
X986200Y330375D01*
X989985Y330873D01*
X993513Y332334D01*
X996542Y334659D01*
X998866Y337687D01*
X1000327Y341215D01*
X1000825Y345000D01*
X1000327Y348785D01*
X998866Y352313D01*
X996542Y355341D01*
X993513Y357666D01*
X989985Y359127D01*
X986200Y359625D01*
D02*
G37*
G36*
X948100D02*
X944315Y359127D01*
X940788Y357666D01*
X937758Y355341D01*
X935434Y352313D01*
X933973Y348785D01*
X933475Y345000D01*
X933973Y341215D01*
X935434Y337687D01*
X937758Y334659D01*
X940788Y332334D01*
X944315Y330873D01*
X948100Y330375D01*
X951885Y330873D01*
X955413Y332334D01*
X958441Y334659D01*
X960766Y337687D01*
X962227Y341215D01*
X962725Y345000D01*
X962227Y348785D01*
X960766Y352313D01*
X958441Y355341D01*
X955413Y357666D01*
X951885Y359127D01*
X948100Y359625D01*
D02*
G37*
G36*
X888857Y343730D02*
X873170D01*
Y328043D01*
X875233Y328246D01*
X878437Y329218D01*
X881390Y330797D01*
X883979Y332921D01*
X886103Y335510D01*
X887682Y338463D01*
X888654Y341667D01*
X888857Y343730D01*
D02*
G37*
G36*
X870630D02*
X854943D01*
X855146Y341667D01*
X856118Y338463D01*
X857697Y335510D01*
X859821Y332921D01*
X862410Y330797D01*
X865363Y329218D01*
X868567Y328246D01*
X870630Y328043D01*
Y343730D01*
D02*
G37*
G36*
X1024300Y362082D02*
X1020967Y361754D01*
X1017763Y360782D01*
X1014810Y359203D01*
X1012221Y357079D01*
X1010097Y354490D01*
X1008518Y351537D01*
X1007546Y348333D01*
X1007218Y345000D01*
X1007546Y341667D01*
X1008518Y338463D01*
X1010097Y335510D01*
X1012221Y332921D01*
X1014810Y330797D01*
X1017763Y329218D01*
X1020967Y328246D01*
X1024300Y327918D01*
X1027633Y328246D01*
X1030837Y329218D01*
X1033790Y330797D01*
X1036379Y332921D01*
X1038503Y335510D01*
X1040082Y338463D01*
X1041054Y341667D01*
X1041382Y345000D01*
X1041054Y348333D01*
X1040082Y351537D01*
X1038503Y354490D01*
X1036379Y357079D01*
X1033790Y359203D01*
X1030837Y360782D01*
X1027633Y361754D01*
X1024300Y362082D01*
D02*
G37*
G36*
X1900000Y266069D02*
X1897912Y265794D01*
X1895966Y264988D01*
X1894294Y263706D01*
X1893012Y262034D01*
X1892206Y260088D01*
X1891931Y258000D01*
X1892206Y255912D01*
X1893012Y253965D01*
X1894294Y252294D01*
X1895966Y251012D01*
X1897912Y250206D01*
X1900000Y249931D01*
X1902088Y250206D01*
X1904034Y251012D01*
X1905706Y252294D01*
X1906988Y253965D01*
X1907794Y255912D01*
X1908069Y258000D01*
X1907794Y260088D01*
X1906988Y262034D01*
X1905706Y263706D01*
X1904034Y264988D01*
X1902088Y265794D01*
X1900000Y266069D01*
D02*
G37*
G36*
X1901270Y247902D02*
Y241270D01*
X1907902D01*
X1907794Y242088D01*
X1906988Y244035D01*
X1905706Y245706D01*
X1904034Y246988D01*
X1902088Y247794D01*
X1901270Y247902D01*
D02*
G37*
G36*
X1898730D02*
X1897912Y247794D01*
X1895966Y246988D01*
X1894294Y245706D01*
X1893012Y244035D01*
X1892206Y242088D01*
X1892098Y241270D01*
X1898730D01*
Y247902D01*
D02*
G37*
G36*
X1907902Y238730D02*
X1901270D01*
Y232098D01*
X1902088Y232206D01*
X1904034Y233012D01*
X1905706Y234294D01*
X1906988Y235965D01*
X1907794Y237912D01*
X1907902Y238730D01*
D02*
G37*
G36*
X1898730D02*
X1892098D01*
X1892206Y237912D01*
X1893012Y235965D01*
X1894294Y234294D01*
X1895966Y233012D01*
X1897912Y232206D01*
X1898730Y232098D01*
Y238730D01*
D02*
G37*
G36*
X1024300Y246369D02*
X1021167Y245956D01*
X1018248Y244747D01*
X1015742Y242824D01*
X1013818Y240317D01*
X1012609Y237398D01*
X1012197Y234265D01*
X1012609Y231132D01*
X1013818Y228213D01*
X1015742Y225707D01*
X1018248Y223783D01*
X1021167Y222574D01*
X1024300Y222161D01*
X1027433Y222574D01*
X1030352Y223783D01*
X1032859Y225707D01*
X1034782Y228213D01*
X1035991Y231132D01*
X1036404Y234265D01*
X1035991Y237398D01*
X1034782Y240317D01*
X1032859Y242824D01*
X1030352Y244747D01*
X1027433Y245956D01*
X1024300Y246369D01*
D02*
G37*
G36*
X871900D02*
X868767Y245956D01*
X865848Y244747D01*
X863342Y242824D01*
X861418Y240317D01*
X860209Y237398D01*
X859797Y234265D01*
X860209Y231132D01*
X861418Y228213D01*
X863342Y225707D01*
X865848Y223783D01*
X868767Y222574D01*
X871900Y222161D01*
X875033Y222574D01*
X877952Y223783D01*
X880459Y225707D01*
X882382Y228213D01*
X883591Y231132D01*
X884004Y234265D01*
X883591Y237398D01*
X882382Y240317D01*
X880459Y242824D01*
X877952Y244747D01*
X875033Y245956D01*
X871900Y246369D01*
D02*
G37*
G36*
X1900000Y230069D02*
X1897912Y229794D01*
X1895966Y228988D01*
X1894294Y227706D01*
X1893012Y226035D01*
X1892206Y224088D01*
X1891931Y222000D01*
X1892206Y219912D01*
X1893012Y217966D01*
X1894294Y216294D01*
X1895966Y215012D01*
X1897912Y214206D01*
X1900000Y213931D01*
X1902088Y214206D01*
X1904034Y215012D01*
X1905706Y216294D01*
X1906988Y217966D01*
X1907794Y219912D01*
X1908069Y222000D01*
X1907794Y224088D01*
X1906988Y226035D01*
X1905706Y227706D01*
X1904034Y228988D01*
X1902088Y229794D01*
X1900000Y230069D01*
D02*
G37*
G36*
X873170Y211201D02*
Y200535D01*
X883836D01*
X883591Y202398D01*
X882382Y205317D01*
X880459Y207824D01*
X877952Y209747D01*
X875033Y210956D01*
X873170Y211201D01*
D02*
G37*
G36*
X1025570D02*
Y200535D01*
X1036236D01*
X1035991Y202398D01*
X1034782Y205317D01*
X1032859Y207824D01*
X1030352Y209747D01*
X1027433Y210956D01*
X1025570Y211201D01*
D02*
G37*
G36*
X870630D02*
X868767Y210956D01*
X865848Y209747D01*
X863342Y207824D01*
X861418Y205317D01*
X860209Y202398D01*
X859964Y200535D01*
X870630D01*
Y211201D01*
D02*
G37*
G36*
X1023030D02*
X1021167Y210956D01*
X1018248Y209747D01*
X1015742Y207824D01*
X1013818Y205317D01*
X1012609Y202398D01*
X1012364Y200535D01*
X1023030D01*
Y211201D01*
D02*
G37*
G36*
X1036236Y197995D02*
X1025570D01*
Y187329D01*
X1027433Y187574D01*
X1030352Y188783D01*
X1032859Y190707D01*
X1034782Y193213D01*
X1035991Y196132D01*
X1036236Y197995D01*
D02*
G37*
G36*
X883836D02*
X873170D01*
Y187329D01*
X875033Y187574D01*
X877952Y188783D01*
X880459Y190707D01*
X882382Y193213D01*
X883591Y196132D01*
X883836Y197995D01*
D02*
G37*
G36*
X1023030D02*
X1012364D01*
X1012609Y196132D01*
X1013818Y193213D01*
X1015742Y190707D01*
X1018248Y188783D01*
X1021167Y187574D01*
X1023030Y187329D01*
Y197995D01*
D02*
G37*
G36*
X870630D02*
X859964D01*
X860209Y196132D01*
X861418Y193213D01*
X863342Y190707D01*
X865848Y188783D01*
X868767Y187574D01*
X870630Y187329D01*
Y197995D01*
D02*
G37*
G36*
X2011270Y160996D02*
Y131270D01*
X2040996D01*
X2040713Y134864D01*
X2039574Y139609D01*
X2037707Y144117D01*
X2035157Y148278D01*
X2031988Y151988D01*
X2028278Y155157D01*
X2024117Y157707D01*
X2019609Y159574D01*
X2014864Y160713D01*
X2011270Y160996D01*
D02*
G37*
G36*
X2008730D02*
X2005135Y160713D01*
X2000391Y159574D01*
X1995883Y157707D01*
X1991722Y155157D01*
X1988012Y151988D01*
X1984843Y148278D01*
X1982293Y144117D01*
X1980426Y139609D01*
X1979287Y134864D01*
X1979004Y131270D01*
X2008730D01*
Y160996D01*
D02*
G37*
G36*
X611270D02*
Y131270D01*
X640996D01*
X640713Y134864D01*
X639574Y139609D01*
X637707Y144117D01*
X635157Y148278D01*
X631988Y151988D01*
X628278Y155157D01*
X624117Y157707D01*
X619609Y159574D01*
X614865Y160713D01*
X611270Y160996D01*
D02*
G37*
G36*
X608730D02*
X605135Y160713D01*
X600391Y159574D01*
X595883Y157707D01*
X591722Y155157D01*
X588012Y151988D01*
X584843Y148278D01*
X582293Y144117D01*
X580426Y139609D01*
X579287Y134864D01*
X579004Y131270D01*
X608730D01*
Y160996D01*
D02*
G37*
G36*
X2040996Y128730D02*
X2011270D01*
Y99004D01*
X2014864Y99287D01*
X2019609Y100426D01*
X2024117Y102293D01*
X2028278Y104843D01*
X2031988Y108012D01*
X2035157Y111722D01*
X2037707Y115883D01*
X2039574Y120391D01*
X2040713Y125135D01*
X2040996Y128730D01*
D02*
G37*
G36*
X2008730D02*
X1979004D01*
X1979287Y125135D01*
X1980426Y120391D01*
X1982293Y115883D01*
X1984843Y111722D01*
X1988012Y108012D01*
X1991722Y104843D01*
X1995883Y102293D01*
X2000391Y100426D01*
X2005135Y99287D01*
X2008730Y99004D01*
Y128730D01*
D02*
G37*
G36*
X640996D02*
X611270D01*
Y99004D01*
X614865Y99287D01*
X619609Y100426D01*
X624117Y102293D01*
X628278Y104843D01*
X631988Y108012D01*
X635157Y111722D01*
X637707Y115883D01*
X639574Y120391D01*
X640713Y125135D01*
X640996Y128730D01*
D02*
G37*
G36*
X608730D02*
X579004D01*
X579287Y125135D01*
X580426Y120391D01*
X582293Y115883D01*
X584843Y111722D01*
X588012Y108012D01*
X591722Y104843D01*
X595883Y102293D01*
X600391Y100426D01*
X605135Y99287D01*
X608730Y99004D01*
Y128730D01*
D02*
G37*
%LPD*%
G36*
X1392500Y767500D02*
X1392500Y655000D01*
X1380000Y642500D01*
X1170000D01*
X1157500Y655000D01*
X1157500Y767500D01*
X1170000Y780000D01*
X1380000Y780000D01*
X1392500Y767500D01*
D02*
G37*
%LPC*%
G36*
X1264697Y721201D02*
X1262708D01*
X1260870Y720440D01*
X1259464Y719034D01*
X1259390Y718855D01*
X1258015D01*
X1257941Y719034D01*
X1256535Y720440D01*
X1254697Y721201D01*
X1252708D01*
X1250870Y720440D01*
X1249464Y719034D01*
X1248702Y717196D01*
Y715207D01*
X1249464Y713369D01*
X1250870Y711963D01*
X1252708Y711201D01*
X1253656D01*
X1254837Y710021D01*
Y709375D01*
X1254729Y708473D01*
X1253601Y708201D01*
X1252708D01*
X1250870Y707440D01*
X1249464Y706034D01*
X1248702Y704196D01*
Y702207D01*
X1249464Y700369D01*
X1250870Y698962D01*
X1252708Y698201D01*
X1254697D01*
X1256535Y698962D01*
X1257941Y700369D01*
X1258015Y700547D01*
X1259390D01*
X1259464Y700369D01*
X1260870Y698962D01*
X1262708Y698201D01*
X1264697D01*
X1266535Y698962D01*
X1267941Y700369D01*
X1268702Y702207D01*
Y704196D01*
X1267941Y706034D01*
X1266535Y707440D01*
X1264697Y708201D01*
X1263749D01*
X1261974Y709977D01*
Y710131D01*
X1262708Y711201D01*
X1263111Y711201D01*
X1264697D01*
X1266535Y711963D01*
X1267941Y713369D01*
X1268702Y715207D01*
Y717196D01*
X1267941Y719034D01*
X1266535Y720440D01*
X1264697Y721201D01*
D02*
G37*
%LPD*%
G36*
X1390000Y580000D02*
X1390000Y467500D01*
X1377500Y455000D01*
X1167500D01*
X1155000Y467500D01*
X1155000Y580000D01*
X1167500Y592500D01*
X1377500Y592500D01*
X1390000Y580000D01*
D02*
G37*
%LPC*%
G36*
X1262197Y533701D02*
X1260208D01*
X1258370Y532940D01*
X1256964Y531534D01*
X1256890Y531355D01*
X1255515D01*
X1255441Y531534D01*
X1254035Y532940D01*
X1252197Y533701D01*
X1250208D01*
X1248370Y532940D01*
X1246964Y531534D01*
X1246202Y529696D01*
Y527707D01*
X1246964Y525869D01*
X1248370Y524463D01*
X1250208Y523701D01*
X1251156D01*
X1252337Y522520D01*
Y521875D01*
X1252229Y520973D01*
X1251101Y520701D01*
X1250208D01*
X1248370Y519940D01*
X1246964Y518534D01*
X1246202Y516696D01*
Y514707D01*
X1246964Y512869D01*
X1248370Y511463D01*
X1250208Y510701D01*
X1252197D01*
X1254035Y511463D01*
X1255441Y512869D01*
X1255515Y513047D01*
X1256890D01*
X1256964Y512869D01*
X1258370Y511463D01*
X1260208Y510701D01*
X1262197D01*
X1264035Y511463D01*
X1265441Y512869D01*
X1266202Y514707D01*
Y516696D01*
X1265441Y518534D01*
X1264035Y519940D01*
X1262197Y520701D01*
X1261249D01*
X1259474Y522477D01*
Y522631D01*
X1260208Y523701D01*
X1260611Y523701D01*
X1262197D01*
X1264035Y524463D01*
X1265441Y525869D01*
X1266202Y527707D01*
Y529696D01*
X1265441Y531534D01*
X1264035Y532940D01*
X1262197Y533701D01*
D02*
G37*
%LPD*%
D15*
X1255905Y520999D02*
X1261202Y515701D01*
X1251202Y528701D02*
X1255905Y523999D01*
Y520999D02*
Y523999D01*
X1253702Y716201D02*
X1258405Y711499D01*
Y708499D02*
Y711499D01*
Y708499D02*
X1263702Y703201D01*
D54*
X1503000Y576000D02*
Y650000D01*
X1564599Y402901D02*
Y514401D01*
X1503000Y576000D02*
X1564599Y514401D01*
D55*
X1530000Y695000D02*
Y781000D01*
Y641000D02*
Y695000D01*
Y641000D02*
X1537090Y633910D01*
X1530000Y781000D02*
X1555000Y806000D01*
X1736220Y765220D02*
X1737000Y766000D01*
X1698220Y765220D02*
X1736220D01*
X1666000Y797000D02*
X1666440D01*
X1698220Y765220D01*
X1651650Y575650D02*
X1705000Y629000D01*
Y645000D01*
X1698220Y633910D02*
Y765220D01*
X1537090Y633910D02*
X1698220D01*
X1544000Y646000D02*
X1628000D01*
X1633000Y651000D01*
X1642050Y575650D02*
X1651650D01*
X1640400Y574000D02*
X1642050Y575650D01*
D57*
X669600Y737500D02*
D03*
Y772500D02*
D03*
Y667500D02*
D03*
Y597500D02*
D03*
Y562500D02*
D03*
Y527500D02*
D03*
Y492500D02*
D03*
X634600Y772500D02*
D03*
Y737500D02*
D03*
Y667500D02*
D03*
Y562500D02*
D03*
Y597500D02*
D03*
Y527500D02*
D03*
Y492500D02*
D03*
X669600Y702500D02*
D03*
Y632500D02*
D03*
Y457500D02*
D03*
X634600Y702500D02*
D03*
Y632500D02*
D03*
Y457500D02*
D03*
D58*
X645000Y842500D02*
D03*
Y387500D02*
D03*
D59*
X610000Y1100000D02*
D03*
X2010000D02*
D03*
Y130000D02*
D03*
X610000D02*
D03*
D60*
X1024300Y853000D02*
D03*
X871900D02*
D03*
X910000Y345000D02*
D03*
X948100D02*
D03*
X986200D02*
D03*
X948100Y853000D02*
D03*
D61*
X871900Y345000D02*
D03*
X1024300D02*
D03*
D62*
X913100Y950500D02*
D03*
Y985500D02*
D03*
X1024300Y234265D02*
D03*
Y199265D02*
D03*
X871900Y234265D02*
D03*
Y199265D02*
D03*
D63*
X1665800Y574000D02*
D03*
X1640400D02*
D03*
X1615000D02*
D03*
X1589600D02*
D03*
X1564200D02*
D03*
D64*
X1900000Y390000D02*
D03*
Y372000D02*
D03*
Y408000D02*
D03*
Y990000D02*
D03*
Y972000D02*
D03*
Y1008000D02*
D03*
Y690000D02*
D03*
Y672000D02*
D03*
Y708000D02*
D03*
Y540000D02*
D03*
Y522000D02*
D03*
Y558000D02*
D03*
Y240000D02*
D03*
Y222000D02*
D03*
Y258000D02*
D03*
Y840000D02*
D03*
Y822000D02*
D03*
Y858000D02*
D03*
D65*
X1217500Y522000D02*
D03*
X1542000Y694000D02*
D03*
X1530000Y695000D02*
D03*
X1251202Y515701D02*
D03*
X1261202D02*
D03*
X1251202Y528701D02*
D03*
X1261202D02*
D03*
X1220000Y709500D02*
D03*
X1691000Y926000D02*
D03*
X1646000Y923000D02*
D03*
X1566000Y922000D02*
D03*
X1517000D02*
D03*
X1253702Y716201D02*
D03*
X1263702D02*
D03*
Y703201D02*
D03*
X1253702D02*
D03*
X1653000Y796000D02*
D03*
X1657000Y741000D02*
D03*
X1733000Y708930D02*
D03*
Y696730D02*
D03*
Y721130D02*
D03*
X1737000Y766000D02*
D03*
X1666000Y797000D02*
D03*
X1705000Y645000D02*
D03*
X1555000Y806000D02*
D03*
X1698220Y633910D02*
D03*
X1544000Y646000D02*
D03*
X1633000Y651000D02*
D03*
D66*
X1503000Y650000D02*
D03*
X1564599Y402901D02*
D03*
X1236500Y571801D02*
D03*
Y472901D02*
D03*
X1239000Y660401D02*
D03*
Y759301D02*
D03*
M02*
