G04*
G04 #@! TF.GenerationSoftware,Altium Limited,Altium Designer,22.2.1 (43)*
G04*
G04 Layer_Color=12632256*
%FSLAX44Y44*%
%MOMM*%
G71*
G04*
G04 #@! TF.SameCoordinates,7A9A4B32-F866-4FC0-92F5-D822EF52183D*
G04*
G04*
G04 #@! TF.FilePolarity,Positive*
G04*
G01*
G75*
%ADD57C,2.8000*%
%ADD58C,4.0000*%
%ADD59C,5.8000*%
%ADD60C,2.5000*%
%ADD61C,3.0000*%
%ADD62C,2.0000*%
%ADD63C,1.5000*%
%ADD64C,1.2000*%
D57*
X669600Y737500D02*
D03*
Y772500D02*
D03*
Y667500D02*
D03*
Y597500D02*
D03*
Y562500D02*
D03*
Y527500D02*
D03*
Y492500D02*
D03*
X634600Y772500D02*
D03*
Y737500D02*
D03*
Y667500D02*
D03*
Y562500D02*
D03*
Y597500D02*
D03*
Y527500D02*
D03*
Y492500D02*
D03*
X669600Y702500D02*
D03*
Y632500D02*
D03*
Y457500D02*
D03*
X634600Y702500D02*
D03*
Y632500D02*
D03*
Y457500D02*
D03*
D58*
X645000Y842500D02*
D03*
Y387500D02*
D03*
D59*
X610000Y1100000D02*
D03*
X2010000D02*
D03*
Y130000D02*
D03*
X610000D02*
D03*
D60*
X1024300Y853000D02*
D03*
X871900D02*
D03*
X910000Y345000D02*
D03*
X948100D02*
D03*
X986200D02*
D03*
X948100Y853000D02*
D03*
D61*
X871900Y345000D02*
D03*
X1024300D02*
D03*
D62*
X913100Y950500D02*
D03*
Y985500D02*
D03*
X1024300Y234265D02*
D03*
Y199265D02*
D03*
X871900Y234265D02*
D03*
Y199265D02*
D03*
D63*
X1665800Y574000D02*
D03*
X1640400D02*
D03*
X1615000D02*
D03*
X1589600D02*
D03*
X1564200D02*
D03*
D64*
X1900000Y390000D02*
D03*
Y372000D02*
D03*
Y408000D02*
D03*
Y990000D02*
D03*
Y972000D02*
D03*
Y1008000D02*
D03*
Y690000D02*
D03*
Y672000D02*
D03*
Y708000D02*
D03*
Y540000D02*
D03*
Y522000D02*
D03*
Y558000D02*
D03*
Y240000D02*
D03*
Y222000D02*
D03*
Y258000D02*
D03*
Y840000D02*
D03*
Y822000D02*
D03*
Y858000D02*
D03*
M02*
