G04*
G04 #@! TF.GenerationSoftware,Altium Limited,Altium Designer,22.2.1 (43)*
G04*
G04 Layer_Color=65535*
%FSLAX44Y44*%
%MOMM*%
G71*
G04*
G04 #@! TF.SameCoordinates,7A9A4B32-F866-4FC0-92F5-D822EF52183D*
G04*
G04*
G04 #@! TF.FilePolarity,Positive*
G04*
G01*
G75*
%ADD10C,0.2540*%
%ADD11C,0.1000*%
%ADD12C,0.6000*%
%ADD13C,0.5000*%
%ADD14C,0.2000*%
%ADD15C,0.3000*%
G36*
X1672746Y352190D02*
X1673394Y352126D01*
X1673523D01*
X1673847Y352061D01*
X1674236Y351931D01*
X1674560Y351737D01*
X1674625Y351672D01*
X1674689Y351542D01*
X1674754Y351283D01*
X1674689Y350894D01*
Y350765D01*
X1674560Y350506D01*
X1674366Y349987D01*
X1674106Y349274D01*
X1666007Y334501D01*
X1674625Y318561D01*
Y318497D01*
X1674689Y318432D01*
X1674884Y317978D01*
X1675143Y317525D01*
X1675273Y317006D01*
Y316942D01*
X1675337Y316682D01*
X1675273Y316358D01*
X1675078Y316099D01*
X1675013Y316034D01*
X1674819Y315970D01*
X1674430Y315840D01*
X1673847Y315775D01*
X1673717D01*
X1673523Y315711D01*
X1672875D01*
X1672486Y315646D01*
X1669959D01*
X1669311Y315711D01*
X1669182D01*
X1668923Y315775D01*
X1668534D01*
X1668145Y315840D01*
X1668080D01*
X1667886Y315905D01*
X1667691Y316034D01*
X1667497Y316164D01*
Y316229D01*
X1667368Y316358D01*
X1667173Y316747D01*
X1660370Y329836D01*
X1653631Y316747D01*
Y316682D01*
X1653501Y316553D01*
X1653242Y316164D01*
X1653177D01*
X1653113Y316034D01*
X1652918Y315970D01*
X1652594Y315840D01*
X1652529D01*
X1652335Y315775D01*
X1651946D01*
X1651428Y315711D01*
X1650909D01*
X1650262Y315646D01*
X1648577D01*
X1647799Y315711D01*
X1647087Y315775D01*
X1646957D01*
X1646698Y315840D01*
X1646309Y315970D01*
X1646050Y316099D01*
X1645985Y316164D01*
X1645920Y316358D01*
Y316618D01*
Y317006D01*
X1645985Y317136D01*
X1646115Y317395D01*
X1646309Y317913D01*
X1646633Y318561D01*
X1655316Y334371D01*
X1647281Y349274D01*
Y349339D01*
X1647216Y349469D01*
X1647022Y349858D01*
X1646763Y350376D01*
X1646568Y350894D01*
Y351024D01*
X1646503Y351218D01*
X1646568Y351478D01*
X1646698Y351737D01*
X1646763Y351801D01*
X1646957Y351931D01*
X1647346Y352061D01*
X1647864Y352126D01*
X1648058D01*
X1648253Y352190D01*
X1648836D01*
X1649290Y352255D01*
X1651752D01*
X1652400Y352190D01*
X1652529D01*
X1652853Y352126D01*
X1653242Y352061D01*
X1653631Y351996D01*
X1653696D01*
X1653890Y351931D01*
X1654084Y351801D01*
X1654279Y351607D01*
X1654344Y351542D01*
X1654409Y351478D01*
X1654668Y351089D01*
X1661018Y339102D01*
X1667238Y351089D01*
Y351154D01*
X1667303Y351283D01*
X1667562Y351607D01*
X1667627Y351672D01*
X1667691Y351737D01*
X1667886Y351866D01*
X1668145Y351996D01*
X1668210D01*
X1668404Y352061D01*
X1668793Y352126D01*
X1669247Y352190D01*
X1669376D01*
X1669765Y352255D01*
X1672033D01*
X1672746Y352190D01*
D02*
G37*
G36*
X1638858Y351931D02*
X1639246Y351801D01*
X1639376Y351737D01*
X1639570Y351672D01*
X1639894Y351478D01*
X1640154Y351218D01*
X1640218Y351154D01*
X1640348Y350959D01*
X1640542Y350700D01*
X1640737Y350311D01*
X1640801Y350246D01*
X1640866Y349987D01*
X1640931Y349599D01*
Y349080D01*
Y316812D01*
Y316747D01*
Y316618D01*
X1640866Y316423D01*
X1640737Y316229D01*
X1640607Y316099D01*
X1640413Y316034D01*
X1640154Y315905D01*
X1640089D01*
X1639894Y315840D01*
X1639505D01*
X1639052Y315775D01*
X1638922D01*
X1638598Y315711D01*
X1638080Y315646D01*
X1636784D01*
X1636266Y315711D01*
X1635683Y315775D01*
X1635553D01*
X1635294Y315840D01*
X1634970D01*
X1634646Y315905D01*
X1634581D01*
X1634451Y315970D01*
X1634257Y316099D01*
X1634063Y316229D01*
Y316294D01*
X1633998Y316423D01*
X1633933Y316812D01*
Y346294D01*
X1633868D01*
X1623371Y316812D01*
Y316747D01*
X1623307Y316618D01*
X1622983Y316164D01*
X1622918D01*
X1622788Y316034D01*
X1622594Y315970D01*
X1622270Y315840D01*
X1622205D01*
X1622011Y315775D01*
X1621622D01*
X1621168Y315711D01*
X1620715D01*
X1620261Y315646D01*
X1619030D01*
X1618512Y315711D01*
X1617929Y315775D01*
X1617799D01*
X1617540Y315840D01*
X1617216D01*
X1616827Y315905D01*
X1616762D01*
X1616633Y315970D01*
X1616179Y316229D01*
X1616114Y316294D01*
X1616050Y316423D01*
X1615920Y316618D01*
X1615855Y316812D01*
X1605682Y346294D01*
Y316812D01*
Y316747D01*
Y316618D01*
X1605618Y316423D01*
X1605488Y316229D01*
X1605358Y316099D01*
X1605164Y316034D01*
X1604905Y315905D01*
X1604840D01*
X1604646Y315840D01*
X1604257D01*
X1603803Y315775D01*
X1603674D01*
X1603350Y315711D01*
X1602831Y315646D01*
X1601535D01*
X1601017Y315711D01*
X1600434Y315775D01*
X1600304D01*
X1600045Y315840D01*
X1599721D01*
X1599332Y315905D01*
X1599268D01*
X1599138Y315970D01*
X1598944Y316099D01*
X1598814Y316229D01*
Y316294D01*
X1598749Y316423D01*
X1598684Y316812D01*
Y349080D01*
Y349145D01*
Y349339D01*
X1598749Y349599D01*
Y349922D01*
X1599008Y350635D01*
X1599138Y350959D01*
X1599397Y351283D01*
X1599462Y351348D01*
X1599527Y351413D01*
X1599721Y351542D01*
X1599915Y351672D01*
X1600564Y351931D01*
X1600952Y352061D01*
X1607043D01*
X1607756Y351931D01*
X1608468Y351801D01*
X1608533D01*
X1608598Y351737D01*
X1608987Y351672D01*
X1609505Y351413D01*
X1610024Y351089D01*
X1610088D01*
X1610153Y351024D01*
X1610412Y350765D01*
X1610801Y350376D01*
X1611190Y349793D01*
Y349728D01*
X1611255Y349663D01*
X1611449Y349274D01*
X1611708Y348627D01*
X1611967Y347849D01*
X1619808Y326272D01*
X1619937D01*
X1628037Y347784D01*
Y347849D01*
X1628102Y347979D01*
X1628166Y348173D01*
X1628231Y348497D01*
X1628490Y349080D01*
X1628814Y349728D01*
Y349793D01*
X1628879Y349858D01*
X1629138Y350246D01*
X1629462Y350635D01*
X1629851Y351089D01*
X1629981Y351154D01*
X1630240Y351348D01*
X1630693Y351607D01*
X1631212Y351801D01*
X1631277D01*
X1631341Y351866D01*
X1631730Y351931D01*
X1632313Y351996D01*
X1633026Y352061D01*
X1638404D01*
X1638858Y351931D01*
D02*
G37*
G36*
X1480822Y352190D02*
X1481340Y352126D01*
X1481470D01*
X1481729Y352061D01*
X1482117Y351996D01*
X1482442Y351931D01*
X1482506D01*
X1482701Y351866D01*
X1482895Y351737D01*
X1483089Y351607D01*
X1483154Y351542D01*
X1483219Y351478D01*
X1483284Y351283D01*
Y351089D01*
Y321931D01*
X1486588D01*
X1486848Y321866D01*
X1487107Y321801D01*
X1487366Y321607D01*
X1487431Y321542D01*
X1487560Y321348D01*
X1487625Y320959D01*
X1487690Y320376D01*
Y307352D01*
Y307287D01*
Y307222D01*
X1487625Y307028D01*
X1487496Y306898D01*
X1487366Y306769D01*
X1487236Y306704D01*
X1486977Y306574D01*
X1486912D01*
X1486718Y306509D01*
X1486459Y306445D01*
X1486005Y306380D01*
X1485876D01*
X1485616Y306315D01*
X1485098Y306250D01*
X1483932D01*
X1483413Y306315D01*
X1482895Y306380D01*
X1482830D01*
X1482571Y306445D01*
X1482247Y306509D01*
X1481923Y306574D01*
X1481858D01*
X1481729Y306639D01*
X1481534Y306769D01*
X1481405Y306898D01*
Y306963D01*
X1481340Y307028D01*
X1481275Y307352D01*
Y315840D01*
X1457106D01*
X1456653Y315905D01*
X1456199Y316034D01*
X1455681Y316358D01*
X1455616Y316488D01*
X1455422Y316812D01*
X1455227Y317330D01*
X1455163Y318108D01*
Y351089D01*
Y351154D01*
Y351283D01*
X1455292Y351607D01*
X1455357Y351672D01*
X1455422Y351737D01*
X1455616Y351801D01*
X1455875Y351931D01*
X1455940D01*
X1456199Y351996D01*
X1456588Y352061D01*
X1457042Y352126D01*
X1457171D01*
X1457560Y352190D01*
X1458078Y352255D01*
X1459504D01*
X1460087Y352190D01*
X1460605Y352126D01*
X1460735D01*
X1460994Y352061D01*
X1461383Y351996D01*
X1461707Y351931D01*
X1461772D01*
X1461966Y351866D01*
X1462160Y351737D01*
X1462355Y351607D01*
X1462420Y351542D01*
X1462484Y351478D01*
X1462549Y351283D01*
Y351089D01*
Y321931D01*
X1475897D01*
Y351089D01*
Y351154D01*
Y351283D01*
X1476027Y351607D01*
X1476091Y351672D01*
X1476156Y351737D01*
X1476351Y351801D01*
X1476610Y351931D01*
X1476675D01*
X1476934Y351996D01*
X1477323Y352061D01*
X1477776Y352126D01*
X1477906D01*
X1478295Y352190D01*
X1478813Y352255D01*
X1480238D01*
X1480822Y352190D01*
D02*
G37*
G36*
X1593630Y351996D02*
X1593760Y351866D01*
X1593825D01*
X1593890Y351737D01*
X1593954Y351607D01*
X1594084Y351348D01*
Y351283D01*
X1594149Y351089D01*
X1594214Y350830D01*
X1594278Y350441D01*
Y350311D01*
X1594343Y350052D01*
X1594408Y349599D01*
Y349015D01*
Y348951D01*
Y348886D01*
Y348497D01*
X1594343Y348043D01*
X1594278Y347590D01*
Y347525D01*
X1594214Y347266D01*
X1594149Y347007D01*
X1594084Y346683D01*
Y346618D01*
X1594019Y346488D01*
X1593760Y346164D01*
X1593630Y346100D01*
X1593306Y346035D01*
X1584235D01*
Y316812D01*
Y316747D01*
Y316618D01*
X1584170Y316423D01*
X1584041Y316229D01*
X1583976D01*
X1583911Y316099D01*
X1583717Y316034D01*
X1583393Y315905D01*
X1583328D01*
X1583134Y315840D01*
X1582745D01*
X1582291Y315775D01*
X1582162D01*
X1581838Y315711D01*
X1581254Y315646D01*
X1579894D01*
X1579311Y315711D01*
X1578727Y315775D01*
X1578598D01*
X1578339Y315840D01*
X1577950D01*
X1577561Y315905D01*
X1577496D01*
X1577367Y315970D01*
X1577172Y316099D01*
X1576978Y316229D01*
Y316294D01*
X1576913Y316423D01*
X1576848Y316812D01*
Y346035D01*
X1567583D01*
X1567259Y346164D01*
Y346229D01*
X1567129Y346294D01*
X1566935Y346683D01*
Y346748D01*
X1566870Y346942D01*
X1566805Y347201D01*
X1566740Y347590D01*
Y347719D01*
Y347979D01*
X1566676Y348432D01*
Y349015D01*
Y349080D01*
Y349145D01*
Y349534D01*
Y349987D01*
X1566740Y350441D01*
Y350570D01*
X1566805Y350765D01*
X1566870Y351089D01*
X1566935Y351348D01*
Y351413D01*
X1567000Y351542D01*
X1567129Y351737D01*
X1567259Y351866D01*
X1567323Y351931D01*
X1567388Y351996D01*
X1567518Y352061D01*
X1593436D01*
X1593630Y351996D01*
D02*
G37*
G36*
X1552291D02*
X1552421Y351866D01*
X1552485D01*
X1552550Y351737D01*
X1552615Y351607D01*
X1552744Y351348D01*
Y351283D01*
X1552809Y351089D01*
X1552874Y350830D01*
X1552939Y350441D01*
Y350311D01*
X1553004Y350052D01*
X1553069Y349599D01*
Y349015D01*
Y348951D01*
Y348886D01*
Y348497D01*
X1553004Y348043D01*
X1552939Y347590D01*
Y347525D01*
X1552874Y347266D01*
X1552809Y347007D01*
X1552744Y346683D01*
Y346618D01*
X1552680Y346488D01*
X1552421Y346164D01*
X1552291Y346100D01*
X1551967Y346035D01*
X1542896D01*
Y316812D01*
Y316747D01*
Y316618D01*
X1542831Y316423D01*
X1542701Y316229D01*
X1542636D01*
X1542572Y316099D01*
X1542377Y316034D01*
X1542053Y315905D01*
X1541989D01*
X1541794Y315840D01*
X1541405D01*
X1540952Y315775D01*
X1540822D01*
X1540498Y315711D01*
X1539915Y315646D01*
X1538554D01*
X1537971Y315711D01*
X1537388Y315775D01*
X1537258D01*
X1536999Y315840D01*
X1536610D01*
X1536222Y315905D01*
X1536157D01*
X1536027Y315970D01*
X1535833Y316099D01*
X1535638Y316229D01*
Y316294D01*
X1535574Y316423D01*
X1535509Y316812D01*
Y346035D01*
X1526243D01*
X1525919Y346164D01*
Y346229D01*
X1525790Y346294D01*
X1525595Y346683D01*
Y346748D01*
X1525530Y346942D01*
X1525466Y347201D01*
X1525401Y347590D01*
Y347719D01*
Y347979D01*
X1525336Y348432D01*
Y349015D01*
Y349080D01*
Y349145D01*
Y349534D01*
Y349987D01*
X1525401Y350441D01*
Y350570D01*
X1525466Y350765D01*
X1525530Y351089D01*
X1525595Y351348D01*
Y351413D01*
X1525660Y351542D01*
X1525790Y351737D01*
X1525919Y351866D01*
X1525984Y351931D01*
X1526049Y351996D01*
X1526178Y352061D01*
X1552097D01*
X1552291Y351996D01*
D02*
G37*
G36*
X1519569D02*
X1520023Y351801D01*
X1520541Y351478D01*
X1520606Y351348D01*
X1520865Y351024D01*
X1521060Y350506D01*
X1521124Y349728D01*
Y316747D01*
Y316682D01*
Y316553D01*
X1521060Y316423D01*
X1520930Y316229D01*
X1520865D01*
X1520800Y316099D01*
X1520606Y316034D01*
X1520282Y315905D01*
X1520217D01*
X1520023Y315840D01*
X1519634D01*
X1519180Y315775D01*
X1519051D01*
X1518727Y315711D01*
X1518144Y315646D01*
X1516783D01*
X1516200Y315711D01*
X1515617Y315775D01*
X1515487D01*
X1515228Y315840D01*
X1514839D01*
X1514450Y315905D01*
X1514386D01*
X1514256Y315970D01*
X1514062Y316099D01*
X1513867Y316229D01*
Y316294D01*
X1513802Y316358D01*
X1513738Y316747D01*
Y345905D01*
X1500260D01*
Y316747D01*
Y316682D01*
Y316553D01*
X1500195Y316423D01*
X1500066Y316229D01*
X1500001D01*
X1499936Y316099D01*
X1499742Y316034D01*
X1499418Y315905D01*
X1499353D01*
X1499159Y315840D01*
X1498770D01*
X1498316Y315775D01*
X1498187D01*
X1497798Y315711D01*
X1497280Y315646D01*
X1495919D01*
X1495336Y315711D01*
X1494753Y315775D01*
X1494623D01*
X1494364Y315840D01*
X1493975D01*
X1493586Y315905D01*
X1493522D01*
X1493392Y315970D01*
X1493197Y316099D01*
X1493003Y316229D01*
Y316294D01*
X1492938Y316358D01*
X1492874Y316747D01*
Y349728D01*
Y349793D01*
Y349922D01*
X1492938Y350117D01*
Y350376D01*
X1493133Y350959D01*
X1493457Y351478D01*
X1493586Y351542D01*
X1493846Y351801D01*
X1494364Y351996D01*
X1495012Y352061D01*
X1519180D01*
X1519569Y351996D01*
D02*
G37*
G36*
X1543414Y298941D02*
X1543932Y298877D01*
X1544062D01*
X1544321Y298812D01*
X1544710Y298747D01*
X1545034Y298682D01*
X1545099D01*
X1545228Y298617D01*
X1545423Y298488D01*
X1545552Y298358D01*
X1545617Y298293D01*
X1545682Y298229D01*
X1545747Y298034D01*
Y297840D01*
Y263498D01*
Y263433D01*
Y263304D01*
X1545682Y263174D01*
X1545552Y262980D01*
X1545487D01*
X1545423Y262850D01*
X1545228Y262786D01*
X1544904Y262656D01*
X1544839D01*
X1544645Y262591D01*
X1544256D01*
X1543803Y262526D01*
X1543673D01*
X1543349Y262462D01*
X1542766Y262397D01*
X1541405D01*
X1540822Y262462D01*
X1540239Y262526D01*
X1540109D01*
X1539850Y262591D01*
X1539461D01*
X1539138Y262656D01*
X1539073D01*
X1538943Y262721D01*
X1538749Y262850D01*
X1538554Y262980D01*
Y263045D01*
X1538490Y263110D01*
X1538425Y263498D01*
Y282613D01*
Y282678D01*
Y282807D01*
Y283002D01*
Y283326D01*
Y283974D01*
Y284751D01*
Y284816D01*
Y284946D01*
Y285140D01*
Y285399D01*
Y285982D01*
X1538490Y286630D01*
X1538425D01*
X1538360Y286565D01*
X1538295Y286371D01*
X1538101Y286112D01*
X1537906Y285723D01*
X1537842Y285658D01*
X1537712Y285399D01*
X1537518Y285010D01*
X1537258Y284622D01*
X1537194Y284492D01*
X1537064Y284233D01*
X1536805Y283844D01*
X1536546Y283391D01*
X1536481Y283326D01*
X1536286Y283067D01*
X1536027Y282678D01*
X1535768Y282289D01*
X1523133Y263433D01*
X1523068Y263369D01*
X1523003Y263304D01*
X1522615Y262915D01*
X1522550D01*
X1522485Y262786D01*
X1522291Y262721D01*
X1522032Y262591D01*
X1521967D01*
X1521772Y262526D01*
X1521513D01*
X1521124Y262462D01*
X1520736D01*
X1520282Y262397D01*
X1519051D01*
X1518468Y262462D01*
X1517949Y262526D01*
X1517820D01*
X1517561Y262591D01*
X1517237D01*
X1516913Y262656D01*
X1516848D01*
X1516718Y262721D01*
X1516524Y262850D01*
X1516394Y262980D01*
Y263045D01*
X1516329Y263174D01*
X1516265Y263563D01*
Y297840D01*
Y297905D01*
Y298034D01*
X1516394Y298358D01*
X1516459Y298423D01*
X1516524Y298488D01*
X1516783Y298553D01*
X1517042Y298682D01*
X1517107D01*
X1517366Y298747D01*
X1517690Y298812D01*
X1518144Y298877D01*
X1518273D01*
X1518662Y298941D01*
X1519180Y299006D01*
X1520606D01*
X1521189Y298941D01*
X1521707Y298877D01*
X1521837D01*
X1522096Y298812D01*
X1522485Y298747D01*
X1522809Y298682D01*
X1522874D01*
X1523068Y298617D01*
X1523263Y298488D01*
X1523457Y298358D01*
X1523522Y298293D01*
X1523587Y298229D01*
X1523651Y298034D01*
Y297840D01*
Y278596D01*
Y278531D01*
Y278466D01*
Y278077D01*
Y277429D01*
X1523587Y276717D01*
Y276652D01*
Y276522D01*
Y276328D01*
Y276069D01*
Y275485D01*
X1523522Y274773D01*
X1523587D01*
Y274837D01*
X1523651Y274902D01*
X1523781Y275097D01*
X1523911Y275356D01*
X1524299Y276004D01*
X1524753Y276781D01*
X1524818Y276846D01*
X1524883Y276976D01*
X1525012Y277235D01*
X1525206Y277494D01*
X1525660Y278207D01*
X1526243Y279049D01*
X1538878Y297905D01*
X1538943Y297969D01*
X1539008Y298034D01*
X1539267Y298358D01*
X1539332Y298423D01*
X1539461Y298488D01*
X1539850Y298682D01*
X1539915Y298747D01*
X1540109Y298812D01*
X1540433Y298877D01*
X1540822Y298941D01*
X1540952D01*
X1541211Y299006D01*
X1542831D01*
X1543414Y298941D01*
D02*
G37*
G36*
X1599527D02*
X1600110D01*
X1600499Y298877D01*
X1600952Y298812D01*
X1601406Y298682D01*
X1601471D01*
X1601730Y298553D01*
X1601989Y298423D01*
X1602183Y298229D01*
X1602248Y298164D01*
X1602313Y298034D01*
X1602507Y297775D01*
X1602637Y297451D01*
X1613847Y265313D01*
Y265248D01*
X1613911Y265118D01*
X1614041Y264729D01*
X1614171Y264211D01*
X1614235Y263693D01*
Y263628D01*
Y263369D01*
Y263110D01*
X1614041Y262850D01*
X1613976Y262786D01*
X1613782Y262721D01*
X1613458Y262591D01*
X1612939Y262526D01*
X1612810D01*
X1612615Y262462D01*
X1612356D01*
X1611708Y262397D01*
X1609246D01*
X1608533Y262462D01*
X1608404D01*
X1608080Y262526D01*
X1607691D01*
X1607302Y262591D01*
X1607237D01*
X1607108Y262656D01*
X1606913Y262786D01*
X1606719Y262915D01*
Y262980D01*
X1606654Y263110D01*
X1606460Y263498D01*
X1604062Y270885D01*
X1590391D01*
X1588123Y263693D01*
Y263628D01*
X1588058Y263498D01*
X1587799Y263045D01*
X1587734Y262980D01*
X1587669Y262915D01*
X1587475Y262786D01*
X1587216Y262656D01*
X1587151D01*
X1586956Y262591D01*
X1586568Y262526D01*
X1586049Y262462D01*
X1585531D01*
X1584948Y262397D01*
X1583393D01*
X1582745Y262462D01*
X1582097Y262526D01*
X1581967D01*
X1581708Y262591D01*
X1581384Y262721D01*
X1581060Y262850D01*
X1580995Y262915D01*
X1580930Y263110D01*
X1580866Y263369D01*
Y263757D01*
Y263887D01*
X1580995Y264146D01*
X1581125Y264665D01*
X1581319Y265313D01*
X1592529Y297516D01*
Y297581D01*
X1592594Y297775D01*
X1592723Y298034D01*
X1592853Y298229D01*
X1592918Y298293D01*
X1593047Y298423D01*
X1593242Y298553D01*
X1593566Y298682D01*
X1593630Y298747D01*
X1593954Y298812D01*
X1594343Y298877D01*
X1594926Y298941D01*
X1595315D01*
X1595574Y299006D01*
X1599073D01*
X1599527Y298941D01*
D02*
G37*
G36*
X1566287Y298747D02*
X1567129Y298682D01*
X1567323D01*
X1567583Y298617D01*
X1567907Y298553D01*
X1568295Y298488D01*
X1568814Y298423D01*
X1569915Y298229D01*
X1569980D01*
X1570175Y298164D01*
X1570498Y298099D01*
X1570952Y297969D01*
X1571406Y297840D01*
X1571989Y297645D01*
X1573155Y297062D01*
X1573220Y296998D01*
X1573414Y296933D01*
X1573738Y296738D01*
X1574127Y296479D01*
X1575099Y295766D01*
X1576006Y294859D01*
X1576071Y294795D01*
X1576200Y294600D01*
X1576395Y294341D01*
X1576654Y294017D01*
X1576978Y293563D01*
X1577237Y292980D01*
X1577561Y292397D01*
X1577820Y291749D01*
Y291684D01*
X1577950Y291425D01*
X1578015Y291101D01*
X1578144Y290583D01*
X1578274Y290000D01*
X1578339Y289352D01*
X1578468Y288574D01*
Y287797D01*
Y287732D01*
Y287667D01*
Y287278D01*
X1578403Y286695D01*
X1578339Y285982D01*
X1578209Y285140D01*
X1578080Y284233D01*
X1577820Y283261D01*
X1577496Y282354D01*
X1577431Y282224D01*
X1577302Y281965D01*
X1577108Y281511D01*
X1576784Y280993D01*
X1576395Y280345D01*
X1575941Y279697D01*
X1575358Y279049D01*
X1574710Y278401D01*
X1574645Y278337D01*
X1574386Y278142D01*
X1573997Y277818D01*
X1573479Y277494D01*
X1572831Y277105D01*
X1572054Y276652D01*
X1571211Y276263D01*
X1570239Y275939D01*
X1570110D01*
X1569786Y275809D01*
X1569203Y275680D01*
X1568490Y275550D01*
X1567583Y275421D01*
X1566481Y275291D01*
X1565315Y275226D01*
X1564019Y275161D01*
X1561038D01*
Y263563D01*
Y263498D01*
Y263369D01*
X1560974Y263174D01*
X1560844Y262980D01*
X1560779D01*
X1560714Y262850D01*
X1560520Y262786D01*
X1560196Y262656D01*
X1560131D01*
X1559937Y262591D01*
X1559548D01*
X1559094Y262526D01*
X1558965D01*
X1558576Y262462D01*
X1558058Y262397D01*
X1556697D01*
X1556114Y262462D01*
X1555531Y262526D01*
X1555401D01*
X1555142Y262591D01*
X1554753D01*
X1554364Y262656D01*
X1554300D01*
X1554170Y262721D01*
X1553976Y262850D01*
X1553781Y262980D01*
Y263045D01*
X1553716Y263174D01*
X1553652Y263563D01*
Y296155D01*
Y296220D01*
Y296350D01*
X1553716Y296609D01*
Y296868D01*
X1553911Y297516D01*
X1554300Y298099D01*
X1554364Y298164D01*
X1554429Y298229D01*
X1554818Y298488D01*
X1555336Y298682D01*
X1555725Y298812D01*
X1565444D01*
X1566287Y298747D01*
D02*
G37*
G36*
X1535930Y246146D02*
X1536578Y246081D01*
X1537291Y245952D01*
X1538068Y245757D01*
X1538846Y245498D01*
X1539623Y245109D01*
X1539688Y245045D01*
X1539947Y244915D01*
X1540271Y244656D01*
X1540725Y244332D01*
X1541243Y243878D01*
X1541762Y243360D01*
X1542280Y242777D01*
X1542734Y242129D01*
X1542798Y242064D01*
X1542928Y241805D01*
X1543187Y241416D01*
X1543446Y240898D01*
X1543705Y240250D01*
X1544030Y239472D01*
X1544289Y238630D01*
X1544548Y237723D01*
Y237593D01*
X1544613Y237269D01*
X1544742Y236816D01*
X1544872Y236168D01*
X1544937Y235390D01*
X1545066Y234483D01*
X1545131Y233511D01*
Y232474D01*
Y232409D01*
Y232345D01*
Y232150D01*
Y231891D01*
X1545066Y231243D01*
Y230466D01*
X1544937Y229494D01*
X1544807Y228522D01*
X1544613Y227485D01*
X1544353Y226448D01*
Y226319D01*
X1544224Y225995D01*
X1544030Y225541D01*
X1543835Y224893D01*
X1543511Y224181D01*
X1543187Y223403D01*
X1542734Y222625D01*
X1542280Y221913D01*
X1542215Y221848D01*
X1542021Y221589D01*
X1541762Y221265D01*
X1541373Y220876D01*
X1540855Y220357D01*
X1540271Y219904D01*
X1539559Y219450D01*
X1538846Y218997D01*
X1538781Y218932D01*
X1538522Y218867D01*
X1538068Y218673D01*
X1537550Y218543D01*
X1536837Y218349D01*
X1536060Y218155D01*
X1535217Y218090D01*
X1534245Y218025D01*
X1533857D01*
X1533598Y218090D01*
X1532950Y218155D01*
X1532237Y218284D01*
X1532172D01*
X1532107Y218349D01*
X1531654Y218414D01*
X1531070Y218608D01*
X1530423Y218867D01*
X1530358D01*
X1530293Y218932D01*
X1529904Y219126D01*
X1529386Y219450D01*
X1528738Y219904D01*
X1528673D01*
X1528608Y220034D01*
X1528219Y220357D01*
X1527701Y220811D01*
X1527053Y221459D01*
Y209731D01*
Y209666D01*
Y209601D01*
X1526988Y209407D01*
X1526859Y209277D01*
X1526794Y209213D01*
X1526729Y209148D01*
X1526535Y209018D01*
X1526276Y208889D01*
X1526211D01*
X1526016Y208759D01*
X1525628Y208694D01*
X1525174Y208630D01*
X1525045D01*
X1524720Y208565D01*
X1524202Y208500D01*
X1522906D01*
X1522323Y208565D01*
X1521740Y208630D01*
X1521610D01*
X1521351Y208694D01*
X1521027Y208759D01*
X1520703Y208889D01*
X1520638D01*
X1520509Y209018D01*
X1520314Y209083D01*
X1520120Y209277D01*
Y209342D01*
X1520055Y209407D01*
X1519990Y209731D01*
Y244526D01*
Y244591D01*
Y244721D01*
X1520120Y245045D01*
Y245109D01*
X1520250Y245174D01*
X1520379Y245239D01*
X1520574Y245369D01*
X1520638D01*
X1520833Y245433D01*
X1521092Y245498D01*
X1521481Y245563D01*
X1521610D01*
X1521870Y245628D01*
X1522388Y245693D01*
X1523489D01*
X1523878Y245628D01*
X1524332Y245563D01*
X1524461D01*
X1524656Y245498D01*
X1524980Y245433D01*
X1525239Y245369D01*
X1525304D01*
X1525433Y245304D01*
X1525628Y245174D01*
X1525757Y245045D01*
X1525822Y244980D01*
X1525887Y244915D01*
X1525952Y244721D01*
Y244526D01*
Y241610D01*
X1526016Y241675D01*
X1526146Y241805D01*
X1526340Y241999D01*
X1526600Y242323D01*
X1527247Y242971D01*
X1528025Y243619D01*
X1528090Y243684D01*
X1528219Y243749D01*
X1528414Y243943D01*
X1528738Y244137D01*
X1529451Y244591D01*
X1530228Y245045D01*
X1530293D01*
X1530423Y245174D01*
X1530617Y245239D01*
X1530941Y245369D01*
X1531654Y245628D01*
X1532431Y245887D01*
X1532496D01*
X1532625Y245952D01*
X1532885Y246017D01*
X1533209Y246081D01*
X1533986Y246146D01*
X1534958Y246211D01*
X1535412D01*
X1535930Y246146D01*
D02*
G37*
G36*
X1563209Y246017D02*
X1563987Y245887D01*
X1564051D01*
X1564181Y245822D01*
X1564375D01*
X1564635Y245757D01*
X1565282Y245563D01*
X1565995Y245369D01*
X1566060D01*
X1566190Y245304D01*
X1566578Y245174D01*
X1567097Y244915D01*
X1567680Y244591D01*
X1567745D01*
X1567809Y244526D01*
X1568133Y244332D01*
X1568457Y244137D01*
X1568717Y243878D01*
X1568781Y243813D01*
X1568911Y243749D01*
X1569041Y243554D01*
X1569170Y243360D01*
Y243295D01*
X1569235Y243230D01*
X1569364Y242842D01*
Y242777D01*
X1569429Y242647D01*
Y242323D01*
X1569494Y241999D01*
Y241934D01*
X1569559Y241675D01*
Y241287D01*
Y240833D01*
Y240768D01*
Y240574D01*
Y240315D01*
X1569494Y239926D01*
X1569429Y239213D01*
X1569364Y238824D01*
X1569235Y238565D01*
X1569170Y238435D01*
X1569041Y238241D01*
X1568846Y238047D01*
X1568522Y237917D01*
X1568457D01*
X1568263Y237982D01*
X1567939Y238111D01*
X1567550Y238306D01*
X1567486Y238371D01*
X1567226Y238565D01*
X1566773Y238824D01*
X1566254Y239148D01*
X1566125Y239213D01*
X1565801Y239407D01*
X1565218Y239667D01*
X1564505Y239991D01*
X1564440D01*
X1564310Y240055D01*
X1564116Y240120D01*
X1563857Y240250D01*
X1563144Y240379D01*
X1562172Y240444D01*
X1561719D01*
X1561200Y240315D01*
X1560617Y240185D01*
X1559904Y239926D01*
X1559192Y239537D01*
X1558544Y239019D01*
X1557961Y238306D01*
X1557896Y238176D01*
X1557766Y237917D01*
X1557507Y237399D01*
X1557248Y236751D01*
X1556989Y235844D01*
X1556729Y234807D01*
X1556600Y233511D01*
X1556535Y232085D01*
Y232021D01*
Y231761D01*
Y231373D01*
X1556600Y230919D01*
Y230336D01*
X1556665Y229753D01*
X1556859Y228522D01*
Y228457D01*
X1556924Y228263D01*
X1557053Y228003D01*
X1557118Y227615D01*
X1557507Y226772D01*
X1557961Y225930D01*
X1558025Y225865D01*
X1558090Y225736D01*
X1558479Y225347D01*
X1558997Y224828D01*
X1559710Y224375D01*
X1559775D01*
X1559904Y224310D01*
X1560164Y224245D01*
X1560423Y224181D01*
X1560811Y224051D01*
X1561265Y223986D01*
X1562237Y223921D01*
X1562755D01*
X1563079Y223986D01*
X1563857Y224116D01*
X1564699Y224310D01*
X1564764D01*
X1564894Y224375D01*
X1565088Y224505D01*
X1565347Y224634D01*
X1565930Y224893D01*
X1566578Y225282D01*
X1566643D01*
X1566708Y225347D01*
X1567032Y225606D01*
X1567486Y225930D01*
X1567874Y226254D01*
X1567939Y226319D01*
X1568198Y226513D01*
X1568457Y226643D01*
X1568781Y226707D01*
X1568911D01*
X1569041Y226643D01*
X1569170Y226513D01*
X1569235D01*
X1569300Y226383D01*
X1569364Y226254D01*
X1569429Y225995D01*
Y225930D01*
X1569494Y225736D01*
X1569559Y225412D01*
X1569624Y225023D01*
Y224893D01*
X1569689Y224634D01*
Y224181D01*
Y223533D01*
Y223403D01*
Y223144D01*
Y222690D01*
X1569624Y222301D01*
Y222237D01*
X1569559Y221977D01*
Y221718D01*
X1569494Y221459D01*
Y221394D01*
X1569429Y221265D01*
X1569300Y220941D01*
Y220876D01*
X1569235Y220811D01*
X1569105Y220617D01*
X1568911Y220422D01*
X1568846Y220357D01*
X1568652Y220228D01*
X1568263Y219969D01*
X1567745Y219645D01*
X1567680D01*
X1567615Y219580D01*
X1567226Y219386D01*
X1566643Y219126D01*
X1565930Y218803D01*
X1565866D01*
X1565736Y218738D01*
X1565542Y218673D01*
X1565282Y218608D01*
X1564570Y218479D01*
X1563663Y218284D01*
X1563598D01*
X1563468Y218219D01*
X1563209D01*
X1562885Y218155D01*
X1562107Y218090D01*
X1561136Y218025D01*
X1560682D01*
X1560099Y218090D01*
X1559451Y218155D01*
X1558609Y218219D01*
X1557766Y218414D01*
X1556859Y218608D01*
X1556017Y218867D01*
X1555952Y218932D01*
X1555628Y219062D01*
X1555239Y219256D01*
X1554721Y219515D01*
X1554138Y219904D01*
X1553490Y220357D01*
X1552842Y220941D01*
X1552258Y221524D01*
X1552194Y221589D01*
X1551999Y221848D01*
X1551740Y222237D01*
X1551416Y222690D01*
X1551027Y223338D01*
X1550703Y224051D01*
X1550315Y224893D01*
X1549991Y225800D01*
Y225930D01*
X1549861Y226254D01*
X1549796Y226772D01*
X1549667Y227485D01*
X1549537Y228327D01*
X1549408Y229299D01*
X1549343Y230401D01*
X1549278Y231567D01*
Y231632D01*
Y231761D01*
Y231956D01*
Y232215D01*
X1549343Y232928D01*
X1549408Y233770D01*
X1549472Y234807D01*
X1549667Y235908D01*
X1549861Y237010D01*
X1550185Y238047D01*
X1550250Y238176D01*
X1550379Y238500D01*
X1550574Y239019D01*
X1550833Y239667D01*
X1551222Y240379D01*
X1551675Y241092D01*
X1552194Y241870D01*
X1552777Y242582D01*
X1552842Y242647D01*
X1553101Y242906D01*
X1553425Y243230D01*
X1553878Y243619D01*
X1554462Y244008D01*
X1555174Y244461D01*
X1555887Y244915D01*
X1556729Y245239D01*
X1556859Y245304D01*
X1557118Y245369D01*
X1557637Y245498D01*
X1558220Y245693D01*
X1558997Y245887D01*
X1559904Y246017D01*
X1560811Y246081D01*
X1561848Y246146D01*
X1562561D01*
X1563209Y246017D01*
D02*
G37*
G36*
X1597939Y245628D02*
X1598328D01*
X1598652Y245563D01*
X1598911Y245433D01*
X1598976D01*
X1599106Y245369D01*
X1599300Y245239D01*
X1599430Y245045D01*
X1599494D01*
X1599559Y244915D01*
X1599624Y244785D01*
Y244591D01*
Y219515D01*
Y219450D01*
Y219321D01*
X1599559Y219191D01*
X1599430Y218997D01*
X1599300Y218867D01*
X1599170Y218803D01*
X1598911Y218673D01*
X1598846D01*
X1598652Y218608D01*
X1598328D01*
X1597874Y218543D01*
X1597421D01*
X1596903Y218479D01*
X1595088D01*
X1594505Y218543D01*
X1594376D01*
X1594116Y218608D01*
X1593728D01*
X1593339Y218673D01*
X1593274D01*
X1593144Y218738D01*
X1592950Y218867D01*
X1592756Y218997D01*
Y219062D01*
X1592691Y219126D01*
X1592626Y219450D01*
Y230595D01*
Y230660D01*
Y230790D01*
Y231049D01*
Y231373D01*
Y232150D01*
X1592691Y233057D01*
Y233122D01*
Y233252D01*
Y233511D01*
X1592756Y233835D01*
X1592820Y234677D01*
X1592880Y235450D01*
X1592756Y235325D01*
X1592626Y235066D01*
X1592432Y234807D01*
X1591978Y234029D01*
X1591395Y233187D01*
X1591330Y233122D01*
X1591265Y232993D01*
X1591136Y232798D01*
X1590941Y232474D01*
X1590423Y231826D01*
X1589840Y230984D01*
X1581352Y219515D01*
X1581287Y219450D01*
X1581222Y219321D01*
X1580833Y218997D01*
X1580768D01*
X1580704Y218867D01*
X1580509Y218803D01*
X1580250Y218673D01*
X1580185D01*
X1580056Y218608D01*
X1579732D01*
X1579408Y218543D01*
X1579019D01*
X1578630Y218479D01*
X1576881D01*
X1576362Y218543D01*
X1576298D01*
X1576039Y218608D01*
X1575715D01*
X1575390Y218673D01*
X1575326D01*
X1575196Y218738D01*
X1575002Y218867D01*
X1574872Y218997D01*
Y219062D01*
X1574807Y219191D01*
X1574742Y219515D01*
Y244591D01*
Y244656D01*
Y244721D01*
X1574872Y245045D01*
Y245109D01*
X1575002Y245174D01*
X1575131Y245239D01*
X1575390Y245369D01*
X1575455D01*
X1575715Y245433D01*
X1576039Y245498D01*
X1576492Y245563D01*
X1576622D01*
X1576946Y245628D01*
X1577464Y245693D01*
X1578825D01*
X1579278Y245628D01*
X1580185Y245563D01*
X1580574Y245498D01*
X1580963Y245369D01*
X1581028D01*
X1581093Y245304D01*
X1581416Y245174D01*
X1581676Y244915D01*
X1581740Y244785D01*
X1581805Y244591D01*
Y233511D01*
Y233446D01*
Y233317D01*
Y233057D01*
Y232798D01*
X1581740Y232021D01*
X1581676Y231114D01*
Y231049D01*
Y230919D01*
Y230660D01*
X1581611Y230336D01*
X1581546Y229559D01*
X1581487Y228786D01*
X1581611Y228911D01*
X1581740Y229105D01*
X1581870Y229429D01*
X1582324Y230142D01*
X1582842Y230919D01*
X1582907Y230984D01*
X1582972Y231114D01*
X1583101Y231373D01*
X1583295Y231632D01*
X1583749Y232345D01*
X1584332Y233057D01*
X1592885Y244591D01*
X1592950Y244656D01*
X1593015Y244721D01*
X1593339Y245045D01*
X1593404Y245109D01*
X1593533Y245174D01*
X1593728Y245304D01*
X1593987Y245433D01*
X1594052Y245498D01*
X1594246Y245563D01*
X1594505Y245628D01*
X1595023D01*
X1595283Y245693D01*
X1597421D01*
X1597939Y245628D01*
D02*
G37*
G36*
X1662475Y255088D02*
X1662605D01*
X1662864Y255023D01*
X1663188Y254958D01*
X1663512Y254893D01*
X1663577D01*
X1663707Y254829D01*
X1663836Y254764D01*
X1663966Y254634D01*
X1664031Y254569D01*
X1664095Y254245D01*
Y224375D01*
X1670057D01*
X1670251Y224310D01*
X1670381Y224181D01*
X1670445D01*
X1670510Y224051D01*
X1670640Y223921D01*
X1670769Y223662D01*
Y223597D01*
X1670834Y223403D01*
X1670899Y223144D01*
X1670964Y222755D01*
Y222690D01*
X1671028Y222431D01*
X1671093Y221977D01*
Y221459D01*
Y221394D01*
Y221329D01*
Y221005D01*
X1671028Y220552D01*
X1670964Y220098D01*
Y220034D01*
X1670899Y219774D01*
X1670834Y219515D01*
X1670704Y219256D01*
Y219191D01*
X1670640Y219062D01*
X1670510Y218932D01*
X1670381Y218803D01*
X1670251Y218738D01*
X1669927Y218673D01*
X1649840D01*
X1649581Y218803D01*
X1649452Y218932D01*
X1649322Y219062D01*
X1649193Y219256D01*
Y219321D01*
X1649128Y219515D01*
X1649063Y219774D01*
X1648998Y220098D01*
Y220228D01*
Y220487D01*
X1648933Y220941D01*
Y221459D01*
Y221524D01*
Y221589D01*
Y221913D01*
Y222366D01*
X1648998Y222755D01*
Y222885D01*
X1649063Y223079D01*
X1649128Y223403D01*
X1649193Y223662D01*
Y223727D01*
X1649257Y223857D01*
X1649387Y224051D01*
X1649516Y224181D01*
X1649581Y224245D01*
X1649646Y224310D01*
X1649776Y224375D01*
X1656774D01*
Y247960D01*
X1650942Y244721D01*
X1650812Y244656D01*
X1650553Y244526D01*
X1650229Y244397D01*
X1649840Y244332D01*
X1649387D01*
X1649193Y244461D01*
Y244526D01*
X1649063Y244656D01*
X1648998Y244915D01*
X1648933Y245304D01*
Y245433D01*
Y245757D01*
X1648869Y246211D01*
Y246924D01*
Y246989D01*
Y247053D01*
Y247312D01*
Y247701D01*
Y248025D01*
Y248090D01*
Y248284D01*
X1648998Y248803D01*
Y248867D01*
X1649063Y248997D01*
X1649322Y249321D01*
X1649387Y249386D01*
X1649452Y249451D01*
X1649840Y249710D01*
X1657616Y254764D01*
X1657681Y254829D01*
X1657940Y254958D01*
X1658005D01*
X1658134Y255023D01*
X1658588D01*
X1658782Y255088D01*
X1659495D01*
X1659754Y255153D01*
X1661957D01*
X1662475Y255088D01*
D02*
G37*
G36*
X1472625Y254829D02*
X1473532Y254764D01*
X1474439Y254634D01*
X1475411Y254505D01*
X1476318Y254310D01*
X1476448D01*
X1476707Y254181D01*
X1477161Y254051D01*
X1477679Y253857D01*
X1478327Y253598D01*
X1478975Y253338D01*
X1479623Y252950D01*
X1480206Y252561D01*
X1480271Y252496D01*
X1480465Y252367D01*
X1480789Y252107D01*
X1481113Y251783D01*
X1481502Y251395D01*
X1481956Y250876D01*
X1482344Y250358D01*
X1482668Y249710D01*
X1482733Y249645D01*
X1482798Y249386D01*
X1482928Y249062D01*
X1483122Y248608D01*
X1483251Y247960D01*
X1483381Y247312D01*
X1483446Y246535D01*
X1483511Y245693D01*
Y245628D01*
Y245433D01*
Y245174D01*
X1483446Y244850D01*
X1483381Y244073D01*
X1483122Y243165D01*
Y243101D01*
X1483057Y242971D01*
X1482992Y242777D01*
X1482863Y242453D01*
X1482603Y241805D01*
X1482150Y241027D01*
Y240963D01*
X1482020Y240898D01*
X1481696Y240509D01*
X1481178Y239991D01*
X1480530Y239407D01*
X1480465D01*
X1480400Y239278D01*
X1480206Y239148D01*
X1479947Y239019D01*
X1479299Y238630D01*
X1478457Y238241D01*
X1478521D01*
X1478716Y238176D01*
X1478975Y238111D01*
X1479364Y237982D01*
X1480271Y237658D01*
X1481243Y237204D01*
X1481308D01*
X1481437Y237075D01*
X1481696Y236945D01*
X1482020Y236751D01*
X1482733Y236168D01*
X1483511Y235455D01*
X1483575Y235390D01*
X1483705Y235261D01*
X1483835Y235001D01*
X1484094Y234742D01*
X1484288Y234353D01*
X1484547Y233900D01*
X1485066Y232863D01*
Y232798D01*
X1485130Y232604D01*
X1485260Y232280D01*
X1485390Y231891D01*
X1485455Y231373D01*
X1485584Y230790D01*
X1485649Y229494D01*
Y229429D01*
Y229170D01*
Y228781D01*
X1485584Y228327D01*
X1485519Y227809D01*
X1485390Y227226D01*
X1485066Y225995D01*
Y225930D01*
X1485001Y225736D01*
X1484871Y225412D01*
X1484677Y225088D01*
X1484223Y224181D01*
X1483575Y223209D01*
X1483511Y223144D01*
X1483446Y223014D01*
X1483251Y222820D01*
X1482992Y222496D01*
X1482280Y221848D01*
X1481372Y221135D01*
X1481308Y221070D01*
X1481178Y221005D01*
X1480854Y220811D01*
X1480530Y220617D01*
X1480141Y220422D01*
X1479623Y220163D01*
X1478521Y219710D01*
X1478457D01*
X1478262Y219645D01*
X1477938Y219515D01*
X1477549Y219450D01*
X1477031Y219321D01*
X1476448Y219191D01*
X1475152Y218932D01*
X1475087D01*
X1474828Y218867D01*
X1474504D01*
X1473986Y218803D01*
X1473403Y218738D01*
X1472755D01*
X1471977Y218673D01*
X1461415D01*
X1461027Y218738D01*
X1460508Y218867D01*
X1459990Y219191D01*
X1459925Y219321D01*
X1459731Y219580D01*
X1459471Y220163D01*
X1459407Y220487D01*
Y220941D01*
Y252561D01*
Y252626D01*
Y252755D01*
X1459471Y252950D01*
Y253274D01*
X1459666Y253792D01*
X1459796Y254116D01*
X1459990Y254310D01*
X1460119Y254375D01*
X1460444Y254634D01*
X1460897Y254829D01*
X1461545Y254893D01*
X1471847D01*
X1472625Y254829D01*
D02*
G37*
G36*
X1620229Y245822D02*
X1621590D01*
X1622367Y245757D01*
X1622756D01*
X1623080Y245693D01*
X1623728D01*
X1624505Y245628D01*
X1624894D01*
X1625153Y245563D01*
X1625737Y245498D01*
X1626320Y245433D01*
X1626449D01*
X1626838Y245369D01*
X1627356Y245174D01*
X1627745Y244850D01*
X1627810Y244721D01*
X1628004Y244461D01*
X1628134Y244008D01*
X1628199Y243360D01*
Y219580D01*
Y219515D01*
Y219386D01*
X1628069Y219062D01*
X1627940Y218932D01*
X1627810Y218867D01*
X1627551Y218738D01*
X1627486D01*
X1627292Y218673D01*
X1626903Y218608D01*
X1626449Y218543D01*
X1625996D01*
X1625412Y218479D01*
X1623533D01*
X1622950Y218543D01*
X1622821D01*
X1622562Y218608D01*
X1622238Y218673D01*
X1621849Y218738D01*
X1621784D01*
X1621654Y218803D01*
X1621460Y218932D01*
X1621330Y219062D01*
Y219126D01*
X1621266Y219191D01*
X1621201Y219580D01*
Y229040D01*
X1618609D01*
X1617896Y228911D01*
X1617248Y228781D01*
X1617119Y228716D01*
X1616795Y228587D01*
X1616406Y228327D01*
X1615888Y227939D01*
X1615758Y227809D01*
X1615499Y227550D01*
X1615175Y227031D01*
X1614721Y226383D01*
Y226319D01*
X1614657Y226254D01*
X1614527Y225995D01*
X1614397Y225736D01*
X1614268Y225412D01*
X1614073Y225023D01*
X1613685Y224051D01*
X1612065Y219774D01*
Y219710D01*
X1611935Y219580D01*
X1611611Y219126D01*
X1611546Y219062D01*
X1611481Y218997D01*
X1611222Y218867D01*
X1610898Y218738D01*
X1610834D01*
X1610574Y218673D01*
X1610186Y218608D01*
X1609732Y218543D01*
X1609214D01*
X1608695Y218479D01*
X1606816D01*
X1606233Y218543D01*
X1605520D01*
X1605132Y218608D01*
X1605067D01*
X1604937Y218673D01*
X1604743Y218738D01*
X1604548Y218803D01*
Y218867D01*
X1604484Y218932D01*
X1604419Y219321D01*
Y219386D01*
Y219580D01*
X1604484Y219839D01*
X1604613Y220163D01*
X1604678Y220293D01*
X1604808Y220617D01*
X1605002Y221200D01*
X1605196Y221589D01*
X1605391Y222042D01*
X1607075Y225995D01*
X1607140Y226059D01*
X1607205Y226319D01*
X1607399Y226643D01*
X1607594Y227031D01*
X1608177Y227939D01*
X1608954Y228911D01*
X1609019Y228975D01*
X1609149Y229105D01*
X1609408Y229299D01*
X1609667Y229623D01*
X1610445Y230142D01*
X1610898Y230466D01*
X1611417Y230660D01*
X1611287Y230725D01*
X1610963Y230790D01*
X1610510Y230984D01*
X1609926Y231178D01*
X1609279Y231502D01*
X1608566Y231891D01*
X1607918Y232345D01*
X1607270Y232928D01*
X1607205Y232993D01*
X1607011Y233252D01*
X1606816Y233576D01*
X1606557Y234094D01*
X1606233Y234742D01*
X1606039Y235520D01*
X1605844Y236362D01*
X1605780Y237334D01*
Y237399D01*
Y237658D01*
X1605844Y238047D01*
X1605909Y238565D01*
X1605974Y239083D01*
X1606104Y239667D01*
X1606298Y240315D01*
X1606557Y240898D01*
X1606622Y240963D01*
X1606687Y241157D01*
X1606881Y241481D01*
X1607140Y241870D01*
X1607464Y242258D01*
X1607853Y242712D01*
X1608371Y243165D01*
X1608890Y243554D01*
X1608954Y243619D01*
X1609214Y243749D01*
X1609538Y243943D01*
X1609991Y244202D01*
X1610574Y244461D01*
X1611222Y244721D01*
X1612000Y244980D01*
X1612842Y245239D01*
X1612972D01*
X1613296Y245369D01*
X1613749Y245433D01*
X1614397Y245563D01*
X1615240Y245693D01*
X1616147Y245757D01*
X1617184Y245887D01*
X1619516D01*
X1620229Y245822D01*
D02*
G37*
G36*
X1503468Y246146D02*
X1504245Y246081D01*
X1505087Y245952D01*
X1505995Y245822D01*
X1506902Y245563D01*
X1507744Y245239D01*
X1507874Y245174D01*
X1508133Y245045D01*
X1508522Y244850D01*
X1509040Y244591D01*
X1509623Y244202D01*
X1510271Y243749D01*
X1510854Y243230D01*
X1511437Y242647D01*
X1511502Y242582D01*
X1511697Y242388D01*
X1511956Y241999D01*
X1512215Y241546D01*
X1512604Y240963D01*
X1512928Y240315D01*
X1513252Y239602D01*
X1513511Y238759D01*
X1513576Y238630D01*
X1513640Y238371D01*
X1513770Y237917D01*
X1513900Y237334D01*
X1514029Y236621D01*
X1514094Y235779D01*
X1514224Y234937D01*
Y233965D01*
Y232798D01*
Y232733D01*
Y232604D01*
Y232345D01*
X1514159Y232085D01*
X1513965Y231502D01*
X1513640Y230919D01*
X1513511Y230854D01*
X1513252Y230660D01*
X1512733Y230401D01*
X1512021Y230336D01*
X1496859D01*
Y230271D01*
Y230077D01*
Y229753D01*
X1496923Y229364D01*
X1496988Y228392D01*
X1497182Y227355D01*
Y227291D01*
X1497247Y227161D01*
X1497377Y226902D01*
X1497506Y226578D01*
X1497895Y225865D01*
X1498414Y225152D01*
X1498478Y225088D01*
X1498543Y225023D01*
X1498737Y224828D01*
X1498997Y224634D01*
X1499645Y224181D01*
X1500552Y223792D01*
X1500617D01*
X1500811Y223727D01*
X1501070Y223662D01*
X1501459Y223597D01*
X1501913Y223468D01*
X1502431Y223403D01*
X1503014Y223338D01*
X1504310D01*
X1504763Y223403D01*
X1505800Y223468D01*
X1506902Y223597D01*
X1506967D01*
X1507161Y223662D01*
X1507420Y223727D01*
X1507744Y223792D01*
X1508522Y223921D01*
X1509299Y224116D01*
X1509364D01*
X1509494Y224181D01*
X1509882Y224310D01*
X1510466Y224505D01*
X1510984Y224699D01*
X1511049D01*
X1511113Y224764D01*
X1511373Y224893D01*
X1511761Y224958D01*
X1512150Y225023D01*
X1512280D01*
X1512539Y224893D01*
X1512604D01*
X1512669Y224828D01*
X1512798Y224505D01*
Y224440D01*
X1512863Y224375D01*
X1512928Y224116D01*
X1512993Y223792D01*
Y223727D01*
X1513057Y223468D01*
Y223144D01*
Y222690D01*
Y222561D01*
Y222301D01*
Y221977D01*
X1512993Y221589D01*
Y221524D01*
Y221329D01*
X1512928Y220876D01*
Y220811D01*
X1512863Y220681D01*
X1512733Y220357D01*
X1512669Y220228D01*
X1512409Y219969D01*
Y219904D01*
X1512215Y219839D01*
X1511956Y219645D01*
X1511697Y219515D01*
X1511437Y219386D01*
X1511373D01*
X1511308Y219321D01*
X1511113Y219256D01*
X1510919Y219191D01*
X1510206Y218997D01*
X1509364Y218803D01*
X1509299D01*
X1509170Y218738D01*
X1508910D01*
X1508522Y218673D01*
X1508133Y218543D01*
X1507614Y218479D01*
X1506513Y218284D01*
X1506448D01*
X1506254Y218219D01*
X1505930D01*
X1505476Y218155D01*
X1504958Y218090D01*
X1504375D01*
X1503014Y218025D01*
X1502431D01*
X1501848Y218090D01*
X1501005Y218155D01*
X1500098Y218219D01*
X1499126Y218349D01*
X1498090Y218543D01*
X1497118Y218803D01*
X1496988Y218867D01*
X1496729Y218932D01*
X1496275Y219191D01*
X1495692Y219450D01*
X1495044Y219774D01*
X1494332Y220228D01*
X1493619Y220746D01*
X1492971Y221329D01*
X1492906Y221394D01*
X1492712Y221653D01*
X1492388Y222042D01*
X1491999Y222561D01*
X1491610Y223144D01*
X1491221Y223921D01*
X1490768Y224764D01*
X1490444Y225671D01*
Y225800D01*
X1490314Y226124D01*
X1490184Y226707D01*
X1490055Y227420D01*
X1489925Y228327D01*
X1489796Y229364D01*
X1489731Y230530D01*
X1489666Y231826D01*
Y231891D01*
Y231956D01*
Y232150D01*
Y232409D01*
X1489731Y232993D01*
X1489796Y233835D01*
X1489861Y234742D01*
X1490055Y235714D01*
X1490249Y236751D01*
X1490509Y237787D01*
X1490573Y237917D01*
X1490638Y238241D01*
X1490833Y238759D01*
X1491156Y239407D01*
X1491481Y240120D01*
X1491934Y240833D01*
X1492388Y241610D01*
X1492971Y242323D01*
X1493035Y242388D01*
X1493295Y242647D01*
X1493619Y242971D01*
X1494137Y243360D01*
X1494720Y243878D01*
X1495433Y244332D01*
X1496210Y244785D01*
X1497053Y245174D01*
X1497182Y245239D01*
X1497506Y245369D01*
X1497960Y245498D01*
X1498608Y245693D01*
X1499386Y245887D01*
X1500293Y246081D01*
X1501329Y246146D01*
X1502366Y246211D01*
X1502884D01*
X1503468Y246146D01*
D02*
G37*
G36*
X1924831Y372449D02*
X1923499Y371608D01*
X1923490D01*
X1923472Y371589D01*
X1923444Y371571D01*
X1923407Y371543D01*
X1923305Y371478D01*
X1923176Y371395D01*
X1923037Y371293D01*
X1922889Y371191D01*
X1922751Y371090D01*
X1922621Y370997D01*
X1922612Y370988D01*
X1922575Y370960D01*
X1922519Y370914D01*
X1922455Y370849D01*
X1922316Y370711D01*
X1922251Y370637D01*
X1922196Y370563D01*
X1922187Y370554D01*
X1922177Y370535D01*
X1922159Y370498D01*
X1922131Y370443D01*
X1922103Y370387D01*
X1922076Y370322D01*
X1922029Y370174D01*
Y370165D01*
X1922020Y370147D01*
Y370110D01*
X1922011Y370064D01*
X1922002Y369999D01*
Y369925D01*
X1921992Y369823D01*
Y368732D01*
X1924831D01*
Y367882D01*
X1918433D01*
Y370849D01*
X1918442Y370923D01*
Y371007D01*
X1918451Y371201D01*
X1918479Y371404D01*
X1918507Y371626D01*
X1918553Y371829D01*
X1918581Y371931D01*
X1918609Y372014D01*
Y372024D01*
X1918618Y372033D01*
X1918645Y372088D01*
X1918683Y372172D01*
X1918747Y372273D01*
X1918830Y372384D01*
X1918941Y372504D01*
X1919071Y372615D01*
X1919219Y372726D01*
X1919228D01*
X1919237Y372735D01*
X1919293Y372772D01*
X1919385Y372809D01*
X1919505Y372865D01*
X1919644Y372911D01*
X1919810Y372957D01*
X1919986Y372985D01*
X1920180Y372994D01*
X1920190D01*
X1920208D01*
X1920245D01*
X1920291Y372985D01*
X1920356D01*
X1920421Y372976D01*
X1920578Y372939D01*
X1920763Y372883D01*
X1920957Y372809D01*
X1921151Y372699D01*
X1921243Y372625D01*
X1921336Y372551D01*
X1921345Y372541D01*
X1921355Y372532D01*
X1921382Y372504D01*
X1921410Y372467D01*
X1921447Y372421D01*
X1921484Y372366D01*
X1921530Y372292D01*
X1921586Y372218D01*
X1921632Y372125D01*
X1921678Y372024D01*
X1921734Y371913D01*
X1921780Y371792D01*
X1921817Y371654D01*
X1921863Y371515D01*
X1921891Y371358D01*
X1921918Y371191D01*
X1921928Y371210D01*
X1921946Y371247D01*
X1921983Y371302D01*
X1922020Y371376D01*
X1922122Y371543D01*
X1922187Y371626D01*
X1922242Y371700D01*
X1922260Y371718D01*
X1922307Y371765D01*
X1922381Y371839D01*
X1922473Y371931D01*
X1922603Y372033D01*
X1922741Y372153D01*
X1922908Y372273D01*
X1923093Y372403D01*
X1924831Y373503D01*
Y372449D01*
D02*
G37*
G36*
X1922910Y391335D02*
X1922966Y391317D01*
X1923040Y391289D01*
X1923123Y391261D01*
X1923225Y391224D01*
X1923336Y391178D01*
X1923456Y391123D01*
X1923715Y390993D01*
X1923974Y390827D01*
X1924103Y390725D01*
X1924233Y390624D01*
X1924344Y390513D01*
X1924454Y390383D01*
X1924464Y390374D01*
X1924482Y390355D01*
X1924501Y390309D01*
X1924538Y390263D01*
X1924584Y390189D01*
X1924630Y390115D01*
X1924676Y390013D01*
X1924723Y389911D01*
X1924778Y389791D01*
X1924824Y389662D01*
X1924871Y389523D01*
X1924917Y389375D01*
X1924954Y389218D01*
X1924972Y389052D01*
X1924991Y388876D01*
X1925000Y388691D01*
Y388589D01*
X1924991Y388516D01*
Y388432D01*
X1924982Y388330D01*
X1924963Y388220D01*
X1924944Y388090D01*
X1924898Y387822D01*
X1924824Y387545D01*
X1924723Y387267D01*
X1924658Y387138D01*
X1924584Y387008D01*
X1924575Y386999D01*
X1924565Y386981D01*
X1924538Y386944D01*
X1924501Y386907D01*
X1924464Y386851D01*
X1924408Y386786D01*
X1924344Y386713D01*
X1924270Y386639D01*
X1924186Y386565D01*
X1924103Y386481D01*
X1923891Y386315D01*
X1923641Y386158D01*
X1923363Y386019D01*
X1923354D01*
X1923327Y386001D01*
X1923280Y385991D01*
X1923225Y385964D01*
X1923151Y385945D01*
X1923058Y385917D01*
X1922957Y385881D01*
X1922846Y385853D01*
X1922726Y385825D01*
X1922587Y385788D01*
X1922300Y385742D01*
X1921977Y385705D01*
X1921644Y385686D01*
X1921635D01*
X1921598D01*
X1921542D01*
X1921477Y385695D01*
X1921385D01*
X1921293Y385705D01*
X1921172Y385714D01*
X1921052Y385732D01*
X1920784Y385779D01*
X1920488Y385844D01*
X1920192Y385936D01*
X1919906Y386065D01*
X1919896Y386075D01*
X1919869Y386084D01*
X1919832Y386102D01*
X1919785Y386139D01*
X1919721Y386176D01*
X1919647Y386222D01*
X1919480Y386343D01*
X1919296Y386500D01*
X1919111Y386685D01*
X1918926Y386898D01*
X1918768Y387147D01*
X1918759Y387156D01*
X1918750Y387184D01*
X1918732Y387221D01*
X1918704Y387267D01*
X1918676Y387341D01*
X1918648Y387415D01*
X1918611Y387508D01*
X1918574Y387609D01*
X1918537Y387720D01*
X1918500Y387840D01*
X1918445Y388099D01*
X1918399Y388395D01*
X1918380Y388700D01*
Y388793D01*
X1918389Y388857D01*
X1918399Y388941D01*
X1918408Y389043D01*
X1918417Y389144D01*
X1918445Y389264D01*
X1918500Y389514D01*
X1918584Y389791D01*
X1918639Y389930D01*
X1918704Y390060D01*
X1918787Y390189D01*
X1918870Y390318D01*
X1918879Y390328D01*
X1918889Y390346D01*
X1918916Y390383D01*
X1918963Y390429D01*
X1919009Y390476D01*
X1919074Y390540D01*
X1919147Y390605D01*
X1919221Y390679D01*
X1919314Y390753D01*
X1919425Y390827D01*
X1919536Y390910D01*
X1919656Y390984D01*
X1919795Y391049D01*
X1919933Y391123D01*
X1920081Y391178D01*
X1920248Y391234D01*
X1920442Y390402D01*
X1920433D01*
X1920414Y390392D01*
X1920377Y390374D01*
X1920331Y390355D01*
X1920276Y390337D01*
X1920202Y390309D01*
X1920054Y390235D01*
X1919887Y390143D01*
X1919721Y390032D01*
X1919564Y389893D01*
X1919425Y389745D01*
X1919406Y389727D01*
X1919369Y389671D01*
X1919323Y389579D01*
X1919259Y389459D01*
X1919203Y389301D01*
X1919147Y389126D01*
X1919111Y388913D01*
X1919101Y388682D01*
Y388608D01*
X1919111Y388562D01*
Y388497D01*
X1919120Y388423D01*
X1919147Y388247D01*
X1919185Y388053D01*
X1919249Y387850D01*
X1919342Y387637D01*
X1919462Y387443D01*
Y387434D01*
X1919480Y387425D01*
X1919527Y387360D01*
X1919601Y387276D01*
X1919711Y387175D01*
X1919850Y387055D01*
X1920007Y386944D01*
X1920202Y386842D01*
X1920414Y386749D01*
X1920423D01*
X1920442Y386740D01*
X1920470Y386731D01*
X1920516Y386722D01*
X1920571Y386703D01*
X1920636Y386685D01*
X1920793Y386657D01*
X1920978Y386620D01*
X1921182Y386583D01*
X1921404Y386565D01*
X1921644Y386555D01*
X1921653D01*
X1921681D01*
X1921727D01*
X1921783D01*
X1921847Y386565D01*
X1921931D01*
X1922023Y386574D01*
X1922125Y386583D01*
X1922346Y386611D01*
X1922587Y386657D01*
X1922827Y386713D01*
X1923068Y386786D01*
X1923077D01*
X1923095Y386796D01*
X1923123Y386814D01*
X1923169Y386833D01*
X1923280Y386888D01*
X1923410Y386971D01*
X1923558Y387073D01*
X1923715Y387203D01*
X1923854Y387351D01*
X1923983Y387526D01*
Y387535D01*
X1923992Y387554D01*
X1924011Y387582D01*
X1924029Y387619D01*
X1924048Y387665D01*
X1924075Y387720D01*
X1924131Y387850D01*
X1924186Y388016D01*
X1924233Y388201D01*
X1924270Y388405D01*
X1924279Y388617D01*
Y388682D01*
X1924270Y388737D01*
Y388802D01*
X1924260Y388867D01*
X1924223Y389033D01*
X1924177Y389227D01*
X1924103Y389422D01*
X1924001Y389625D01*
X1923946Y389727D01*
X1923872Y389819D01*
X1923863Y389828D01*
X1923854Y389838D01*
X1923826Y389865D01*
X1923798Y389902D01*
X1923752Y389939D01*
X1923696Y389986D01*
X1923641Y390041D01*
X1923567Y390087D01*
X1923484Y390143D01*
X1923391Y390207D01*
X1923299Y390263D01*
X1923188Y390318D01*
X1923068Y390365D01*
X1922938Y390411D01*
X1922800Y390457D01*
X1922652Y390494D01*
X1922864Y391345D01*
X1922874D01*
X1922910Y391335D01*
D02*
G37*
G36*
X1924011Y409399D02*
X1924020Y409381D01*
X1924048Y409344D01*
X1924085Y409297D01*
X1924122Y409242D01*
X1924168Y409177D01*
X1924223Y409094D01*
X1924279Y409011D01*
X1924399Y408817D01*
X1924529Y408595D01*
X1924649Y408364D01*
X1924750Y408114D01*
Y408105D01*
X1924760Y408086D01*
X1924769Y408049D01*
X1924787Y408003D01*
X1924806Y407938D01*
X1924834Y407864D01*
X1924852Y407781D01*
X1924870Y407698D01*
X1924917Y407495D01*
X1924963Y407263D01*
X1924991Y407014D01*
X1925000Y406755D01*
Y406662D01*
X1924991Y406598D01*
Y406515D01*
X1924982Y406413D01*
X1924963Y406302D01*
X1924954Y406182D01*
X1924898Y405914D01*
X1924834Y405627D01*
X1924732Y405331D01*
X1924676Y405183D01*
X1924602Y405035D01*
X1924593Y405026D01*
X1924584Y404998D01*
X1924556Y404961D01*
X1924529Y404906D01*
X1924482Y404841D01*
X1924436Y404776D01*
X1924307Y404601D01*
X1924140Y404416D01*
X1923937Y404222D01*
X1923706Y404037D01*
X1923438Y403870D01*
X1923428D01*
X1923401Y403852D01*
X1923363Y403833D01*
X1923299Y403806D01*
X1923234Y403778D01*
X1923142Y403750D01*
X1923049Y403713D01*
X1922938Y403676D01*
X1922818Y403639D01*
X1922679Y403602D01*
X1922541Y403574D01*
X1922393Y403547D01*
X1922069Y403500D01*
X1921727Y403482D01*
X1921718D01*
X1921681D01*
X1921635D01*
X1921570Y403491D01*
X1921487D01*
X1921385Y403500D01*
X1921283Y403519D01*
X1921163Y403528D01*
X1921034Y403556D01*
X1920895Y403574D01*
X1920599Y403648D01*
X1920294Y403741D01*
X1919989Y403870D01*
X1919980Y403880D01*
X1919952Y403889D01*
X1919915Y403907D01*
X1919859Y403944D01*
X1919785Y403981D01*
X1919711Y404027D01*
X1919536Y404157D01*
X1919332Y404314D01*
X1919138Y404508D01*
X1918944Y404730D01*
X1918861Y404860D01*
X1918778Y404989D01*
X1918768Y404998D01*
X1918759Y405026D01*
X1918741Y405063D01*
X1918713Y405118D01*
X1918685Y405192D01*
X1918648Y405276D01*
X1918611Y405368D01*
X1918574Y405479D01*
X1918537Y405599D01*
X1918510Y405729D01*
X1918473Y405867D01*
X1918445Y406015D01*
X1918399Y406339D01*
X1918380Y406505D01*
Y406801D01*
X1918389Y406857D01*
Y406931D01*
X1918408Y407106D01*
X1918436Y407300D01*
X1918482Y407504D01*
X1918537Y407726D01*
X1918611Y407938D01*
Y407948D01*
X1918620Y407966D01*
X1918630Y407994D01*
X1918648Y408031D01*
X1918704Y408133D01*
X1918768Y408262D01*
X1918861Y408401D01*
X1918972Y408549D01*
X1919092Y408687D01*
X1919240Y408817D01*
X1919259Y408835D01*
X1919314Y408872D01*
X1919397Y408928D01*
X1919517Y409002D01*
X1919665Y409076D01*
X1919850Y409159D01*
X1920054Y409242D01*
X1920285Y409307D01*
X1920488Y408539D01*
X1920479D01*
X1920470Y408530D01*
X1920442Y408521D01*
X1920405Y408512D01*
X1920322Y408484D01*
X1920211Y408447D01*
X1920081Y408391D01*
X1919961Y408327D01*
X1919832Y408262D01*
X1919721Y408179D01*
X1919711Y408170D01*
X1919675Y408142D01*
X1919628Y408086D01*
X1919564Y408022D01*
X1919490Y407938D01*
X1919416Y407827D01*
X1919342Y407707D01*
X1919277Y407569D01*
X1919268Y407550D01*
X1919249Y407504D01*
X1919221Y407421D01*
X1919185Y407310D01*
X1919157Y407180D01*
X1919129Y407032D01*
X1919111Y406866D01*
X1919101Y406690D01*
Y406589D01*
X1919111Y406542D01*
Y406487D01*
X1919120Y406348D01*
X1919147Y406191D01*
X1919175Y406015D01*
X1919221Y405849D01*
X1919286Y405682D01*
X1919296Y405664D01*
X1919314Y405608D01*
X1919360Y405535D01*
X1919406Y405442D01*
X1919480Y405331D01*
X1919554Y405211D01*
X1919647Y405100D01*
X1919749Y404998D01*
X1919758Y404989D01*
X1919795Y404952D01*
X1919859Y404906D01*
X1919933Y404850D01*
X1920026Y404786D01*
X1920137Y404721D01*
X1920257Y404656D01*
X1920386Y404591D01*
X1920396D01*
X1920414Y404582D01*
X1920442Y404573D01*
X1920488Y404554D01*
X1920544Y404536D01*
X1920608Y404518D01*
X1920682Y404490D01*
X1920766Y404471D01*
X1920960Y404425D01*
X1921182Y404388D01*
X1921413Y404360D01*
X1921672Y404351D01*
X1921681D01*
X1921709D01*
X1921755D01*
X1921810Y404360D01*
X1921884D01*
X1921977Y404370D01*
X1922069Y404379D01*
X1922171Y404388D01*
X1922402Y404425D01*
X1922642Y404471D01*
X1922883Y404545D01*
X1923114Y404638D01*
X1923123D01*
X1923142Y404656D01*
X1923169Y404665D01*
X1923206Y404693D01*
X1923308Y404758D01*
X1923438Y404860D01*
X1923576Y404980D01*
X1923715Y405128D01*
X1923844Y405303D01*
X1923965Y405498D01*
Y405507D01*
X1923974Y405525D01*
X1923992Y405553D01*
X1924011Y405599D01*
X1924029Y405645D01*
X1924048Y405710D01*
X1924103Y405858D01*
X1924149Y406043D01*
X1924196Y406246D01*
X1924233Y406468D01*
X1924242Y406699D01*
Y406792D01*
X1924233Y406847D01*
Y406903D01*
X1924214Y407042D01*
X1924196Y407208D01*
X1924159Y407384D01*
X1924103Y407578D01*
X1924038Y407772D01*
Y407781D01*
X1924029Y407800D01*
X1924020Y407818D01*
X1924001Y407855D01*
X1923955Y407957D01*
X1923900Y408068D01*
X1923835Y408197D01*
X1923761Y408336D01*
X1923678Y408465D01*
X1923585Y408576D01*
X1922384D01*
Y406690D01*
X1921625D01*
Y409408D01*
X1924001D01*
X1924011Y409399D01*
D02*
G37*
G36*
X1924831Y972449D02*
X1923499Y971608D01*
X1923490D01*
X1923472Y971589D01*
X1923444Y971571D01*
X1923407Y971543D01*
X1923305Y971478D01*
X1923176Y971395D01*
X1923037Y971293D01*
X1922889Y971191D01*
X1922751Y971090D01*
X1922621Y970997D01*
X1922612Y970988D01*
X1922575Y970960D01*
X1922519Y970914D01*
X1922455Y970849D01*
X1922316Y970711D01*
X1922251Y970637D01*
X1922196Y970563D01*
X1922187Y970554D01*
X1922177Y970535D01*
X1922159Y970498D01*
X1922131Y970443D01*
X1922103Y970387D01*
X1922076Y970322D01*
X1922029Y970174D01*
Y970165D01*
X1922020Y970147D01*
Y970110D01*
X1922011Y970063D01*
X1922002Y969999D01*
Y969925D01*
X1921992Y969823D01*
Y968732D01*
X1924831D01*
Y967881D01*
X1918433D01*
Y970849D01*
X1918442Y970923D01*
Y971006D01*
X1918451Y971201D01*
X1918479Y971404D01*
X1918507Y971626D01*
X1918553Y971829D01*
X1918581Y971931D01*
X1918609Y972014D01*
Y972024D01*
X1918618Y972033D01*
X1918645Y972088D01*
X1918683Y972171D01*
X1918747Y972273D01*
X1918830Y972384D01*
X1918941Y972504D01*
X1919071Y972615D01*
X1919219Y972726D01*
X1919228D01*
X1919237Y972736D01*
X1919293Y972773D01*
X1919385Y972809D01*
X1919505Y972865D01*
X1919644Y972911D01*
X1919810Y972957D01*
X1919986Y972985D01*
X1920180Y972994D01*
X1920190D01*
X1920208D01*
X1920245D01*
X1920291Y972985D01*
X1920356D01*
X1920421Y972976D01*
X1920578Y972939D01*
X1920763Y972883D01*
X1920957Y972809D01*
X1921151Y972699D01*
X1921243Y972625D01*
X1921336Y972551D01*
X1921345Y972541D01*
X1921355Y972532D01*
X1921382Y972504D01*
X1921410Y972467D01*
X1921447Y972421D01*
X1921484Y972366D01*
X1921530Y972292D01*
X1921586Y972218D01*
X1921632Y972125D01*
X1921678Y972024D01*
X1921734Y971913D01*
X1921780Y971792D01*
X1921817Y971654D01*
X1921863Y971515D01*
X1921891Y971358D01*
X1921918Y971191D01*
X1921928Y971210D01*
X1921946Y971247D01*
X1921983Y971302D01*
X1922020Y971376D01*
X1922122Y971543D01*
X1922187Y971626D01*
X1922242Y971700D01*
X1922260Y971719D01*
X1922307Y971765D01*
X1922381Y971839D01*
X1922473Y971931D01*
X1922603Y972033D01*
X1922741Y972153D01*
X1922908Y972273D01*
X1923093Y972403D01*
X1924831Y973503D01*
Y972449D01*
D02*
G37*
G36*
X1922910Y991335D02*
X1922966Y991317D01*
X1923040Y991289D01*
X1923123Y991261D01*
X1923225Y991224D01*
X1923336Y991178D01*
X1923456Y991123D01*
X1923715Y990993D01*
X1923974Y990827D01*
X1924103Y990725D01*
X1924233Y990623D01*
X1924344Y990512D01*
X1924454Y990383D01*
X1924464Y990374D01*
X1924482Y990355D01*
X1924501Y990309D01*
X1924538Y990263D01*
X1924584Y990189D01*
X1924630Y990115D01*
X1924676Y990013D01*
X1924723Y989912D01*
X1924778Y989791D01*
X1924824Y989662D01*
X1924871Y989523D01*
X1924917Y989375D01*
X1924954Y989218D01*
X1924972Y989052D01*
X1924991Y988876D01*
X1925000Y988691D01*
Y988589D01*
X1924991Y988515D01*
Y988432D01*
X1924982Y988331D01*
X1924963Y988220D01*
X1924944Y988090D01*
X1924898Y987822D01*
X1924824Y987545D01*
X1924723Y987267D01*
X1924658Y987138D01*
X1924584Y987008D01*
X1924575Y986999D01*
X1924565Y986981D01*
X1924538Y986944D01*
X1924501Y986907D01*
X1924464Y986851D01*
X1924408Y986786D01*
X1924344Y986713D01*
X1924270Y986639D01*
X1924186Y986565D01*
X1924103Y986481D01*
X1923891Y986315D01*
X1923641Y986158D01*
X1923363Y986019D01*
X1923354D01*
X1923327Y986001D01*
X1923280Y985991D01*
X1923225Y985964D01*
X1923151Y985945D01*
X1923058Y985918D01*
X1922957Y985881D01*
X1922846Y985853D01*
X1922726Y985825D01*
X1922587Y985788D01*
X1922300Y985742D01*
X1921977Y985705D01*
X1921644Y985686D01*
X1921635D01*
X1921598D01*
X1921542D01*
X1921477Y985696D01*
X1921385D01*
X1921293Y985705D01*
X1921172Y985714D01*
X1921052Y985732D01*
X1920784Y985779D01*
X1920488Y985844D01*
X1920192Y985936D01*
X1919906Y986065D01*
X1919896Y986075D01*
X1919869Y986084D01*
X1919832Y986102D01*
X1919785Y986139D01*
X1919721Y986176D01*
X1919647Y986223D01*
X1919480Y986343D01*
X1919296Y986500D01*
X1919111Y986685D01*
X1918926Y986898D01*
X1918768Y987147D01*
X1918759Y987156D01*
X1918750Y987184D01*
X1918732Y987221D01*
X1918704Y987267D01*
X1918676Y987341D01*
X1918648Y987415D01*
X1918611Y987508D01*
X1918574Y987609D01*
X1918537Y987720D01*
X1918500Y987840D01*
X1918445Y988099D01*
X1918399Y988395D01*
X1918380Y988700D01*
Y988793D01*
X1918389Y988858D01*
X1918399Y988941D01*
X1918408Y989043D01*
X1918417Y989144D01*
X1918445Y989264D01*
X1918500Y989514D01*
X1918584Y989791D01*
X1918639Y989930D01*
X1918704Y990060D01*
X1918787Y990189D01*
X1918870Y990318D01*
X1918879Y990328D01*
X1918889Y990346D01*
X1918916Y990383D01*
X1918963Y990429D01*
X1919009Y990475D01*
X1919074Y990540D01*
X1919147Y990605D01*
X1919221Y990679D01*
X1919314Y990753D01*
X1919425Y990827D01*
X1919536Y990910D01*
X1919656Y990984D01*
X1919795Y991049D01*
X1919933Y991123D01*
X1920081Y991178D01*
X1920248Y991234D01*
X1920442Y990402D01*
X1920433D01*
X1920414Y990392D01*
X1920377Y990374D01*
X1920331Y990355D01*
X1920276Y990337D01*
X1920202Y990309D01*
X1920054Y990235D01*
X1919887Y990143D01*
X1919721Y990032D01*
X1919564Y989893D01*
X1919425Y989745D01*
X1919406Y989727D01*
X1919369Y989671D01*
X1919323Y989579D01*
X1919259Y989458D01*
X1919203Y989301D01*
X1919147Y989126D01*
X1919111Y988913D01*
X1919101Y988682D01*
Y988608D01*
X1919111Y988562D01*
Y988497D01*
X1919120Y988423D01*
X1919147Y988247D01*
X1919185Y988053D01*
X1919249Y987850D01*
X1919342Y987637D01*
X1919462Y987443D01*
Y987434D01*
X1919480Y987424D01*
X1919527Y987360D01*
X1919601Y987277D01*
X1919711Y987175D01*
X1919850Y987055D01*
X1920007Y986944D01*
X1920202Y986842D01*
X1920414Y986750D01*
X1920423D01*
X1920442Y986740D01*
X1920470Y986731D01*
X1920516Y986722D01*
X1920571Y986703D01*
X1920636Y986685D01*
X1920793Y986657D01*
X1920978Y986620D01*
X1921182Y986583D01*
X1921404Y986565D01*
X1921644Y986555D01*
X1921653D01*
X1921681D01*
X1921727D01*
X1921783D01*
X1921847Y986565D01*
X1921931D01*
X1922023Y986574D01*
X1922125Y986583D01*
X1922346Y986611D01*
X1922587Y986657D01*
X1922827Y986713D01*
X1923068Y986786D01*
X1923077D01*
X1923095Y986796D01*
X1923123Y986814D01*
X1923169Y986833D01*
X1923280Y986888D01*
X1923410Y986972D01*
X1923558Y987073D01*
X1923715Y987203D01*
X1923854Y987350D01*
X1923983Y987526D01*
Y987535D01*
X1923992Y987554D01*
X1924011Y987582D01*
X1924029Y987619D01*
X1924048Y987665D01*
X1924075Y987720D01*
X1924131Y987850D01*
X1924186Y988016D01*
X1924233Y988201D01*
X1924270Y988404D01*
X1924279Y988617D01*
Y988682D01*
X1924270Y988737D01*
Y988802D01*
X1924260Y988867D01*
X1924223Y989033D01*
X1924177Y989227D01*
X1924103Y989421D01*
X1924001Y989625D01*
X1923946Y989727D01*
X1923872Y989819D01*
X1923863Y989828D01*
X1923854Y989838D01*
X1923826Y989865D01*
X1923798Y989902D01*
X1923752Y989939D01*
X1923696Y989986D01*
X1923641Y990041D01*
X1923567Y990087D01*
X1923484Y990143D01*
X1923391Y990207D01*
X1923299Y990263D01*
X1923188Y990318D01*
X1923068Y990365D01*
X1922938Y990411D01*
X1922800Y990457D01*
X1922652Y990494D01*
X1922864Y991345D01*
X1922874D01*
X1922910Y991335D01*
D02*
G37*
G36*
X1924011Y1009399D02*
X1924020Y1009381D01*
X1924048Y1009344D01*
X1924085Y1009297D01*
X1924122Y1009242D01*
X1924168Y1009177D01*
X1924223Y1009094D01*
X1924279Y1009011D01*
X1924399Y1008817D01*
X1924529Y1008595D01*
X1924649Y1008364D01*
X1924750Y1008114D01*
Y1008105D01*
X1924760Y1008086D01*
X1924769Y1008049D01*
X1924787Y1008003D01*
X1924806Y1007938D01*
X1924834Y1007864D01*
X1924852Y1007781D01*
X1924870Y1007698D01*
X1924917Y1007495D01*
X1924963Y1007263D01*
X1924991Y1007014D01*
X1925000Y1006755D01*
Y1006663D01*
X1924991Y1006598D01*
Y1006515D01*
X1924982Y1006413D01*
X1924963Y1006302D01*
X1924954Y1006182D01*
X1924898Y1005914D01*
X1924834Y1005627D01*
X1924732Y1005331D01*
X1924676Y1005183D01*
X1924602Y1005035D01*
X1924593Y1005026D01*
X1924584Y1004998D01*
X1924556Y1004961D01*
X1924529Y1004906D01*
X1924482Y1004841D01*
X1924436Y1004776D01*
X1924307Y1004601D01*
X1924140Y1004416D01*
X1923937Y1004222D01*
X1923706Y1004037D01*
X1923438Y1003870D01*
X1923428D01*
X1923401Y1003852D01*
X1923363Y1003833D01*
X1923299Y1003806D01*
X1923234Y1003778D01*
X1923142Y1003750D01*
X1923049Y1003713D01*
X1922938Y1003676D01*
X1922818Y1003639D01*
X1922679Y1003602D01*
X1922541Y1003574D01*
X1922393Y1003547D01*
X1922069Y1003501D01*
X1921727Y1003482D01*
X1921718D01*
X1921681D01*
X1921635D01*
X1921570Y1003491D01*
X1921487D01*
X1921385Y1003501D01*
X1921283Y1003519D01*
X1921163Y1003528D01*
X1921034Y1003556D01*
X1920895Y1003574D01*
X1920599Y1003648D01*
X1920294Y1003741D01*
X1919989Y1003870D01*
X1919980Y1003879D01*
X1919952Y1003889D01*
X1919915Y1003907D01*
X1919859Y1003944D01*
X1919785Y1003981D01*
X1919711Y1004027D01*
X1919536Y1004157D01*
X1919332Y1004314D01*
X1919138Y1004508D01*
X1918944Y1004730D01*
X1918861Y1004860D01*
X1918778Y1004989D01*
X1918768Y1004998D01*
X1918759Y1005026D01*
X1918741Y1005063D01*
X1918713Y1005118D01*
X1918685Y1005192D01*
X1918648Y1005276D01*
X1918611Y1005368D01*
X1918574Y1005479D01*
X1918537Y1005599D01*
X1918510Y1005729D01*
X1918473Y1005867D01*
X1918445Y1006015D01*
X1918399Y1006339D01*
X1918380Y1006505D01*
Y1006801D01*
X1918389Y1006857D01*
Y1006931D01*
X1918408Y1007106D01*
X1918436Y1007300D01*
X1918482Y1007504D01*
X1918537Y1007726D01*
X1918611Y1007938D01*
Y1007948D01*
X1918620Y1007966D01*
X1918630Y1007994D01*
X1918648Y1008031D01*
X1918704Y1008132D01*
X1918768Y1008262D01*
X1918861Y1008401D01*
X1918972Y1008549D01*
X1919092Y1008687D01*
X1919240Y1008817D01*
X1919259Y1008835D01*
X1919314Y1008872D01*
X1919397Y1008928D01*
X1919517Y1009002D01*
X1919665Y1009076D01*
X1919850Y1009159D01*
X1920054Y1009242D01*
X1920285Y1009307D01*
X1920488Y1008539D01*
X1920479D01*
X1920470Y1008530D01*
X1920442Y1008521D01*
X1920405Y1008512D01*
X1920322Y1008484D01*
X1920211Y1008447D01*
X1920081Y1008391D01*
X1919961Y1008327D01*
X1919832Y1008262D01*
X1919721Y1008179D01*
X1919711Y1008169D01*
X1919675Y1008142D01*
X1919628Y1008086D01*
X1919564Y1008022D01*
X1919490Y1007938D01*
X1919416Y1007827D01*
X1919342Y1007707D01*
X1919277Y1007569D01*
X1919268Y1007550D01*
X1919249Y1007504D01*
X1919221Y1007421D01*
X1919185Y1007310D01*
X1919157Y1007180D01*
X1919129Y1007032D01*
X1919111Y1006866D01*
X1919101Y1006690D01*
Y1006589D01*
X1919111Y1006542D01*
Y1006487D01*
X1919120Y1006348D01*
X1919147Y1006191D01*
X1919175Y1006015D01*
X1919221Y1005849D01*
X1919286Y1005682D01*
X1919296Y1005664D01*
X1919314Y1005609D01*
X1919360Y1005535D01*
X1919406Y1005442D01*
X1919480Y1005331D01*
X1919554Y1005211D01*
X1919647Y1005100D01*
X1919749Y1004998D01*
X1919758Y1004989D01*
X1919795Y1004952D01*
X1919859Y1004906D01*
X1919933Y1004850D01*
X1920026Y1004786D01*
X1920137Y1004721D01*
X1920257Y1004656D01*
X1920386Y1004591D01*
X1920396D01*
X1920414Y1004582D01*
X1920442Y1004573D01*
X1920488Y1004555D01*
X1920544Y1004536D01*
X1920608Y1004518D01*
X1920682Y1004490D01*
X1920766Y1004471D01*
X1920960Y1004425D01*
X1921182Y1004388D01*
X1921413Y1004360D01*
X1921672Y1004351D01*
X1921681D01*
X1921709D01*
X1921755D01*
X1921810Y1004360D01*
X1921884D01*
X1921977Y1004370D01*
X1922069Y1004379D01*
X1922171Y1004388D01*
X1922402Y1004425D01*
X1922642Y1004471D01*
X1922883Y1004545D01*
X1923114Y1004638D01*
X1923123D01*
X1923142Y1004656D01*
X1923169Y1004665D01*
X1923206Y1004693D01*
X1923308Y1004758D01*
X1923438Y1004860D01*
X1923576Y1004980D01*
X1923715Y1005128D01*
X1923844Y1005303D01*
X1923965Y1005498D01*
Y1005507D01*
X1923974Y1005525D01*
X1923992Y1005553D01*
X1924011Y1005599D01*
X1924029Y1005645D01*
X1924048Y1005710D01*
X1924103Y1005858D01*
X1924149Y1006043D01*
X1924196Y1006246D01*
X1924233Y1006468D01*
X1924242Y1006699D01*
Y1006792D01*
X1924233Y1006847D01*
Y1006903D01*
X1924214Y1007041D01*
X1924196Y1007208D01*
X1924159Y1007384D01*
X1924103Y1007578D01*
X1924038Y1007772D01*
Y1007781D01*
X1924029Y1007800D01*
X1924020Y1007818D01*
X1924001Y1007855D01*
X1923955Y1007957D01*
X1923900Y1008068D01*
X1923835Y1008197D01*
X1923761Y1008336D01*
X1923678Y1008465D01*
X1923585Y1008576D01*
X1922384D01*
Y1006690D01*
X1921625D01*
Y1009408D01*
X1924001D01*
X1924011Y1009399D01*
D02*
G37*
G36*
X1924831Y672449D02*
X1923499Y671608D01*
X1923490D01*
X1923472Y671589D01*
X1923444Y671571D01*
X1923407Y671543D01*
X1923305Y671478D01*
X1923176Y671395D01*
X1923037Y671293D01*
X1922889Y671191D01*
X1922751Y671090D01*
X1922621Y670997D01*
X1922612Y670988D01*
X1922575Y670960D01*
X1922519Y670914D01*
X1922455Y670849D01*
X1922316Y670711D01*
X1922251Y670637D01*
X1922196Y670563D01*
X1922187Y670554D01*
X1922177Y670535D01*
X1922159Y670498D01*
X1922131Y670443D01*
X1922103Y670387D01*
X1922076Y670322D01*
X1922029Y670174D01*
Y670165D01*
X1922020Y670147D01*
Y670110D01*
X1922011Y670063D01*
X1922002Y669999D01*
Y669925D01*
X1921992Y669823D01*
Y668732D01*
X1924831D01*
Y667881D01*
X1918433D01*
Y670849D01*
X1918442Y670923D01*
Y671006D01*
X1918451Y671201D01*
X1918479Y671404D01*
X1918507Y671626D01*
X1918553Y671829D01*
X1918581Y671931D01*
X1918609Y672014D01*
Y672023D01*
X1918618Y672033D01*
X1918645Y672088D01*
X1918683Y672171D01*
X1918747Y672273D01*
X1918830Y672384D01*
X1918941Y672504D01*
X1919071Y672615D01*
X1919219Y672726D01*
X1919228D01*
X1919237Y672736D01*
X1919293Y672772D01*
X1919385Y672809D01*
X1919505Y672865D01*
X1919644Y672911D01*
X1919810Y672957D01*
X1919986Y672985D01*
X1920180Y672994D01*
X1920190D01*
X1920208D01*
X1920245D01*
X1920291Y672985D01*
X1920356D01*
X1920421Y672976D01*
X1920578Y672939D01*
X1920763Y672883D01*
X1920957Y672809D01*
X1921151Y672699D01*
X1921243Y672625D01*
X1921336Y672551D01*
X1921345Y672541D01*
X1921355Y672532D01*
X1921382Y672504D01*
X1921410Y672467D01*
X1921447Y672421D01*
X1921484Y672366D01*
X1921530Y672292D01*
X1921586Y672218D01*
X1921632Y672125D01*
X1921678Y672023D01*
X1921734Y671913D01*
X1921780Y671792D01*
X1921817Y671654D01*
X1921863Y671515D01*
X1921891Y671358D01*
X1921918Y671191D01*
X1921928Y671210D01*
X1921946Y671247D01*
X1921983Y671302D01*
X1922020Y671376D01*
X1922122Y671543D01*
X1922187Y671626D01*
X1922242Y671700D01*
X1922260Y671718D01*
X1922307Y671765D01*
X1922381Y671839D01*
X1922473Y671931D01*
X1922603Y672033D01*
X1922741Y672153D01*
X1922908Y672273D01*
X1923093Y672403D01*
X1924831Y673503D01*
Y672449D01*
D02*
G37*
G36*
X1922910Y691335D02*
X1922966Y691317D01*
X1923040Y691289D01*
X1923123Y691261D01*
X1923225Y691224D01*
X1923336Y691178D01*
X1923456Y691123D01*
X1923715Y690993D01*
X1923974Y690827D01*
X1924103Y690725D01*
X1924233Y690623D01*
X1924344Y690512D01*
X1924454Y690383D01*
X1924464Y690374D01*
X1924482Y690355D01*
X1924501Y690309D01*
X1924538Y690263D01*
X1924584Y690189D01*
X1924630Y690115D01*
X1924676Y690013D01*
X1924723Y689911D01*
X1924778Y689791D01*
X1924824Y689662D01*
X1924871Y689523D01*
X1924917Y689375D01*
X1924954Y689218D01*
X1924972Y689052D01*
X1924991Y688876D01*
X1925000Y688691D01*
Y688589D01*
X1924991Y688515D01*
Y688432D01*
X1924982Y688331D01*
X1924963Y688220D01*
X1924944Y688090D01*
X1924898Y687822D01*
X1924824Y687545D01*
X1924723Y687267D01*
X1924658Y687138D01*
X1924584Y687008D01*
X1924575Y686999D01*
X1924565Y686981D01*
X1924538Y686944D01*
X1924501Y686907D01*
X1924464Y686851D01*
X1924408Y686786D01*
X1924344Y686713D01*
X1924270Y686639D01*
X1924186Y686565D01*
X1924103Y686481D01*
X1923891Y686315D01*
X1923641Y686158D01*
X1923363Y686019D01*
X1923354D01*
X1923327Y686001D01*
X1923280Y685991D01*
X1923225Y685964D01*
X1923151Y685945D01*
X1923058Y685917D01*
X1922957Y685881D01*
X1922846Y685853D01*
X1922726Y685825D01*
X1922587Y685788D01*
X1922300Y685742D01*
X1921977Y685705D01*
X1921644Y685686D01*
X1921635D01*
X1921598D01*
X1921542D01*
X1921477Y685696D01*
X1921385D01*
X1921293Y685705D01*
X1921172Y685714D01*
X1921052Y685732D01*
X1920784Y685779D01*
X1920488Y685844D01*
X1920192Y685936D01*
X1919906Y686065D01*
X1919896Y686075D01*
X1919869Y686084D01*
X1919832Y686102D01*
X1919785Y686139D01*
X1919721Y686176D01*
X1919647Y686223D01*
X1919480Y686343D01*
X1919296Y686500D01*
X1919111Y686685D01*
X1918926Y686898D01*
X1918768Y687147D01*
X1918759Y687156D01*
X1918750Y687184D01*
X1918732Y687221D01*
X1918704Y687267D01*
X1918676Y687341D01*
X1918648Y687415D01*
X1918611Y687508D01*
X1918574Y687609D01*
X1918537Y687720D01*
X1918500Y687840D01*
X1918445Y688099D01*
X1918399Y688395D01*
X1918380Y688700D01*
Y688793D01*
X1918389Y688858D01*
X1918399Y688941D01*
X1918408Y689043D01*
X1918417Y689144D01*
X1918445Y689264D01*
X1918500Y689514D01*
X1918584Y689791D01*
X1918639Y689930D01*
X1918704Y690060D01*
X1918787Y690189D01*
X1918870Y690318D01*
X1918879Y690328D01*
X1918889Y690346D01*
X1918916Y690383D01*
X1918963Y690429D01*
X1919009Y690475D01*
X1919074Y690540D01*
X1919147Y690605D01*
X1919221Y690679D01*
X1919314Y690753D01*
X1919425Y690827D01*
X1919536Y690910D01*
X1919656Y690984D01*
X1919795Y691049D01*
X1919933Y691123D01*
X1920081Y691178D01*
X1920248Y691234D01*
X1920442Y690402D01*
X1920433D01*
X1920414Y690392D01*
X1920377Y690374D01*
X1920331Y690355D01*
X1920276Y690337D01*
X1920202Y690309D01*
X1920054Y690235D01*
X1919887Y690143D01*
X1919721Y690032D01*
X1919564Y689893D01*
X1919425Y689745D01*
X1919406Y689727D01*
X1919369Y689671D01*
X1919323Y689579D01*
X1919259Y689458D01*
X1919203Y689301D01*
X1919147Y689126D01*
X1919111Y688913D01*
X1919101Y688682D01*
Y688608D01*
X1919111Y688562D01*
Y688497D01*
X1919120Y688423D01*
X1919147Y688247D01*
X1919185Y688053D01*
X1919249Y687850D01*
X1919342Y687637D01*
X1919462Y687443D01*
Y687434D01*
X1919480Y687424D01*
X1919527Y687360D01*
X1919601Y687277D01*
X1919711Y687175D01*
X1919850Y687055D01*
X1920007Y686944D01*
X1920202Y686842D01*
X1920414Y686750D01*
X1920423D01*
X1920442Y686740D01*
X1920470Y686731D01*
X1920516Y686722D01*
X1920571Y686703D01*
X1920636Y686685D01*
X1920793Y686657D01*
X1920978Y686620D01*
X1921182Y686583D01*
X1921404Y686565D01*
X1921644Y686555D01*
X1921653D01*
X1921681D01*
X1921727D01*
X1921783D01*
X1921847Y686565D01*
X1921931D01*
X1922023Y686574D01*
X1922125Y686583D01*
X1922346Y686611D01*
X1922587Y686657D01*
X1922827Y686713D01*
X1923068Y686786D01*
X1923077D01*
X1923095Y686796D01*
X1923123Y686814D01*
X1923169Y686833D01*
X1923280Y686888D01*
X1923410Y686971D01*
X1923558Y687073D01*
X1923715Y687203D01*
X1923854Y687350D01*
X1923983Y687526D01*
Y687535D01*
X1923992Y687554D01*
X1924011Y687582D01*
X1924029Y687619D01*
X1924048Y687665D01*
X1924075Y687720D01*
X1924131Y687850D01*
X1924186Y688016D01*
X1924233Y688201D01*
X1924270Y688404D01*
X1924279Y688617D01*
Y688682D01*
X1924270Y688737D01*
Y688802D01*
X1924260Y688867D01*
X1924223Y689033D01*
X1924177Y689227D01*
X1924103Y689421D01*
X1924001Y689625D01*
X1923946Y689727D01*
X1923872Y689819D01*
X1923863Y689828D01*
X1923854Y689838D01*
X1923826Y689865D01*
X1923798Y689902D01*
X1923752Y689939D01*
X1923696Y689986D01*
X1923641Y690041D01*
X1923567Y690087D01*
X1923484Y690143D01*
X1923391Y690207D01*
X1923299Y690263D01*
X1923188Y690318D01*
X1923068Y690365D01*
X1922938Y690411D01*
X1922800Y690457D01*
X1922652Y690494D01*
X1922864Y691345D01*
X1922874D01*
X1922910Y691335D01*
D02*
G37*
G36*
X1924011Y709399D02*
X1924020Y709381D01*
X1924048Y709344D01*
X1924085Y709297D01*
X1924122Y709242D01*
X1924168Y709177D01*
X1924223Y709094D01*
X1924279Y709011D01*
X1924399Y708817D01*
X1924529Y708595D01*
X1924649Y708364D01*
X1924750Y708114D01*
Y708105D01*
X1924760Y708086D01*
X1924769Y708049D01*
X1924787Y708003D01*
X1924806Y707938D01*
X1924834Y707864D01*
X1924852Y707781D01*
X1924870Y707698D01*
X1924917Y707495D01*
X1924963Y707263D01*
X1924991Y707014D01*
X1925000Y706755D01*
Y706662D01*
X1924991Y706598D01*
Y706515D01*
X1924982Y706413D01*
X1924963Y706302D01*
X1924954Y706182D01*
X1924898Y705913D01*
X1924834Y705627D01*
X1924732Y705331D01*
X1924676Y705183D01*
X1924602Y705035D01*
X1924593Y705026D01*
X1924584Y704998D01*
X1924556Y704961D01*
X1924529Y704906D01*
X1924482Y704841D01*
X1924436Y704776D01*
X1924307Y704601D01*
X1924140Y704416D01*
X1923937Y704222D01*
X1923706Y704037D01*
X1923438Y703870D01*
X1923428D01*
X1923401Y703852D01*
X1923363Y703833D01*
X1923299Y703806D01*
X1923234Y703778D01*
X1923142Y703750D01*
X1923049Y703713D01*
X1922938Y703676D01*
X1922818Y703639D01*
X1922679Y703602D01*
X1922541Y703574D01*
X1922393Y703547D01*
X1922069Y703500D01*
X1921727Y703482D01*
X1921718D01*
X1921681D01*
X1921635D01*
X1921570Y703491D01*
X1921487D01*
X1921385Y703500D01*
X1921283Y703519D01*
X1921163Y703528D01*
X1921034Y703556D01*
X1920895Y703574D01*
X1920599Y703648D01*
X1920294Y703741D01*
X1919989Y703870D01*
X1919980Y703879D01*
X1919952Y703889D01*
X1919915Y703907D01*
X1919859Y703944D01*
X1919785Y703981D01*
X1919711Y704027D01*
X1919536Y704157D01*
X1919332Y704314D01*
X1919138Y704508D01*
X1918944Y704730D01*
X1918861Y704860D01*
X1918778Y704989D01*
X1918768Y704998D01*
X1918759Y705026D01*
X1918741Y705063D01*
X1918713Y705118D01*
X1918685Y705192D01*
X1918648Y705276D01*
X1918611Y705368D01*
X1918574Y705479D01*
X1918537Y705599D01*
X1918510Y705729D01*
X1918473Y705867D01*
X1918445Y706015D01*
X1918399Y706339D01*
X1918380Y706505D01*
Y706801D01*
X1918389Y706857D01*
Y706931D01*
X1918408Y707106D01*
X1918436Y707300D01*
X1918482Y707504D01*
X1918537Y707726D01*
X1918611Y707938D01*
Y707948D01*
X1918620Y707966D01*
X1918630Y707994D01*
X1918648Y708031D01*
X1918704Y708132D01*
X1918768Y708262D01*
X1918861Y708401D01*
X1918972Y708549D01*
X1919092Y708687D01*
X1919240Y708817D01*
X1919259Y708835D01*
X1919314Y708872D01*
X1919397Y708928D01*
X1919517Y709002D01*
X1919665Y709075D01*
X1919850Y709159D01*
X1920054Y709242D01*
X1920285Y709307D01*
X1920488Y708539D01*
X1920479D01*
X1920470Y708530D01*
X1920442Y708521D01*
X1920405Y708512D01*
X1920322Y708484D01*
X1920211Y708447D01*
X1920081Y708391D01*
X1919961Y708327D01*
X1919832Y708262D01*
X1919721Y708179D01*
X1919711Y708169D01*
X1919675Y708142D01*
X1919628Y708086D01*
X1919564Y708021D01*
X1919490Y707938D01*
X1919416Y707827D01*
X1919342Y707707D01*
X1919277Y707569D01*
X1919268Y707550D01*
X1919249Y707504D01*
X1919221Y707421D01*
X1919185Y707310D01*
X1919157Y707180D01*
X1919129Y707032D01*
X1919111Y706866D01*
X1919101Y706690D01*
Y706589D01*
X1919111Y706542D01*
Y706487D01*
X1919120Y706348D01*
X1919147Y706191D01*
X1919175Y706015D01*
X1919221Y705849D01*
X1919286Y705682D01*
X1919296Y705664D01*
X1919314Y705608D01*
X1919360Y705535D01*
X1919406Y705442D01*
X1919480Y705331D01*
X1919554Y705211D01*
X1919647Y705100D01*
X1919749Y704998D01*
X1919758Y704989D01*
X1919795Y704952D01*
X1919859Y704906D01*
X1919933Y704850D01*
X1920026Y704786D01*
X1920137Y704721D01*
X1920257Y704656D01*
X1920386Y704591D01*
X1920396D01*
X1920414Y704582D01*
X1920442Y704573D01*
X1920488Y704554D01*
X1920544Y704536D01*
X1920608Y704518D01*
X1920682Y704490D01*
X1920766Y704471D01*
X1920960Y704425D01*
X1921182Y704388D01*
X1921413Y704360D01*
X1921672Y704351D01*
X1921681D01*
X1921709D01*
X1921755D01*
X1921810Y704360D01*
X1921884D01*
X1921977Y704370D01*
X1922069Y704379D01*
X1922171Y704388D01*
X1922402Y704425D01*
X1922642Y704471D01*
X1922883Y704545D01*
X1923114Y704638D01*
X1923123D01*
X1923142Y704656D01*
X1923169Y704665D01*
X1923206Y704693D01*
X1923308Y704758D01*
X1923438Y704860D01*
X1923576Y704980D01*
X1923715Y705128D01*
X1923844Y705303D01*
X1923965Y705498D01*
Y705507D01*
X1923974Y705525D01*
X1923992Y705553D01*
X1924011Y705599D01*
X1924029Y705645D01*
X1924048Y705710D01*
X1924103Y705858D01*
X1924149Y706043D01*
X1924196Y706246D01*
X1924233Y706468D01*
X1924242Y706699D01*
Y706792D01*
X1924233Y706847D01*
Y706903D01*
X1924214Y707041D01*
X1924196Y707208D01*
X1924159Y707384D01*
X1924103Y707578D01*
X1924038Y707772D01*
Y707781D01*
X1924029Y707800D01*
X1924020Y707818D01*
X1924001Y707855D01*
X1923955Y707957D01*
X1923900Y708068D01*
X1923835Y708197D01*
X1923761Y708336D01*
X1923678Y708465D01*
X1923585Y708576D01*
X1922384D01*
Y706690D01*
X1921625D01*
Y709408D01*
X1924001D01*
X1924011Y709399D01*
D02*
G37*
G36*
X1924831Y522449D02*
X1923499Y521608D01*
X1923490D01*
X1923472Y521589D01*
X1923444Y521571D01*
X1923407Y521543D01*
X1923305Y521478D01*
X1923176Y521395D01*
X1923037Y521293D01*
X1922889Y521191D01*
X1922751Y521090D01*
X1922621Y520997D01*
X1922612Y520988D01*
X1922575Y520960D01*
X1922519Y520914D01*
X1922455Y520849D01*
X1922316Y520711D01*
X1922251Y520637D01*
X1922196Y520563D01*
X1922187Y520554D01*
X1922177Y520535D01*
X1922159Y520498D01*
X1922131Y520443D01*
X1922103Y520387D01*
X1922076Y520322D01*
X1922029Y520174D01*
Y520165D01*
X1922020Y520147D01*
Y520110D01*
X1922011Y520064D01*
X1922002Y519999D01*
Y519925D01*
X1921992Y519823D01*
Y518732D01*
X1924831D01*
Y517882D01*
X1918433D01*
Y520849D01*
X1918442Y520923D01*
Y521007D01*
X1918451Y521201D01*
X1918479Y521404D01*
X1918507Y521626D01*
X1918553Y521829D01*
X1918581Y521931D01*
X1918609Y522014D01*
Y522024D01*
X1918618Y522033D01*
X1918645Y522088D01*
X1918683Y522172D01*
X1918747Y522273D01*
X1918830Y522384D01*
X1918941Y522504D01*
X1919071Y522615D01*
X1919219Y522726D01*
X1919228D01*
X1919237Y522735D01*
X1919293Y522772D01*
X1919385Y522809D01*
X1919505Y522865D01*
X1919644Y522911D01*
X1919810Y522957D01*
X1919986Y522985D01*
X1920180Y522994D01*
X1920190D01*
X1920208D01*
X1920245D01*
X1920291Y522985D01*
X1920356D01*
X1920421Y522976D01*
X1920578Y522939D01*
X1920763Y522883D01*
X1920957Y522809D01*
X1921151Y522699D01*
X1921243Y522625D01*
X1921336Y522551D01*
X1921345Y522541D01*
X1921355Y522532D01*
X1921382Y522504D01*
X1921410Y522467D01*
X1921447Y522421D01*
X1921484Y522366D01*
X1921530Y522292D01*
X1921586Y522218D01*
X1921632Y522125D01*
X1921678Y522024D01*
X1921734Y521913D01*
X1921780Y521792D01*
X1921817Y521654D01*
X1921863Y521515D01*
X1921891Y521358D01*
X1921918Y521191D01*
X1921928Y521210D01*
X1921946Y521247D01*
X1921983Y521302D01*
X1922020Y521376D01*
X1922122Y521543D01*
X1922187Y521626D01*
X1922242Y521700D01*
X1922260Y521718D01*
X1922307Y521765D01*
X1922381Y521839D01*
X1922473Y521931D01*
X1922603Y522033D01*
X1922741Y522153D01*
X1922908Y522273D01*
X1923093Y522403D01*
X1924831Y523503D01*
Y522449D01*
D02*
G37*
G36*
X1922910Y541335D02*
X1922966Y541317D01*
X1923040Y541289D01*
X1923123Y541261D01*
X1923225Y541224D01*
X1923336Y541178D01*
X1923456Y541123D01*
X1923715Y540993D01*
X1923974Y540827D01*
X1924103Y540725D01*
X1924233Y540624D01*
X1924344Y540513D01*
X1924454Y540383D01*
X1924464Y540374D01*
X1924482Y540355D01*
X1924501Y540309D01*
X1924538Y540263D01*
X1924584Y540189D01*
X1924630Y540115D01*
X1924676Y540013D01*
X1924723Y539911D01*
X1924778Y539791D01*
X1924824Y539662D01*
X1924871Y539523D01*
X1924917Y539375D01*
X1924954Y539218D01*
X1924972Y539052D01*
X1924991Y538876D01*
X1925000Y538691D01*
Y538589D01*
X1924991Y538516D01*
Y538432D01*
X1924982Y538330D01*
X1924963Y538220D01*
X1924944Y538090D01*
X1924898Y537822D01*
X1924824Y537545D01*
X1924723Y537267D01*
X1924658Y537138D01*
X1924584Y537008D01*
X1924575Y536999D01*
X1924565Y536981D01*
X1924538Y536944D01*
X1924501Y536907D01*
X1924464Y536851D01*
X1924408Y536786D01*
X1924344Y536713D01*
X1924270Y536639D01*
X1924186Y536565D01*
X1924103Y536481D01*
X1923891Y536315D01*
X1923641Y536158D01*
X1923363Y536019D01*
X1923354D01*
X1923327Y536001D01*
X1923280Y535991D01*
X1923225Y535964D01*
X1923151Y535945D01*
X1923058Y535917D01*
X1922957Y535881D01*
X1922846Y535853D01*
X1922726Y535825D01*
X1922587Y535788D01*
X1922300Y535742D01*
X1921977Y535705D01*
X1921644Y535686D01*
X1921635D01*
X1921598D01*
X1921542D01*
X1921477Y535696D01*
X1921385D01*
X1921293Y535705D01*
X1921172Y535714D01*
X1921052Y535732D01*
X1920784Y535779D01*
X1920488Y535844D01*
X1920192Y535936D01*
X1919906Y536065D01*
X1919896Y536075D01*
X1919869Y536084D01*
X1919832Y536102D01*
X1919785Y536139D01*
X1919721Y536176D01*
X1919647Y536222D01*
X1919480Y536343D01*
X1919296Y536500D01*
X1919111Y536685D01*
X1918926Y536898D01*
X1918768Y537147D01*
X1918759Y537156D01*
X1918750Y537184D01*
X1918732Y537221D01*
X1918704Y537267D01*
X1918676Y537341D01*
X1918648Y537415D01*
X1918611Y537508D01*
X1918574Y537609D01*
X1918537Y537720D01*
X1918500Y537840D01*
X1918445Y538099D01*
X1918399Y538395D01*
X1918380Y538700D01*
Y538793D01*
X1918389Y538857D01*
X1918399Y538941D01*
X1918408Y539043D01*
X1918417Y539144D01*
X1918445Y539264D01*
X1918500Y539514D01*
X1918584Y539791D01*
X1918639Y539930D01*
X1918704Y540060D01*
X1918787Y540189D01*
X1918870Y540318D01*
X1918879Y540328D01*
X1918889Y540346D01*
X1918916Y540383D01*
X1918963Y540429D01*
X1919009Y540476D01*
X1919074Y540540D01*
X1919147Y540605D01*
X1919221Y540679D01*
X1919314Y540753D01*
X1919425Y540827D01*
X1919536Y540910D01*
X1919656Y540984D01*
X1919795Y541049D01*
X1919933Y541123D01*
X1920081Y541178D01*
X1920248Y541234D01*
X1920442Y540402D01*
X1920433D01*
X1920414Y540392D01*
X1920377Y540374D01*
X1920331Y540355D01*
X1920276Y540337D01*
X1920202Y540309D01*
X1920054Y540235D01*
X1919887Y540143D01*
X1919721Y540032D01*
X1919564Y539893D01*
X1919425Y539745D01*
X1919406Y539727D01*
X1919369Y539671D01*
X1919323Y539579D01*
X1919259Y539459D01*
X1919203Y539301D01*
X1919147Y539126D01*
X1919111Y538913D01*
X1919101Y538682D01*
Y538608D01*
X1919111Y538562D01*
Y538497D01*
X1919120Y538423D01*
X1919147Y538247D01*
X1919185Y538053D01*
X1919249Y537850D01*
X1919342Y537637D01*
X1919462Y537443D01*
Y537434D01*
X1919480Y537425D01*
X1919527Y537360D01*
X1919601Y537276D01*
X1919711Y537175D01*
X1919850Y537055D01*
X1920007Y536944D01*
X1920202Y536842D01*
X1920414Y536749D01*
X1920423D01*
X1920442Y536740D01*
X1920470Y536731D01*
X1920516Y536722D01*
X1920571Y536703D01*
X1920636Y536685D01*
X1920793Y536657D01*
X1920978Y536620D01*
X1921182Y536583D01*
X1921404Y536565D01*
X1921644Y536555D01*
X1921653D01*
X1921681D01*
X1921727D01*
X1921783D01*
X1921847Y536565D01*
X1921931D01*
X1922023Y536574D01*
X1922125Y536583D01*
X1922346Y536611D01*
X1922587Y536657D01*
X1922827Y536713D01*
X1923068Y536786D01*
X1923077D01*
X1923095Y536796D01*
X1923123Y536814D01*
X1923169Y536833D01*
X1923280Y536888D01*
X1923410Y536971D01*
X1923558Y537073D01*
X1923715Y537203D01*
X1923854Y537351D01*
X1923983Y537526D01*
Y537535D01*
X1923992Y537554D01*
X1924011Y537582D01*
X1924029Y537619D01*
X1924048Y537665D01*
X1924075Y537720D01*
X1924131Y537850D01*
X1924186Y538016D01*
X1924233Y538201D01*
X1924270Y538405D01*
X1924279Y538617D01*
Y538682D01*
X1924270Y538737D01*
Y538802D01*
X1924260Y538867D01*
X1924223Y539033D01*
X1924177Y539227D01*
X1924103Y539422D01*
X1924001Y539625D01*
X1923946Y539727D01*
X1923872Y539819D01*
X1923863Y539828D01*
X1923854Y539838D01*
X1923826Y539865D01*
X1923798Y539902D01*
X1923752Y539939D01*
X1923696Y539986D01*
X1923641Y540041D01*
X1923567Y540087D01*
X1923484Y540143D01*
X1923391Y540207D01*
X1923299Y540263D01*
X1923188Y540318D01*
X1923068Y540365D01*
X1922938Y540411D01*
X1922800Y540457D01*
X1922652Y540494D01*
X1922864Y541345D01*
X1922874D01*
X1922910Y541335D01*
D02*
G37*
G36*
X1924011Y559399D02*
X1924020Y559381D01*
X1924048Y559344D01*
X1924085Y559297D01*
X1924122Y559242D01*
X1924168Y559177D01*
X1924223Y559094D01*
X1924279Y559011D01*
X1924399Y558817D01*
X1924529Y558595D01*
X1924649Y558364D01*
X1924750Y558114D01*
Y558105D01*
X1924760Y558086D01*
X1924769Y558049D01*
X1924787Y558003D01*
X1924806Y557938D01*
X1924834Y557864D01*
X1924852Y557781D01*
X1924870Y557698D01*
X1924917Y557495D01*
X1924963Y557263D01*
X1924991Y557014D01*
X1925000Y556755D01*
Y556662D01*
X1924991Y556598D01*
Y556515D01*
X1924982Y556413D01*
X1924963Y556302D01*
X1924954Y556182D01*
X1924898Y555914D01*
X1924834Y555627D01*
X1924732Y555331D01*
X1924676Y555183D01*
X1924602Y555035D01*
X1924593Y555026D01*
X1924584Y554998D01*
X1924556Y554961D01*
X1924529Y554906D01*
X1924482Y554841D01*
X1924436Y554776D01*
X1924307Y554601D01*
X1924140Y554416D01*
X1923937Y554222D01*
X1923706Y554037D01*
X1923438Y553870D01*
X1923428D01*
X1923401Y553852D01*
X1923363Y553833D01*
X1923299Y553806D01*
X1923234Y553778D01*
X1923142Y553750D01*
X1923049Y553713D01*
X1922938Y553676D01*
X1922818Y553639D01*
X1922679Y553602D01*
X1922541Y553574D01*
X1922393Y553547D01*
X1922069Y553500D01*
X1921727Y553482D01*
X1921718D01*
X1921681D01*
X1921635D01*
X1921570Y553491D01*
X1921487D01*
X1921385Y553500D01*
X1921283Y553519D01*
X1921163Y553528D01*
X1921034Y553556D01*
X1920895Y553574D01*
X1920599Y553648D01*
X1920294Y553741D01*
X1919989Y553870D01*
X1919980Y553880D01*
X1919952Y553889D01*
X1919915Y553907D01*
X1919859Y553944D01*
X1919785Y553981D01*
X1919711Y554027D01*
X1919536Y554157D01*
X1919332Y554314D01*
X1919138Y554508D01*
X1918944Y554730D01*
X1918861Y554860D01*
X1918778Y554989D01*
X1918768Y554998D01*
X1918759Y555026D01*
X1918741Y555063D01*
X1918713Y555118D01*
X1918685Y555192D01*
X1918648Y555276D01*
X1918611Y555368D01*
X1918574Y555479D01*
X1918537Y555599D01*
X1918510Y555729D01*
X1918473Y555867D01*
X1918445Y556015D01*
X1918399Y556339D01*
X1918380Y556505D01*
Y556801D01*
X1918389Y556857D01*
Y556931D01*
X1918408Y557106D01*
X1918436Y557300D01*
X1918482Y557504D01*
X1918537Y557726D01*
X1918611Y557938D01*
Y557948D01*
X1918620Y557966D01*
X1918630Y557994D01*
X1918648Y558031D01*
X1918704Y558133D01*
X1918768Y558262D01*
X1918861Y558401D01*
X1918972Y558549D01*
X1919092Y558687D01*
X1919240Y558817D01*
X1919259Y558835D01*
X1919314Y558872D01*
X1919397Y558928D01*
X1919517Y559002D01*
X1919665Y559076D01*
X1919850Y559159D01*
X1920054Y559242D01*
X1920285Y559307D01*
X1920488Y558539D01*
X1920479D01*
X1920470Y558530D01*
X1920442Y558521D01*
X1920405Y558512D01*
X1920322Y558484D01*
X1920211Y558447D01*
X1920081Y558391D01*
X1919961Y558327D01*
X1919832Y558262D01*
X1919721Y558179D01*
X1919711Y558170D01*
X1919675Y558142D01*
X1919628Y558086D01*
X1919564Y558022D01*
X1919490Y557938D01*
X1919416Y557827D01*
X1919342Y557707D01*
X1919277Y557569D01*
X1919268Y557550D01*
X1919249Y557504D01*
X1919221Y557421D01*
X1919185Y557310D01*
X1919157Y557180D01*
X1919129Y557032D01*
X1919111Y556866D01*
X1919101Y556690D01*
Y556589D01*
X1919111Y556542D01*
Y556487D01*
X1919120Y556348D01*
X1919147Y556191D01*
X1919175Y556015D01*
X1919221Y555849D01*
X1919286Y555682D01*
X1919296Y555664D01*
X1919314Y555608D01*
X1919360Y555535D01*
X1919406Y555442D01*
X1919480Y555331D01*
X1919554Y555211D01*
X1919647Y555100D01*
X1919749Y554998D01*
X1919758Y554989D01*
X1919795Y554952D01*
X1919859Y554906D01*
X1919933Y554850D01*
X1920026Y554786D01*
X1920137Y554721D01*
X1920257Y554656D01*
X1920386Y554591D01*
X1920396D01*
X1920414Y554582D01*
X1920442Y554573D01*
X1920488Y554554D01*
X1920544Y554536D01*
X1920608Y554518D01*
X1920682Y554490D01*
X1920766Y554471D01*
X1920960Y554425D01*
X1921182Y554388D01*
X1921413Y554360D01*
X1921672Y554351D01*
X1921681D01*
X1921709D01*
X1921755D01*
X1921810Y554360D01*
X1921884D01*
X1921977Y554370D01*
X1922069Y554379D01*
X1922171Y554388D01*
X1922402Y554425D01*
X1922642Y554471D01*
X1922883Y554545D01*
X1923114Y554638D01*
X1923123D01*
X1923142Y554656D01*
X1923169Y554665D01*
X1923206Y554693D01*
X1923308Y554758D01*
X1923438Y554860D01*
X1923576Y554980D01*
X1923715Y555128D01*
X1923844Y555303D01*
X1923965Y555498D01*
Y555507D01*
X1923974Y555525D01*
X1923992Y555553D01*
X1924011Y555599D01*
X1924029Y555645D01*
X1924048Y555710D01*
X1924103Y555858D01*
X1924149Y556043D01*
X1924196Y556246D01*
X1924233Y556468D01*
X1924242Y556699D01*
Y556792D01*
X1924233Y556847D01*
Y556903D01*
X1924214Y557042D01*
X1924196Y557208D01*
X1924159Y557384D01*
X1924103Y557578D01*
X1924038Y557772D01*
Y557781D01*
X1924029Y557800D01*
X1924020Y557818D01*
X1924001Y557855D01*
X1923955Y557957D01*
X1923900Y558068D01*
X1923835Y558197D01*
X1923761Y558336D01*
X1923678Y558465D01*
X1923585Y558576D01*
X1922384D01*
Y556690D01*
X1921625D01*
Y559408D01*
X1924001D01*
X1924011Y559399D01*
D02*
G37*
G36*
X1924831Y222449D02*
X1923499Y221607D01*
X1923490D01*
X1923472Y221589D01*
X1923444Y221570D01*
X1923407Y221543D01*
X1923305Y221478D01*
X1923176Y221395D01*
X1923037Y221293D01*
X1922889Y221191D01*
X1922751Y221090D01*
X1922621Y220997D01*
X1922612Y220988D01*
X1922575Y220960D01*
X1922519Y220914D01*
X1922455Y220849D01*
X1922316Y220711D01*
X1922251Y220637D01*
X1922196Y220563D01*
X1922187Y220553D01*
X1922177Y220535D01*
X1922159Y220498D01*
X1922131Y220443D01*
X1922103Y220387D01*
X1922076Y220322D01*
X1922029Y220174D01*
Y220165D01*
X1922020Y220147D01*
Y220110D01*
X1922011Y220063D01*
X1922002Y219999D01*
Y219925D01*
X1921992Y219823D01*
Y218732D01*
X1924831D01*
Y217882D01*
X1918433D01*
Y220849D01*
X1918442Y220923D01*
Y221007D01*
X1918451Y221201D01*
X1918479Y221404D01*
X1918507Y221626D01*
X1918553Y221829D01*
X1918581Y221931D01*
X1918609Y222014D01*
Y222024D01*
X1918618Y222033D01*
X1918645Y222088D01*
X1918683Y222171D01*
X1918747Y222273D01*
X1918830Y222384D01*
X1918941Y222504D01*
X1919071Y222615D01*
X1919219Y222726D01*
X1919228D01*
X1919237Y222735D01*
X1919293Y222772D01*
X1919385Y222809D01*
X1919505Y222865D01*
X1919644Y222911D01*
X1919810Y222957D01*
X1919986Y222985D01*
X1920180Y222994D01*
X1920190D01*
X1920208D01*
X1920245D01*
X1920291Y222985D01*
X1920356D01*
X1920421Y222976D01*
X1920578Y222939D01*
X1920763Y222883D01*
X1920957Y222809D01*
X1921151Y222698D01*
X1921243Y222624D01*
X1921336Y222551D01*
X1921345Y222541D01*
X1921355Y222532D01*
X1921382Y222504D01*
X1921410Y222467D01*
X1921447Y222421D01*
X1921484Y222366D01*
X1921530Y222292D01*
X1921586Y222218D01*
X1921632Y222125D01*
X1921678Y222024D01*
X1921734Y221913D01*
X1921780Y221792D01*
X1921817Y221654D01*
X1921863Y221515D01*
X1921891Y221358D01*
X1921918Y221191D01*
X1921928Y221210D01*
X1921946Y221247D01*
X1921983Y221302D01*
X1922020Y221376D01*
X1922122Y221543D01*
X1922187Y221626D01*
X1922242Y221700D01*
X1922260Y221718D01*
X1922307Y221765D01*
X1922381Y221839D01*
X1922473Y221931D01*
X1922603Y222033D01*
X1922741Y222153D01*
X1922908Y222273D01*
X1923093Y222403D01*
X1924831Y223503D01*
Y222449D01*
D02*
G37*
G36*
X1922910Y241335D02*
X1922966Y241317D01*
X1923040Y241289D01*
X1923123Y241261D01*
X1923225Y241224D01*
X1923336Y241178D01*
X1923456Y241123D01*
X1923715Y240993D01*
X1923974Y240827D01*
X1924103Y240725D01*
X1924233Y240623D01*
X1924344Y240513D01*
X1924454Y240383D01*
X1924464Y240374D01*
X1924482Y240355D01*
X1924501Y240309D01*
X1924538Y240263D01*
X1924584Y240189D01*
X1924630Y240115D01*
X1924676Y240013D01*
X1924723Y239911D01*
X1924778Y239791D01*
X1924824Y239662D01*
X1924871Y239523D01*
X1924917Y239375D01*
X1924954Y239218D01*
X1924972Y239052D01*
X1924991Y238876D01*
X1925000Y238691D01*
Y238589D01*
X1924991Y238515D01*
Y238432D01*
X1924982Y238330D01*
X1924963Y238220D01*
X1924944Y238090D01*
X1924898Y237822D01*
X1924824Y237545D01*
X1924723Y237267D01*
X1924658Y237138D01*
X1924584Y237008D01*
X1924575Y236999D01*
X1924565Y236981D01*
X1924538Y236944D01*
X1924501Y236907D01*
X1924464Y236851D01*
X1924408Y236786D01*
X1924344Y236713D01*
X1924270Y236639D01*
X1924186Y236565D01*
X1924103Y236481D01*
X1923891Y236315D01*
X1923641Y236158D01*
X1923363Y236019D01*
X1923354D01*
X1923327Y236001D01*
X1923280Y235991D01*
X1923225Y235964D01*
X1923151Y235945D01*
X1923058Y235917D01*
X1922957Y235881D01*
X1922846Y235853D01*
X1922726Y235825D01*
X1922587Y235788D01*
X1922300Y235742D01*
X1921977Y235705D01*
X1921644Y235686D01*
X1921635D01*
X1921598D01*
X1921542D01*
X1921477Y235695D01*
X1921385D01*
X1921293Y235705D01*
X1921172Y235714D01*
X1921052Y235732D01*
X1920784Y235779D01*
X1920488Y235844D01*
X1920192Y235936D01*
X1919906Y236065D01*
X1919896Y236075D01*
X1919869Y236084D01*
X1919832Y236102D01*
X1919785Y236139D01*
X1919721Y236176D01*
X1919647Y236222D01*
X1919480Y236343D01*
X1919296Y236500D01*
X1919111Y236685D01*
X1918926Y236898D01*
X1918768Y237147D01*
X1918759Y237156D01*
X1918750Y237184D01*
X1918732Y237221D01*
X1918704Y237267D01*
X1918676Y237341D01*
X1918648Y237415D01*
X1918611Y237508D01*
X1918574Y237609D01*
X1918537Y237720D01*
X1918500Y237840D01*
X1918445Y238099D01*
X1918399Y238395D01*
X1918380Y238700D01*
Y238793D01*
X1918389Y238857D01*
X1918399Y238941D01*
X1918408Y239042D01*
X1918417Y239144D01*
X1918445Y239264D01*
X1918500Y239514D01*
X1918584Y239791D01*
X1918639Y239930D01*
X1918704Y240060D01*
X1918787Y240189D01*
X1918870Y240318D01*
X1918879Y240328D01*
X1918889Y240346D01*
X1918916Y240383D01*
X1918963Y240429D01*
X1919009Y240476D01*
X1919074Y240540D01*
X1919147Y240605D01*
X1919221Y240679D01*
X1919314Y240753D01*
X1919425Y240827D01*
X1919536Y240910D01*
X1919656Y240984D01*
X1919795Y241049D01*
X1919933Y241123D01*
X1920081Y241178D01*
X1920248Y241234D01*
X1920442Y240402D01*
X1920433D01*
X1920414Y240392D01*
X1920377Y240374D01*
X1920331Y240355D01*
X1920276Y240337D01*
X1920202Y240309D01*
X1920054Y240235D01*
X1919887Y240143D01*
X1919721Y240032D01*
X1919564Y239893D01*
X1919425Y239745D01*
X1919406Y239727D01*
X1919369Y239671D01*
X1919323Y239579D01*
X1919259Y239459D01*
X1919203Y239301D01*
X1919147Y239126D01*
X1919111Y238913D01*
X1919101Y238682D01*
Y238608D01*
X1919111Y238562D01*
Y238497D01*
X1919120Y238423D01*
X1919147Y238247D01*
X1919185Y238053D01*
X1919249Y237850D01*
X1919342Y237637D01*
X1919462Y237443D01*
Y237434D01*
X1919480Y237425D01*
X1919527Y237360D01*
X1919601Y237276D01*
X1919711Y237175D01*
X1919850Y237055D01*
X1920007Y236944D01*
X1920202Y236842D01*
X1920414Y236749D01*
X1920423D01*
X1920442Y236740D01*
X1920470Y236731D01*
X1920516Y236722D01*
X1920571Y236703D01*
X1920636Y236685D01*
X1920793Y236657D01*
X1920978Y236620D01*
X1921182Y236583D01*
X1921404Y236565D01*
X1921644Y236555D01*
X1921653D01*
X1921681D01*
X1921727D01*
X1921783D01*
X1921847Y236565D01*
X1921931D01*
X1922023Y236574D01*
X1922125Y236583D01*
X1922346Y236611D01*
X1922587Y236657D01*
X1922827Y236713D01*
X1923068Y236786D01*
X1923077D01*
X1923095Y236796D01*
X1923123Y236814D01*
X1923169Y236833D01*
X1923280Y236888D01*
X1923410Y236971D01*
X1923558Y237073D01*
X1923715Y237203D01*
X1923854Y237351D01*
X1923983Y237526D01*
Y237535D01*
X1923992Y237554D01*
X1924011Y237582D01*
X1924029Y237619D01*
X1924048Y237665D01*
X1924075Y237720D01*
X1924131Y237850D01*
X1924186Y238016D01*
X1924233Y238201D01*
X1924270Y238405D01*
X1924279Y238617D01*
Y238682D01*
X1924270Y238737D01*
Y238802D01*
X1924260Y238867D01*
X1924223Y239033D01*
X1924177Y239227D01*
X1924103Y239422D01*
X1924001Y239625D01*
X1923946Y239727D01*
X1923872Y239819D01*
X1923863Y239828D01*
X1923854Y239838D01*
X1923826Y239865D01*
X1923798Y239902D01*
X1923752Y239939D01*
X1923696Y239986D01*
X1923641Y240041D01*
X1923567Y240087D01*
X1923484Y240143D01*
X1923391Y240207D01*
X1923299Y240263D01*
X1923188Y240318D01*
X1923068Y240365D01*
X1922938Y240411D01*
X1922800Y240457D01*
X1922652Y240494D01*
X1922864Y241345D01*
X1922874D01*
X1922910Y241335D01*
D02*
G37*
G36*
X1924011Y259399D02*
X1924020Y259381D01*
X1924048Y259344D01*
X1924085Y259297D01*
X1924122Y259242D01*
X1924168Y259177D01*
X1924223Y259094D01*
X1924279Y259011D01*
X1924399Y258817D01*
X1924529Y258595D01*
X1924649Y258364D01*
X1924750Y258114D01*
Y258105D01*
X1924760Y258086D01*
X1924769Y258049D01*
X1924787Y258003D01*
X1924806Y257938D01*
X1924834Y257864D01*
X1924852Y257781D01*
X1924870Y257698D01*
X1924917Y257495D01*
X1924963Y257263D01*
X1924991Y257014D01*
X1925000Y256755D01*
Y256662D01*
X1924991Y256598D01*
Y256514D01*
X1924982Y256413D01*
X1924963Y256302D01*
X1924954Y256182D01*
X1924898Y255914D01*
X1924834Y255627D01*
X1924732Y255331D01*
X1924676Y255183D01*
X1924602Y255035D01*
X1924593Y255026D01*
X1924584Y254998D01*
X1924556Y254961D01*
X1924529Y254906D01*
X1924482Y254841D01*
X1924436Y254776D01*
X1924307Y254601D01*
X1924140Y254416D01*
X1923937Y254222D01*
X1923706Y254037D01*
X1923438Y253870D01*
X1923428D01*
X1923401Y253852D01*
X1923363Y253833D01*
X1923299Y253806D01*
X1923234Y253778D01*
X1923142Y253750D01*
X1923049Y253713D01*
X1922938Y253676D01*
X1922818Y253639D01*
X1922679Y253602D01*
X1922541Y253574D01*
X1922393Y253547D01*
X1922069Y253500D01*
X1921727Y253482D01*
X1921718D01*
X1921681D01*
X1921635D01*
X1921570Y253491D01*
X1921487D01*
X1921385Y253500D01*
X1921283Y253519D01*
X1921163Y253528D01*
X1921034Y253556D01*
X1920895Y253574D01*
X1920599Y253648D01*
X1920294Y253741D01*
X1919989Y253870D01*
X1919980Y253880D01*
X1919952Y253889D01*
X1919915Y253907D01*
X1919859Y253944D01*
X1919785Y253981D01*
X1919711Y254027D01*
X1919536Y254157D01*
X1919332Y254314D01*
X1919138Y254508D01*
X1918944Y254730D01*
X1918861Y254860D01*
X1918778Y254989D01*
X1918768Y254998D01*
X1918759Y255026D01*
X1918741Y255063D01*
X1918713Y255118D01*
X1918685Y255192D01*
X1918648Y255276D01*
X1918611Y255368D01*
X1918574Y255479D01*
X1918537Y255599D01*
X1918510Y255729D01*
X1918473Y255867D01*
X1918445Y256015D01*
X1918399Y256339D01*
X1918380Y256505D01*
Y256801D01*
X1918389Y256857D01*
Y256931D01*
X1918408Y257106D01*
X1918436Y257300D01*
X1918482Y257504D01*
X1918537Y257726D01*
X1918611Y257938D01*
Y257948D01*
X1918620Y257966D01*
X1918630Y257994D01*
X1918648Y258031D01*
X1918704Y258132D01*
X1918768Y258262D01*
X1918861Y258401D01*
X1918972Y258549D01*
X1919092Y258687D01*
X1919240Y258817D01*
X1919259Y258835D01*
X1919314Y258872D01*
X1919397Y258928D01*
X1919517Y259002D01*
X1919665Y259076D01*
X1919850Y259159D01*
X1920054Y259242D01*
X1920285Y259307D01*
X1920488Y258539D01*
X1920479D01*
X1920470Y258530D01*
X1920442Y258521D01*
X1920405Y258512D01*
X1920322Y258484D01*
X1920211Y258447D01*
X1920081Y258391D01*
X1919961Y258327D01*
X1919832Y258262D01*
X1919721Y258179D01*
X1919711Y258169D01*
X1919675Y258142D01*
X1919628Y258086D01*
X1919564Y258022D01*
X1919490Y257938D01*
X1919416Y257827D01*
X1919342Y257707D01*
X1919277Y257568D01*
X1919268Y257550D01*
X1919249Y257504D01*
X1919221Y257421D01*
X1919185Y257310D01*
X1919157Y257180D01*
X1919129Y257032D01*
X1919111Y256866D01*
X1919101Y256690D01*
Y256588D01*
X1919111Y256542D01*
Y256487D01*
X1919120Y256348D01*
X1919147Y256191D01*
X1919175Y256015D01*
X1919221Y255849D01*
X1919286Y255682D01*
X1919296Y255664D01*
X1919314Y255608D01*
X1919360Y255534D01*
X1919406Y255442D01*
X1919480Y255331D01*
X1919554Y255211D01*
X1919647Y255100D01*
X1919749Y254998D01*
X1919758Y254989D01*
X1919795Y254952D01*
X1919859Y254906D01*
X1919933Y254850D01*
X1920026Y254786D01*
X1920137Y254721D01*
X1920257Y254656D01*
X1920386Y254591D01*
X1920396D01*
X1920414Y254582D01*
X1920442Y254573D01*
X1920488Y254554D01*
X1920544Y254536D01*
X1920608Y254517D01*
X1920682Y254490D01*
X1920766Y254471D01*
X1920960Y254425D01*
X1921182Y254388D01*
X1921413Y254360D01*
X1921672Y254351D01*
X1921681D01*
X1921709D01*
X1921755D01*
X1921810Y254360D01*
X1921884D01*
X1921977Y254370D01*
X1922069Y254379D01*
X1922171Y254388D01*
X1922402Y254425D01*
X1922642Y254471D01*
X1922883Y254545D01*
X1923114Y254638D01*
X1923123D01*
X1923142Y254656D01*
X1923169Y254665D01*
X1923206Y254693D01*
X1923308Y254758D01*
X1923438Y254860D01*
X1923576Y254980D01*
X1923715Y255128D01*
X1923844Y255303D01*
X1923965Y255497D01*
Y255507D01*
X1923974Y255525D01*
X1923992Y255553D01*
X1924011Y255599D01*
X1924029Y255645D01*
X1924048Y255710D01*
X1924103Y255858D01*
X1924149Y256043D01*
X1924196Y256246D01*
X1924233Y256468D01*
X1924242Y256699D01*
Y256792D01*
X1924233Y256847D01*
Y256903D01*
X1924214Y257041D01*
X1924196Y257208D01*
X1924159Y257384D01*
X1924103Y257578D01*
X1924038Y257772D01*
Y257781D01*
X1924029Y257800D01*
X1924020Y257818D01*
X1924001Y257855D01*
X1923955Y257957D01*
X1923900Y258068D01*
X1923835Y258197D01*
X1923761Y258336D01*
X1923678Y258465D01*
X1923585Y258576D01*
X1922384D01*
Y256690D01*
X1921625D01*
Y259408D01*
X1924001D01*
X1924011Y259399D01*
D02*
G37*
G36*
X1924831Y822449D02*
X1923499Y821608D01*
X1923490D01*
X1923472Y821589D01*
X1923444Y821571D01*
X1923407Y821543D01*
X1923305Y821478D01*
X1923176Y821395D01*
X1923037Y821293D01*
X1922889Y821191D01*
X1922751Y821090D01*
X1922621Y820997D01*
X1922612Y820988D01*
X1922575Y820960D01*
X1922519Y820914D01*
X1922455Y820849D01*
X1922316Y820711D01*
X1922251Y820637D01*
X1922196Y820563D01*
X1922187Y820554D01*
X1922177Y820535D01*
X1922159Y820498D01*
X1922131Y820443D01*
X1922103Y820387D01*
X1922076Y820322D01*
X1922029Y820174D01*
Y820165D01*
X1922020Y820147D01*
Y820110D01*
X1922011Y820063D01*
X1922002Y819999D01*
Y819925D01*
X1921992Y819823D01*
Y818732D01*
X1924831D01*
Y817881D01*
X1918433D01*
Y820849D01*
X1918442Y820923D01*
Y821006D01*
X1918451Y821201D01*
X1918479Y821404D01*
X1918507Y821626D01*
X1918553Y821829D01*
X1918581Y821931D01*
X1918609Y822014D01*
Y822024D01*
X1918618Y822033D01*
X1918645Y822088D01*
X1918683Y822171D01*
X1918747Y822273D01*
X1918830Y822384D01*
X1918941Y822504D01*
X1919071Y822615D01*
X1919219Y822726D01*
X1919228D01*
X1919237Y822736D01*
X1919293Y822772D01*
X1919385Y822809D01*
X1919505Y822865D01*
X1919644Y822911D01*
X1919810Y822957D01*
X1919986Y822985D01*
X1920180Y822994D01*
X1920190D01*
X1920208D01*
X1920245D01*
X1920291Y822985D01*
X1920356D01*
X1920421Y822976D01*
X1920578Y822939D01*
X1920763Y822883D01*
X1920957Y822809D01*
X1921151Y822699D01*
X1921243Y822625D01*
X1921336Y822551D01*
X1921345Y822541D01*
X1921355Y822532D01*
X1921382Y822504D01*
X1921410Y822467D01*
X1921447Y822421D01*
X1921484Y822366D01*
X1921530Y822292D01*
X1921586Y822218D01*
X1921632Y822125D01*
X1921678Y822024D01*
X1921734Y821913D01*
X1921780Y821792D01*
X1921817Y821654D01*
X1921863Y821515D01*
X1921891Y821358D01*
X1921918Y821191D01*
X1921928Y821210D01*
X1921946Y821247D01*
X1921983Y821302D01*
X1922020Y821376D01*
X1922122Y821543D01*
X1922187Y821626D01*
X1922242Y821700D01*
X1922260Y821718D01*
X1922307Y821765D01*
X1922381Y821839D01*
X1922473Y821931D01*
X1922603Y822033D01*
X1922741Y822153D01*
X1922908Y822273D01*
X1923093Y822403D01*
X1924831Y823503D01*
Y822449D01*
D02*
G37*
G36*
X1922910Y841335D02*
X1922966Y841317D01*
X1923040Y841289D01*
X1923123Y841261D01*
X1923225Y841224D01*
X1923336Y841178D01*
X1923456Y841123D01*
X1923715Y840993D01*
X1923974Y840827D01*
X1924103Y840725D01*
X1924233Y840623D01*
X1924344Y840512D01*
X1924454Y840383D01*
X1924464Y840374D01*
X1924482Y840355D01*
X1924501Y840309D01*
X1924538Y840263D01*
X1924584Y840189D01*
X1924630Y840115D01*
X1924676Y840013D01*
X1924723Y839912D01*
X1924778Y839791D01*
X1924824Y839662D01*
X1924871Y839523D01*
X1924917Y839375D01*
X1924954Y839218D01*
X1924972Y839052D01*
X1924991Y838876D01*
X1925000Y838691D01*
Y838589D01*
X1924991Y838515D01*
Y838432D01*
X1924982Y838331D01*
X1924963Y838220D01*
X1924944Y838090D01*
X1924898Y837822D01*
X1924824Y837545D01*
X1924723Y837267D01*
X1924658Y837138D01*
X1924584Y837008D01*
X1924575Y836999D01*
X1924565Y836981D01*
X1924538Y836944D01*
X1924501Y836907D01*
X1924464Y836851D01*
X1924408Y836786D01*
X1924344Y836713D01*
X1924270Y836639D01*
X1924186Y836565D01*
X1924103Y836481D01*
X1923891Y836315D01*
X1923641Y836158D01*
X1923363Y836019D01*
X1923354D01*
X1923327Y836001D01*
X1923280Y835991D01*
X1923225Y835964D01*
X1923151Y835945D01*
X1923058Y835918D01*
X1922957Y835881D01*
X1922846Y835853D01*
X1922726Y835825D01*
X1922587Y835788D01*
X1922300Y835742D01*
X1921977Y835705D01*
X1921644Y835686D01*
X1921635D01*
X1921598D01*
X1921542D01*
X1921477Y835696D01*
X1921385D01*
X1921293Y835705D01*
X1921172Y835714D01*
X1921052Y835732D01*
X1920784Y835779D01*
X1920488Y835844D01*
X1920192Y835936D01*
X1919906Y836065D01*
X1919896Y836075D01*
X1919869Y836084D01*
X1919832Y836102D01*
X1919785Y836139D01*
X1919721Y836176D01*
X1919647Y836223D01*
X1919480Y836343D01*
X1919296Y836500D01*
X1919111Y836685D01*
X1918926Y836898D01*
X1918768Y837147D01*
X1918759Y837156D01*
X1918750Y837184D01*
X1918732Y837221D01*
X1918704Y837267D01*
X1918676Y837341D01*
X1918648Y837415D01*
X1918611Y837508D01*
X1918574Y837609D01*
X1918537Y837720D01*
X1918500Y837840D01*
X1918445Y838099D01*
X1918399Y838395D01*
X1918380Y838700D01*
Y838793D01*
X1918389Y838858D01*
X1918399Y838941D01*
X1918408Y839043D01*
X1918417Y839144D01*
X1918445Y839264D01*
X1918500Y839514D01*
X1918584Y839791D01*
X1918639Y839930D01*
X1918704Y840060D01*
X1918787Y840189D01*
X1918870Y840318D01*
X1918879Y840328D01*
X1918889Y840346D01*
X1918916Y840383D01*
X1918963Y840429D01*
X1919009Y840475D01*
X1919074Y840540D01*
X1919147Y840605D01*
X1919221Y840679D01*
X1919314Y840753D01*
X1919425Y840827D01*
X1919536Y840910D01*
X1919656Y840984D01*
X1919795Y841049D01*
X1919933Y841123D01*
X1920081Y841178D01*
X1920248Y841234D01*
X1920442Y840402D01*
X1920433D01*
X1920414Y840392D01*
X1920377Y840374D01*
X1920331Y840355D01*
X1920276Y840337D01*
X1920202Y840309D01*
X1920054Y840235D01*
X1919887Y840143D01*
X1919721Y840032D01*
X1919564Y839893D01*
X1919425Y839745D01*
X1919406Y839727D01*
X1919369Y839671D01*
X1919323Y839579D01*
X1919259Y839458D01*
X1919203Y839301D01*
X1919147Y839126D01*
X1919111Y838913D01*
X1919101Y838682D01*
Y838608D01*
X1919111Y838562D01*
Y838497D01*
X1919120Y838423D01*
X1919147Y838247D01*
X1919185Y838053D01*
X1919249Y837850D01*
X1919342Y837637D01*
X1919462Y837443D01*
Y837434D01*
X1919480Y837424D01*
X1919527Y837360D01*
X1919601Y837277D01*
X1919711Y837175D01*
X1919850Y837055D01*
X1920007Y836944D01*
X1920202Y836842D01*
X1920414Y836750D01*
X1920423D01*
X1920442Y836740D01*
X1920470Y836731D01*
X1920516Y836722D01*
X1920571Y836703D01*
X1920636Y836685D01*
X1920793Y836657D01*
X1920978Y836620D01*
X1921182Y836583D01*
X1921404Y836565D01*
X1921644Y836555D01*
X1921653D01*
X1921681D01*
X1921727D01*
X1921783D01*
X1921847Y836565D01*
X1921931D01*
X1922023Y836574D01*
X1922125Y836583D01*
X1922346Y836611D01*
X1922587Y836657D01*
X1922827Y836713D01*
X1923068Y836786D01*
X1923077D01*
X1923095Y836796D01*
X1923123Y836814D01*
X1923169Y836833D01*
X1923280Y836888D01*
X1923410Y836972D01*
X1923558Y837073D01*
X1923715Y837203D01*
X1923854Y837350D01*
X1923983Y837526D01*
Y837535D01*
X1923992Y837554D01*
X1924011Y837582D01*
X1924029Y837619D01*
X1924048Y837665D01*
X1924075Y837720D01*
X1924131Y837850D01*
X1924186Y838016D01*
X1924233Y838201D01*
X1924270Y838404D01*
X1924279Y838617D01*
Y838682D01*
X1924270Y838737D01*
Y838802D01*
X1924260Y838867D01*
X1924223Y839033D01*
X1924177Y839227D01*
X1924103Y839421D01*
X1924001Y839625D01*
X1923946Y839727D01*
X1923872Y839819D01*
X1923863Y839828D01*
X1923854Y839838D01*
X1923826Y839865D01*
X1923798Y839902D01*
X1923752Y839939D01*
X1923696Y839986D01*
X1923641Y840041D01*
X1923567Y840087D01*
X1923484Y840143D01*
X1923391Y840207D01*
X1923299Y840263D01*
X1923188Y840318D01*
X1923068Y840365D01*
X1922938Y840411D01*
X1922800Y840457D01*
X1922652Y840494D01*
X1922864Y841345D01*
X1922874D01*
X1922910Y841335D01*
D02*
G37*
G36*
X1924011Y859399D02*
X1924020Y859381D01*
X1924048Y859344D01*
X1924085Y859297D01*
X1924122Y859242D01*
X1924168Y859177D01*
X1924223Y859094D01*
X1924279Y859011D01*
X1924399Y858817D01*
X1924529Y858595D01*
X1924649Y858364D01*
X1924750Y858114D01*
Y858105D01*
X1924760Y858086D01*
X1924769Y858049D01*
X1924787Y858003D01*
X1924806Y857938D01*
X1924834Y857864D01*
X1924852Y857781D01*
X1924870Y857698D01*
X1924917Y857495D01*
X1924963Y857263D01*
X1924991Y857014D01*
X1925000Y856755D01*
Y856662D01*
X1924991Y856598D01*
Y856515D01*
X1924982Y856413D01*
X1924963Y856302D01*
X1924954Y856182D01*
X1924898Y855914D01*
X1924834Y855627D01*
X1924732Y855331D01*
X1924676Y855183D01*
X1924602Y855035D01*
X1924593Y855026D01*
X1924584Y854998D01*
X1924556Y854961D01*
X1924529Y854906D01*
X1924482Y854841D01*
X1924436Y854776D01*
X1924307Y854601D01*
X1924140Y854416D01*
X1923937Y854222D01*
X1923706Y854037D01*
X1923438Y853870D01*
X1923428D01*
X1923401Y853852D01*
X1923363Y853833D01*
X1923299Y853806D01*
X1923234Y853778D01*
X1923142Y853750D01*
X1923049Y853713D01*
X1922938Y853676D01*
X1922818Y853639D01*
X1922679Y853602D01*
X1922541Y853574D01*
X1922393Y853547D01*
X1922069Y853501D01*
X1921727Y853482D01*
X1921718D01*
X1921681D01*
X1921635D01*
X1921570Y853491D01*
X1921487D01*
X1921385Y853501D01*
X1921283Y853519D01*
X1921163Y853528D01*
X1921034Y853556D01*
X1920895Y853574D01*
X1920599Y853648D01*
X1920294Y853741D01*
X1919989Y853870D01*
X1919980Y853879D01*
X1919952Y853889D01*
X1919915Y853907D01*
X1919859Y853944D01*
X1919785Y853981D01*
X1919711Y854027D01*
X1919536Y854157D01*
X1919332Y854314D01*
X1919138Y854508D01*
X1918944Y854730D01*
X1918861Y854860D01*
X1918778Y854989D01*
X1918768Y854998D01*
X1918759Y855026D01*
X1918741Y855063D01*
X1918713Y855118D01*
X1918685Y855192D01*
X1918648Y855276D01*
X1918611Y855368D01*
X1918574Y855479D01*
X1918537Y855599D01*
X1918510Y855729D01*
X1918473Y855867D01*
X1918445Y856015D01*
X1918399Y856339D01*
X1918380Y856505D01*
Y856801D01*
X1918389Y856857D01*
Y856931D01*
X1918408Y857106D01*
X1918436Y857300D01*
X1918482Y857504D01*
X1918537Y857726D01*
X1918611Y857938D01*
Y857948D01*
X1918620Y857966D01*
X1918630Y857994D01*
X1918648Y858031D01*
X1918704Y858132D01*
X1918768Y858262D01*
X1918861Y858401D01*
X1918972Y858549D01*
X1919092Y858687D01*
X1919240Y858817D01*
X1919259Y858835D01*
X1919314Y858872D01*
X1919397Y858928D01*
X1919517Y859002D01*
X1919665Y859075D01*
X1919850Y859159D01*
X1920054Y859242D01*
X1920285Y859307D01*
X1920488Y858539D01*
X1920479D01*
X1920470Y858530D01*
X1920442Y858521D01*
X1920405Y858512D01*
X1920322Y858484D01*
X1920211Y858447D01*
X1920081Y858391D01*
X1919961Y858327D01*
X1919832Y858262D01*
X1919721Y858179D01*
X1919711Y858169D01*
X1919675Y858142D01*
X1919628Y858086D01*
X1919564Y858022D01*
X1919490Y857938D01*
X1919416Y857827D01*
X1919342Y857707D01*
X1919277Y857569D01*
X1919268Y857550D01*
X1919249Y857504D01*
X1919221Y857421D01*
X1919185Y857310D01*
X1919157Y857180D01*
X1919129Y857032D01*
X1919111Y856866D01*
X1919101Y856690D01*
Y856589D01*
X1919111Y856542D01*
Y856487D01*
X1919120Y856348D01*
X1919147Y856191D01*
X1919175Y856015D01*
X1919221Y855849D01*
X1919286Y855682D01*
X1919296Y855664D01*
X1919314Y855608D01*
X1919360Y855535D01*
X1919406Y855442D01*
X1919480Y855331D01*
X1919554Y855211D01*
X1919647Y855100D01*
X1919749Y854998D01*
X1919758Y854989D01*
X1919795Y854952D01*
X1919859Y854906D01*
X1919933Y854850D01*
X1920026Y854786D01*
X1920137Y854721D01*
X1920257Y854656D01*
X1920386Y854591D01*
X1920396D01*
X1920414Y854582D01*
X1920442Y854573D01*
X1920488Y854555D01*
X1920544Y854536D01*
X1920608Y854518D01*
X1920682Y854490D01*
X1920766Y854471D01*
X1920960Y854425D01*
X1921182Y854388D01*
X1921413Y854360D01*
X1921672Y854351D01*
X1921681D01*
X1921709D01*
X1921755D01*
X1921810Y854360D01*
X1921884D01*
X1921977Y854370D01*
X1922069Y854379D01*
X1922171Y854388D01*
X1922402Y854425D01*
X1922642Y854471D01*
X1922883Y854545D01*
X1923114Y854638D01*
X1923123D01*
X1923142Y854656D01*
X1923169Y854665D01*
X1923206Y854693D01*
X1923308Y854758D01*
X1923438Y854860D01*
X1923576Y854980D01*
X1923715Y855128D01*
X1923844Y855303D01*
X1923965Y855498D01*
Y855507D01*
X1923974Y855525D01*
X1923992Y855553D01*
X1924011Y855599D01*
X1924029Y855645D01*
X1924048Y855710D01*
X1924103Y855858D01*
X1924149Y856043D01*
X1924196Y856246D01*
X1924233Y856468D01*
X1924242Y856699D01*
Y856792D01*
X1924233Y856847D01*
Y856903D01*
X1924214Y857041D01*
X1924196Y857208D01*
X1924159Y857384D01*
X1924103Y857578D01*
X1924038Y857772D01*
Y857781D01*
X1924029Y857800D01*
X1924020Y857818D01*
X1924001Y857855D01*
X1923955Y857957D01*
X1923900Y858068D01*
X1923835Y858197D01*
X1923761Y858336D01*
X1923678Y858465D01*
X1923585Y858576D01*
X1922384D01*
Y856690D01*
X1921625D01*
Y859408D01*
X1924001D01*
X1924011Y859399D01*
D02*
G37*
%LPC*%
G36*
X1597194Y291943D02*
X1592075Y276522D01*
X1602313D01*
X1597194Y291943D01*
D02*
G37*
G36*
X1564991Y293110D02*
X1561038D01*
Y280863D01*
X1564926D01*
X1565315Y280928D01*
X1566287Y281058D01*
X1567259Y281317D01*
X1567323D01*
X1567453Y281382D01*
X1567647Y281511D01*
X1567907Y281641D01*
X1568555Y282030D01*
X1569138Y282613D01*
X1569203Y282678D01*
X1569267Y282743D01*
X1569397Y282937D01*
X1569591Y283196D01*
X1569980Y283844D01*
X1570304Y284622D01*
Y284686D01*
X1570369Y284816D01*
X1570434Y285075D01*
X1570563Y285399D01*
X1570628Y285788D01*
X1570693Y286241D01*
X1570758Y287278D01*
Y287343D01*
Y287602D01*
X1570693Y287926D01*
Y288380D01*
X1570434Y289417D01*
X1570304Y289935D01*
X1570045Y290388D01*
Y290453D01*
X1569915Y290583D01*
X1569786Y290842D01*
X1569591Y291101D01*
X1569073Y291684D01*
X1568425Y292203D01*
X1568360D01*
X1568231Y292267D01*
X1568036Y292397D01*
X1567777Y292527D01*
X1567129Y292721D01*
X1566351Y292915D01*
X1566287D01*
X1566157Y292980D01*
X1565963D01*
X1565639Y293045D01*
X1564991Y293110D01*
D02*
G37*
G36*
X1533403Y240185D02*
X1532431D01*
X1531978Y240055D01*
X1531459Y239926D01*
X1531330Y239861D01*
X1531070Y239796D01*
X1530617Y239537D01*
X1530099Y239213D01*
X1529969Y239148D01*
X1529645Y238889D01*
X1529191Y238500D01*
X1528608Y237982D01*
X1528543D01*
X1528479Y237852D01*
X1528155Y237463D01*
X1527636Y236945D01*
X1527053Y236168D01*
Y227939D01*
X1527118Y227874D01*
X1527312Y227615D01*
X1527572Y227291D01*
X1527960Y226837D01*
X1528803Y225865D01*
X1529321Y225412D01*
X1529839Y224958D01*
X1529904Y224893D01*
X1530099Y224828D01*
X1530358Y224634D01*
X1530682Y224505D01*
X1531135Y224310D01*
X1531589Y224116D01*
X1532107Y224051D01*
X1532625Y223986D01*
X1532885D01*
X1533144Y224051D01*
X1533468D01*
X1534245Y224245D01*
X1534958Y224634D01*
X1535023Y224699D01*
X1535153Y224764D01*
X1535541Y225152D01*
X1535995Y225671D01*
X1536513Y226448D01*
Y226513D01*
X1536643Y226643D01*
X1536708Y226902D01*
X1536902Y227226D01*
X1537032Y227615D01*
X1537226Y228068D01*
X1537485Y229040D01*
Y229105D01*
X1537550Y229299D01*
X1537615Y229559D01*
X1537680Y229947D01*
Y230401D01*
X1537744Y230854D01*
X1537809Y231956D01*
Y232021D01*
Y232215D01*
Y232539D01*
Y232928D01*
X1537744Y233381D01*
X1537680Y233900D01*
X1537550Y235001D01*
Y235066D01*
X1537485Y235261D01*
X1537420Y235520D01*
X1537356Y235908D01*
X1537096Y236751D01*
X1536708Y237593D01*
Y237658D01*
X1536578Y237787D01*
X1536449Y237982D01*
X1536319Y238241D01*
X1535800Y238889D01*
X1535153Y239472D01*
X1535088Y239537D01*
X1535023Y239602D01*
X1534764Y239731D01*
X1534505Y239861D01*
X1533792Y240055D01*
X1533403Y240185D01*
D02*
G37*
G36*
X1470940Y249386D02*
X1466599D01*
Y239991D01*
X1471264D01*
X1471588Y240055D01*
X1472431Y240120D01*
X1472819Y240185D01*
X1473208Y240315D01*
X1473273D01*
X1473403Y240379D01*
X1473791Y240574D01*
X1474310Y240898D01*
X1474828Y241351D01*
X1474958Y241481D01*
X1475217Y241805D01*
X1475541Y242258D01*
X1475800Y242906D01*
Y242971D01*
X1475865Y243036D01*
X1475930Y243230D01*
X1475994Y243489D01*
X1476059Y244073D01*
X1476124Y244785D01*
Y244850D01*
Y244980D01*
Y245174D01*
X1476059Y245433D01*
X1475994Y246081D01*
X1475735Y246729D01*
Y246794D01*
X1475670Y246859D01*
X1475476Y247248D01*
X1475152Y247701D01*
X1474698Y248155D01*
X1474569Y248284D01*
X1474245Y248479D01*
X1473727Y248803D01*
X1473014Y249062D01*
X1472949D01*
X1472819Y249127D01*
X1472625Y249191D01*
X1472301Y249256D01*
X1471912D01*
X1471459Y249321D01*
X1470940Y249386D01*
D02*
G37*
G36*
X1471653Y234613D02*
X1466599D01*
Y224310D01*
X1472431D01*
X1472819Y224375D01*
X1473662Y224440D01*
X1474504Y224569D01*
X1474569D01*
X1474698Y224634D01*
X1474893Y224699D01*
X1475152Y224828D01*
X1475735Y225088D01*
X1476318Y225541D01*
X1476383D01*
X1476448Y225671D01*
X1476772Y225995D01*
X1477161Y226448D01*
X1477549Y227096D01*
Y227161D01*
X1477614Y227291D01*
X1477679Y227485D01*
X1477809Y227744D01*
X1477938Y228392D01*
X1478003Y229235D01*
Y229299D01*
Y229429D01*
Y229688D01*
X1477938Y230012D01*
X1477809Y230725D01*
X1477549Y231502D01*
Y231567D01*
X1477485Y231697D01*
X1477225Y232085D01*
X1476837Y232669D01*
X1476318Y233187D01*
X1476254D01*
X1476189Y233317D01*
X1475994Y233446D01*
X1475735Y233576D01*
X1475087Y233900D01*
X1474180Y234224D01*
X1474115D01*
X1473986Y234289D01*
X1473662Y234353D01*
X1473338Y234418D01*
X1472819Y234483D01*
X1472301Y234548D01*
X1471653Y234613D01*
D02*
G37*
G36*
X1619063Y241092D02*
X1617443D01*
X1617119Y241027D01*
X1616276Y240963D01*
X1615499Y240768D01*
X1615434D01*
X1615369Y240703D01*
X1614916Y240574D01*
X1614397Y240315D01*
X1613879Y239991D01*
X1613814Y239926D01*
X1613555Y239667D01*
X1613296Y239278D01*
X1613037Y238759D01*
X1612972Y238630D01*
X1612907Y238306D01*
X1612842Y237852D01*
X1612777Y237269D01*
Y237204D01*
Y237140D01*
X1612842Y236751D01*
X1612907Y236232D01*
X1613037Y235649D01*
X1613101Y235520D01*
X1613296Y235261D01*
X1613555Y234937D01*
X1613944Y234548D01*
X1614073Y234483D01*
X1614397Y234289D01*
X1614916Y234029D01*
X1615564Y233835D01*
X1615758D01*
X1615952Y233770D01*
X1616276D01*
X1616600Y233705D01*
X1617054D01*
X1617572Y233641D01*
X1621201D01*
Y240833D01*
X1621071D01*
X1620683Y240898D01*
X1620164Y240963D01*
X1619516Y241027D01*
X1619387D01*
X1619063Y241092D01*
D02*
G37*
G36*
X1502236Y241222D02*
X1501783D01*
X1501459Y241157D01*
X1500681Y241027D01*
X1499904Y240703D01*
X1499839D01*
X1499774Y240639D01*
X1499321Y240315D01*
X1498802Y239926D01*
X1498219Y239343D01*
Y239278D01*
X1498090Y239213D01*
X1498025Y239019D01*
X1497830Y238759D01*
X1497506Y238111D01*
X1497182Y237334D01*
Y237269D01*
X1497118Y237140D01*
X1497053Y236880D01*
Y236621D01*
X1496923Y235779D01*
X1496859Y234872D01*
X1507420D01*
Y234937D01*
Y235001D01*
Y235325D01*
X1507355Y235908D01*
X1507290Y236556D01*
X1507161Y237269D01*
X1506902Y238047D01*
X1506643Y238824D01*
X1506189Y239472D01*
X1506124Y239537D01*
X1505930Y239731D01*
X1505671Y240055D01*
X1505217Y240379D01*
X1504634Y240639D01*
X1503986Y240963D01*
X1503144Y241157D01*
X1502236Y241222D01*
D02*
G37*
G36*
X1920190Y372125D02*
X1920180D01*
X1920171D01*
X1920116Y372116D01*
X1920032Y372107D01*
X1919921Y372088D01*
X1919810Y372042D01*
X1919681Y371987D01*
X1919561Y371903D01*
X1919441Y371792D01*
X1919431Y371774D01*
X1919394Y371728D01*
X1919348Y371654D01*
X1919293Y371534D01*
X1919237Y371395D01*
X1919191Y371210D01*
X1919154Y370997D01*
X1919145Y370748D01*
Y368732D01*
X1921262D01*
Y370637D01*
X1921253Y370748D01*
X1921243Y370877D01*
X1921234Y371025D01*
X1921216Y371173D01*
X1921188Y371321D01*
X1921151Y371450D01*
X1921142Y371469D01*
X1921123Y371506D01*
X1921096Y371561D01*
X1921059Y371635D01*
X1921003Y371718D01*
X1920938Y371802D01*
X1920855Y371885D01*
X1920763Y371950D01*
X1920753Y371959D01*
X1920717Y371977D01*
X1920661Y372005D01*
X1920587Y372042D01*
X1920504Y372070D01*
X1920411Y372098D01*
X1920300Y372116D01*
X1920190Y372125D01*
D02*
G37*
G36*
Y972125D02*
X1920180D01*
X1920171D01*
X1920116Y972116D01*
X1920032Y972107D01*
X1919921Y972088D01*
X1919810Y972042D01*
X1919681Y971987D01*
X1919561Y971903D01*
X1919441Y971792D01*
X1919431Y971774D01*
X1919394Y971728D01*
X1919348Y971654D01*
X1919293Y971534D01*
X1919237Y971395D01*
X1919191Y971210D01*
X1919154Y970997D01*
X1919145Y970748D01*
Y968732D01*
X1921262D01*
Y970637D01*
X1921253Y970748D01*
X1921243Y970877D01*
X1921234Y971025D01*
X1921216Y971173D01*
X1921188Y971321D01*
X1921151Y971450D01*
X1921142Y971469D01*
X1921123Y971506D01*
X1921096Y971561D01*
X1921059Y971635D01*
X1921003Y971719D01*
X1920938Y971802D01*
X1920855Y971885D01*
X1920763Y971950D01*
X1920753Y971959D01*
X1920717Y971977D01*
X1920661Y972005D01*
X1920587Y972042D01*
X1920504Y972070D01*
X1920411Y972097D01*
X1920300Y972116D01*
X1920190Y972125D01*
D02*
G37*
G36*
Y672125D02*
X1920180D01*
X1920171D01*
X1920116Y672116D01*
X1920032Y672107D01*
X1919921Y672088D01*
X1919810Y672042D01*
X1919681Y671987D01*
X1919561Y671903D01*
X1919441Y671792D01*
X1919431Y671774D01*
X1919394Y671728D01*
X1919348Y671654D01*
X1919293Y671534D01*
X1919237Y671395D01*
X1919191Y671210D01*
X1919154Y670997D01*
X1919145Y670748D01*
Y668732D01*
X1921262D01*
Y670637D01*
X1921253Y670748D01*
X1921243Y670877D01*
X1921234Y671025D01*
X1921216Y671173D01*
X1921188Y671321D01*
X1921151Y671450D01*
X1921142Y671469D01*
X1921123Y671506D01*
X1921096Y671561D01*
X1921059Y671635D01*
X1921003Y671718D01*
X1920938Y671802D01*
X1920855Y671885D01*
X1920763Y671950D01*
X1920753Y671959D01*
X1920717Y671977D01*
X1920661Y672005D01*
X1920587Y672042D01*
X1920504Y672070D01*
X1920411Y672097D01*
X1920300Y672116D01*
X1920190Y672125D01*
D02*
G37*
G36*
Y522125D02*
X1920180D01*
X1920171D01*
X1920116Y522116D01*
X1920032Y522107D01*
X1919921Y522088D01*
X1919810Y522042D01*
X1919681Y521987D01*
X1919561Y521903D01*
X1919441Y521792D01*
X1919431Y521774D01*
X1919394Y521728D01*
X1919348Y521654D01*
X1919293Y521534D01*
X1919237Y521395D01*
X1919191Y521210D01*
X1919154Y520997D01*
X1919145Y520748D01*
Y518732D01*
X1921262D01*
Y520637D01*
X1921253Y520748D01*
X1921243Y520877D01*
X1921234Y521025D01*
X1921216Y521173D01*
X1921188Y521321D01*
X1921151Y521450D01*
X1921142Y521469D01*
X1921123Y521506D01*
X1921096Y521561D01*
X1921059Y521635D01*
X1921003Y521718D01*
X1920938Y521802D01*
X1920855Y521885D01*
X1920763Y521950D01*
X1920753Y521959D01*
X1920717Y521977D01*
X1920661Y522005D01*
X1920587Y522042D01*
X1920504Y522070D01*
X1920411Y522098D01*
X1920300Y522116D01*
X1920190Y522125D01*
D02*
G37*
G36*
Y222125D02*
X1920180D01*
X1920171D01*
X1920116Y222116D01*
X1920032Y222107D01*
X1919921Y222088D01*
X1919810Y222042D01*
X1919681Y221987D01*
X1919561Y221903D01*
X1919441Y221792D01*
X1919431Y221774D01*
X1919394Y221728D01*
X1919348Y221654D01*
X1919293Y221534D01*
X1919237Y221395D01*
X1919191Y221210D01*
X1919154Y220997D01*
X1919145Y220748D01*
Y218732D01*
X1921262D01*
Y220637D01*
X1921253Y220748D01*
X1921243Y220877D01*
X1921234Y221025D01*
X1921216Y221173D01*
X1921188Y221321D01*
X1921151Y221450D01*
X1921142Y221469D01*
X1921123Y221506D01*
X1921096Y221561D01*
X1921059Y221635D01*
X1921003Y221718D01*
X1920938Y221802D01*
X1920855Y221885D01*
X1920763Y221950D01*
X1920753Y221959D01*
X1920717Y221977D01*
X1920661Y222005D01*
X1920587Y222042D01*
X1920504Y222070D01*
X1920411Y222097D01*
X1920300Y222116D01*
X1920190Y222125D01*
D02*
G37*
G36*
Y822125D02*
X1920180D01*
X1920171D01*
X1920116Y822116D01*
X1920032Y822107D01*
X1919921Y822088D01*
X1919810Y822042D01*
X1919681Y821987D01*
X1919561Y821903D01*
X1919441Y821792D01*
X1919431Y821774D01*
X1919394Y821728D01*
X1919348Y821654D01*
X1919293Y821534D01*
X1919237Y821395D01*
X1919191Y821210D01*
X1919154Y820997D01*
X1919145Y820748D01*
Y818732D01*
X1921262D01*
Y820637D01*
X1921253Y820748D01*
X1921243Y820877D01*
X1921234Y821025D01*
X1921216Y821173D01*
X1921188Y821321D01*
X1921151Y821450D01*
X1921142Y821469D01*
X1921123Y821506D01*
X1921096Y821561D01*
X1921059Y821635D01*
X1921003Y821718D01*
X1920938Y821802D01*
X1920855Y821885D01*
X1920763Y821950D01*
X1920753Y821959D01*
X1920717Y821977D01*
X1920661Y822005D01*
X1920587Y822042D01*
X1920504Y822070D01*
X1920411Y822097D01*
X1920300Y822116D01*
X1920190Y822125D01*
D02*
G37*
%LPD*%
D10*
X794300Y890000D02*
G03*
X764300Y860000I0J-30000D01*
G01*
X1134300D02*
G03*
X1104300Y890000I-30000J0D01*
G01*
X764300Y335000D02*
G03*
X794300Y305000I30000J0D01*
G01*
X1104300D02*
G03*
X1134300Y335000I0J30000D01*
G01*
X953100Y968000D02*
G03*
X953100Y968000I-40000J0D01*
G01*
X1064300Y216765D02*
G03*
X1064300Y216765I-40000J0D01*
G01*
X911900D02*
G03*
X911900Y216765I-40000J0D01*
G01*
X794300Y890000D02*
X1104300D01*
X794300Y305000D02*
X1104300D01*
X1134300Y335000D02*
Y860000D01*
X764300Y335000D02*
Y860000D01*
X1682336Y731998D02*
Y730332D01*
X1685668Y727000D01*
X1689000Y730332D01*
Y731998D01*
X1685668Y727000D02*
Y722002D01*
X1692332D02*
X1695665D01*
X1693998D01*
Y731998D01*
X1692332Y730332D01*
X765556Y908903D02*
Y900572D01*
X767222Y898906D01*
X770554D01*
X772221Y900572D01*
Y908903D01*
X780551Y898906D02*
Y908903D01*
X775553Y903904D01*
X782217D01*
X1766669Y531298D02*
Y522968D01*
X1768336Y521302D01*
X1771668D01*
X1773334Y522968D01*
Y531298D01*
X1783331Y521302D02*
X1776666D01*
X1783331Y527966D01*
Y529632D01*
X1781664Y531298D01*
X1778332D01*
X1776666Y529632D01*
X1538336Y781998D02*
Y773668D01*
X1540002Y772002D01*
X1543334D01*
X1545000Y773668D01*
Y781998D01*
X1548332Y772002D02*
X1551664D01*
X1549998D01*
Y781998D01*
X1548332Y780332D01*
X1909410Y1033572D02*
Y1043569D01*
X1914408D01*
X1916075Y1041903D01*
Y1038570D01*
X1914408Y1036904D01*
X1909410D01*
X1912742D02*
X1916075Y1033572D01*
X1926071D02*
X1919407D01*
X1926071Y1040237D01*
Y1041903D01*
X1924405Y1043569D01*
X1921073D01*
X1919407Y1041903D01*
X1936068Y1043569D02*
X1929404D01*
Y1038570D01*
X1932736Y1040237D01*
X1934402D01*
X1936068Y1038570D01*
Y1035238D01*
X1934402Y1033572D01*
X1931070D01*
X1929404Y1035238D01*
X1909410Y938504D02*
Y948501D01*
X1914408D01*
X1916075Y946835D01*
Y943502D01*
X1914408Y941836D01*
X1909410D01*
X1912742D02*
X1916075Y938504D01*
X1926071D02*
X1919407D01*
X1926071Y945169D01*
Y946835D01*
X1924405Y948501D01*
X1921073D01*
X1919407Y946835D01*
X1934402Y938504D02*
Y948501D01*
X1929404Y943502D01*
X1936068D01*
X1506671Y617502D02*
Y627498D01*
X1511669D01*
X1513336Y625832D01*
Y622500D01*
X1511669Y620834D01*
X1506671D01*
X1510003D02*
X1513336Y617502D01*
X1523332D02*
X1516668D01*
X1523332Y624166D01*
Y625832D01*
X1521666Y627498D01*
X1518334D01*
X1516668Y625832D01*
X1526664D02*
X1528331Y627498D01*
X1531663D01*
X1533329Y625832D01*
Y624166D01*
X1531663Y622500D01*
X1529997D01*
X1531663D01*
X1533329Y620834D01*
Y619168D01*
X1531663Y617502D01*
X1528331D01*
X1526664Y619168D01*
X1909330Y883650D02*
Y893647D01*
X1914328D01*
X1915995Y891981D01*
Y888648D01*
X1914328Y886982D01*
X1909330D01*
X1912662D02*
X1915995Y883650D01*
X1925991D02*
X1919327D01*
X1925991Y890314D01*
Y891981D01*
X1924325Y893647D01*
X1920993D01*
X1919327Y891981D01*
X1935988Y883650D02*
X1929323D01*
X1935988Y890314D01*
Y891981D01*
X1934322Y893647D01*
X1930990D01*
X1929323Y891981D01*
X1911076Y788672D02*
Y798669D01*
X1916075D01*
X1917741Y797003D01*
Y793670D01*
X1916075Y792004D01*
X1911076D01*
X1914408D02*
X1917741Y788672D01*
X1927737D02*
X1921073D01*
X1927737Y795337D01*
Y797003D01*
X1926071Y798669D01*
X1922739D01*
X1921073Y797003D01*
X1931070Y788672D02*
X1934402D01*
X1932736D01*
Y798669D01*
X1931070Y797003D01*
X1909552Y733662D02*
Y743659D01*
X1914550D01*
X1916216Y741993D01*
Y738660D01*
X1914550Y736994D01*
X1909552D01*
X1912884D02*
X1916216Y733662D01*
X1926213D02*
X1919549D01*
X1926213Y740327D01*
Y741993D01*
X1924547Y743659D01*
X1921215D01*
X1919549Y741993D01*
X1929546D02*
X1931212Y743659D01*
X1934544D01*
X1936210Y741993D01*
Y735328D01*
X1934544Y733662D01*
X1931212D01*
X1929546Y735328D01*
Y741993D01*
X1909410Y638530D02*
Y648527D01*
X1914408D01*
X1916075Y646861D01*
Y643528D01*
X1914408Y641862D01*
X1909410D01*
X1912742D02*
X1916075Y638530D01*
X1919407D02*
X1922739D01*
X1921073D01*
Y648527D01*
X1919407Y646861D01*
X1927737Y640196D02*
X1929404Y638530D01*
X1932736D01*
X1934402Y640196D01*
Y646861D01*
X1932736Y648527D01*
X1929404D01*
X1927737Y646861D01*
Y645194D01*
X1929404Y643528D01*
X1934402D01*
X1909504Y583550D02*
Y593547D01*
X1914502D01*
X1916169Y591881D01*
Y588548D01*
X1914502Y586882D01*
X1909504D01*
X1912836D02*
X1916169Y583550D01*
X1919501D02*
X1922833D01*
X1921167D01*
Y593547D01*
X1919501Y591881D01*
X1927831D02*
X1929498Y593547D01*
X1932830D01*
X1934496Y591881D01*
Y590215D01*
X1932830Y588548D01*
X1934496Y586882D01*
Y585216D01*
X1932830Y583550D01*
X1929498D01*
X1927831Y585216D01*
Y586882D01*
X1929498Y588548D01*
X1927831Y590215D01*
Y591881D01*
X1929498Y588548D02*
X1932830D01*
X1909410Y488670D02*
Y498667D01*
X1914408D01*
X1916075Y497001D01*
Y493668D01*
X1914408Y492002D01*
X1909410D01*
X1912742D02*
X1916075Y488670D01*
X1919407D02*
X1922739D01*
X1921073D01*
Y498667D01*
X1919407Y497001D01*
X1927737Y498667D02*
X1934402D01*
Y497001D01*
X1927737Y490336D01*
Y488670D01*
X1909324Y433612D02*
Y443609D01*
X1914322D01*
X1915988Y441943D01*
Y438610D01*
X1914322Y436944D01*
X1909324D01*
X1912656D02*
X1915988Y433612D01*
X1919321D02*
X1922653D01*
X1920987D01*
Y443609D01*
X1919321Y441943D01*
X1934316Y443609D02*
X1930984Y441943D01*
X1927651Y438610D01*
Y435278D01*
X1929318Y433612D01*
X1932650D01*
X1934316Y435278D01*
Y436944D01*
X1932650Y438610D01*
X1927651D01*
X1909410Y338556D02*
Y348553D01*
X1914408D01*
X1916075Y346887D01*
Y343554D01*
X1914408Y341888D01*
X1909410D01*
X1912742D02*
X1916075Y338556D01*
X1919407D02*
X1922739D01*
X1921073D01*
Y348553D01*
X1919407Y346887D01*
X1934402Y348553D02*
X1927737D01*
Y343554D01*
X1931070Y345220D01*
X1932736D01*
X1934402Y343554D01*
Y340222D01*
X1932736Y338556D01*
X1929404D01*
X1927737Y340222D01*
X1500998Y848504D02*
X1491002D01*
Y853502D01*
X1492668Y855169D01*
X1496000D01*
X1497666Y853502D01*
Y848504D01*
Y851836D02*
X1500998Y855169D01*
Y858501D02*
Y861833D01*
Y860167D01*
X1491002D01*
X1492668Y858501D01*
X1500998Y871830D02*
X1491002D01*
X1496000Y866832D01*
Y873496D01*
X1545998Y848504D02*
X1536002D01*
Y853503D01*
X1537668Y855169D01*
X1541000D01*
X1542666Y853503D01*
Y848504D01*
Y851836D02*
X1545998Y855169D01*
Y858501D02*
Y861833D01*
Y860167D01*
X1536002D01*
X1537668Y858501D01*
Y866832D02*
X1536002Y868498D01*
Y871830D01*
X1537668Y873496D01*
X1539334D01*
X1541000Y871830D01*
Y870164D01*
Y871830D01*
X1542666Y873496D01*
X1544332D01*
X1545998Y871830D01*
Y868498D01*
X1544332Y866832D01*
X1588998Y848504D02*
X1579002D01*
Y853503D01*
X1580668Y855169D01*
X1584000D01*
X1585666Y853503D01*
Y848504D01*
Y851836D02*
X1588998Y855169D01*
Y858501D02*
Y861833D01*
Y860167D01*
X1579002D01*
X1580668Y858501D01*
X1588998Y873496D02*
Y866832D01*
X1582334Y873496D01*
X1580668D01*
X1579002Y871830D01*
Y868498D01*
X1580668Y866832D01*
X1633998Y850170D02*
X1624002D01*
Y855169D01*
X1625668Y856835D01*
X1629000D01*
X1630666Y855169D01*
Y850170D01*
Y853502D02*
X1633998Y856835D01*
Y860167D02*
Y863499D01*
Y861833D01*
X1624002D01*
X1625668Y860167D01*
X1633998Y868498D02*
Y871830D01*
Y870164D01*
X1624002D01*
X1625668Y868498D01*
X1678998Y848504D02*
X1669002D01*
Y853502D01*
X1670668Y855169D01*
X1674000D01*
X1675666Y853502D01*
Y848504D01*
Y851836D02*
X1678998Y855169D01*
Y858501D02*
Y861833D01*
Y860167D01*
X1669002D01*
X1670668Y858501D01*
Y866832D02*
X1669002Y868498D01*
Y871830D01*
X1670668Y873496D01*
X1677332D01*
X1678998Y871830D01*
Y868498D01*
X1677332Y866832D01*
X1670668D01*
X1722998Y854669D02*
X1713002D01*
Y859668D01*
X1714668Y861334D01*
X1718000D01*
X1719666Y859668D01*
Y854669D01*
Y858002D02*
X1722998Y861334D01*
X1721332Y864666D02*
X1722998Y866332D01*
Y869665D01*
X1721332Y871331D01*
X1714668D01*
X1713002Y869665D01*
Y866332D01*
X1714668Y864666D01*
X1716334D01*
X1718000Y866332D01*
Y871331D01*
X1909410Y283510D02*
Y293507D01*
X1914408D01*
X1916075Y291841D01*
Y288508D01*
X1914408Y286842D01*
X1909410D01*
X1912742D02*
X1916075Y283510D01*
X1919407Y291841D02*
X1921073Y293507D01*
X1924405D01*
X1926071Y291841D01*
Y290175D01*
X1924405Y288508D01*
X1926071Y286842D01*
Y285176D01*
X1924405Y283510D01*
X1921073D01*
X1919407Y285176D01*
Y286842D01*
X1921073Y288508D01*
X1919407Y290175D01*
Y291841D01*
X1921073Y288508D02*
X1924405D01*
X1494348Y944880D02*
Y954877D01*
X1499346D01*
X1501013Y953211D01*
Y949878D01*
X1499346Y948212D01*
X1494348D01*
X1497680D02*
X1501013Y944880D01*
X1504345Y954877D02*
X1511009D01*
Y953211D01*
X1504345Y946546D01*
Y944880D01*
X1538502D02*
Y954877D01*
X1543500D01*
X1545166Y953211D01*
Y949878D01*
X1543500Y948212D01*
X1538502D01*
X1541834D02*
X1545166Y944880D01*
X1555163Y954877D02*
X1551831Y953211D01*
X1548499Y949878D01*
Y946546D01*
X1550165Y944880D01*
X1553497D01*
X1555163Y946546D01*
Y948212D01*
X1553497Y949878D01*
X1548499D01*
X1582672Y944912D02*
Y954909D01*
X1587670D01*
X1589336Y953243D01*
Y949910D01*
X1587670Y948244D01*
X1582672D01*
X1586004D02*
X1589336Y944912D01*
X1599333Y954909D02*
X1592669D01*
Y949910D01*
X1596001Y951577D01*
X1597667D01*
X1599333Y949910D01*
Y946578D01*
X1597667Y944912D01*
X1594335D01*
X1592669Y946578D01*
X1627048Y944864D02*
Y954861D01*
X1632046D01*
X1633712Y953195D01*
Y949862D01*
X1632046Y948196D01*
X1627048D01*
X1630380D02*
X1633712Y944864D01*
X1642043D02*
Y954861D01*
X1637045Y949862D01*
X1643709D01*
X1671186Y944944D02*
Y954941D01*
X1676184D01*
X1677850Y953275D01*
Y949942D01*
X1676184Y948276D01*
X1671186D01*
X1674518D02*
X1677850Y944944D01*
X1681183Y953275D02*
X1682849Y954941D01*
X1686181D01*
X1687847Y953275D01*
Y951609D01*
X1686181Y949942D01*
X1684515D01*
X1686181D01*
X1687847Y948276D01*
Y946610D01*
X1686181Y944944D01*
X1682849D01*
X1681183Y946610D01*
X1715546Y944896D02*
Y954893D01*
X1720544D01*
X1722210Y953227D01*
Y949894D01*
X1720544Y948228D01*
X1715546D01*
X1718878D02*
X1722210Y944896D01*
X1732207D02*
X1725543D01*
X1732207Y951561D01*
Y953227D01*
X1730541Y954893D01*
X1727209D01*
X1725543Y953227D01*
X1909410Y188696D02*
Y198693D01*
X1914408D01*
X1916075Y197027D01*
Y193694D01*
X1914408Y192028D01*
X1909410D01*
X1912742D02*
X1916075Y188696D01*
X1919407D02*
X1922739D01*
X1921073D01*
Y198693D01*
X1919407Y197027D01*
X661334Y951498D02*
X658002D01*
X659668D01*
Y943168D01*
X658002Y941502D01*
X656336D01*
X654669Y943168D01*
X671331Y941502D02*
X664666D01*
X671331Y948166D01*
Y949832D01*
X669665Y951498D01*
X666332D01*
X664666Y949832D01*
X1560000Y599998D02*
X1556668D01*
X1558334D01*
Y591668D01*
X1556668Y590002D01*
X1555002D01*
X1553336Y591668D01*
X1563332Y590002D02*
X1566664D01*
X1564998D01*
Y599998D01*
X1563332Y598332D01*
X1006348Y1024219D02*
Y1014222D01*
X1011346D01*
X1013012Y1015888D01*
Y1022553D01*
X1011346Y1024219D01*
X1006348D01*
X1016345Y1014222D02*
X1019677D01*
X1018011D01*
Y1024219D01*
X1016345Y1022553D01*
X1024675D02*
X1026342Y1024219D01*
X1029674D01*
X1031340Y1022553D01*
Y1015888D01*
X1029674Y1014222D01*
X1026342D01*
X1024675Y1015888D01*
Y1022553D01*
X1837012Y1035001D02*
Y1025004D01*
X1842010D01*
X1843676Y1026670D01*
Y1033335D01*
X1842010Y1035001D01*
X1837012D01*
X1847009Y1033335D02*
X1848675Y1035001D01*
X1852007D01*
X1853673Y1033335D01*
Y1031668D01*
X1852007Y1030002D01*
X1853673Y1028336D01*
Y1026670D01*
X1852007Y1025004D01*
X1848675D01*
X1847009Y1026670D01*
Y1028336D01*
X1848675Y1030002D01*
X1847009Y1031668D01*
Y1033335D01*
X1848675Y1030002D02*
X1852007D01*
X1837102Y885007D02*
Y875010D01*
X1842100D01*
X1843766Y876676D01*
Y883341D01*
X1842100Y885007D01*
X1837102D01*
X1847099D02*
X1853763D01*
Y883341D01*
X1847099Y876676D01*
Y875010D01*
X1519669Y594998D02*
Y585002D01*
X1524668D01*
X1526334Y586668D01*
Y593332D01*
X1524668Y594998D01*
X1519669D01*
X1536331D02*
X1532998Y593332D01*
X1529666Y590000D01*
Y586668D01*
X1531332Y585002D01*
X1534664D01*
X1536331Y586668D01*
Y588334D01*
X1534664Y590000D01*
X1529666D01*
X1837008Y735015D02*
Y725018D01*
X1842006D01*
X1843672Y726684D01*
Y733349D01*
X1842006Y735015D01*
X1837008D01*
X1853669D02*
X1847005D01*
Y730016D01*
X1850337Y731683D01*
X1852003D01*
X1853669Y730016D01*
Y726684D01*
X1852003Y725018D01*
X1848671D01*
X1847005Y726684D01*
X1520669Y467998D02*
Y458002D01*
X1525668D01*
X1527334Y459668D01*
Y466332D01*
X1525668Y467998D01*
X1520669D01*
X1535665Y458002D02*
Y467998D01*
X1530666Y463000D01*
X1537331D01*
X1837044Y585163D02*
Y575166D01*
X1842042D01*
X1843708Y576832D01*
Y583497D01*
X1842042Y585163D01*
X1837044D01*
X1847041Y583497D02*
X1848707Y585163D01*
X1852039D01*
X1853705Y583497D01*
Y581830D01*
X1852039Y580164D01*
X1850373D01*
X1852039D01*
X1853705Y578498D01*
Y576832D01*
X1852039Y575166D01*
X1848707D01*
X1847041Y576832D01*
X1837008Y435049D02*
Y425052D01*
X1842006D01*
X1843672Y426718D01*
Y433383D01*
X1842006Y435049D01*
X1837008D01*
X1853669Y425052D02*
X1847005D01*
X1853669Y431716D01*
Y433383D01*
X1852003Y435049D01*
X1848671D01*
X1847005Y433383D01*
X1837144Y285219D02*
Y275222D01*
X1842142D01*
X1843808Y276888D01*
Y283553D01*
X1842142Y285219D01*
X1837144D01*
X1847141Y275222D02*
X1850473D01*
X1848807D01*
Y285219D01*
X1847141Y283553D01*
X1117152Y253695D02*
X1115486Y255361D01*
X1112154D01*
X1110488Y253695D01*
Y247030D01*
X1112154Y245364D01*
X1115486D01*
X1117152Y247030D01*
X1127149Y245364D02*
X1120485D01*
X1127149Y252029D01*
Y253695D01*
X1125483Y255361D01*
X1122151D01*
X1120485Y253695D01*
X1130482D02*
X1132148Y255361D01*
X1135480D01*
X1137146Y253695D01*
Y252029D01*
X1135480Y250362D01*
X1133814D01*
X1135480D01*
X1137146Y248696D01*
Y247030D01*
X1135480Y245364D01*
X1132148D01*
X1130482Y247030D01*
X862336Y151332D02*
X860669Y152998D01*
X857337D01*
X855671Y151332D01*
Y144668D01*
X857337Y143002D01*
X860669D01*
X862336Y144668D01*
X872332Y143002D02*
X865668D01*
X872332Y149666D01*
Y151332D01*
X870666Y152998D01*
X867334D01*
X865668Y151332D01*
X882329Y143002D02*
X875665D01*
X882329Y149666D01*
Y151332D01*
X880663Y152998D01*
X877331D01*
X875665Y151332D01*
X1020002Y155332D02*
X1018335Y156998D01*
X1015003D01*
X1013337Y155332D01*
Y148668D01*
X1015003Y147002D01*
X1018335D01*
X1020002Y148668D01*
X1029998Y147002D02*
X1023334D01*
X1029998Y153666D01*
Y155332D01*
X1028332Y156998D01*
X1025000D01*
X1023334Y155332D01*
X1033331Y147002D02*
X1036663D01*
X1034997D01*
Y156998D01*
X1033331Y155332D01*
X908335Y1036332D02*
X906669Y1037998D01*
X903337D01*
X901671Y1036332D01*
Y1029668D01*
X903337Y1028002D01*
X906669D01*
X908335Y1029668D01*
X918332Y1028002D02*
X911668D01*
X918332Y1034666D01*
Y1036332D01*
X916666Y1037998D01*
X913334D01*
X911668Y1036332D01*
X921665D02*
X923331Y1037998D01*
X926663D01*
X928329Y1036332D01*
Y1029668D01*
X926663Y1028002D01*
X923331D01*
X921665Y1029668D01*
Y1036332D01*
X1736169Y792332D02*
X1734502Y793998D01*
X1731170D01*
X1729504Y792332D01*
Y785668D01*
X1731170Y784002D01*
X1734502D01*
X1736169Y785668D01*
X1739501Y784002D02*
X1742833D01*
X1741167D01*
Y793998D01*
X1739501Y792332D01*
X1747832D02*
X1749498Y793998D01*
X1752830D01*
X1754496Y792332D01*
Y790666D01*
X1752830Y789000D01*
X1751164D01*
X1752830D01*
X1754496Y787334D01*
Y785668D01*
X1752830Y784002D01*
X1749498D01*
X1747832Y785668D01*
X1735168Y755332D02*
X1733502Y756998D01*
X1730170D01*
X1728504Y755332D01*
Y748668D01*
X1730170Y747002D01*
X1733502D01*
X1735168Y748668D01*
X1738501Y747002D02*
X1741833D01*
X1740167D01*
Y756998D01*
X1738501Y755332D01*
X1753496Y747002D02*
X1746832D01*
X1753496Y753666D01*
Y755332D01*
X1751830Y756998D01*
X1748498D01*
X1746832Y755332D01*
X1678835Y608332D02*
X1677169Y609998D01*
X1673836D01*
X1672170Y608332D01*
Y601668D01*
X1673836Y600002D01*
X1677169D01*
X1678835Y601668D01*
X1682167Y600002D02*
X1685499D01*
X1683833D01*
Y609998D01*
X1682167Y608332D01*
X1690498Y600002D02*
X1693830D01*
X1692164D01*
Y609998D01*
X1690498Y608332D01*
X1634668Y808169D02*
X1633002Y806503D01*
Y803170D01*
X1634668Y801504D01*
X1641332D01*
X1642998Y803170D01*
Y806503D01*
X1641332Y808169D01*
X1642998Y811501D02*
Y814833D01*
Y813167D01*
X1633002D01*
X1634668Y811501D01*
Y819831D02*
X1633002Y821498D01*
Y824830D01*
X1634668Y826496D01*
X1641332D01*
X1642998Y824830D01*
Y821498D01*
X1641332Y819831D01*
X1634668D01*
X1709334Y608332D02*
X1707668Y609998D01*
X1704335D01*
X1702669Y608332D01*
Y601668D01*
X1704335Y600002D01*
X1707668D01*
X1709334Y601668D01*
X1712666D02*
X1714332Y600002D01*
X1717664D01*
X1719331Y601668D01*
Y608332D01*
X1717664Y609998D01*
X1714332D01*
X1712666Y608332D01*
Y606666D01*
X1714332Y605000D01*
X1719331D01*
X1589668Y811334D02*
X1588002Y809668D01*
Y806336D01*
X1589668Y804669D01*
X1596332D01*
X1597998Y806336D01*
Y809668D01*
X1596332Y811334D01*
X1589668Y814666D02*
X1588002Y816332D01*
Y819665D01*
X1589668Y821331D01*
X1591334D01*
X1593000Y819665D01*
X1594666Y821331D01*
X1596332D01*
X1597998Y819665D01*
Y816332D01*
X1596332Y814666D01*
X1594666D01*
X1593000Y816332D01*
X1591334Y814666D01*
X1589668D01*
X1593000Y816332D02*
Y819665D01*
X1530834Y700832D02*
X1529168Y702498D01*
X1525836D01*
X1524169Y700832D01*
Y694168D01*
X1525836Y692502D01*
X1529168D01*
X1530834Y694168D01*
X1534166Y702498D02*
X1540831D01*
Y700832D01*
X1534166Y694168D01*
Y692502D01*
X1768334Y603332D02*
X1766668Y604998D01*
X1763336D01*
X1761669Y603332D01*
Y596668D01*
X1763336Y595002D01*
X1766668D01*
X1768334Y596668D01*
X1778331Y604998D02*
X1774998Y603332D01*
X1771666Y600000D01*
Y596668D01*
X1773332Y595002D01*
X1776664D01*
X1778331Y596668D01*
Y598334D01*
X1776664Y600000D01*
X1771666D01*
X1736334Y661332D02*
X1734668Y662998D01*
X1731335D01*
X1729669Y661332D01*
Y654668D01*
X1731335Y653002D01*
X1734668D01*
X1736334Y654668D01*
X1746331Y662998D02*
X1739666D01*
Y658000D01*
X1742998Y659666D01*
X1744664D01*
X1746331Y658000D01*
Y654668D01*
X1744664Y653002D01*
X1741332D01*
X1739666Y654668D01*
X1762334Y730332D02*
X1760668Y731998D01*
X1757336D01*
X1755669Y730332D01*
Y723668D01*
X1757336Y722002D01*
X1760668D01*
X1762334Y723668D01*
X1770665Y722002D02*
Y731998D01*
X1765666Y727000D01*
X1772331D01*
X1762334Y701332D02*
X1760668Y702998D01*
X1757336D01*
X1755669Y701332D01*
Y694668D01*
X1757336Y693002D01*
X1760668D01*
X1762334Y694668D01*
X1765666Y701332D02*
X1767332Y702998D01*
X1770665D01*
X1772331Y701332D01*
Y699666D01*
X1770665Y698000D01*
X1768998D01*
X1770665D01*
X1772331Y696334D01*
Y694668D01*
X1770665Y693002D01*
X1767332D01*
X1765666Y694668D01*
X1768334Y565332D02*
X1766668Y566998D01*
X1763336D01*
X1761669Y565332D01*
Y558668D01*
X1763336Y557002D01*
X1766668D01*
X1768334Y558668D01*
X1778331Y557002D02*
X1771666D01*
X1778331Y563666D01*
Y565332D01*
X1776664Y566998D01*
X1773332D01*
X1771666Y565332D01*
X1772000Y488332D02*
X1770334Y489998D01*
X1767002D01*
X1765336Y488332D01*
Y481668D01*
X1767002Y480002D01*
X1770334D01*
X1772000Y481668D01*
X1775332Y480002D02*
X1778665D01*
X1776998D01*
Y489998D01*
X1775332Y488332D01*
X1645836Y604998D02*
Y595002D01*
X1650834D01*
X1652500Y596668D01*
Y598334D01*
X1650834Y600000D01*
X1645836D01*
X1650834D01*
X1652500Y601666D01*
Y603332D01*
X1650834Y604998D01*
X1645836D01*
X1655832Y595002D02*
X1659164D01*
X1657498D01*
Y604998D01*
X1655832Y603332D01*
D11*
X1396152Y469351D02*
G03*
X1383452Y469351I-6350J0D01*
G01*
X1277500Y516951D02*
G03*
X1282500Y511951I5000J0D01*
G01*
Y532451D02*
G03*
X1277500Y527451I0J-5000D01*
G01*
X1297750Y511951D02*
G03*
X1302750Y516951I0J5000D01*
G01*
Y527451D02*
G03*
X1297750Y532451I-5000J0D01*
G01*
X1280000Y704451D02*
G03*
X1285000Y699451I5000J0D01*
G01*
Y719951D02*
G03*
X1280000Y714951I0J-5000D01*
G01*
X1300250Y699451D02*
G03*
X1305250Y704451I0J5000D01*
G01*
Y714951D02*
G03*
X1300250Y719951I-5000J0D01*
G01*
X1398652Y656851D02*
G03*
X1385952Y656851I-6350J0D01*
G01*
X1648440Y810750D02*
Y817750D01*
X1657440Y810750D02*
Y817750D01*
X1573440Y810750D02*
Y817750D01*
X1582440Y810750D02*
Y817750D01*
X1735500Y884420D02*
Y891420D01*
X1744500Y884420D02*
Y891420D01*
X1713390Y884420D02*
Y891420D01*
X1722390Y884420D02*
Y891420D01*
X1691280Y884420D02*
Y891420D01*
X1700280Y884420D02*
Y891420D01*
X1669170Y884420D02*
Y891420D01*
X1678170Y884420D02*
Y891420D01*
X1647060Y884420D02*
Y891420D01*
X1656060Y884420D02*
Y891420D01*
X1624950Y884420D02*
Y891420D01*
X1633950Y884420D02*
Y891420D01*
X1602840Y884420D02*
Y891420D01*
X1611840Y884420D02*
Y891420D01*
X1580730Y884420D02*
Y891420D01*
X1589730Y884420D02*
Y891420D01*
X1558620Y884420D02*
Y891420D01*
X1567620Y884420D02*
Y891420D01*
X1536510Y884420D02*
Y891420D01*
X1545510Y884420D02*
Y891420D01*
X1514400Y884420D02*
Y891420D01*
X1523400Y884420D02*
Y891420D01*
X1492290Y884420D02*
Y891420D01*
X1501290Y884420D02*
Y891420D01*
X688500Y334500D02*
Y894250D01*
X574250D02*
X636953D01*
X574250Y334500D02*
Y894250D01*
Y334500D02*
X688500D01*
X636953Y894250D02*
X688500D01*
X1354884Y469351D02*
Y575351D01*
X1424615D01*
Y469351D02*
Y575351D01*
X1354884Y469351D02*
X1383452D01*
X1396152D02*
X1424615D01*
X1277500Y516951D02*
Y527451D01*
X1302750Y516951D02*
Y527451D01*
X1282500Y532451D02*
X1297750D01*
X1282500Y511951D02*
X1297750D01*
X1303750Y589000D02*
Y596000D01*
X1312750Y589000D02*
Y596000D01*
X1199250Y508500D02*
X1211000D01*
X1199250Y535500D02*
X1211000D01*
X1199250Y527250D02*
Y535500D01*
Y508500D02*
Y516750D01*
X1283000Y589000D02*
Y596000D01*
X1274000Y589000D02*
Y596000D01*
X1505250Y482201D02*
Y489201D01*
X1496250Y482201D02*
Y489201D01*
X1476000Y482201D02*
Y489201D01*
X1467000Y482201D02*
Y489201D01*
X1283000Y482201D02*
Y489201D01*
X1274000Y482201D02*
Y489201D01*
X1312750Y482201D02*
Y489201D01*
X1303750Y482201D02*
Y489201D01*
X1515875Y482250D02*
Y503000D01*
X1538875D01*
Y482250D02*
Y503000D01*
X1535250Y539800D02*
X1536250D01*
X1518500D02*
X1519750D01*
X1518500Y569800D02*
X1519750D01*
X1535250D02*
X1536250D01*
X1518500Y539800D02*
Y569800D01*
X1536250Y539800D02*
Y569800D01*
X1534500Y669701D02*
Y676701D01*
X1525500Y669701D02*
Y676701D01*
X1737500Y479500D02*
X1744500D01*
X1737500Y488500D02*
X1744500D01*
X1757500Y518050D02*
Y529800D01*
X1730500Y518050D02*
Y529800D01*
Y518050D02*
X1738750D01*
X1749250D02*
X1757500D01*
X1738800Y557500D02*
X1745800D01*
X1738800Y566500D02*
X1745800D01*
X1507750Y669701D02*
Y676701D01*
X1498750Y669701D02*
Y676701D01*
X1478500Y669701D02*
Y676701D01*
X1469500Y669701D02*
Y676701D01*
X1280000Y704451D02*
Y714951D01*
X1305250Y704451D02*
Y714951D01*
X1285000Y719951D02*
X1300250D01*
X1285000Y699451D02*
X1300250D01*
X1201750Y696000D02*
X1213500D01*
X1201750Y723000D02*
X1213500D01*
X1201750Y714750D02*
Y723000D01*
Y696000D02*
Y704250D01*
X1315250Y669701D02*
Y676701D01*
X1306250Y669701D02*
Y676701D01*
X1285500Y669701D02*
Y676701D01*
X1276500Y669701D02*
Y676701D01*
X1306250Y776500D02*
Y783500D01*
X1315250Y776500D02*
Y783500D01*
X1357384Y656851D02*
Y762851D01*
X1427115D01*
Y656851D02*
Y762851D01*
X1357384Y656851D02*
X1385952D01*
X1398652D02*
X1427115D01*
X1285500Y776500D02*
Y783500D01*
X1276500Y776500D02*
Y783500D01*
X1888700Y292500D02*
X1895700D01*
X1888700Y283500D02*
X1895700D01*
X1888700Y442500D02*
X1895700D01*
X1888700Y433500D02*
X1895700D01*
X1888700Y592500D02*
X1895700D01*
X1888700Y583500D02*
X1895700D01*
X1888700Y742500D02*
X1895700D01*
X1888700Y733500D02*
X1895700D01*
X1888700Y1042500D02*
X1895700D01*
X1888700Y1033500D02*
X1895700D01*
X1888700Y892500D02*
X1895700D01*
X1888700Y883500D02*
X1895700D01*
X1888700Y946500D02*
X1895700D01*
X1888700Y937500D02*
X1895700D01*
X1888700Y796500D02*
X1895700D01*
X1888700Y787500D02*
X1895700D01*
X1888700Y646500D02*
X1895700D01*
X1888700Y637500D02*
X1895700D01*
X1888700Y496500D02*
X1895700D01*
X1888700Y487500D02*
X1895700D01*
X1888700Y346500D02*
X1895700D01*
X1888700Y337500D02*
X1895700D01*
X1888700Y196500D02*
X1895700D01*
X1888700Y187500D02*
X1895700D01*
X1709730Y786500D02*
X1716730D01*
X1709730Y777500D02*
X1716730D01*
X1709730Y766070D02*
X1716730D01*
X1709730Y757070D02*
X1716730D01*
X1709730Y654500D02*
X1716730D01*
X1709730Y663500D02*
X1716730D01*
X1739000Y604500D02*
X1746000D01*
X1739000Y595500D02*
X1746000D01*
X1717500Y622500D02*
Y629500D01*
X1708500Y622500D02*
Y629500D01*
X1688940Y622610D02*
Y629610D01*
X1679940Y622610D02*
Y629610D01*
X1748210Y693230D02*
Y700230D01*
X1739210Y693230D02*
Y700230D01*
X1728230Y683930D02*
Y733930D01*
X1698230Y683930D02*
Y733930D01*
X1573940Y765400D02*
X1656940D01*
X1573940Y682400D02*
X1656940D01*
X1573940D02*
Y765400D01*
X1656940Y682400D02*
Y765400D01*
X1646315Y608610D02*
Y616860D01*
X1584815Y608610D02*
X1646315D01*
X1584815D02*
Y616610D01*
X1585065Y635360D02*
Y643610D01*
X1646065D01*
Y635360D02*
Y643610D01*
X1548500Y622610D02*
Y629610D01*
X1539500Y622610D02*
Y629610D01*
X1551500Y561300D02*
Y586700D01*
X1678500D01*
X1551500Y561300D02*
X1678500D01*
Y586700D01*
X1589730Y922520D02*
Y929520D01*
X1580730Y922520D02*
Y929520D01*
X1633950Y922520D02*
Y929520D01*
X1624950Y922520D02*
Y929520D01*
X1545510Y922520D02*
Y929520D01*
X1536510Y922520D02*
Y929520D01*
X1678170Y922520D02*
Y929520D01*
X1669170Y922520D02*
Y929520D01*
X1713390Y922520D02*
Y929520D01*
X1722390Y922520D02*
Y929520D01*
X1501290Y922520D02*
Y929520D01*
X1492290Y922520D02*
Y929520D01*
X1037300Y996250D02*
X1044300D01*
X1004300D02*
X1011300D01*
X1004300Y947750D02*
X1011300D01*
X1037300D02*
X1044300D01*
X1004300D02*
Y996250D01*
X1044300Y947750D02*
Y996250D01*
X1748210Y717630D02*
Y724630D01*
X1739210Y717630D02*
Y724630D01*
X1108500Y222965D02*
Y229965D01*
X1117500Y222965D02*
Y229965D01*
D12*
X1667440Y673400D02*
G03*
X1667440Y673400I-2000J0D01*
G01*
D13*
X1437650Y469500D02*
D03*
X1440150Y657000D02*
D03*
D14*
X1520500Y530800D02*
X1534500D01*
X1012300Y935500D02*
X1036550D01*
X1514668Y853335D02*
X1513002Y851669D01*
Y848337D01*
X1514668Y846671D01*
X1521332D01*
X1522998Y848337D01*
Y851669D01*
X1521332Y853335D01*
X1522998Y863332D02*
Y856668D01*
X1516334Y863332D01*
X1514668D01*
X1513002Y861666D01*
Y858334D01*
X1514668Y856668D01*
Y866665D02*
X1513002Y868331D01*
Y871663D01*
X1514668Y873329D01*
X1516334D01*
X1518000Y871663D01*
X1519666Y873329D01*
X1521332D01*
X1522998Y871663D01*
Y868331D01*
X1521332Y866665D01*
X1519666D01*
X1518000Y868331D01*
X1516334Y866665D01*
X1514668D01*
X1518000Y868331D02*
Y871663D01*
X1560668Y853335D02*
X1559002Y851669D01*
Y848337D01*
X1560668Y846671D01*
X1567332D01*
X1568998Y848337D01*
Y851669D01*
X1567332Y853335D01*
X1568998Y863332D02*
Y856668D01*
X1562334Y863332D01*
X1560668D01*
X1559002Y861666D01*
Y858334D01*
X1560668Y856668D01*
X1559002Y866665D02*
Y873329D01*
X1560668D01*
X1567332Y866665D01*
X1568998D01*
X1603668Y851336D02*
X1602002Y849669D01*
Y846337D01*
X1603668Y844671D01*
X1610332D01*
X1611998Y846337D01*
Y849669D01*
X1610332Y851336D01*
X1611998Y861332D02*
Y854668D01*
X1605334Y861332D01*
X1603668D01*
X1602002Y859666D01*
Y856334D01*
X1603668Y854668D01*
X1602002Y871329D02*
X1603668Y867997D01*
X1607000Y864665D01*
X1610332D01*
X1611998Y866331D01*
Y869663D01*
X1610332Y871329D01*
X1608666D01*
X1607000Y869663D01*
Y864665D01*
X1648668Y853335D02*
X1647002Y851669D01*
Y848337D01*
X1648668Y846671D01*
X1655332D01*
X1656998Y848337D01*
Y851669D01*
X1655332Y853335D01*
X1656998Y863332D02*
Y856668D01*
X1650334Y863332D01*
X1648668D01*
X1647002Y861666D01*
Y858334D01*
X1648668Y856668D01*
X1647002Y873329D02*
Y866665D01*
X1652000D01*
X1650334Y869997D01*
Y871663D01*
X1652000Y873329D01*
X1655332D01*
X1656998Y871663D01*
Y868331D01*
X1655332Y866665D01*
X1692668Y853335D02*
X1691002Y851669D01*
Y848337D01*
X1692668Y846671D01*
X1699332D01*
X1700998Y848337D01*
Y851669D01*
X1699332Y853335D01*
X1700998Y863332D02*
Y856668D01*
X1694334Y863332D01*
X1692668D01*
X1691002Y861666D01*
Y858334D01*
X1692668Y856668D01*
X1700998Y871663D02*
X1691002D01*
X1696000Y866665D01*
Y873329D01*
X1736668Y857169D02*
X1735002Y855502D01*
Y852170D01*
X1736668Y850504D01*
X1743332D01*
X1744998Y852170D01*
Y855502D01*
X1743332Y857169D01*
X1744998Y860501D02*
Y863833D01*
Y862167D01*
X1735002D01*
X1736668Y860501D01*
X1744998Y873830D02*
X1735002D01*
X1740000Y868831D01*
Y875496D01*
X1393339Y590831D02*
Y582501D01*
X1395005Y580835D01*
X1398337D01*
X1400003Y582501D01*
Y590831D01*
X1403336Y589165D02*
X1405002Y590831D01*
X1408334D01*
X1410000Y589165D01*
Y587499D01*
X1408334Y585833D01*
X1406668D01*
X1408334D01*
X1410000Y584167D01*
Y582501D01*
X1408334Y580835D01*
X1405002D01*
X1403336Y582501D01*
X1413332Y579169D02*
X1419997D01*
X1429993Y580835D02*
X1423329D01*
X1429993Y587499D01*
Y589165D01*
X1428327Y590831D01*
X1424995D01*
X1423329Y589165D01*
X1395839Y778332D02*
Y770001D01*
X1397505Y768335D01*
X1400837D01*
X1402503Y770001D01*
Y778332D01*
X1405836Y776665D02*
X1407502Y778332D01*
X1410834D01*
X1412500Y776665D01*
Y774999D01*
X1410834Y773333D01*
X1409168D01*
X1410834D01*
X1412500Y771667D01*
Y770001D01*
X1410834Y768335D01*
X1407502D01*
X1405836Y770001D01*
X1415832Y766668D02*
X1422497D01*
X1425829Y768335D02*
X1429161D01*
X1427495D01*
Y778332D01*
X1425829Y776665D01*
X1271506Y549832D02*
X1278170D01*
X1274838D01*
Y539835D01*
X1281502D02*
X1284835D01*
X1283169D01*
Y549832D01*
X1281502Y548165D01*
X1289833Y538168D02*
X1296498D01*
X1306494Y539835D02*
X1299830D01*
X1306494Y546499D01*
Y548165D01*
X1304828Y549832D01*
X1301496D01*
X1299830Y548165D01*
X1276672Y733332D02*
X1283336D01*
X1280004D01*
Y723335D01*
X1286669D02*
X1290001D01*
X1288335D01*
Y733332D01*
X1286669Y731665D01*
X1294999Y721668D02*
X1301664D01*
X1304996Y723335D02*
X1308328D01*
X1306662D01*
Y733332D01*
X1304996Y731665D01*
X1299165Y580674D02*
X1289169D01*
Y585673D01*
X1290835Y587339D01*
X1294167D01*
X1295833Y585673D01*
Y580674D01*
Y584007D02*
X1299165Y587339D01*
Y597336D02*
Y590671D01*
X1292501Y597336D01*
X1290835D01*
X1289169Y595669D01*
Y592337D01*
X1290835Y590671D01*
Y600668D02*
X1289169Y602334D01*
Y605666D01*
X1290835Y607332D01*
X1292501D01*
X1294167Y605666D01*
X1295833Y607332D01*
X1297499D01*
X1299165Y605666D01*
Y602334D01*
X1297499Y600668D01*
X1295833D01*
X1294167Y602334D01*
X1292501Y600668D01*
X1290835D01*
X1294167Y602334D02*
Y605666D01*
X1300831Y610664D02*
Y617329D01*
X1299165Y627326D02*
Y620661D01*
X1292501Y627326D01*
X1290835D01*
X1289169Y625660D01*
Y622327D01*
X1290835Y620661D01*
X1303165Y768340D02*
X1293168D01*
Y773339D01*
X1294835Y775005D01*
X1298167D01*
X1299833Y773339D01*
Y768340D01*
Y771673D02*
X1303165Y775005D01*
Y785002D02*
Y778337D01*
X1296501Y785002D01*
X1294835D01*
X1293168Y783335D01*
Y780003D01*
X1294835Y778337D01*
Y788334D02*
X1293168Y790000D01*
Y793332D01*
X1294835Y794998D01*
X1296501D01*
X1298167Y793332D01*
X1299833Y794998D01*
X1301499D01*
X1303165Y793332D01*
Y790000D01*
X1301499Y788334D01*
X1299833D01*
X1298167Y790000D01*
X1296501Y788334D01*
X1294835D01*
X1298167Y790000D02*
Y793332D01*
X1304831Y798331D02*
Y804995D01*
X1303165Y808327D02*
Y811660D01*
Y809994D01*
X1293168D01*
X1294835Y808327D01*
X1195673Y503831D02*
Y493835D01*
X1200671D01*
X1202337Y495501D01*
Y502165D01*
X1200671Y503831D01*
X1195673D01*
X1205669Y495501D02*
X1207336Y493835D01*
X1210668D01*
X1212334Y495501D01*
Y502165D01*
X1210668Y503831D01*
X1207336D01*
X1205669Y502165D01*
Y500499D01*
X1207336Y498833D01*
X1212334D01*
X1215666Y492169D02*
X1222331D01*
X1232327Y493835D02*
X1225663D01*
X1232327Y500499D01*
Y502165D01*
X1230661Y503831D01*
X1227329D01*
X1225663Y502165D01*
X1200339Y691832D02*
Y681835D01*
X1205337D01*
X1207003Y683501D01*
Y690165D01*
X1205337Y691832D01*
X1200339D01*
X1210335Y683501D02*
X1212002Y681835D01*
X1215334D01*
X1217000Y683501D01*
Y690165D01*
X1215334Y691832D01*
X1212002D01*
X1210335Y690165D01*
Y688499D01*
X1212002Y686833D01*
X1217000D01*
X1220332Y680169D02*
X1226997D01*
X1230329Y681835D02*
X1233661D01*
X1231995D01*
Y691832D01*
X1230329Y690165D01*
X1258835Y588172D02*
X1257169Y586506D01*
Y583173D01*
X1258835Y581507D01*
X1265499D01*
X1267165Y583173D01*
Y586506D01*
X1265499Y588172D01*
X1267165Y591504D02*
Y594836D01*
Y593170D01*
X1257169D01*
X1258835Y591504D01*
X1265499Y599835D02*
X1267165Y601501D01*
Y604833D01*
X1265499Y606499D01*
X1258835D01*
X1257169Y604833D01*
Y601501D01*
X1258835Y599835D01*
X1260501D01*
X1262167Y601501D01*
Y606499D01*
X1268831Y609832D02*
Y616496D01*
X1267165Y626493D02*
Y619828D01*
X1260501Y626493D01*
X1258835D01*
X1257169Y624827D01*
Y621494D01*
X1258835Y619828D01*
X1264835Y775838D02*
X1263168Y774172D01*
Y770839D01*
X1264835Y769173D01*
X1271499D01*
X1273165Y770839D01*
Y774172D01*
X1271499Y775838D01*
X1273165Y779170D02*
Y782502D01*
Y780836D01*
X1263168D01*
X1264835Y779170D01*
X1271499Y787501D02*
X1273165Y789167D01*
Y792499D01*
X1271499Y794165D01*
X1264835D01*
X1263168Y792499D01*
Y789167D01*
X1264835Y787501D01*
X1266501D01*
X1268167Y789167D01*
Y794165D01*
X1274831Y797498D02*
Y804162D01*
X1273165Y807494D02*
Y810827D01*
Y809161D01*
X1263168D01*
X1264835Y807494D01*
X1483835Y481172D02*
X1482168Y479506D01*
Y476173D01*
X1483835Y474507D01*
X1490499D01*
X1492165Y476173D01*
Y479506D01*
X1490499Y481172D01*
X1492165Y484504D02*
Y487836D01*
Y486170D01*
X1482168D01*
X1483835Y484504D01*
Y492835D02*
X1482168Y494501D01*
Y497833D01*
X1483835Y499499D01*
X1485501D01*
X1487167Y497833D01*
X1488833Y499499D01*
X1490499D01*
X1492165Y497833D01*
Y494501D01*
X1490499Y492835D01*
X1488833D01*
X1487167Y494501D01*
X1485501Y492835D01*
X1483835D01*
X1487167Y494501D02*
Y497833D01*
X1493831Y502831D02*
Y509496D01*
X1492165Y519493D02*
Y512828D01*
X1485501Y519493D01*
X1483835D01*
X1482168Y517827D01*
Y514494D01*
X1483835Y512828D01*
X1484835Y667838D02*
X1483168Y666172D01*
Y662840D01*
X1484835Y661173D01*
X1491499D01*
X1493165Y662840D01*
Y666172D01*
X1491499Y667838D01*
X1493165Y671170D02*
Y674502D01*
Y672836D01*
X1483168D01*
X1484835Y671170D01*
Y679501D02*
X1483168Y681167D01*
Y684499D01*
X1484835Y686165D01*
X1486501D01*
X1488167Y684499D01*
X1489833Y686165D01*
X1491499D01*
X1493165Y684499D01*
Y681167D01*
X1491499Y679501D01*
X1489833D01*
X1488167Y681167D01*
X1486501Y679501D01*
X1484835D01*
X1488167Y681167D02*
Y684499D01*
X1494831Y689498D02*
Y696162D01*
X1493165Y699494D02*
Y702827D01*
Y701161D01*
X1483168D01*
X1484835Y699494D01*
X1452835Y481172D02*
X1451169Y479506D01*
Y476173D01*
X1452835Y474507D01*
X1459499D01*
X1461165Y476173D01*
Y479506D01*
X1459499Y481172D01*
X1461165Y484504D02*
Y487836D01*
Y486170D01*
X1451169D01*
X1452835Y484504D01*
X1451169Y492835D02*
Y499499D01*
X1452835D01*
X1459499Y492835D01*
X1461165D01*
X1462832Y502831D02*
Y509496D01*
X1461165Y519493D02*
Y512828D01*
X1454501Y519493D01*
X1452835D01*
X1451169Y517827D01*
Y514494D01*
X1452835Y512828D01*
X1456835Y667838D02*
X1455168Y666172D01*
Y662840D01*
X1456835Y661173D01*
X1463499D01*
X1465165Y662840D01*
Y666172D01*
X1463499Y667838D01*
X1465165Y671170D02*
Y674502D01*
Y672836D01*
X1455168D01*
X1456835Y671170D01*
X1455168Y679501D02*
Y686165D01*
X1456835D01*
X1463499Y679501D01*
X1465165D01*
X1466832Y689498D02*
Y696162D01*
X1465165Y699494D02*
Y702827D01*
Y701161D01*
X1455168D01*
X1456835Y699494D01*
X1259835Y458172D02*
X1258168Y456506D01*
Y453173D01*
X1259835Y451507D01*
X1266499D01*
X1268165Y453173D01*
Y456506D01*
X1266499Y458172D01*
X1268165Y461504D02*
Y464836D01*
Y463170D01*
X1258168D01*
X1259835Y461504D01*
X1258168Y476499D02*
X1259835Y473167D01*
X1263167Y469835D01*
X1266499D01*
X1268165Y471501D01*
Y474833D01*
X1266499Y476499D01*
X1264833D01*
X1263167Y474833D01*
Y469835D01*
X1269831Y479831D02*
Y486496D01*
X1268165Y496493D02*
Y489828D01*
X1261501Y496493D01*
X1259835D01*
X1258168Y494827D01*
Y491494D01*
X1259835Y489828D01*
X1261835Y650838D02*
X1260169Y649172D01*
Y645839D01*
X1261835Y644173D01*
X1268499D01*
X1270165Y645839D01*
Y649172D01*
X1268499Y650838D01*
X1270165Y654170D02*
Y657502D01*
Y655836D01*
X1260169D01*
X1261835Y654170D01*
X1260169Y669165D02*
X1261835Y665833D01*
X1265167Y662501D01*
X1268499D01*
X1270165Y664167D01*
Y667499D01*
X1268499Y669165D01*
X1266833D01*
X1265167Y667499D01*
Y662501D01*
X1271831Y672498D02*
Y679162D01*
X1270165Y682494D02*
Y685827D01*
Y684161D01*
X1260169D01*
X1261835Y682494D01*
X1289835Y458172D02*
X1288168Y456506D01*
Y453173D01*
X1289835Y451507D01*
X1296499D01*
X1298165Y453173D01*
Y456506D01*
X1296499Y458172D01*
X1298165Y461504D02*
Y464836D01*
Y463170D01*
X1288168D01*
X1289835Y461504D01*
X1288168Y476499D02*
Y469835D01*
X1293167D01*
X1291501Y473167D01*
Y474833D01*
X1293167Y476499D01*
X1296499D01*
X1298165Y474833D01*
Y471501D01*
X1296499Y469835D01*
X1299831Y479831D02*
Y486496D01*
X1298165Y496493D02*
Y489828D01*
X1291501Y496493D01*
X1289835D01*
X1288168Y494827D01*
Y491494D01*
X1289835Y489828D01*
X1292835Y650838D02*
X1291169Y649172D01*
Y645839D01*
X1292835Y644173D01*
X1299499D01*
X1301165Y645839D01*
Y649172D01*
X1299499Y650838D01*
X1301165Y654170D02*
Y657502D01*
Y655836D01*
X1291169D01*
X1292835Y654170D01*
X1291169Y669165D02*
Y662501D01*
X1296167D01*
X1294501Y665833D01*
Y667499D01*
X1296167Y669165D01*
X1299499D01*
X1301165Y667499D01*
Y664167D01*
X1299499Y662501D01*
X1302831Y672498D02*
Y679162D01*
X1301165Y682494D02*
Y685827D01*
Y684161D01*
X1291169D01*
X1292835Y682494D01*
D15*
X903100Y922000D02*
X923100D01*
X913100Y912500D02*
Y932500D01*
X938100Y951000D02*
X978100D01*
X939100Y986000D02*
X959100D01*
X1014300Y262765D02*
X1034300D01*
X1024300Y252265D02*
Y272265D01*
X959300Y233765D02*
X999300D01*
X978300Y198765D02*
X998300D01*
X861900Y262765D02*
X881900D01*
X871900Y252265D02*
Y272265D01*
X806900Y233765D02*
X846900D01*
X825900Y198765D02*
X845900D01*
X1845000Y372000D02*
X1886000D01*
X1836000Y390000D02*
X1886000D01*
X1853000Y408000D02*
X1886000D01*
X1845000Y972000D02*
X1886000D01*
X1836000Y990000D02*
X1886000D01*
X1853000Y1008000D02*
X1886000D01*
X1845000Y672000D02*
X1886000D01*
X1836000Y690000D02*
X1886000D01*
X1853000Y708000D02*
X1886000D01*
X1845000Y522000D02*
X1886000D01*
X1836000Y540000D02*
X1886000D01*
X1853000Y558000D02*
X1886000D01*
X1845000Y222000D02*
X1886000D01*
X1836000Y240000D02*
X1886000D01*
X1853000Y258000D02*
X1886000D01*
X1845000Y822000D02*
X1886000D01*
X1836000Y840000D02*
X1886000D01*
X1853000Y858000D02*
X1886000D01*
X1374755Y641496D02*
X1372256Y643995D01*
X1367257D01*
X1364758Y641496D01*
Y631499D01*
X1367257Y629000D01*
X1372256D01*
X1374755Y631499D01*
X1379753Y629000D02*
Y638997D01*
X1384751Y643995D01*
X1389750Y638997D01*
Y629000D01*
Y636498D01*
X1379753D01*
X1394748Y629000D02*
Y643995D01*
X1404745Y629000D01*
Y643995D01*
X1409743Y629000D02*
X1414742D01*
X1412242D01*
Y643995D01*
X1409743Y641496D01*
X1372256Y454496D02*
X1369756Y456995D01*
X1364758D01*
X1362259Y454496D01*
Y444499D01*
X1364758Y442000D01*
X1369756D01*
X1372256Y444499D01*
X1377254Y442000D02*
Y451997D01*
X1382252Y456995D01*
X1387251Y451997D01*
Y442000D01*
Y449498D01*
X1377254D01*
X1392249Y442000D02*
Y456995D01*
X1402246Y442000D01*
Y456995D01*
X1417241Y442000D02*
X1407244D01*
X1417241Y451997D01*
Y454496D01*
X1414742Y456995D01*
X1409743D01*
X1407244Y454496D01*
X1662004Y522997D02*
X1659505Y520498D01*
Y515499D01*
X1662004Y513000D01*
X1672001D01*
X1674500Y515499D01*
Y520498D01*
X1672001Y522997D01*
X1667002D01*
Y517998D01*
X1674500Y527995D02*
X1659505D01*
X1674500Y537992D01*
X1659505D01*
Y542990D02*
X1674500D01*
Y550488D01*
X1672001Y552987D01*
X1662004D01*
X1659505Y550488D01*
Y542990D01*
X1649500Y498000D02*
X1634505D01*
X1649500Y507997D01*
X1634505D01*
X1649500Y512995D02*
X1634505D01*
Y520493D01*
X1637004Y522992D01*
X1642002D01*
X1644502Y520493D01*
Y512995D01*
Y517994D02*
X1649500Y522992D01*
X1637004Y537987D02*
X1634505Y535488D01*
Y530490D01*
X1637004Y527990D01*
X1639503D01*
X1642002Y530490D01*
Y535488D01*
X1644502Y537987D01*
X1647001D01*
X1649500Y535488D01*
Y530490D01*
X1647001Y527990D01*
X1634505Y542985D02*
Y552982D01*
Y547984D01*
X1649500D01*
X1609504Y492997D02*
X1607005Y490498D01*
Y485499D01*
X1609504Y483000D01*
X1612003D01*
X1614502Y485499D01*
Y490498D01*
X1617002Y492997D01*
X1619501D01*
X1622000Y490498D01*
Y485499D01*
X1619501Y483000D01*
X1607005Y497995D02*
X1622000D01*
X1617002Y502994D01*
X1622000Y507992D01*
X1607005D01*
X1609504Y522987D02*
X1607005Y520488D01*
Y515490D01*
X1609504Y512990D01*
X1619501D01*
X1622000Y515490D01*
Y520488D01*
X1619501Y522987D01*
X1607005Y527985D02*
X1622000D01*
Y537982D01*
X1607005Y542981D02*
X1622000D01*
X1617002D01*
X1607005Y552977D01*
X1614502Y545480D01*
X1622000Y552977D01*
X1584504Y492997D02*
X1582005Y490498D01*
Y485499D01*
X1584504Y483000D01*
X1587003D01*
X1589502Y485499D01*
Y490498D01*
X1592002Y492997D01*
X1594501D01*
X1597000Y490498D01*
Y485499D01*
X1594501Y483000D01*
X1582005Y497995D02*
X1597000D01*
X1592002Y502994D01*
X1597000Y507992D01*
X1582005D01*
Y512990D02*
X1597000D01*
Y520488D01*
X1594501Y522987D01*
X1584504D01*
X1582005Y520488D01*
Y512990D01*
Y527985D02*
Y532984D01*
Y530485D01*
X1597000D01*
Y527985D01*
Y532984D01*
X1582005Y547979D02*
Y542981D01*
X1584504Y540481D01*
X1594501D01*
X1597000Y542981D01*
Y547979D01*
X1594501Y550478D01*
X1584504D01*
X1582005Y547979D01*
X1562004Y483000D02*
Y492997D01*
X1557006Y487998D02*
X1567002D01*
X1557006Y497995D02*
X1554507Y500494D01*
Y505493D01*
X1557006Y507992D01*
X1559505D01*
X1562004Y505493D01*
Y502994D01*
Y505493D01*
X1564503Y507992D01*
X1567002D01*
X1569502Y505493D01*
Y500494D01*
X1567002Y497995D01*
X1572001Y515490D02*
X1569502Y517989D01*
X1567002D01*
Y515490D01*
X1569502D01*
Y517989D01*
X1572001Y515490D01*
X1574500Y512990D01*
X1557006Y527985D02*
X1554507Y530485D01*
Y535483D01*
X1557006Y537982D01*
X1559505D01*
X1562004Y535483D01*
Y532984D01*
Y535483D01*
X1564503Y537982D01*
X1567002D01*
X1569502Y535483D01*
Y530485D01*
X1567002Y527985D01*
X1559505Y542981D02*
X1569502Y547979D01*
X1559505Y552977D01*
M02*
