G04*
G04 #@! TF.GenerationSoftware,Altium Limited,Altium Designer,22.2.1 (43)*
G04*
G04 Layer_Color=8421504*
%FSLAX44Y44*%
%MOMM*%
G71*
G04*
G04 #@! TF.SameCoordinates,7A9A4B32-F866-4FC0-92F5-D822EF52183D*
G04*
G04*
G04 #@! TF.FilePolarity,Positive*
G04*
G01*
G75*
%ADD16R,0.9000X0.6000*%
%ADD17O,2.0000X0.6000*%
%ADD18R,2.0000X0.6000*%
%ADD19R,0.8000X0.4000*%
%ADD20R,0.9000X0.7000*%
G04:AMPARAMS|DCode=21|XSize=1.5mm|YSize=0.8mm|CornerRadius=0.08mm|HoleSize=0mm|Usage=FLASHONLY|Rotation=90.000|XOffset=0mm|YOffset=0mm|HoleType=Round|Shape=RoundedRectangle|*
%AMROUNDEDRECTD21*
21,1,1.5000,0.6400,0,0,90.0*
21,1,1.3400,0.8000,0,0,90.0*
1,1,0.1600,0.3200,0.6700*
1,1,0.1600,0.3200,-0.6700*
1,1,0.1600,-0.3200,-0.6700*
1,1,0.1600,-0.3200,0.6700*
%
%ADD21ROUNDEDRECTD21*%
G04:AMPARAMS|DCode=22|XSize=2.2mm|YSize=2mm|CornerRadius=0.2mm|HoleSize=0mm|Usage=FLASHONLY|Rotation=90.000|XOffset=0mm|YOffset=0mm|HoleType=Round|Shape=RoundedRectangle|*
%AMROUNDEDRECTD22*
21,1,2.2000,1.6000,0,0,90.0*
21,1,1.8000,2.0000,0,0,90.0*
1,1,0.4000,0.8000,0.9000*
1,1,0.4000,0.8000,-0.9000*
1,1,0.4000,-0.8000,-0.9000*
1,1,0.4000,-0.8000,0.9000*
%
%ADD22ROUNDEDRECTD22*%
%ADD23R,1.2000X0.7000*%
%ADD24R,0.6000X0.9000*%
%ADD25R,0.7000X0.9000*%
G04:AMPARAMS|DCode=26|XSize=2mm|YSize=2.4mm|CornerRadius=0.5mm|HoleSize=0mm|Usage=FLASHONLY|Rotation=270.000|XOffset=0mm|YOffset=0mm|HoleType=Round|Shape=RoundedRectangle|*
%AMROUNDEDRECTD26*
21,1,2.0000,1.4000,0,0,270.0*
21,1,1.0000,2.4000,0,0,270.0*
1,1,1.0000,-0.7000,-0.5000*
1,1,1.0000,-0.7000,0.5000*
1,1,1.0000,0.7000,0.5000*
1,1,1.0000,0.7000,-0.5000*
%
%ADD26ROUNDEDRECTD26*%
%ADD27O,0.2540X1.5000*%
%ADD28O,1.5000X0.2540*%
G04:AMPARAMS|DCode=29|XSize=1.6mm|YSize=1.8mm|CornerRadius=0.16mm|HoleSize=0mm|Usage=FLASHONLY|Rotation=270.000|XOffset=0mm|YOffset=0mm|HoleType=Round|Shape=RoundedRectangle|*
%AMROUNDEDRECTD29*
21,1,1.6000,1.4800,0,0,270.0*
21,1,1.2800,1.8000,0,0,270.0*
1,1,0.3200,-0.7400,-0.6400*
1,1,0.3200,-0.7400,0.6400*
1,1,0.3200,0.7400,0.6400*
1,1,0.3200,0.7400,-0.6400*
%
%ADD29ROUNDEDRECTD29*%
G04:AMPARAMS|DCode=30|XSize=2.5mm|YSize=2.3mm|CornerRadius=0.23mm|HoleSize=0mm|Usage=FLASHONLY|Rotation=270.000|XOffset=0mm|YOffset=0mm|HoleType=Round|Shape=RoundedRectangle|*
%AMROUNDEDRECTD30*
21,1,2.5000,1.8400,0,0,270.0*
21,1,2.0400,2.3000,0,0,270.0*
1,1,0.4600,-0.9200,-1.0200*
1,1,0.4600,-0.9200,1.0200*
1,1,0.4600,0.9200,1.0200*
1,1,0.4600,0.9200,-1.0200*
%
%ADD30ROUNDEDRECTD30*%
D16*
X1652940Y822050D02*
D03*
Y806450D02*
D03*
X1577940Y822050D02*
D03*
Y806450D02*
D03*
X1740000Y895720D02*
D03*
Y880120D02*
D03*
X1717890Y895720D02*
D03*
Y880120D02*
D03*
X1695780Y895720D02*
D03*
Y880120D02*
D03*
X1673670Y895720D02*
D03*
Y880120D02*
D03*
X1651560Y895720D02*
D03*
Y880120D02*
D03*
X1629450Y895720D02*
D03*
Y880120D02*
D03*
X1607340Y895720D02*
D03*
Y880120D02*
D03*
X1585230Y895720D02*
D03*
Y880120D02*
D03*
X1563120Y895720D02*
D03*
Y880120D02*
D03*
X1541010Y895720D02*
D03*
Y880120D02*
D03*
X1518900Y895720D02*
D03*
Y880120D02*
D03*
X1496790Y895720D02*
D03*
Y880120D02*
D03*
X1308250Y600300D02*
D03*
Y584700D02*
D03*
X1278500D02*
D03*
Y600300D02*
D03*
X1500750Y477901D02*
D03*
Y493501D02*
D03*
X1471500Y477901D02*
D03*
Y493501D02*
D03*
X1278500Y477901D02*
D03*
Y493501D02*
D03*
X1308250Y477901D02*
D03*
Y493501D02*
D03*
X1530000Y665401D02*
D03*
Y681001D02*
D03*
X1503250Y665401D02*
D03*
Y681001D02*
D03*
X1474000Y665401D02*
D03*
Y681001D02*
D03*
X1310750Y665401D02*
D03*
Y681001D02*
D03*
X1281000Y665401D02*
D03*
Y681001D02*
D03*
X1310750Y787800D02*
D03*
Y772200D02*
D03*
X1281000D02*
D03*
Y787800D02*
D03*
X1713000Y618200D02*
D03*
Y633800D02*
D03*
X1684440Y618310D02*
D03*
Y633910D02*
D03*
X1743710Y688930D02*
D03*
Y704530D02*
D03*
X1544000Y618310D02*
D03*
Y633910D02*
D03*
X1585230Y918220D02*
D03*
Y933820D02*
D03*
X1629450Y918220D02*
D03*
Y933820D02*
D03*
X1541010Y918220D02*
D03*
Y933820D02*
D03*
X1673670Y918220D02*
D03*
Y933820D02*
D03*
X1717890D02*
D03*
Y918220D02*
D03*
X1496790D02*
D03*
Y933820D02*
D03*
X1743710Y713330D02*
D03*
Y728930D02*
D03*
X1113000Y234265D02*
D03*
Y218665D02*
D03*
D17*
X1341750Y566801D02*
D03*
X1437750D02*
D03*
X1341750Y477901D02*
D03*
X1437750Y503301D02*
D03*
Y516001D02*
D03*
Y490601D02*
D03*
Y554101D02*
D03*
X1341750Y490601D02*
D03*
X1341750Y503301D02*
D03*
X1341750Y516001D02*
D03*
X1437750Y541401D02*
D03*
Y528701D02*
D03*
X1341750Y554101D02*
D03*
Y541401D02*
D03*
Y528701D02*
D03*
X1344250Y754301D02*
D03*
X1440250D02*
D03*
X1344250Y665401D02*
D03*
X1440250Y690801D02*
D03*
Y703501D02*
D03*
Y678101D02*
D03*
Y741601D02*
D03*
X1344250Y678101D02*
D03*
X1344250Y690801D02*
D03*
X1344250Y703501D02*
D03*
X1440250Y728901D02*
D03*
Y716201D02*
D03*
X1344250Y741601D02*
D03*
Y728901D02*
D03*
Y716201D02*
D03*
D18*
X1437750Y477901D02*
D03*
X1440250Y665401D02*
D03*
D19*
X1301750Y515701D02*
D03*
X1278750D02*
D03*
X1301750Y528701D02*
D03*
X1278750D02*
D03*
X1304250Y703201D02*
D03*
X1281250D02*
D03*
X1304250Y716201D02*
D03*
X1281250D02*
D03*
D20*
X1217500Y512500D02*
D03*
Y531500D02*
D03*
X1196500Y522000D02*
D03*
X1220000Y700000D02*
D03*
Y719000D02*
D03*
X1199000Y709500D02*
D03*
D21*
X1527375Y512250D02*
D03*
D22*
Y486250D02*
D03*
D23*
X1527500Y573300D02*
D03*
Y536300D02*
D03*
D24*
X1733200Y484000D02*
D03*
X1748800D02*
D03*
X1734500Y562000D02*
D03*
X1750100D02*
D03*
X1900000Y288000D02*
D03*
X1884400D02*
D03*
X1900000Y438000D02*
D03*
X1884400D02*
D03*
X1900000Y588000D02*
D03*
X1884400D02*
D03*
X1900000Y738000D02*
D03*
X1884400D02*
D03*
X1900000Y1038000D02*
D03*
X1884400D02*
D03*
X1900000Y888000D02*
D03*
X1884400D02*
D03*
X1900000Y942000D02*
D03*
X1884400D02*
D03*
X1900000Y792000D02*
D03*
X1884400D02*
D03*
X1900000Y642000D02*
D03*
X1884400D02*
D03*
X1900000Y492000D02*
D03*
X1884400D02*
D03*
X1900000Y342000D02*
D03*
X1884400D02*
D03*
X1900000Y192000D02*
D03*
X1884400D02*
D03*
X1721030Y782000D02*
D03*
X1705430D02*
D03*
X1721030Y761570D02*
D03*
X1705430D02*
D03*
Y659000D02*
D03*
X1721030D02*
D03*
X1750300Y600000D02*
D03*
X1734700D02*
D03*
D25*
X1753500Y536300D02*
D03*
X1734500D02*
D03*
X1744000Y515300D02*
D03*
D26*
X1713230Y728930D02*
D03*
Y688930D02*
D03*
D27*
X1607940Y665900D02*
D03*
X1602940D02*
D03*
X1597940D02*
D03*
X1592940D02*
D03*
X1587940D02*
D03*
X1582940D02*
D03*
X1577940D02*
D03*
X1612940D02*
D03*
X1647940D02*
D03*
X1617940D02*
D03*
X1622940D02*
D03*
X1627940D02*
D03*
X1632940D02*
D03*
X1637940D02*
D03*
X1642940D02*
D03*
X1652940D02*
D03*
X1607940Y781900D02*
D03*
X1602940D02*
D03*
X1597940D02*
D03*
X1592940D02*
D03*
X1587940D02*
D03*
X1582940D02*
D03*
X1577940D02*
D03*
X1612940D02*
D03*
X1617940D02*
D03*
X1622940D02*
D03*
X1627940D02*
D03*
X1632940D02*
D03*
X1637940D02*
D03*
X1642940D02*
D03*
X1647940D02*
D03*
X1652940D02*
D03*
D28*
X1557440Y686400D02*
D03*
Y691400D02*
D03*
Y696400D02*
D03*
Y701400D02*
D03*
Y706400D02*
D03*
Y711400D02*
D03*
Y716400D02*
D03*
Y721400D02*
D03*
Y726400D02*
D03*
Y731400D02*
D03*
Y736400D02*
D03*
Y741400D02*
D03*
Y746400D02*
D03*
Y751400D02*
D03*
Y756400D02*
D03*
Y761400D02*
D03*
X1673440Y686400D02*
D03*
Y691400D02*
D03*
Y696400D02*
D03*
Y701400D02*
D03*
Y706400D02*
D03*
Y711400D02*
D03*
Y716400D02*
D03*
Y721400D02*
D03*
Y726400D02*
D03*
Y731400D02*
D03*
Y736400D02*
D03*
Y741400D02*
D03*
Y746400D02*
D03*
Y751400D02*
D03*
Y756400D02*
D03*
Y761400D02*
D03*
D29*
X1651065Y626110D02*
D03*
X1579815D02*
D03*
D30*
X1024300Y993500D02*
D03*
Y950500D02*
D03*
M02*
