M48
;Layer_Color=9474304
;FILE_FORMAT=4:4
METRIC,LZ
;TYPE=PLATED
T1F00S00C0.3000
T2F00S00C0.6000
T3F00S00C0.7000
T4F00S00C0.9000
T5F00S00C1.0000
T6F00S00C1.3000
T7F00S00C1.5000
T8F00S00C1.8000
T9F00S00C3.2000
T10F00S00C4.0000
%
T01
X01633Y00651
X01705Y00645
X0169822Y0063391
X01733Y0069673
Y0070893
Y0072113
X01737Y00766
X01657Y00741
X01542Y00694
X0153Y00695
X01544Y00646
X01263702Y00703201
X01253702
Y00716201
X01263702
X0122Y007095
X012175Y00522
X01251202Y00515701
X01261202
Y00528701
X01251202
X01555Y00806
X01566Y00922
X01517
X01646Y00923
X01691Y00926
X01666Y00797
X01653Y00796
T02
X012365Y00472901
Y00571801
X01239Y00660401
Y00759301
X01503Y0065
X01564599Y00402901
T03
X019Y00222
Y0024
Y00258
Y00372
Y0039
Y00408
Y00522
Y0054
Y00558
Y00672
Y0069
Y00708
Y00822
Y0084
Y00858
Y00972
Y0099
Y01008
T04
X015896Y00574
X01615
X016404
X016658
X015642
T05
X008719Y00199265
Y00234265
X010243
Y00199265
X009131Y009505
Y009855
T06
X0091Y00345
X009481
X009862
X010243Y00853
X009481
X008719
T07
X006346Y004575
Y004925
X006696
Y004575
Y005275
Y005625
Y005975
Y006325
Y006675
X006346
Y007025
Y007375
Y007725
X006696
Y007375
Y007025
X006346Y006325
Y005975
Y005625
Y005275
T08
X008719Y00345
X010243
T09
X0061Y0013
X0201
X0061Y011
X0201
T10
X00645Y003875
Y008425
M30
