G04*
G04 #@! TF.GenerationSoftware,Altium Limited,Altium Designer,22.2.1 (43)*
G04*
G04 Layer_Color=12632256*
%FSAX44Y44*%
%MOMM*%
G71*
G04*
G04 #@! TF.SameCoordinates,153B5C95-5CF5-4743-8735-2B8DBF92E26D*
G04*
G04*
G04 #@! TF.FilePolarity,Positive*
G04*
G01*
G75*
%ADD63C,1.5000*%
%ADD64C,1.5240*%
%ADD65C,1.8000*%
%ADD66C,5.8000*%
D63*
X01565800Y01310000D02*
D03*
X01540400D02*
D03*
X01515000D02*
D03*
X01489600D02*
D03*
X01464200D02*
D03*
X00625000Y01175000D02*
D03*
Y01150000D02*
D03*
Y01125000D02*
D03*
Y01100000D02*
D03*
Y01025000D02*
D03*
Y01000000D02*
D03*
Y00915000D02*
D03*
Y00878000D02*
D03*
X00600000Y01175000D02*
D03*
Y01150000D02*
D03*
Y01125000D02*
D03*
Y01100000D02*
D03*
Y01075000D02*
D03*
Y01050000D02*
D03*
Y01025000D02*
D03*
Y01000000D02*
D03*
Y00975000D02*
D03*
Y00950000D02*
D03*
Y00915000D02*
D03*
Y00878000D02*
D03*
X00575000Y01175000D02*
D03*
Y01150000D02*
D03*
Y01125000D02*
D03*
Y01100000D02*
D03*
Y01075000D02*
D03*
Y01050000D02*
D03*
Y01025000D02*
D03*
Y01000000D02*
D03*
Y00975000D02*
D03*
Y00950000D02*
D03*
Y00915000D02*
D03*
Y00878000D02*
D03*
X00625000Y01050000D02*
D03*
Y00950000D02*
D03*
Y01075000D02*
D03*
Y00975000D02*
D03*
D64*
X00621500Y01280500D02*
D03*
X00660000Y01239500D02*
D03*
Y00813500D02*
D03*
X00621500Y00772500D02*
D03*
D65*
X01114400Y00621400D02*
D03*
X00962000D02*
D03*
X00936600D02*
D03*
Y00723000D02*
D03*
X01089000D02*
D03*
X01114400D02*
D03*
D66*
X00540000Y01510000D02*
D03*
Y00540000D02*
D03*
X01940000D02*
D03*
Y01510000D02*
D03*
M02*
