G04*
G04 #@! TF.GenerationSoftware,Altium Limited,Altium Designer,22.2.1 (43)*
G04*
G04 Layer_Color=65535*
%FSAX44Y44*%
%MOMM*%
G71*
G04*
G04 #@! TF.SameCoordinates,153B5C95-5CF5-4743-8735-2B8DBF92E26D*
G04*
G04*
G04 #@! TF.FilePolarity,Positive*
G04*
G01*
G75*
%ADD10C,0.6000*%
%ADD11C,0.2500*%
%ADD12C,0.1000*%
%ADD13C,0.2540*%
%ADD14C,0.1500*%
%ADD15C,0.5000*%
%ADD16C,0.2000*%
G36*
X01659228Y00739764D02*
X01676010Y00716243D01*
X01668688D01*
X01657349Y00732183D01*
X01657284Y00732248D01*
X01657154Y00732442D01*
X01657025Y00732701D01*
X01656766Y00733025D01*
X01656183Y00733932D01*
X01655535Y00734904D01*
X01655470Y00734839D01*
X01655275Y00734580D01*
X01655016Y00734191D01*
X01654692Y00733673D01*
X01653979Y00732636D01*
X01653656Y00732183D01*
X01653396Y00731794D01*
X01642057Y00716243D01*
X01634930D01*
X01652230Y00739440D01*
X01636938Y00761081D01*
X01644001D01*
X01652165Y00749548D01*
Y00749483D01*
X01652295Y00749418D01*
X01652424Y00749224D01*
X01652619Y00748965D01*
X01653008Y00748317D01*
X01653591Y00747539D01*
X01654174Y00746632D01*
X01654757Y00745725D01*
X01655275Y00744883D01*
X01655729Y00744105D01*
X01655794Y00744235D01*
X01655988Y00744494D01*
X01656312Y00745012D01*
X01656766Y00745660D01*
X01657284Y00746373D01*
X01657932Y00747280D01*
X01658580Y00748187D01*
X01659357Y00749159D01*
X01668299Y00761081D01*
X01674779D01*
X01659228Y00739764D01*
D02*
G37*
G36*
X01629876Y00716243D02*
X01624174D01*
Y00753760D01*
X01611085Y00716243D01*
X01605772D01*
X01592813Y00754408D01*
Y00716243D01*
X01587111D01*
Y00761081D01*
X01595988D01*
X01606614Y00729267D01*
Y00729202D01*
X01606679Y00729073D01*
X01606744Y00728878D01*
X01606873Y00728554D01*
X01607132Y00727777D01*
X01607456Y00726805D01*
X01607780Y00725703D01*
X01608169Y00724602D01*
X01608493Y00723565D01*
X01608752Y00722658D01*
X01608817Y00722787D01*
X01608882Y00723111D01*
X01609076Y00723695D01*
X01609335Y00724472D01*
X01609659Y00725509D01*
X01610113Y00726740D01*
X01610567Y00728165D01*
X01611150Y00729850D01*
X01621906Y00761081D01*
X01629876D01*
Y00716243D01*
D02*
G37*
G36*
X01437109Y00721556D02*
X01441256D01*
Y00703802D01*
X01435943D01*
Y00716243D01*
X01401990D01*
Y00761081D01*
X01407951D01*
Y00721556D01*
X01431148D01*
Y00761081D01*
X01437109D01*
Y00721556D01*
D02*
G37*
G36*
X01581149Y00755768D02*
X01566376D01*
Y00716243D01*
X01560415D01*
Y00755768D01*
X01545641D01*
Y00761081D01*
X01581149D01*
Y00755768D01*
D02*
G37*
G36*
X01525425D02*
X01510652D01*
Y00716243D01*
X01504691D01*
Y00755768D01*
X01489917D01*
Y00761081D01*
X01525425D01*
Y00755768D01*
D02*
G37*
G36*
X01483503Y00716243D02*
X01477542D01*
Y00755768D01*
X01454280D01*
Y00716243D01*
X01448319D01*
Y00761081D01*
X01483503D01*
Y00716243D01*
D02*
G37*
G36*
X01573665Y00649219D02*
X01567704D01*
Y00670342D01*
X01544508D01*
Y00649219D01*
X01538546D01*
Y00694057D01*
X01544508D01*
Y00675655D01*
X01567704D01*
Y00694057D01*
X01573665D01*
Y00649219D01*
D02*
G37*
G36*
X01516451Y00659197D02*
X01516386Y00659132D01*
X01516322Y00658938D01*
X01516127Y00658614D01*
X01515933Y00658160D01*
X01515674Y00657642D01*
X01515350Y00656994D01*
X01514637Y00655698D01*
X01513795Y00654208D01*
X01512952Y00652847D01*
X01512499Y00652199D01*
X01512045Y00651616D01*
X01511656Y00651098D01*
X01511268Y00650644D01*
X01511203Y00650579D01*
X01510879Y00650320D01*
X01510425Y00649996D01*
X01509777Y00649672D01*
X01509000Y00649284D01*
X01507963Y00648960D01*
X01506862Y00648700D01*
X01505501Y00648636D01*
X01505112D01*
X01504594Y00648700D01*
X01503946Y00648765D01*
X01503168Y00648895D01*
X01502196Y00649089D01*
X01501095Y00649348D01*
X01499928Y00649672D01*
Y00654726D01*
X01500058Y00654662D01*
X01500317Y00654532D01*
X01500836Y00654338D01*
X01501419Y00654078D01*
X01502196Y00653819D01*
X01503038Y00653625D01*
X01503946Y00653495D01*
X01504918Y00653430D01*
X01505306D01*
X01505695Y00653495D01*
X01506214Y00653625D01*
X01506797Y00653754D01*
X01507445Y00654014D01*
X01508093Y00654338D01*
X01508676Y00654791D01*
X01508741Y00654856D01*
X01508935Y00655115D01*
X01509259Y00655504D01*
X01509713Y00656087D01*
X01510231Y00656929D01*
X01510490Y00657448D01*
X01510814Y00658031D01*
X01511073Y00658679D01*
X01511397Y00659392D01*
X01511786Y00660169D01*
X01512110Y00661076D01*
X01493967Y00694057D01*
X01499928D01*
X01514637Y00666519D01*
X01527337Y00694057D01*
X01533233D01*
X01516451Y00659197D01*
D02*
G37*
G36*
X01600815Y00694770D02*
X01601981Y00694705D01*
X01604119Y00694316D01*
X01605156Y00694057D01*
X01606063Y00693798D01*
X01606970Y00693474D01*
X01607748Y00693215D01*
X01608461Y00692891D01*
X01609109Y00692567D01*
X01609627Y00692308D01*
X01610081Y00692048D01*
X01610469Y00691854D01*
X01610728Y00691660D01*
X01610858Y00691595D01*
X01610923Y00691530D01*
X01612608Y00690234D01*
X01614033Y00688874D01*
X01615264Y00687513D01*
X01616301Y00686152D01*
X01617079Y00684986D01*
X01617338Y00684532D01*
X01617597Y00684079D01*
X01617791Y00683755D01*
X01617921Y00683431D01*
X01618050Y00683301D01*
Y00683236D01*
X01618828Y00681357D01*
X01619411Y00679413D01*
X01619800Y00677534D01*
X01620124Y00675785D01*
X01620189Y00675007D01*
X01620253Y00674295D01*
X01620318Y00673647D01*
Y00673128D01*
X01620383Y00672675D01*
Y00672351D01*
Y00672156D01*
Y00672092D01*
Y00670277D01*
X01620253Y00668528D01*
X01620059Y00666843D01*
X01619735Y00665223D01*
X01619411Y00663733D01*
X01618958Y00662372D01*
X01618569Y00661076D01*
X01618050Y00659910D01*
X01617597Y00658873D01*
X01617143Y00657966D01*
X01616690Y00657124D01*
X01616301Y00656476D01*
X01615977Y00655957D01*
X01615718Y00655569D01*
X01615588Y00655310D01*
X01615523Y00655245D01*
X01614487Y00654078D01*
X01613385Y00652977D01*
X01612154Y00652070D01*
X01610858Y00651292D01*
X01609562Y00650644D01*
X01608266Y00650126D01*
X01606970Y00649672D01*
X01605674Y00649284D01*
X01604443Y00649024D01*
X01603342Y00648830D01*
X01602370Y00648636D01*
X01601463Y00648571D01*
X01600750Y00648506D01*
X01600167Y00648441D01*
X01599713D01*
X01598353Y00648506D01*
X01597057Y00648636D01*
X01595826Y00648830D01*
X01594659Y00649089D01*
X01593558Y00649413D01*
X01592456Y00649802D01*
X01590512Y00650774D01*
X01588828Y00651875D01*
X01587273Y00653171D01*
X01585912Y00654532D01*
X01584810Y00655893D01*
X01583838Y00657253D01*
X01582996Y00658614D01*
X01582348Y00659910D01*
X01581830Y00661012D01*
X01581441Y00661983D01*
X01581311Y00662372D01*
X01581182Y00662696D01*
X01581117Y00662955D01*
X01581052Y00663150D01*
X01580987Y00663279D01*
Y00663344D01*
X01586689Y00664834D01*
X01586949Y00663798D01*
X01587273Y00662826D01*
X01588050Y00661076D01*
X01588957Y00659521D01*
X01589929Y00658225D01*
X01591031Y00657124D01*
X01592132Y00656217D01*
X01593298Y00655439D01*
X01594465Y00654856D01*
X01595566Y00654402D01*
X01596603Y00654014D01*
X01597575Y00653754D01*
X01598417Y00653625D01*
X01599130Y00653495D01*
X01599713Y00653430D01*
X01600167D01*
X01601268Y00653495D01*
X01602305Y00653625D01*
X01603342Y00653819D01*
X01604249Y00654143D01*
X01605091Y00654467D01*
X01605934Y00654791D01*
X01606646Y00655180D01*
X01607359Y00655633D01*
X01607942Y00656022D01*
X01608461Y00656411D01*
X01608979Y00656735D01*
X01609303Y00657124D01*
X01609627Y00657383D01*
X01609821Y00657577D01*
X01609951Y00657707D01*
X01610016Y00657772D01*
X01610728Y00658614D01*
X01611312Y00659521D01*
X01611830Y00660493D01*
X01612348Y00661465D01*
X01613061Y00663474D01*
X01613644Y00665353D01*
X01613839Y00666260D01*
X01613968Y00667038D01*
X01614098Y00667815D01*
X01614163Y00668463D01*
X01614227Y00668981D01*
X01614292Y00669370D01*
Y00669629D01*
Y00669694D01*
X01597575D01*
Y00675007D01*
X01614098D01*
X01613968Y00676238D01*
X01613839Y00677405D01*
X01613580Y00678506D01*
X01613320Y00679543D01*
X01612996Y00680450D01*
X01612608Y00681357D01*
X01612284Y00682135D01*
X01611895Y00682912D01*
X01611506Y00683560D01*
X01611182Y00684079D01*
X01610858Y00684597D01*
X01610534Y00684986D01*
X01610275Y00685310D01*
X01610145Y00685504D01*
X01610016Y00685634D01*
X01609951Y00685699D01*
X01609238Y00686411D01*
X01608461Y00686994D01*
X01607618Y00687513D01*
X01606776Y00687966D01*
X01605934Y00688355D01*
X01605091Y00688679D01*
X01603407Y00689133D01*
X01602629Y00689327D01*
X01601916Y00689457D01*
X01601268Y00689521D01*
X01600750Y00689586D01*
X01600296Y00689651D01*
X01599648D01*
X01597899Y00689521D01*
X01596344Y00689262D01*
X01594918Y00688809D01*
X01593622Y00688161D01*
X01592521Y00687448D01*
X01591484Y00686671D01*
X01590642Y00685828D01*
X01589864Y00684921D01*
X01589216Y00684014D01*
X01588698Y00683171D01*
X01588309Y00682394D01*
X01587921Y00681681D01*
X01587726Y00681098D01*
X01587532Y00680580D01*
X01587467Y00680321D01*
X01587402Y00680191D01*
X01581571Y00681746D01*
X01581895Y00682848D01*
X01582283Y00683949D01*
X01582737Y00684921D01*
X01583255Y00685828D01*
X01583774Y00686671D01*
X01584292Y00687513D01*
X01584810Y00688226D01*
X01585329Y00688874D01*
X01585847Y00689457D01*
X01586301Y00689910D01*
X01586754Y00690364D01*
X01587078Y00690688D01*
X01587402Y00691012D01*
X01587661Y00691206D01*
X01587791Y00691271D01*
X01587856Y00691336D01*
X01588763Y00691984D01*
X01589735Y00692502D01*
X01590707Y00692956D01*
X01591679Y00693344D01*
X01593622Y00693992D01*
X01595502Y00694381D01*
X01596344Y00694576D01*
X01597121Y00694640D01*
X01597834Y00694705D01*
X01598417Y00694770D01*
X01598936Y00694835D01*
X01599584D01*
X01600815Y00694770D01*
D02*
G37*
G36*
X01486775Y00688744D02*
X01463578D01*
Y00674942D01*
X01475241D01*
X01475760Y00674878D01*
X01476991D01*
X01477704Y00674813D01*
X01479194Y00674683D01*
X01480749Y00674424D01*
X01482304Y00674165D01*
X01483730Y00673776D01*
X01483794D01*
X01483859Y00673711D01*
X01484053Y00673647D01*
X01484313Y00673582D01*
X01484961Y00673258D01*
X01485738Y00672804D01*
X01486645Y00672221D01*
X01487617Y00671508D01*
X01488524Y00670601D01*
X01489367Y00669500D01*
Y00669435D01*
X01489431Y00669370D01*
X01489561Y00669176D01*
X01489691Y00668981D01*
X01490015Y00668269D01*
X01490468Y00667426D01*
X01490857Y00666389D01*
X01491181Y00665158D01*
X01491440Y00663733D01*
X01491505Y00662243D01*
Y00662178D01*
Y00662113D01*
Y00661919D01*
Y00661659D01*
X01491440Y00661012D01*
X01491311Y00660169D01*
X01491116Y00659197D01*
X01490857Y00658096D01*
X01490468Y00656929D01*
X01489950Y00655828D01*
X01489885Y00655698D01*
X01489691Y00655374D01*
X01489302Y00654791D01*
X01488848Y00654143D01*
X01488200Y00653366D01*
X01487423Y00652588D01*
X01486516Y00651811D01*
X01485414Y00651033D01*
X01485349D01*
X01485285Y00650968D01*
X01485090Y00650839D01*
X01484831Y00650774D01*
X01484507Y00650644D01*
X01484118Y00650450D01*
X01483600Y00650320D01*
X01483017Y00650126D01*
X01482369Y00649931D01*
X01481591Y00649802D01*
X01480749Y00649672D01*
X01479842Y00649478D01*
X01478805Y00649413D01*
X01477704Y00649284D01*
X01476472Y00649219D01*
X01457617D01*
Y00694057D01*
X01486775D01*
Y00688744D01*
D02*
G37*
G36*
X01506635Y00627616D02*
X01507088Y00627551D01*
X01508060Y00627422D01*
X01509227Y00627162D01*
X01510458Y00626774D01*
X01511689Y00626190D01*
X01512920Y00625478D01*
X01512985D01*
X01513049Y00625348D01*
X01513438Y00625089D01*
X01514021Y00624571D01*
X01514734Y00623923D01*
X01515512Y00623080D01*
X01516289Y00622044D01*
X01517067Y00620812D01*
X01517715Y00619452D01*
Y00619387D01*
X01517780Y00619257D01*
X01517844Y00619063D01*
X01517974Y00618804D01*
X01518103Y00618415D01*
X01518233Y00617962D01*
X01518557Y00616925D01*
X01518881Y00615629D01*
X01519140Y00614203D01*
X01519335Y00612583D01*
X01519399Y00610899D01*
Y00610834D01*
Y00610704D01*
Y00610445D01*
Y00610056D01*
X01519335Y00609603D01*
Y00609085D01*
X01519205Y00607918D01*
X01518946Y00606493D01*
X01518622Y00605002D01*
X01518168Y00603447D01*
X01517585Y00601892D01*
Y00601827D01*
X01517520Y00601698D01*
X01517391Y00601503D01*
X01517261Y00601244D01*
X01516808Y00600532D01*
X01516224Y00599624D01*
X01515512Y00598652D01*
X01514604Y00597681D01*
X01513568Y00596709D01*
X01512337Y00595801D01*
X01512272D01*
X01512207Y00595737D01*
X01512013Y00595607D01*
X01511754Y00595477D01*
X01511106Y00595154D01*
X01510199Y00594765D01*
X01509097Y00594376D01*
X01507931Y00594052D01*
X01506570Y00593793D01*
X01505209Y00593728D01*
X01504756D01*
X01504237Y00593793D01*
X01503589Y00593858D01*
X01502812Y00593987D01*
X01501969Y00594182D01*
X01501127Y00594441D01*
X01500285Y00594829D01*
X01500220Y00594894D01*
X01499896Y00595024D01*
X01499507Y00595283D01*
X01498989Y00595672D01*
X01498470Y00596061D01*
X01497823Y00596579D01*
X01497239Y00597162D01*
X01496721Y00597810D01*
Y00582000D01*
X01491213D01*
Y00626968D01*
X01496203D01*
Y00622691D01*
X01496267Y00622821D01*
X01496527Y00623080D01*
X01496851Y00623534D01*
X01497369Y00624052D01*
X01497952Y00624700D01*
X01498600Y00625283D01*
X01499378Y00625867D01*
X01500155Y00626385D01*
X01500285Y00626450D01*
X01500544Y00626579D01*
X01501062Y00626774D01*
X01501710Y00627033D01*
X01502488Y00627292D01*
X01503395Y00627486D01*
X01504432Y00627616D01*
X01505598Y00627681D01*
X01506311D01*
X01506635Y00627616D01*
D02*
G37*
G36*
X01540134D02*
X01540523D01*
X01541041Y00627551D01*
X01542272Y00627357D01*
X01543633Y00627033D01*
X01545058Y00626514D01*
X01546484Y00625867D01*
X01547845Y00624959D01*
X01547909D01*
X01547974Y00624830D01*
X01548363Y00624441D01*
X01548946Y00623858D01*
X01549659Y00623016D01*
X01550372Y00621979D01*
X01551084Y00620683D01*
X01551732Y00619193D01*
X01552186Y00617443D01*
X01546808Y00616601D01*
Y00616665D01*
X01546743Y00616730D01*
X01546678Y00617119D01*
X01546484Y00617702D01*
X01546160Y00618415D01*
X01545836Y00619193D01*
X01545318Y00620035D01*
X01544734Y00620812D01*
X01544086Y00621460D01*
X01544022Y00621525D01*
X01543763Y00621720D01*
X01543309Y00621979D01*
X01542791Y00622303D01*
X01542078Y00622627D01*
X01541300Y00622886D01*
X01540393Y00623080D01*
X01539421Y00623145D01*
X01539032D01*
X01538708Y00623080D01*
X01537996Y00623016D01*
X01537024Y00622756D01*
X01535987Y00622432D01*
X01534821Y00621914D01*
X01533719Y00621136D01*
X01533201Y00620683D01*
X01532682Y00620164D01*
Y00620100D01*
X01532553Y00620035D01*
X01532423Y00619841D01*
X01532294Y00619581D01*
X01532099Y00619257D01*
X01531840Y00618869D01*
X01531646Y00618415D01*
X01531387Y00617897D01*
X01531127Y00617249D01*
X01530933Y00616536D01*
X01530674Y00615758D01*
X01530479Y00614916D01*
X01530350Y00614009D01*
X01530220Y00612972D01*
X01530091Y00611871D01*
Y00610704D01*
Y00610640D01*
Y00610445D01*
Y00610056D01*
X01530155Y00609668D01*
Y00609085D01*
X01530220Y00608501D01*
X01530415Y00607076D01*
X01530674Y00605521D01*
X01531127Y00603901D01*
X01531711Y00602475D01*
X01532099Y00601763D01*
X01532553Y00601179D01*
X01532682Y00601050D01*
X01533006Y00600726D01*
X01533590Y00600272D01*
X01534302Y00599754D01*
X01535274Y00599171D01*
X01536376Y00598717D01*
X01537672Y00598393D01*
X01538385Y00598328D01*
X01539097Y00598264D01*
X01539227D01*
X01539616Y00598328D01*
X01540264Y00598393D01*
X01540976Y00598523D01*
X01541819Y00598717D01*
X01542726Y00599106D01*
X01543633Y00599560D01*
X01544475Y00600207D01*
X01544605Y00600272D01*
X01544799Y00600596D01*
X01545188Y00601050D01*
X01545641Y00601763D01*
X01546095Y00602605D01*
X01546613Y00603642D01*
X01547002Y00604938D01*
X01547261Y00606363D01*
X01552704Y00605650D01*
Y00605586D01*
X01552639Y00605391D01*
X01552575Y00605132D01*
X01552510Y00604743D01*
X01552380Y00604225D01*
X01552251Y00603707D01*
X01551797Y00602411D01*
X01551214Y00601050D01*
X01550372Y00599560D01*
X01549335Y00598134D01*
X01548752Y00597486D01*
X01548104Y00596838D01*
X01548039Y00596773D01*
X01547909Y00596709D01*
X01547715Y00596579D01*
X01547456Y00596385D01*
X01547132Y00596125D01*
X01546678Y00595866D01*
X01546160Y00595607D01*
X01545641Y00595283D01*
X01544346Y00594700D01*
X01542791Y00594246D01*
X01541106Y00593858D01*
X01540134Y00593793D01*
X01539162Y00593728D01*
X01538514D01*
X01538060Y00593793D01*
X01537477Y00593858D01*
X01536829Y00593987D01*
X01536117Y00594117D01*
X01535339Y00594246D01*
X01533590Y00594765D01*
X01532747Y00595154D01*
X01531840Y00595542D01*
X01530933Y00596061D01*
X01530091Y00596644D01*
X01529248Y00597292D01*
X01528471Y00598069D01*
X01528406Y00598134D01*
X01528276Y00598264D01*
X01528082Y00598523D01*
X01527823Y00598847D01*
X01527564Y00599300D01*
X01527175Y00599883D01*
X01526851Y00600532D01*
X01526462Y00601244D01*
X01526073Y00602087D01*
X01525749Y00603059D01*
X01525361Y00604030D01*
X01525101Y00605197D01*
X01524842Y00606363D01*
X01524648Y00607724D01*
X01524518Y00609085D01*
X01524453Y00610575D01*
Y00610640D01*
Y00610834D01*
Y00611093D01*
Y00611482D01*
X01524518Y00611936D01*
Y00612454D01*
X01524583Y00613037D01*
X01524648Y00613685D01*
X01524842Y00615111D01*
X01525166Y00616665D01*
X01525555Y00618221D01*
X01526138Y00619776D01*
Y00619841D01*
X01526203Y00619970D01*
X01526333Y00620164D01*
X01526462Y00620424D01*
X01526851Y00621136D01*
X01527434Y00621979D01*
X01528212Y00622951D01*
X01529119Y00623923D01*
X01530220Y00624895D01*
X01531451Y00625672D01*
X01531516D01*
X01531646Y00625737D01*
X01531840Y00625867D01*
X01532099Y00625996D01*
X01532423Y00626126D01*
X01532812Y00626320D01*
X01533784Y00626709D01*
X01534886Y00627033D01*
X01536246Y00627357D01*
X01537672Y00627616D01*
X01539227Y00627681D01*
X01539745D01*
X01540134Y00627616D01*
D02*
G37*
G36*
X01584130Y00594441D02*
X01578622D01*
Y00619063D01*
X01563331Y00594441D01*
X01557434D01*
Y00626968D01*
X01562942D01*
Y00602151D01*
X01578169Y00626968D01*
X01584130D01*
Y00594441D01*
D02*
G37*
G36*
X01662986D02*
X01657478D01*
Y00629495D01*
X01657414Y00629430D01*
X01657090Y00629171D01*
X01656701Y00628782D01*
X01656053Y00628329D01*
X01655340Y00627746D01*
X01654433Y00627098D01*
X01653396Y00626385D01*
X01652230Y00625672D01*
X01652165D01*
X01652100Y00625607D01*
X01651712Y00625348D01*
X01651064Y00625024D01*
X01650286Y00624635D01*
X01649379Y00624182D01*
X01648407Y00623728D01*
X01647435Y00623275D01*
X01646463Y00622886D01*
Y00628199D01*
X01646528D01*
X01646658Y00628329D01*
X01646917Y00628394D01*
X01647241Y00628588D01*
X01647630Y00628782D01*
X01648083Y00629041D01*
X01649185Y00629689D01*
X01650480Y00630402D01*
X01651776Y00631309D01*
X01653137Y00632346D01*
X01654498Y00633448D01*
X01654563Y00633512D01*
X01654627Y00633577D01*
X01654822Y00633772D01*
X01655081Y00633966D01*
X01655664Y00634614D01*
X01656442Y00635391D01*
X01657219Y00636298D01*
X01658062Y00637335D01*
X01658774Y00638372D01*
X01659422Y00639473D01*
X01662986D01*
Y00594441D01*
D02*
G37*
G36*
X01618018D02*
X01612510D01*
Y00607141D01*
X01608882D01*
X01608363Y00607076D01*
X01607715D01*
X01607003Y00606946D01*
X01606290Y00606817D01*
X01605577Y00606622D01*
X01604994Y00606363D01*
X01604929Y00606298D01*
X01604735Y00606169D01*
X01604411Y00605910D01*
X01603957Y00605456D01*
X01603374Y00604808D01*
X01602661Y00603966D01*
X01602273Y00603447D01*
X01601819Y00602864D01*
X01601366Y00602216D01*
X01600847Y00601503D01*
X01595988Y00594441D01*
X01589184D01*
X01595145Y00603188D01*
X01595210Y00603253D01*
X01595275Y00603382D01*
X01595404Y00603577D01*
X01595599Y00603836D01*
X01596117Y00604484D01*
X01596830Y00605262D01*
X01597672Y00606039D01*
X01598579Y00606817D01*
X01599551Y00607400D01*
X01600005Y00607594D01*
X01600523Y00607724D01*
X01600458D01*
X01600329Y00607789D01*
X01600070D01*
X01599746Y00607853D01*
X01599357Y00607983D01*
X01598903Y00608048D01*
X01597931Y00608372D01*
X01596765Y00608825D01*
X01595664Y00609408D01*
X01594562Y00610186D01*
X01593590Y00611093D01*
Y00611158D01*
X01593525Y00611223D01*
X01593266Y00611612D01*
X01592877Y00612195D01*
X01592489Y00612907D01*
X01592035Y00613879D01*
X01591711Y00614981D01*
X01591452Y00616147D01*
X01591322Y00617443D01*
Y00617508D01*
Y00617637D01*
Y00617832D01*
X01591387Y00618156D01*
Y00618480D01*
X01591452Y00618933D01*
X01591711Y00619905D01*
X01592035Y00620942D01*
X01592553Y00622108D01*
X01593331Y00623275D01*
X01593784Y00623793D01*
X01594303Y00624311D01*
X01594368D01*
X01594433Y00624441D01*
X01594627Y00624571D01*
X01594886Y00624700D01*
X01595145Y00624959D01*
X01595534Y00625154D01*
X01595988Y00625413D01*
X01596506Y00625672D01*
X01597089Y00625867D01*
X01597737Y00626126D01*
X01598450Y00626385D01*
X01599227Y00626579D01*
X01600912Y00626838D01*
X01602921Y00626968D01*
X01618018D01*
Y00594441D01*
D02*
G37*
G36*
X01433092Y00639214D02*
X01433610D01*
X01434777Y00639085D01*
X01436073Y00638955D01*
X01437433Y00638696D01*
X01438794Y00638372D01*
X01440025Y00637918D01*
X01440090D01*
X01440155Y00637854D01*
X01440543Y00637659D01*
X01441127Y00637335D01*
X01441774Y00636882D01*
X01442552Y00636298D01*
X01443394Y00635586D01*
X01444172Y00634679D01*
X01444885Y00633707D01*
X01444949Y00633577D01*
X01445144Y00633188D01*
X01445468Y00632670D01*
X01445792Y00631893D01*
X01446116Y00630985D01*
X01446440Y00630013D01*
X01446634Y00628912D01*
X01446699Y00627810D01*
Y00627681D01*
Y00627357D01*
X01446634Y00626774D01*
X01446505Y00626061D01*
X01446310Y00625219D01*
X01445986Y00624311D01*
X01445597Y00623404D01*
X01445079Y00622432D01*
X01445014Y00622303D01*
X01444820Y00622044D01*
X01444431Y00621525D01*
X01443913Y00621007D01*
X01443265Y00620359D01*
X01442487Y00619646D01*
X01441515Y00618998D01*
X01440414Y00618350D01*
X01440479D01*
X01440608Y00618285D01*
X01440803Y00618221D01*
X01441062Y00618091D01*
X01441839Y00617832D01*
X01442746Y00617378D01*
X01443718Y00616795D01*
X01444820Y00616082D01*
X01445792Y00615240D01*
X01446699Y00614203D01*
X01446764Y00614074D01*
X01447023Y00613685D01*
X01447412Y00613102D01*
X01447800Y00612324D01*
X01448189Y00611287D01*
X01448578Y00610186D01*
X01448837Y00608890D01*
X01448902Y00607465D01*
Y00607400D01*
Y00607335D01*
Y00606946D01*
X01448837Y00606298D01*
X01448708Y00605521D01*
X01448578Y00604614D01*
X01448319Y00603642D01*
X01447995Y00602605D01*
X01447541Y00601568D01*
X01447477Y00601439D01*
X01447282Y00601115D01*
X01447023Y00600661D01*
X01446634Y00600013D01*
X01446116Y00599365D01*
X01445597Y00598652D01*
X01444949Y00597940D01*
X01444237Y00597356D01*
X01444172Y00597292D01*
X01443913Y00597097D01*
X01443459Y00596838D01*
X01442876Y00596579D01*
X01442163Y00596190D01*
X01441321Y00595801D01*
X01440414Y00595477D01*
X01439312Y00595154D01*
X01439183D01*
X01438794Y00595024D01*
X01438146Y00594959D01*
X01437304Y00594829D01*
X01436267Y00594700D01*
X01435036Y00594570D01*
X01433675Y00594506D01*
X01432120Y00594441D01*
X01415014D01*
Y00639279D01*
X01432638D01*
X01433092Y00639214D01*
D02*
G37*
G36*
X01470738Y00627616D02*
X01471256Y00627551D01*
X01471904Y00627422D01*
X01472617Y00627292D01*
X01473459Y00627098D01*
X01474237Y00626903D01*
X01475144Y00626579D01*
X01475986Y00626255D01*
X01476894Y00625802D01*
X01477801Y00625283D01*
X01478708Y00624700D01*
X01479550Y00623987D01*
X01480328Y00623210D01*
X01480393Y00623145D01*
X01480522Y00623016D01*
X01480717Y00622756D01*
X01480976Y00622368D01*
X01481300Y00621914D01*
X01481624Y00621396D01*
X01482012Y00620748D01*
X01482401Y00619970D01*
X01482790Y00619128D01*
X01483179Y00618221D01*
X01483503Y00617184D01*
X01483827Y00616082D01*
X01484086Y00614851D01*
X01484280Y00613555D01*
X01484410Y00612195D01*
X01484475Y00610704D01*
Y00610640D01*
Y00610380D01*
Y00609927D01*
X01484410Y00609279D01*
X01460112D01*
Y00609214D01*
Y00609020D01*
X01460176Y00608760D01*
Y00608372D01*
X01460241Y00607918D01*
X01460371Y00607400D01*
X01460565Y00606233D01*
X01460954Y00604938D01*
X01461472Y00603512D01*
X01462185Y00602216D01*
X01463092Y00601050D01*
X01463157D01*
X01463222Y00600920D01*
X01463611Y00600596D01*
X01464194Y00600143D01*
X01464971Y00599689D01*
X01466008Y00599171D01*
X01467174Y00598717D01*
X01468470Y00598393D01*
X01469183Y00598328D01*
X01469960Y00598264D01*
X01470479D01*
X01471062Y00598328D01*
X01471775Y00598458D01*
X01472552Y00598652D01*
X01473459Y00598912D01*
X01474302Y00599300D01*
X01475144Y00599819D01*
X01475209Y00599883D01*
X01475533Y00600143D01*
X01475922Y00600532D01*
X01476375Y00601050D01*
X01476894Y00601763D01*
X01477477Y00602670D01*
X01478060Y00603707D01*
X01478578Y00604938D01*
X01484280Y00604225D01*
Y00604160D01*
X01484216Y00604030D01*
X01484151Y00603771D01*
X01484021Y00603382D01*
X01483827Y00602994D01*
X01483632Y00602475D01*
X01483114Y00601374D01*
X01482466Y00600143D01*
X01481559Y00598847D01*
X01480522Y00597616D01*
X01479226Y00596449D01*
X01479162D01*
X01479032Y00596320D01*
X01478837Y00596190D01*
X01478578Y00595996D01*
X01478190Y00595801D01*
X01477801Y00595607D01*
X01477282Y00595348D01*
X01476699Y00595089D01*
X01476051Y00594829D01*
X01475403Y00594570D01*
X01473783Y00594182D01*
X01471969Y00593858D01*
X01469960Y00593728D01*
X01469248D01*
X01468794Y00593793D01*
X01468211Y00593858D01*
X01467498Y00593987D01*
X01466721Y00594117D01*
X01465878Y00594246D01*
X01464064Y00594765D01*
X01463092Y00595154D01*
X01462185Y00595542D01*
X01461213Y00596061D01*
X01460306Y00596644D01*
X01459464Y00597292D01*
X01458621Y00598069D01*
X01458557Y00598134D01*
X01458427Y00598264D01*
X01458233Y00598523D01*
X01457973Y00598912D01*
X01457649Y00599365D01*
X01457325Y00599883D01*
X01456937Y00600532D01*
X01456548Y00601244D01*
X01456159Y00602087D01*
X01455770Y00602994D01*
X01455446Y00604030D01*
X01455122Y00605132D01*
X01454863Y00606298D01*
X01454669Y00607594D01*
X01454539Y00608955D01*
X01454474Y00610380D01*
Y00610445D01*
Y00610769D01*
Y00611158D01*
X01454539Y00611741D01*
X01454604Y00612454D01*
X01454669Y00613231D01*
X01454798Y00614138D01*
X01454993Y00615046D01*
X01455511Y00617119D01*
X01455835Y00618156D01*
X01456224Y00619257D01*
X01456742Y00620294D01*
X01457325Y00621266D01*
X01457973Y00622238D01*
X01458686Y00623145D01*
X01458751Y00623210D01*
X01458880Y00623340D01*
X01459140Y00623534D01*
X01459464Y00623858D01*
X01459852Y00624182D01*
X01460371Y00624571D01*
X01460954Y00625024D01*
X01461667Y00625413D01*
X01462379Y00625867D01*
X01463222Y00626255D01*
X01464129Y00626644D01*
X01465101Y00626968D01*
X01466138Y00627292D01*
X01467239Y00627486D01*
X01468405Y00627616D01*
X01469637Y00627681D01*
X01470284D01*
X01470738Y00627616D01*
D02*
G37*
%LPC*%
G36*
X01473557Y00669824D02*
X01463578D01*
Y00654273D01*
X01475889D01*
X01476213Y00654338D01*
X01476602D01*
X01477056Y00654402D01*
X01478157Y00654532D01*
X01479323Y00654726D01*
X01480490Y00655115D01*
X01481656Y00655569D01*
X01482628Y00656217D01*
X01482758Y00656281D01*
X01483017Y00656605D01*
X01483405Y00657059D01*
X01483859Y00657707D01*
X01484313Y00658484D01*
X01484702Y00659521D01*
X01484961Y00660687D01*
X01485090Y00662048D01*
Y00662113D01*
Y00662178D01*
Y00662502D01*
X01485025Y00663020D01*
X01484896Y00663668D01*
X01484766Y00664446D01*
X01484507Y00665223D01*
X01484118Y00666001D01*
X01483665Y00666713D01*
X01483600Y00666778D01*
X01483405Y00667038D01*
X01483082Y00667362D01*
X01482693Y00667750D01*
X01482110Y00668139D01*
X01481462Y00668528D01*
X01480684Y00668916D01*
X01479842Y00669176D01*
X01479712D01*
X01479388Y00669305D01*
X01479064D01*
X01478740Y00669370D01*
X01478351Y00669435D01*
X01477898Y00669500D01*
X01477315Y00669565D01*
X01476732Y00669629D01*
X01476019Y00669694D01*
X01475306D01*
X01474464Y00669759D01*
X01473557Y00669824D01*
D02*
G37*
G36*
X01505080Y00623340D02*
X01504756D01*
X01504496Y00623275D01*
X01503849Y00623145D01*
X01503006Y00622951D01*
X01502034Y00622562D01*
X01500997Y00621979D01*
X01500414Y00621590D01*
X01499896Y00621136D01*
X01499378Y00620618D01*
X01498859Y00620035D01*
Y00619970D01*
X01498730Y00619905D01*
X01498600Y00619711D01*
X01498470Y00619452D01*
X01498276Y00619063D01*
X01498017Y00618674D01*
X01497758Y00618156D01*
X01497563Y00617637D01*
X01497304Y00616990D01*
X01497045Y00616277D01*
X01496851Y00615499D01*
X01496591Y00614657D01*
X01496462Y00613685D01*
X01496332Y00612713D01*
X01496203Y00611676D01*
Y00610510D01*
Y00610445D01*
Y00610251D01*
Y00609927D01*
X01496267Y00609473D01*
Y00608955D01*
X01496332Y00608372D01*
X01496527Y00607011D01*
X01496851Y00605456D01*
X01497239Y00603966D01*
X01497887Y00602475D01*
X01498276Y00601827D01*
X01498730Y00601244D01*
X01498859Y00601115D01*
X01499183Y00600791D01*
X01499702Y00600272D01*
X01500414Y00599754D01*
X01501322Y00599236D01*
X01502358Y00598717D01*
X01503524Y00598393D01*
X01504173Y00598328D01*
X01504820Y00598264D01*
X01505209D01*
X01505468Y00598328D01*
X01506116Y00598458D01*
X01507023Y00598652D01*
X01507995Y00599041D01*
X01509032Y00599560D01*
X01510069Y00600337D01*
X01510587Y00600791D01*
X01511106Y00601309D01*
Y00601374D01*
X01511235Y00601439D01*
X01511365Y00601633D01*
X01511494Y00601892D01*
X01511754Y00602216D01*
X01511948Y00602670D01*
X01512207Y00603123D01*
X01512466Y00603707D01*
X01512661Y00604290D01*
X01512920Y00605067D01*
X01513179Y00605845D01*
X01513373Y00606687D01*
X01513503Y00607659D01*
X01513633Y00608696D01*
X01513762Y00609797D01*
Y00610964D01*
Y00611028D01*
Y00611223D01*
Y00611547D01*
X01513697Y00612000D01*
Y00612519D01*
X01513633Y00613102D01*
X01513438Y00614463D01*
X01513114Y00615953D01*
X01512661Y00617443D01*
X01512013Y00618933D01*
X01511624Y00619646D01*
X01511170Y00620229D01*
Y00620294D01*
X01511041Y00620359D01*
X01510717Y00620748D01*
X01510199Y00621201D01*
X01509486Y00621784D01*
X01508579Y00622368D01*
X01507542Y00622886D01*
X01506375Y00623210D01*
X01505728Y00623275D01*
X01505080Y00623340D01*
D02*
G37*
G36*
X01612510Y00622432D02*
X01603893D01*
X01603504Y00622368D01*
X01603050D01*
X01602014Y00622238D01*
X01600977Y00622044D01*
X01599940Y00621784D01*
X01599033Y00621396D01*
X01598644Y00621136D01*
X01598320Y00620877D01*
X01598255Y00620812D01*
X01598126Y00620618D01*
X01597867Y00620294D01*
X01597672Y00619841D01*
X01597413Y00619322D01*
X01597154Y00618739D01*
X01597024Y00618026D01*
X01596960Y00617313D01*
Y00617184D01*
X01597024Y00616860D01*
X01597089Y00616342D01*
X01597219Y00615694D01*
X01597478Y00614981D01*
X01597867Y00614268D01*
X01598320Y00613620D01*
X01599033Y00613037D01*
X01599162Y00612972D01*
X01599422Y00612843D01*
X01599940Y00612583D01*
X01600718Y00612389D01*
X01601236Y00612259D01*
X01601754Y00612130D01*
X01602337Y00612000D01*
X01603050Y00611871D01*
X01603763Y00611806D01*
X01604605Y00611741D01*
X01605448Y00611676D01*
X01612510D01*
Y00622432D01*
D02*
G37*
G36*
X01431602Y00633966D02*
X01420975D01*
Y00620489D01*
X01431990D01*
X01432833Y00620553D01*
X01433740Y00620618D01*
X01434647Y00620683D01*
X01435554Y00620812D01*
X01436267Y00620942D01*
X01436396Y00621007D01*
X01436656Y00621072D01*
X01437044Y00621266D01*
X01437563Y00621525D01*
X01438081Y00621784D01*
X01438664Y00622173D01*
X01439247Y00622691D01*
X01439701Y00623210D01*
X01439766Y00623275D01*
X01439895Y00623469D01*
X01440090Y00623858D01*
X01440284Y00624311D01*
X01440479Y00624830D01*
X01440673Y00625478D01*
X01440803Y00626255D01*
X01440867Y00627098D01*
Y00627227D01*
Y00627486D01*
X01440803Y00627875D01*
X01440738Y00628394D01*
X01440608Y00629041D01*
X01440414Y00629689D01*
X01440155Y00630337D01*
X01439766Y00630985D01*
X01439701Y00631050D01*
X01439572Y00631245D01*
X01439312Y00631568D01*
X01438988Y00631893D01*
X01438535Y00632281D01*
X01438016Y00632670D01*
X01437368Y00633059D01*
X01436656Y00633318D01*
X01436591D01*
X01436267Y00633448D01*
X01435813Y00633512D01*
X01435101Y00633642D01*
X01434129Y00633772D01*
X01433027Y00633836D01*
X01431602Y00633966D01*
D02*
G37*
G36*
X01432768Y00615175D02*
X01420975D01*
Y00599754D01*
X01433740D01*
X01435101Y00599819D01*
X01435684Y00599883D01*
X01436202Y00599948D01*
X01436267D01*
X01436526Y00600013D01*
X01436915Y00600078D01*
X01437368Y00600207D01*
X01438470Y00600596D01*
X01439572Y00601115D01*
X01439636Y00601179D01*
X01439831Y00601309D01*
X01440090Y00601503D01*
X01440414Y00601763D01*
X01440738Y00602151D01*
X01441191Y00602540D01*
X01441515Y00603059D01*
X01441904Y00603642D01*
X01441969Y00603707D01*
X01442034Y00603901D01*
X01442163Y00604290D01*
X01442358Y00604743D01*
X01442552Y00605262D01*
X01442682Y00605910D01*
X01442746Y00606687D01*
X01442811Y00607465D01*
Y00607594D01*
Y00607853D01*
X01442746Y00608372D01*
X01442617Y00608955D01*
X01442487Y00609603D01*
X01442228Y00610316D01*
X01441904Y00611028D01*
X01441451Y00611741D01*
X01441386Y00611806D01*
X01441191Y00612065D01*
X01440932Y00612389D01*
X01440543Y00612778D01*
X01440025Y00613231D01*
X01439377Y00613685D01*
X01438664Y00614074D01*
X01437822Y00614398D01*
X01437692Y00614463D01*
X01437433Y00614527D01*
X01436850Y00614657D01*
X01436137Y00614786D01*
X01435230Y00614916D01*
X01434129Y00615046D01*
X01432768Y00615175D01*
D02*
G37*
G36*
X01469701Y00623145D02*
X01469313D01*
X01469053Y00623080D01*
X01468341Y00623016D01*
X01467498Y00622821D01*
X01466462Y00622497D01*
X01465360Y00622044D01*
X01464323Y00621396D01*
X01463287Y00620553D01*
X01463157Y00620424D01*
X01462898Y00620100D01*
X01462444Y00619516D01*
X01461991Y00618739D01*
X01461472Y00617832D01*
X01461019Y00616665D01*
X01460630Y00615305D01*
X01460436Y00613815D01*
X01478643D01*
Y00613879D01*
Y00614009D01*
X01478578Y00614203D01*
Y00614463D01*
X01478449Y00615240D01*
X01478254Y00616082D01*
X01477930Y00617119D01*
X01477606Y00618091D01*
X01477088Y00619063D01*
X01476505Y00619905D01*
Y00619970D01*
X01476375Y00620035D01*
X01476051Y00620424D01*
X01475468Y00620942D01*
X01474691Y00621525D01*
X01473719Y00622108D01*
X01472552Y00622627D01*
X01471192Y00623016D01*
X01470479Y00623080D01*
X01469701Y00623145D01*
D02*
G37*
%LPD*%
D10*
X01466500Y01127926D02*
G03*
X01466500Y01127926I-00002000J00000000D01*
G01*
D11*
X01689750Y01060300D02*
G03*
X01689750Y01060300I-00000500J00000000D01*
G01*
X01694500Y01146900D02*
G03*
X01694500Y01146900I-00001000J00000000D01*
G01*
D12*
X01043750Y01059000D02*
G03*
X01038750Y01064000I-00005000J00000000D01*
G01*
Y01043500D02*
G03*
X01043750Y01048500I00000000J00005000D01*
G01*
X01023500Y01064000D02*
G03*
X01018500Y01059000I00000000J-00005000D01*
G01*
Y01048500D02*
G03*
X01023500Y01043500I00005000J00000000D01*
G01*
X01043750Y00883467D02*
G03*
X01038750Y00888467I-00005000J00000000D01*
G01*
Y00867967D02*
G03*
X01043750Y00872967I00000000J00005000D01*
G01*
X01023500Y00888467D02*
G03*
X01018500Y00883467I00000000J-00005000D01*
G01*
Y00872967D02*
G03*
X01023500Y00867967I00005000J00000000D01*
G01*
X01178502Y00825101D02*
G03*
X01165802Y00825101I-00006350J00000000D01*
G01*
X01178502Y01000851D02*
G03*
X01165802Y01000851I-00006350J00000000D01*
G01*
X01178502Y01175101D02*
G03*
X01165802Y01175101I-00006350J00000000D01*
G01*
X01043750Y01233155D02*
G03*
X01038750Y01238155I-00005000J00000000D01*
G01*
Y01217655D02*
G03*
X01043750Y01222655I00000000J00005000D01*
G01*
X01023500Y01238155D02*
G03*
X01018500Y01233155I00000000J-00005000D01*
G01*
Y01222655D02*
G03*
X01023500Y01217655I00005000J00000000D01*
G01*
X01082000Y01338750D02*
Y01350500D01*
X01055000Y01338750D02*
Y01350500D01*
Y01338750D02*
X01063250D01*
X01073750D02*
X01082000D01*
X00972500Y01343500D02*
Y01350500D01*
X00963500Y01343500D02*
Y01350500D01*
X01020500Y01343500D02*
Y01350500D01*
X01029500Y01343500D02*
Y01350500D01*
X00992500Y01343500D02*
Y01350500D01*
X01001500Y01343500D02*
Y01350500D01*
X01103500Y01343500D02*
Y01350500D01*
X01112500Y01343500D02*
Y01350500D01*
X01142500Y01343500D02*
Y01350500D01*
X01133500Y01343500D02*
Y01350500D01*
X01473500Y01136426D02*
X01556500D01*
X01473500Y01219426D02*
X01556500D01*
X01473500Y01136426D02*
Y01219426D01*
X01556500Y01136426D02*
Y01219426D01*
X01601500Y01210926D02*
X01608500D01*
X01601500Y01219926D02*
X01608500D01*
X01545500Y01261500D02*
Y01268500D01*
X01554500Y01261500D02*
Y01268500D01*
X01570500Y01261500D02*
Y01268500D01*
X01579500Y01261500D02*
Y01268500D01*
X01529500Y01261500D02*
Y01268500D01*
X01520500Y01261500D02*
Y01268500D01*
X01692750Y01056800D02*
Y01105800D01*
X01664750Y01056800D02*
X01692750D01*
X01664750Y01105800D02*
X01692750D01*
X01664750Y01056800D02*
Y01105800D01*
X01658250Y01141400D02*
Y01241650D01*
X01699250D01*
Y01141400D02*
Y01241650D01*
X01658250Y01141400D02*
X01699250D01*
X01482000Y01261500D02*
Y01268500D01*
X01473000Y01261500D02*
Y01268500D01*
X01381750Y01208801D02*
X01390000D01*
Y01147301D02*
Y01208801D01*
X01382000Y01147301D02*
X01390000D01*
X01355000Y01147551D02*
X01363250D01*
X01355000D02*
Y01208551D01*
X01363250D01*
X01421500Y01204500D02*
X01428500D01*
X01421500Y01195500D02*
X01428500D01*
X01421500Y01174500D02*
X01428500D01*
X01421500Y01165500D02*
X01428500D01*
X01421500Y01144926D02*
X01428500D01*
X01421500Y01135926D02*
X01428500D01*
X01424250Y01073500D02*
X01445000D01*
X01424250D02*
Y01096500D01*
X01445000D01*
X01369000Y01105426D02*
X01376000D01*
X01369000Y01114426D02*
X01376000D01*
X01371000Y01036500D02*
X01382750D01*
X01371000Y01063500D02*
X01382750D01*
X01371000Y01055250D02*
Y01063500D01*
Y01036500D02*
Y01044750D01*
X01340500Y01046500D02*
Y01053500D01*
X01349500Y01046500D02*
Y01053500D01*
X01410500Y01046500D02*
Y01053500D01*
X01419500Y01046500D02*
Y01053500D01*
X01475000Y01100000D02*
X01525000D01*
X01475000Y01070000D02*
X01525000D01*
X01575500Y01086500D02*
Y01093500D01*
X01584500Y01086500D02*
Y01093500D01*
X01550500Y01086500D02*
Y01093500D01*
X01559500Y01086500D02*
Y01093500D01*
X01524500Y01039000D02*
Y01046000D01*
X01515500Y01039000D02*
Y01046000D01*
X01484500Y01039000D02*
Y01046000D01*
X01475500Y01039000D02*
Y01046000D01*
X01043750Y01048500D02*
Y01059000D01*
X01018500Y01048500D02*
Y01059000D01*
X01023500Y01043500D02*
X01038750D01*
X01023500Y01064000D02*
X01038750D01*
X00950500Y01040347D02*
Y01048597D01*
Y01059097D02*
Y01067347D01*
X00962250D01*
X00950500Y01040347D02*
X00962250D01*
X01100500Y00942750D02*
Y00949750D01*
X01091500Y00942750D02*
Y00949750D01*
X00950500Y00864813D02*
Y00873063D01*
Y00883563D02*
Y00891813D01*
X00962250D01*
X00950500Y00864813D02*
X00962250D01*
X01043750Y00872967D02*
Y00883467D01*
X01018500Y00872967D02*
Y00883467D01*
X01023500Y00867967D02*
X01038750D01*
X01023500Y00888467D02*
X01038750D01*
X01100500Y00837951D02*
Y00844951D01*
X01091500Y00837951D02*
Y00844951D01*
X01067500Y00942750D02*
Y00949750D01*
X01076500Y00942750D02*
Y00949750D01*
Y00837951D02*
Y00844951D01*
X01067500Y00837951D02*
Y00844951D01*
X01275500Y01013701D02*
Y01020701D01*
X01266500Y01013701D02*
Y01020701D01*
X01253500Y01013701D02*
Y01020701D01*
X01244500Y01013701D02*
Y01020701D01*
X01275500Y00837951D02*
Y00844951D01*
X01266500Y00837951D02*
Y00844951D01*
X01253500Y00837951D02*
Y00844951D01*
X01244500Y00837951D02*
Y00844951D01*
X01178502Y00825101D02*
X01206965D01*
X01137234D02*
X01165802D01*
X01206965D02*
Y00931101D01*
X01137234D02*
X01206965D01*
X01137234Y00825101D02*
Y00931101D01*
X01178502Y01000851D02*
X01206965D01*
X01137234D02*
X01165802D01*
X01206965D02*
Y01106851D01*
X01137234D02*
X01206965D01*
X01137234Y01000851D02*
Y01106851D01*
Y01175101D02*
Y01281101D01*
X01206965D01*
Y01175101D02*
Y01281101D01*
X01137234Y01175101D02*
X01165802D01*
X01178502D02*
X01206965D01*
X01275500Y01186750D02*
Y01193750D01*
X01266500Y01186750D02*
Y01193750D01*
X01244500Y01186750D02*
Y01193750D01*
X01253500Y01186750D02*
Y01193750D01*
X00957450Y01289000D02*
X00964450D01*
X00957450Y01280000D02*
X00964450D01*
X00957450Y01270750D02*
X00964450D01*
X00957450Y01261750D02*
X00964450D01*
X00950500Y01214502D02*
Y01222752D01*
Y01233252D02*
Y01241502D01*
X00962250D01*
X00950500Y01214502D02*
X00962250D01*
X00957450Y01186951D02*
X00964450D01*
X00957450Y01195951D02*
X00964450D01*
X01043750Y01222655D02*
Y01233155D01*
X01018500Y01222655D02*
Y01233155D01*
X01023500Y01217655D02*
X01038750D01*
X01023500Y01238155D02*
X01038750D01*
X01046500Y01258500D02*
Y01274000D01*
X01015500Y01258500D02*
Y01274000D01*
Y01258500D02*
X01046500D01*
X01015500Y01274000D02*
X01046500D01*
X01015500Y01183701D02*
Y01199201D01*
X01046500Y01183701D02*
Y01199201D01*
X01015500D02*
X01046500D01*
X01015500Y01183701D02*
X01046500D01*
X01091500Y01292750D02*
Y01299750D01*
X01100500Y01292750D02*
Y01299750D01*
X01076500Y01292750D02*
Y01299750D01*
X01067500Y01292750D02*
Y01299750D01*
X01091500Y01187951D02*
Y01194951D01*
X01100500Y01187951D02*
Y01194951D01*
X01067500Y01187951D02*
Y01194951D01*
X01076500Y01187951D02*
Y01194951D01*
X01100500Y01118500D02*
Y01125500D01*
X01091500Y01118500D02*
Y01125500D01*
X01067500Y01118500D02*
Y01125500D01*
X01076500Y01118500D02*
Y01125500D01*
X01100500Y01013701D02*
Y01020701D01*
X01091500Y01013701D02*
Y01020701D01*
X01076500Y01013701D02*
Y01020701D01*
X01067500Y01013701D02*
Y01020701D01*
X01451500Y01297300D02*
Y01322700D01*
X01578500D01*
X01451500Y01297300D02*
X01578500D01*
Y01322700D01*
X00757686Y00619438D02*
Y00625938D01*
Y00619438D02*
X00831936D01*
Y00625938D01*
X00757750Y00660000D02*
Y00666500D01*
X00832000D01*
Y00660000D02*
Y00666500D01*
X00744500Y00643000D02*
X00750000D01*
X00747250Y00640000D02*
Y00646000D01*
X00832314Y00740062D02*
Y00746562D01*
X00758064D02*
X00832314D01*
X00758064Y00740062D02*
Y00746562D01*
X00832250Y00699500D02*
Y00706000D01*
X00758000Y00699500D02*
X00832250D01*
X00758000D02*
Y00706000D01*
X00840000Y00723000D02*
X00845500D01*
X00842750Y00720000D02*
Y00726000D01*
X00873500Y00711700D02*
Y00718700D01*
X00864500Y00711700D02*
Y00718700D01*
X01363750Y00825975D02*
Y00832975D01*
X01372750Y00825975D02*
Y00832975D01*
Y00985975D02*
Y00992975D01*
X01363750Y00985975D02*
Y00992975D01*
X01397750Y00905975D02*
Y00912975D01*
X01388750Y00905975D02*
Y00912975D01*
X01363750Y00905975D02*
Y00912975D01*
X01372750Y00905975D02*
Y00912975D01*
X01397750Y00985975D02*
Y00992975D01*
X01388750Y00985975D02*
Y00992975D01*
X01386500Y00874725D02*
Y00882975D01*
Y00855975D02*
Y00864225D01*
X01374750Y00855975D02*
X01386500D01*
X01374750Y00882975D02*
X01386500D01*
Y00954225D02*
Y00962475D01*
Y00935475D02*
Y00943725D01*
X01374750Y00935475D02*
X01386500D01*
X01374750Y00962475D02*
X01386500D01*
X01672750Y00905375D02*
Y00912375D01*
X01663750Y00905375D02*
Y00912375D01*
X01697750Y00905375D02*
Y00912375D01*
X01688750Y00905375D02*
Y00912375D01*
X01686500Y00954225D02*
Y00962475D01*
Y00935475D02*
Y00943725D01*
X01674750Y00935475D02*
X01686500D01*
X01674750Y00962475D02*
X01686500D01*
X01697750Y00985975D02*
Y00992975D01*
X01688750Y00985975D02*
Y00992975D01*
X01672750Y00985975D02*
Y00992975D01*
X01663750Y00985975D02*
Y00992975D01*
X01552750Y00985975D02*
Y00992975D01*
X01543750Y00985975D02*
Y00992975D01*
Y00905975D02*
Y00912975D01*
X01552750Y00905975D02*
Y00912975D01*
X01543750Y00825975D02*
Y00832975D01*
X01552750Y00825975D02*
Y00832975D01*
X01577750Y00905975D02*
Y00912975D01*
X01568750Y00905975D02*
Y00912975D01*
X01577750Y00985975D02*
Y00992975D01*
X01568750Y00985975D02*
Y00992975D01*
X01566500Y00874725D02*
Y00882975D01*
Y00855975D02*
Y00864225D01*
X01554750Y00855975D02*
X01566500D01*
X01554750Y00882975D02*
X01566500D01*
Y00954225D02*
Y00962475D01*
Y00935475D02*
Y00943725D01*
X01554750Y00935475D02*
X01566500D01*
X01554750Y00962475D02*
X01566500D01*
X01483750Y00825975D02*
Y00832975D01*
X01492750Y00825975D02*
Y00832975D01*
Y00985975D02*
Y00992975D01*
X01483750Y00985975D02*
Y00992975D01*
Y00905975D02*
Y00912975D01*
X01492750Y00905975D02*
Y00912975D01*
X01517750Y00905975D02*
Y00912975D01*
X01508750Y00905975D02*
Y00912975D01*
X01517750Y00985975D02*
Y00992975D01*
X01508750Y00985975D02*
Y00992975D01*
X01506500Y00954225D02*
Y00962475D01*
Y00935475D02*
Y00943725D01*
X01494750Y00935475D02*
X01506500D01*
X01494750Y00962475D02*
X01506500D01*
Y00874725D02*
Y00882975D01*
Y00855975D02*
Y00864225D01*
X01494750Y00855975D02*
X01506500D01*
X01494750Y00882975D02*
X01506500D01*
X01768500Y01039300D02*
Y01046300D01*
X01777500Y01039300D02*
Y01046300D01*
X01818500Y01039300D02*
Y01046300D01*
X01827500Y01039300D02*
Y01046300D01*
X01802500Y01039300D02*
Y01046300D01*
X01793500Y01039300D02*
Y01046300D01*
X01768500Y00989300D02*
Y00996300D01*
X01777500Y00989300D02*
Y00996300D01*
X01818500Y00989300D02*
Y00996300D01*
X01827500Y00989300D02*
Y00996300D01*
X01802500Y00989300D02*
Y00996300D01*
X01793500Y00989300D02*
Y00996300D01*
X01768500Y00939300D02*
Y00946300D01*
X01777500Y00939300D02*
Y00946300D01*
X01818500Y00939300D02*
Y00946300D01*
X01827500Y00939300D02*
Y00946300D01*
X01802500Y00939300D02*
Y00946300D01*
X01793500Y00939300D02*
Y00946300D01*
X01818500Y00889300D02*
Y00896300D01*
X01827500Y00889300D02*
Y00896300D01*
X01802500Y00889300D02*
Y00896300D01*
X01793500Y00889300D02*
Y00896300D01*
X01768500Y00889300D02*
Y00896300D01*
X01777500Y00889300D02*
Y00896300D01*
X01446500Y00954225D02*
Y00962475D01*
Y00935475D02*
Y00943725D01*
X01434750Y00935475D02*
X01446500D01*
X01434750Y00962475D02*
X01446500D01*
Y00874725D02*
Y00882975D01*
Y00855975D02*
Y00864225D01*
X01434750Y00855975D02*
X01446500D01*
X01434750Y00882975D02*
X01446500D01*
X01457750Y00905975D02*
Y00912975D01*
X01448750Y00905975D02*
Y00912975D01*
X01423750Y00825975D02*
Y00832975D01*
X01432750Y00825975D02*
Y00832975D01*
X01423750Y00905975D02*
Y00912975D01*
X01432750Y00905975D02*
Y00912975D01*
Y00985975D02*
Y00992975D01*
X01423750Y00985975D02*
Y00992975D01*
X01457750Y00985975D02*
Y00992975D01*
X01448750Y00985975D02*
Y00992975D01*
X01781500Y01227600D02*
X01788500D01*
X01781500Y01218600D02*
X01788500D01*
X01741500Y01240300D02*
X01748500D01*
X01741500Y01231300D02*
X01748500D01*
X01781500Y01202200D02*
X01788500D01*
X01781500Y01193200D02*
X01788500D01*
X01781500Y01151400D02*
X01788500D01*
X01781500Y01142400D02*
X01788500D01*
X01824300Y01189500D02*
X01831300D01*
X01824300Y01180500D02*
X01831300D01*
X01866500Y01176800D02*
X01873500D01*
X01866500Y01167800D02*
X01873500D01*
X01824300Y01164100D02*
X01831300D01*
X01824300Y01155100D02*
X01831300D01*
X01866500Y01227600D02*
X01873500D01*
X01866500Y01218600D02*
X01873500D01*
X01824300Y01240300D02*
X01831300D01*
X01824300Y01231300D02*
X01831300D01*
X01866500Y01202200D02*
X01873500D01*
X01866500Y01193200D02*
X01873500D01*
X01824300Y01214900D02*
X01831300D01*
X01824300Y01205900D02*
X01831300D01*
X01741500Y01164100D02*
X01748500D01*
X01741500Y01155100D02*
X01748500D01*
X01781500Y01176800D02*
X01788500D01*
X01781500Y01167800D02*
X01788500D01*
X01741500Y01189500D02*
X01748500D01*
X01741500Y01180500D02*
X01748500D01*
X01741500Y01214900D02*
X01748500D01*
X01741500Y01205900D02*
X01748500D01*
X01866500Y01151400D02*
X01873500D01*
X01866500Y01142400D02*
X01873500D01*
X01216250Y00666500D02*
Y00731500D01*
X01231000Y00738500D02*
X01239000D01*
X01235000Y00734500D02*
Y00742500D01*
X01254000Y00666500D02*
Y00731500D01*
X01186500Y00711700D02*
Y00718700D01*
X01177500Y00711700D02*
Y00718700D01*
X01433875Y01276500D02*
Y01306500D01*
X01416125Y01276500D02*
Y01306500D01*
X01432875D02*
X01433875D01*
X01416125D02*
X01417375D01*
X01416125Y01276500D02*
X01417375D01*
X01432875D02*
X01433875D01*
X01601500Y01154926D02*
X01608500D01*
X01601500Y01145926D02*
X01608500D01*
X01369000Y01241426D02*
X01376000D01*
X01369000Y01250426D02*
X01376000D01*
D13*
X00520000Y01376500D02*
G03*
X00500000Y01356500I00000000J-00020000D01*
G01*
X00670000D02*
G03*
X00650000Y01376500I-00020000J00000000D01*
G01*
X00500000Y00696500D02*
G03*
X00520000Y00676500I00020000J00000000D01*
G01*
X00650000D02*
G03*
X00670000Y00696500I00000000J00020000D01*
G01*
X00520000Y01376500D02*
X00650000D01*
X00520000Y00676500D02*
X00650000D01*
X00670000Y00696500D02*
Y01356500D01*
X00500000Y00696500D02*
Y01356500D01*
D14*
X01147986Y00734102D02*
G03*
X01137600Y00743700I-00009992J-00000394D01*
G01*
X01139600Y00600700D02*
G03*
X01147968Y00610961I-00001625J00009867D01*
G01*
X00902964Y00610298D02*
G03*
X00913350Y00600700I00009992J00000394D01*
G01*
X00912600Y00743700D02*
G03*
X00903002Y00733314I00000394J-00009992D01*
G01*
X01148000Y00610086D02*
Y00734102D01*
X00912098Y00743700D02*
X01138114D01*
X00912886Y00600700D02*
X01139988D01*
X00903000Y00609298D02*
Y00733314D01*
X01788916Y01033638D02*
X01781918D01*
Y01037137D01*
X01783084Y01038303D01*
X01785417D01*
X01786583Y01037137D01*
Y01033638D01*
Y01035971D02*
X01788916Y01038303D01*
Y01045301D02*
Y01040636D01*
X01784250Y01045301D01*
X01783084D01*
X01781918Y01044135D01*
Y01041802D01*
X01783084Y01040636D01*
X01781918Y01052299D02*
X01783084Y01049966D01*
X01785417Y01047634D01*
X01787749D01*
X01788916Y01048800D01*
Y01051133D01*
X01787749Y01052299D01*
X01786583D01*
X01785417Y01051133D01*
Y01047634D01*
X01790082Y01054631D02*
Y01059297D01*
X01788916Y01065128D02*
X01781918D01*
X01785417Y01061629D01*
Y01066294D01*
X01788916Y00983638D02*
X01781918D01*
Y00987137D01*
X01783084Y00988303D01*
X01785417D01*
X01786583Y00987137D01*
Y00983638D01*
Y00985971D02*
X01788916Y00988303D01*
Y00995301D02*
Y00990636D01*
X01784250Y00995301D01*
X01783084D01*
X01781918Y00994135D01*
Y00991802D01*
X01783084Y00990636D01*
X01781918Y01002299D02*
X01783084Y00999966D01*
X01785417Y00997634D01*
X01787749D01*
X01788916Y00998800D01*
Y01001133D01*
X01787749Y01002299D01*
X01786583D01*
X01785417Y01001133D01*
Y00997634D01*
X01790082Y01004631D02*
Y01009297D01*
X01783084Y01011629D02*
X01781918Y01012795D01*
Y01015128D01*
X01783084Y01016294D01*
X01784250D01*
X01785417Y01015128D01*
Y01013962D01*
Y01015128D01*
X01786583Y01016294D01*
X01787749D01*
X01788916Y01015128D01*
Y01012795D01*
X01787749Y01011629D01*
X01788916Y00933638D02*
X01781918D01*
Y00937137D01*
X01783084Y00938303D01*
X01785417D01*
X01786583Y00937137D01*
Y00933638D01*
Y00935971D02*
X01788916Y00938303D01*
Y00945301D02*
Y00940636D01*
X01784251Y00945301D01*
X01783084D01*
X01781918Y00944135D01*
Y00941802D01*
X01783084Y00940636D01*
X01781918Y00952299D02*
X01783084Y00949966D01*
X01785417Y00947634D01*
X01787749D01*
X01788916Y00948800D01*
Y00951133D01*
X01787749Y00952299D01*
X01786583D01*
X01785417Y00951133D01*
Y00947634D01*
X01790082Y00954631D02*
Y00959297D01*
X01788916Y00966294D02*
Y00961629D01*
X01784251Y00966294D01*
X01783084D01*
X01781918Y00965128D01*
Y00962795D01*
X01783084Y00961629D01*
X01788916Y00883638D02*
X01781918D01*
Y00887137D01*
X01783084Y00888303D01*
X01785417D01*
X01786583Y00887137D01*
Y00883638D01*
Y00885971D02*
X01788916Y00888303D01*
Y00895301D02*
Y00890636D01*
X01784251Y00895301D01*
X01783084D01*
X01781918Y00894135D01*
Y00891802D01*
X01783084Y00890636D01*
X01781918Y00902299D02*
X01783084Y00899966D01*
X01785417Y00897634D01*
X01787749D01*
X01788916Y00898800D01*
Y00901133D01*
X01787749Y00902299D01*
X01786583D01*
X01785417Y00901133D01*
Y00897634D01*
X01790082Y00904631D02*
Y00909297D01*
X01788916Y00911629D02*
Y00913962D01*
Y00912795D01*
X01781918D01*
X01783084Y00911629D01*
X01813916Y01034638D02*
X01806918D01*
Y01038137D01*
X01808084Y01039303D01*
X01810417D01*
X01811583Y01038137D01*
Y01034638D01*
Y01036971D02*
X01813916Y01039303D01*
Y01046301D02*
Y01041636D01*
X01809250Y01046301D01*
X01808084D01*
X01806918Y01045135D01*
Y01042802D01*
X01808084Y01041636D01*
X01806918Y01053299D02*
Y01048634D01*
X01810417D01*
X01809250Y01050966D01*
Y01052133D01*
X01810417Y01053299D01*
X01812749D01*
X01813916Y01052133D01*
Y01049800D01*
X01812749Y01048634D01*
X01815082Y01055631D02*
Y01060297D01*
X01813916Y01066128D02*
X01806918D01*
X01810417Y01062629D01*
Y01067294D01*
X01813916Y00984638D02*
X01806918D01*
Y00988137D01*
X01808084Y00989303D01*
X01810417D01*
X01811583Y00988137D01*
Y00984638D01*
Y00986971D02*
X01813916Y00989303D01*
Y00996301D02*
Y00991636D01*
X01809250Y00996301D01*
X01808084D01*
X01806918Y00995135D01*
Y00992802D01*
X01808084Y00991636D01*
X01806918Y01003299D02*
Y00998634D01*
X01810417D01*
X01809250Y01000966D01*
Y01002133D01*
X01810417Y01003299D01*
X01812749D01*
X01813916Y01002133D01*
Y00999800D01*
X01812749Y00998634D01*
X01815082Y01005631D02*
Y01010297D01*
X01808084Y01012629D02*
X01806918Y01013795D01*
Y01016128D01*
X01808084Y01017294D01*
X01809250D01*
X01810417Y01016128D01*
Y01014962D01*
Y01016128D01*
X01811583Y01017294D01*
X01812749D01*
X01813916Y01016128D01*
Y01013795D01*
X01812749Y01012629D01*
X01813916Y00934638D02*
X01806918D01*
Y00938137D01*
X01808084Y00939303D01*
X01810417D01*
X01811583Y00938137D01*
Y00934638D01*
Y00936971D02*
X01813916Y00939303D01*
Y00946301D02*
Y00941636D01*
X01809251Y00946301D01*
X01808084D01*
X01806918Y00945135D01*
Y00942802D01*
X01808084Y00941636D01*
X01806918Y00953299D02*
Y00948634D01*
X01810417D01*
X01809251Y00950966D01*
Y00952132D01*
X01810417Y00953299D01*
X01812749D01*
X01813916Y00952132D01*
Y00949800D01*
X01812749Y00948634D01*
X01815082Y00955631D02*
Y00960297D01*
X01813916Y00967294D02*
Y00962629D01*
X01809251Y00967294D01*
X01808084D01*
X01806918Y00966128D01*
Y00963795D01*
X01808084Y00962629D01*
X01813916Y00884638D02*
X01806918D01*
Y00888137D01*
X01808084Y00889303D01*
X01810417D01*
X01811583Y00888137D01*
Y00884638D01*
Y00886971D02*
X01813916Y00889303D01*
Y00896301D02*
Y00891636D01*
X01809251Y00896301D01*
X01808084D01*
X01806918Y00895135D01*
Y00892802D01*
X01808084Y00891636D01*
X01806918Y00903299D02*
Y00898634D01*
X01810417D01*
X01809251Y00900966D01*
Y00902132D01*
X01810417Y00903299D01*
X01812749D01*
X01813916Y00902132D01*
Y00899800D01*
X01812749Y00898634D01*
X01815082Y00905631D02*
Y00910297D01*
X01813916Y00912629D02*
Y00914962D01*
Y00913795D01*
X01806918D01*
X01808084Y00912629D01*
X01758084Y01038303D02*
X01756918Y01037137D01*
Y01034805D01*
X01758084Y01033638D01*
X01762749D01*
X01763916Y01034805D01*
Y01037137D01*
X01762749Y01038303D01*
X01758084Y01040636D02*
X01756918Y01041802D01*
Y01044135D01*
X01758084Y01045301D01*
X01759250D01*
X01760417Y01044135D01*
Y01042969D01*
Y01044135D01*
X01761583Y01045301D01*
X01762749D01*
X01763916Y01044135D01*
Y01041802D01*
X01762749Y01040636D01*
X01758084Y01047634D02*
X01756918Y01048800D01*
Y01051133D01*
X01758084Y01052299D01*
X01759250D01*
X01760417Y01051133D01*
X01761583Y01052299D01*
X01762749D01*
X01763916Y01051133D01*
Y01048800D01*
X01762749Y01047634D01*
X01761583D01*
X01760417Y01048800D01*
X01759250Y01047634D01*
X01758084D01*
X01760417Y01048800D02*
Y01051133D01*
X01765082Y01054631D02*
Y01059297D01*
X01763916Y01065128D02*
X01756918D01*
X01760417Y01061629D01*
Y01066294D01*
X01758084Y00988303D02*
X01756918Y00987137D01*
Y00984805D01*
X01758084Y00983638D01*
X01762749D01*
X01763916Y00984805D01*
Y00987137D01*
X01762749Y00988303D01*
X01758084Y00990636D02*
X01756918Y00991802D01*
Y00994135D01*
X01758084Y00995301D01*
X01759250D01*
X01760417Y00994135D01*
Y00992969D01*
Y00994135D01*
X01761583Y00995301D01*
X01762749D01*
X01763916Y00994135D01*
Y00991802D01*
X01762749Y00990636D01*
X01758084Y00997634D02*
X01756918Y00998800D01*
Y01001133D01*
X01758084Y01002299D01*
X01759250D01*
X01760417Y01001133D01*
X01761583Y01002299D01*
X01762749D01*
X01763916Y01001133D01*
Y00998800D01*
X01762749Y00997634D01*
X01761583D01*
X01760417Y00998800D01*
X01759250Y00997634D01*
X01758084D01*
X01760417Y00998800D02*
Y01001133D01*
X01765082Y01004631D02*
Y01009297D01*
X01758084Y01011629D02*
X01756918Y01012795D01*
Y01015128D01*
X01758084Y01016294D01*
X01759250D01*
X01760417Y01015128D01*
Y01013962D01*
Y01015128D01*
X01761583Y01016294D01*
X01762749D01*
X01763916Y01015128D01*
Y01012795D01*
X01762749Y01011629D01*
X01758084Y00938303D02*
X01756918Y00937137D01*
Y00934805D01*
X01758084Y00933638D01*
X01762749D01*
X01763916Y00934805D01*
Y00937137D01*
X01762749Y00938303D01*
X01758084Y00940636D02*
X01756918Y00941802D01*
Y00944135D01*
X01758084Y00945301D01*
X01759251D01*
X01760417Y00944135D01*
Y00942969D01*
Y00944135D01*
X01761583Y00945301D01*
X01762749D01*
X01763916Y00944135D01*
Y00941802D01*
X01762749Y00940636D01*
X01758084Y00947634D02*
X01756918Y00948800D01*
Y00951133D01*
X01758084Y00952299D01*
X01759251D01*
X01760417Y00951133D01*
X01761583Y00952299D01*
X01762749D01*
X01763916Y00951133D01*
Y00948800D01*
X01762749Y00947634D01*
X01761583D01*
X01760417Y00948800D01*
X01759251Y00947634D01*
X01758084D01*
X01760417Y00948800D02*
Y00951133D01*
X01765082Y00954631D02*
Y00959297D01*
X01763916Y00966294D02*
Y00961629D01*
X01759251Y00966294D01*
X01758084D01*
X01756918Y00965128D01*
Y00962795D01*
X01758084Y00961629D01*
X01758084Y00888303D02*
X01756918Y00887137D01*
Y00884805D01*
X01758084Y00883638D01*
X01762749D01*
X01763916Y00884805D01*
Y00887137D01*
X01762749Y00888303D01*
X01758084Y00890636D02*
X01756918Y00891802D01*
Y00894135D01*
X01758084Y00895301D01*
X01759250D01*
X01760417Y00894135D01*
Y00892969D01*
Y00894135D01*
X01761583Y00895301D01*
X01762749D01*
X01763916Y00894135D01*
Y00891802D01*
X01762749Y00890636D01*
X01758084Y00897634D02*
X01756918Y00898800D01*
Y00901133D01*
X01758084Y00902299D01*
X01759250D01*
X01760417Y00901133D01*
X01761583Y00902299D01*
X01762749D01*
X01763916Y00901133D01*
Y00898800D01*
X01762749Y00897634D01*
X01761583D01*
X01760417Y00898800D01*
X01759250Y00897634D01*
X01758084D01*
X01760417Y00898800D02*
Y00901133D01*
X01765082Y00904631D02*
Y00909297D01*
X01763916Y00911629D02*
Y00913962D01*
Y00912795D01*
X01756918D01*
X01758084Y00911629D01*
X01660499Y00983168D02*
X01653501D01*
Y00986667D01*
X01654667Y00987834D01*
X01657000D01*
X01658166Y00986667D01*
Y00983168D01*
Y00985501D02*
X01660499Y00987834D01*
X01654667Y00990166D02*
X01653501Y00991333D01*
Y00993665D01*
X01654667Y00994831D01*
X01655834D01*
X01657000Y00993665D01*
Y00992499D01*
Y00993665D01*
X01658166Y00994831D01*
X01659332D01*
X01660499Y00993665D01*
Y00991333D01*
X01659332Y00990166D01*
X01661499Y00902169D02*
X01654501D01*
Y00905667D01*
X01655667Y00906834D01*
X01658000D01*
X01659166Y00905667D01*
Y00902169D01*
Y00904501D02*
X01661499Y00906834D01*
Y00912665D02*
X01654501D01*
X01658000Y00909166D01*
Y00913831D01*
X01685499Y00903335D02*
X01678501D01*
Y00906834D01*
X01679667Y00908000D01*
X01682000D01*
X01683166Y00906834D01*
Y00903335D01*
Y00905667D02*
X01685499Y00908000D01*
Y00910333D02*
Y00912665D01*
Y00911499D01*
X01678501D01*
X01679667Y00910333D01*
X01685499Y00984168D02*
X01678501D01*
Y00987667D01*
X01679667Y00988834D01*
X01682000D01*
X01683166Y00987667D01*
Y00984168D01*
Y00986501D02*
X01685499Y00988834D01*
Y00995832D02*
Y00991166D01*
X01680834Y00995832D01*
X01679667D01*
X01678501Y00994665D01*
Y00992333D01*
X01679667Y00991166D01*
X01540166Y00976930D02*
X01533168D01*
Y00980429D01*
X01534334Y00981595D01*
X01536667D01*
X01537833Y00980429D01*
Y00976930D01*
Y00979263D02*
X01540166Y00981595D01*
Y00988593D02*
Y00983928D01*
X01535501Y00988593D01*
X01534334D01*
X01533168Y00987427D01*
Y00985094D01*
X01534334Y00983928D01*
X01540166Y00990926D02*
Y00993258D01*
Y00992092D01*
X01533168D01*
X01534334Y00990926D01*
X01541332Y00996757D02*
Y01001422D01*
X01540166Y01007254D02*
X01533168D01*
X01536667Y01003755D01*
Y01008420D01*
X01540166Y00896347D02*
X01533168D01*
Y00899846D01*
X01534334Y00901012D01*
X01536667D01*
X01537833Y00899846D01*
Y00896347D01*
Y00898680D02*
X01540166Y00901012D01*
Y00908010D02*
Y00903345D01*
X01535500Y00908010D01*
X01534334D01*
X01533168Y00906844D01*
Y00904511D01*
X01534334Y00903345D01*
Y00910342D02*
X01533168Y00911509D01*
Y00913841D01*
X01534334Y00915008D01*
X01535500D01*
X01536667Y00913841D01*
Y00912675D01*
Y00913841D01*
X01537833Y00915008D01*
X01538999D01*
X01540166Y00913841D01*
Y00911509D01*
X01538999Y00910342D01*
X01541332Y00917340D02*
Y00922005D01*
X01540166Y00927837D02*
X01533168D01*
X01536667Y00924338D01*
Y00929003D01*
X01540166Y00816347D02*
X01533168D01*
Y00819846D01*
X01534334Y00821012D01*
X01536667D01*
X01537833Y00819846D01*
Y00816347D01*
Y00818680D02*
X01540166Y00821012D01*
Y00828010D02*
Y00823345D01*
X01535500Y00828010D01*
X01534334D01*
X01533168Y00826844D01*
Y00824511D01*
X01534334Y00823345D01*
X01540166Y00833841D02*
X01533168D01*
X01536667Y00830342D01*
Y00835008D01*
X01541332Y00837340D02*
Y00842005D01*
X01540166Y00847837D02*
X01533168D01*
X01536667Y00844338D01*
Y00849003D01*
X01565166Y00896347D02*
X01558168D01*
Y00899846D01*
X01559334Y00901012D01*
X01561667D01*
X01562833Y00899846D01*
Y00896347D01*
Y00898680D02*
X01565166Y00901012D01*
Y00908010D02*
Y00903345D01*
X01560500Y00908010D01*
X01559334D01*
X01558168Y00906844D01*
Y00904511D01*
X01559334Y00903345D01*
Y00910342D02*
X01558168Y00911509D01*
Y00913841D01*
X01559334Y00915008D01*
X01563999D01*
X01565166Y00913841D01*
Y00911509D01*
X01563999Y00910342D01*
X01559334D01*
X01566332Y00917340D02*
Y00922005D01*
X01565166Y00927837D02*
X01558168D01*
X01561667Y00924338D01*
Y00929003D01*
X01565166Y00976347D02*
X01558168D01*
Y00979846D01*
X01559334Y00981012D01*
X01561667D01*
X01562833Y00979846D01*
Y00976347D01*
Y00978680D02*
X01565166Y00981012D01*
Y00988010D02*
Y00983345D01*
X01560500Y00988010D01*
X01559334D01*
X01558168Y00986844D01*
Y00984511D01*
X01559334Y00983345D01*
X01565166Y00995008D02*
Y00990342D01*
X01560500Y00995008D01*
X01559334D01*
X01558168Y00993841D01*
Y00991509D01*
X01559334Y00990342D01*
X01566332Y00997340D02*
Y01002005D01*
X01565166Y01007837D02*
X01558168D01*
X01561667Y01004338D01*
Y01009003D01*
X01480166Y00816347D02*
X01473168D01*
Y00819846D01*
X01474334Y00821012D01*
X01476667D01*
X01477833Y00819846D01*
Y00816347D01*
Y00818680D02*
X01480166Y00821012D01*
Y00828010D02*
Y00823345D01*
X01475501Y00828010D01*
X01474334D01*
X01473168Y00826844D01*
Y00824511D01*
X01474334Y00823345D01*
X01480166Y00833841D02*
X01473168D01*
X01476667Y00830342D01*
Y00835008D01*
X01481332Y00837340D02*
Y00842005D01*
X01474334Y00844338D02*
X01473168Y00845504D01*
Y00847837D01*
X01474334Y00849003D01*
X01475501D01*
X01476667Y00847837D01*
Y00846671D01*
Y00847837D01*
X01477833Y00849003D01*
X01478999D01*
X01480166Y00847837D01*
Y00845504D01*
X01478999Y00844338D01*
X01480166Y00976930D02*
X01473168D01*
Y00980429D01*
X01474334Y00981595D01*
X01476667D01*
X01477833Y00980429D01*
Y00976930D01*
Y00979263D02*
X01480166Y00981595D01*
Y00988593D02*
Y00983928D01*
X01475501Y00988593D01*
X01474334D01*
X01473168Y00987427D01*
Y00985094D01*
X01474334Y00983928D01*
X01480166Y00990926D02*
Y00993258D01*
Y00992092D01*
X01473168D01*
X01474334Y00990926D01*
X01481332Y00996757D02*
Y01001422D01*
X01474334Y01003755D02*
X01473168Y01004921D01*
Y01007254D01*
X01474334Y01008420D01*
X01475501D01*
X01476667Y01007254D01*
Y01006087D01*
Y01007254D01*
X01477833Y01008420D01*
X01478999D01*
X01480166Y01007254D01*
Y01004921D01*
X01478999Y01003755D01*
X01480166Y00896347D02*
X01473168D01*
Y00899846D01*
X01474334Y00901012D01*
X01476667D01*
X01477833Y00899846D01*
Y00896347D01*
Y00898680D02*
X01480166Y00901012D01*
Y00908010D02*
Y00903345D01*
X01475501Y00908010D01*
X01474334D01*
X01473168Y00906844D01*
Y00904511D01*
X01474334Y00903345D01*
Y00910342D02*
X01473168Y00911509D01*
Y00913841D01*
X01474334Y00915008D01*
X01475501D01*
X01476667Y00913841D01*
Y00912675D01*
Y00913841D01*
X01477833Y00915008D01*
X01478999D01*
X01480166Y00913841D01*
Y00911509D01*
X01478999Y00910342D01*
X01481332Y00917340D02*
Y00922005D01*
X01474334Y00924338D02*
X01473168Y00925504D01*
Y00927837D01*
X01474334Y00929003D01*
X01475501D01*
X01476667Y00927837D01*
Y00926671D01*
Y00927837D01*
X01477833Y00929003D01*
X01478999D01*
X01480166Y00927837D01*
Y00925504D01*
X01478999Y00924338D01*
X01505166Y00896347D02*
X01498168D01*
Y00899846D01*
X01499334Y00901012D01*
X01501667D01*
X01502833Y00899846D01*
Y00896347D01*
Y00898680D02*
X01505166Y00901012D01*
Y00908010D02*
Y00903345D01*
X01500501Y00908010D01*
X01499334D01*
X01498168Y00906844D01*
Y00904511D01*
X01499334Y00903345D01*
Y00910342D02*
X01498168Y00911509D01*
Y00913841D01*
X01499334Y00915008D01*
X01503999D01*
X01505166Y00913841D01*
Y00911509D01*
X01503999Y00910342D01*
X01499334D01*
X01506332Y00917340D02*
Y00922005D01*
X01499334Y00924338D02*
X01498168Y00925504D01*
Y00927837D01*
X01499334Y00929003D01*
X01500501D01*
X01501667Y00927837D01*
Y00926671D01*
Y00927837D01*
X01502833Y00929003D01*
X01503999D01*
X01505166Y00927837D01*
Y00925504D01*
X01503999Y00924338D01*
X01505166Y00976347D02*
X01498168D01*
Y00979846D01*
X01499334Y00981012D01*
X01501667D01*
X01502833Y00979846D01*
Y00976347D01*
Y00978680D02*
X01505166Y00981012D01*
Y00988010D02*
Y00983345D01*
X01500501Y00988010D01*
X01499334D01*
X01498168Y00986844D01*
Y00984511D01*
X01499334Y00983345D01*
X01505166Y00995008D02*
Y00990342D01*
X01500501Y00995008D01*
X01499334D01*
X01498168Y00993841D01*
Y00991509D01*
X01499334Y00990342D01*
X01506332Y00997340D02*
Y01002005D01*
X01499334Y01004338D02*
X01498168Y01005504D01*
Y01007837D01*
X01499334Y01009003D01*
X01500501D01*
X01501667Y01007837D01*
Y01006671D01*
Y01007837D01*
X01502833Y01009003D01*
X01503999D01*
X01505166Y01007837D01*
Y01005504D01*
X01503999Y01004338D01*
X01445166Y00976347D02*
X01438168D01*
Y00979846D01*
X01439334Y00981012D01*
X01441667D01*
X01442833Y00979846D01*
Y00976347D01*
Y00978680D02*
X01445166Y00981012D01*
Y00988010D02*
Y00983345D01*
X01440501Y00988010D01*
X01439334D01*
X01438168Y00986843D01*
Y00984511D01*
X01439334Y00983345D01*
X01445166Y00995008D02*
Y00990342D01*
X01440501Y00995008D01*
X01439334D01*
X01438168Y00993841D01*
Y00991509D01*
X01439334Y00990342D01*
X01446332Y00997340D02*
Y01002005D01*
X01445166Y01009003D02*
Y01004338D01*
X01440501Y01009003D01*
X01439334D01*
X01438168Y01007837D01*
Y01005504D01*
X01439334Y01004338D01*
X01420166Y00976930D02*
X01413168D01*
Y00980429D01*
X01414334Y00981595D01*
X01416667D01*
X01417833Y00980429D01*
Y00976930D01*
Y00979263D02*
X01420166Y00981595D01*
Y00988593D02*
Y00983928D01*
X01415501Y00988593D01*
X01414334D01*
X01413168Y00987427D01*
Y00985094D01*
X01414334Y00983928D01*
X01420166Y00990926D02*
Y00993258D01*
Y00992092D01*
X01413168D01*
X01414334Y00990926D01*
X01421332Y00996757D02*
Y01001422D01*
X01420166Y01008420D02*
Y01003755D01*
X01415501Y01008420D01*
X01414334D01*
X01413168Y01007254D01*
Y01004921D01*
X01414334Y01003755D01*
X01420166Y00896347D02*
X01413168D01*
Y00899846D01*
X01414334Y00901012D01*
X01416667D01*
X01417833Y00899846D01*
Y00896347D01*
Y00898680D02*
X01420166Y00901012D01*
Y00908010D02*
Y00903345D01*
X01415501Y00908010D01*
X01414334D01*
X01413168Y00906844D01*
Y00904511D01*
X01414334Y00903345D01*
Y00910342D02*
X01413168Y00911509D01*
Y00913841D01*
X01414334Y00915008D01*
X01415501D01*
X01416667Y00913841D01*
Y00912675D01*
Y00913841D01*
X01417833Y00915008D01*
X01418999D01*
X01420166Y00913841D01*
Y00911509D01*
X01418999Y00910342D01*
X01421332Y00917340D02*
Y00922005D01*
X01420166Y00929003D02*
Y00924338D01*
X01415501Y00929003D01*
X01414334D01*
X01413168Y00927837D01*
Y00925504D01*
X01414334Y00924338D01*
X01420166Y00816347D02*
X01413168D01*
Y00819846D01*
X01414334Y00821012D01*
X01416667D01*
X01417833Y00819846D01*
Y00816347D01*
Y00818680D02*
X01420166Y00821012D01*
Y00828010D02*
Y00823345D01*
X01415501Y00828010D01*
X01414334D01*
X01413168Y00826844D01*
Y00824511D01*
X01414334Y00823345D01*
X01420166Y00833841D02*
X01413168D01*
X01416667Y00830342D01*
Y00835008D01*
X01421332Y00837340D02*
Y00842005D01*
X01420166Y00849003D02*
Y00844338D01*
X01415501Y00849003D01*
X01414334D01*
X01413168Y00847837D01*
Y00845504D01*
X01414334Y00844338D01*
X01445166Y00896347D02*
X01438168D01*
Y00899846D01*
X01439334Y00901012D01*
X01441667D01*
X01442833Y00899846D01*
Y00896347D01*
Y00898680D02*
X01445166Y00901012D01*
Y00908010D02*
Y00903345D01*
X01440501Y00908010D01*
X01439334D01*
X01438168Y00906844D01*
Y00904511D01*
X01439334Y00903345D01*
Y00910342D02*
X01438168Y00911509D01*
Y00913841D01*
X01439334Y00915008D01*
X01443999D01*
X01445166Y00913841D01*
Y00911509D01*
X01443999Y00910342D01*
X01439334D01*
X01446332Y00917340D02*
Y00922005D01*
X01445166Y00929003D02*
Y00924338D01*
X01440501Y00929003D01*
X01439334D01*
X01438168Y00927837D01*
Y00925504D01*
X01439334Y00924338D01*
X01360166Y00818680D02*
X01353168D01*
Y00822178D01*
X01354334Y00823345D01*
X01356667D01*
X01357833Y00822178D01*
Y00818680D01*
Y00821012D02*
X01360166Y00823345D01*
Y00830342D02*
Y00825677D01*
X01355500Y00830342D01*
X01354334D01*
X01353168Y00829176D01*
Y00826844D01*
X01354334Y00825677D01*
X01360166Y00836174D02*
X01353168D01*
X01356667Y00832675D01*
Y00837340D01*
X01361332Y00839673D02*
Y00844338D01*
X01360166Y00846671D02*
Y00849003D01*
Y00847837D01*
X01353168D01*
X01354334Y00846671D01*
X01360166Y00979263D02*
X01353168D01*
Y00982762D01*
X01354334Y00983928D01*
X01356667D01*
X01357833Y00982762D01*
Y00979263D01*
Y00981595D02*
X01360166Y00983928D01*
Y00990926D02*
Y00986260D01*
X01355501Y00990926D01*
X01354334D01*
X01353168Y00989759D01*
Y00987427D01*
X01354334Y00986260D01*
X01360166Y00993258D02*
Y00995591D01*
Y00994425D01*
X01353168D01*
X01354334Y00993258D01*
X01361332Y00999090D02*
Y01003755D01*
X01360166Y01006087D02*
Y01008420D01*
Y01007254D01*
X01353168D01*
X01354334Y01006087D01*
X01385166Y00898680D02*
X01378168D01*
Y00902178D01*
X01379334Y00903345D01*
X01381667D01*
X01382833Y00902178D01*
Y00898680D01*
Y00901012D02*
X01385166Y00903345D01*
Y00910342D02*
Y00905677D01*
X01380500Y00910342D01*
X01379334D01*
X01378168Y00909176D01*
Y00906844D01*
X01379334Y00905677D01*
Y00912675D02*
X01378168Y00913841D01*
Y00916174D01*
X01379334Y00917340D01*
X01383999D01*
X01385166Y00916174D01*
Y00913841D01*
X01383999Y00912675D01*
X01379334D01*
X01386332Y00919673D02*
Y00924338D01*
X01385166Y00926671D02*
Y00929003D01*
Y00927837D01*
X01378168D01*
X01379334Y00926671D01*
X01360166Y00898680D02*
X01353168D01*
Y00902178D01*
X01354334Y00903345D01*
X01356667D01*
X01357833Y00902178D01*
Y00898680D01*
Y00901012D02*
X01360166Y00903345D01*
Y00910342D02*
Y00905677D01*
X01355500Y00910342D01*
X01354334D01*
X01353168Y00909176D01*
Y00906844D01*
X01354334Y00905677D01*
Y00912675D02*
X01353168Y00913841D01*
Y00916174D01*
X01354334Y00917340D01*
X01355500D01*
X01356667Y00916174D01*
Y00915008D01*
Y00916174D01*
X01357833Y00917340D01*
X01358999D01*
X01360166Y00916174D01*
Y00913841D01*
X01358999Y00912675D01*
X01361332Y00919673D02*
Y00924338D01*
X01360166Y00926671D02*
Y00929003D01*
Y00927837D01*
X01353168D01*
X01354334Y00926671D01*
X01385166Y00978680D02*
X01378168D01*
Y00982178D01*
X01379334Y00983345D01*
X01381667D01*
X01382833Y00982178D01*
Y00978680D01*
Y00981012D02*
X01385166Y00983345D01*
Y00990342D02*
Y00985677D01*
X01380500Y00990342D01*
X01379334D01*
X01378168Y00989176D01*
Y00986844D01*
X01379334Y00985677D01*
X01385166Y00997340D02*
Y00992675D01*
X01380500Y00997340D01*
X01379334D01*
X01378168Y00996174D01*
Y00993841D01*
X01379334Y00992675D01*
X01386332Y00999673D02*
Y01004338D01*
X01385166Y01006671D02*
Y01009003D01*
Y01007837D01*
X01378168D01*
X01379334Y01006671D01*
X01653333Y00950000D02*
X01648667D01*
X01647501Y00948834D01*
Y00946501D01*
X01648667Y00945335D01*
X01653333D01*
X01654499Y00946501D01*
Y00948834D01*
X01652166Y00947667D02*
X01654499Y00950000D01*
Y00948834D02*
X01653333Y00950000D01*
X01654499Y00952333D02*
Y00954665D01*
Y00953499D01*
X01647501D01*
X01648667Y00952333D01*
X01537749Y00862836D02*
X01533084D01*
X01531918Y00861670D01*
Y00859337D01*
X01533084Y00858171D01*
X01537749D01*
X01538916Y00859337D01*
Y00861670D01*
X01536583Y00860503D02*
X01538916Y00862836D01*
Y00861670D02*
X01537749Y00862836D01*
X01533084Y00865169D02*
X01531918Y00866335D01*
Y00868668D01*
X01533084Y00869834D01*
X01534250D01*
X01535417Y00868668D01*
Y00867501D01*
Y00868668D01*
X01536583Y00869834D01*
X01537749D01*
X01538916Y00868668D01*
Y00866335D01*
X01537749Y00865169D01*
X01540082Y00872166D02*
Y00876832D01*
X01538916Y00882663D02*
X01531918D01*
X01535417Y00879164D01*
Y00883829D01*
X01536749Y00943836D02*
X01532084D01*
X01530918Y00942670D01*
Y00940337D01*
X01532084Y00939171D01*
X01536749D01*
X01537916Y00940337D01*
Y00942670D01*
X01535583Y00941503D02*
X01537916Y00943836D01*
Y00942670D02*
X01536749Y00943836D01*
X01537916Y00950834D02*
Y00946169D01*
X01533251Y00950834D01*
X01532084D01*
X01530918Y00949667D01*
Y00947335D01*
X01532084Y00946169D01*
X01539082Y00953166D02*
Y00957831D01*
X01537916Y00963663D02*
X01530918D01*
X01534417Y00960164D01*
Y00964829D01*
X01477749Y00943836D02*
X01473084D01*
X01471918Y00942670D01*
Y00940337D01*
X01473084Y00939171D01*
X01477749D01*
X01478916Y00940337D01*
Y00942670D01*
X01476583Y00941503D02*
X01478916Y00943836D01*
Y00942670D02*
X01477749Y00943836D01*
X01478916Y00950834D02*
Y00946169D01*
X01474250Y00950834D01*
X01473084D01*
X01471918Y00949667D01*
Y00947335D01*
X01473084Y00946169D01*
X01480082Y00953166D02*
Y00957831D01*
X01473084Y00960164D02*
X01471918Y00961330D01*
Y00963663D01*
X01473084Y00964829D01*
X01474250D01*
X01475417Y00963663D01*
Y00962497D01*
Y00963663D01*
X01476583Y00964829D01*
X01477749D01*
X01478916Y00963663D01*
Y00961330D01*
X01477749Y00960164D01*
X01475749Y00861836D02*
X01471084D01*
X01469918Y00860670D01*
Y00858337D01*
X01471084Y00857171D01*
X01475749D01*
X01476916Y00858337D01*
Y00860670D01*
X01474583Y00859503D02*
X01476916Y00861836D01*
Y00860670D02*
X01475749Y00861836D01*
X01471084Y00864169D02*
X01469918Y00865335D01*
Y00867667D01*
X01471084Y00868834D01*
X01472251D01*
X01473417Y00867667D01*
Y00866501D01*
Y00867667D01*
X01474583Y00868834D01*
X01475749D01*
X01476916Y00867667D01*
Y00865335D01*
X01475749Y00864169D01*
X01478082Y00871166D02*
Y00875832D01*
X01471084Y00878164D02*
X01469918Y00879330D01*
Y00881663D01*
X01471084Y00882829D01*
X01472251D01*
X01473417Y00881663D01*
Y00880497D01*
Y00881663D01*
X01474583Y00882829D01*
X01475749D01*
X01476916Y00881663D01*
Y00879330D01*
X01475749Y00878164D01*
X01415749Y00862836D02*
X01411084D01*
X01409918Y00861670D01*
Y00859337D01*
X01411084Y00858171D01*
X01415749D01*
X01416916Y00859337D01*
Y00861670D01*
X01414583Y00860503D02*
X01416916Y00862836D01*
Y00861670D02*
X01415749Y00862836D01*
X01411084Y00865169D02*
X01409918Y00866335D01*
Y00868667D01*
X01411084Y00869834D01*
X01412251D01*
X01413417Y00868667D01*
Y00867501D01*
Y00868667D01*
X01414583Y00869834D01*
X01415749D01*
X01416916Y00868667D01*
Y00866335D01*
X01415749Y00865169D01*
X01418082Y00872166D02*
Y00876832D01*
X01416916Y00883829D02*
Y00879164D01*
X01412251Y00883829D01*
X01411084D01*
X01409918Y00882663D01*
Y00880330D01*
X01411084Y00879164D01*
X01417749Y00944836D02*
X01413084D01*
X01411918Y00943670D01*
Y00941337D01*
X01413084Y00940171D01*
X01417749D01*
X01418916Y00941337D01*
Y00943670D01*
X01416583Y00942503D02*
X01418916Y00944836D01*
Y00943670D02*
X01417749Y00944836D01*
X01418916Y00951834D02*
Y00947169D01*
X01414250Y00951834D01*
X01413084D01*
X01411918Y00950667D01*
Y00948335D01*
X01413084Y00947169D01*
X01420082Y00954166D02*
Y00958831D01*
X01418916Y00965829D02*
Y00961164D01*
X01414250Y00965829D01*
X01413084D01*
X01411918Y00964663D01*
Y00962330D01*
X01413084Y00961164D01*
X01354749Y00864002D02*
X01350084D01*
X01348918Y00862836D01*
Y00860503D01*
X01350084Y00859337D01*
X01354749D01*
X01355916Y00860503D01*
Y00862836D01*
X01353583Y00861670D02*
X01355916Y00864002D01*
Y00862836D02*
X01354749Y00864002D01*
X01350084Y00866335D02*
X01348918Y00867501D01*
Y00869834D01*
X01350084Y00871000D01*
X01351250D01*
X01352417Y00869834D01*
Y00868668D01*
Y00869834D01*
X01353583Y00871000D01*
X01354749D01*
X01355916Y00869834D01*
Y00867501D01*
X01354749Y00866335D01*
X01357082Y00873333D02*
Y00877998D01*
X01355916Y00880330D02*
Y00882663D01*
Y00881497D01*
X01348918D01*
X01350084Y00880330D01*
X01355749Y00945002D02*
X01351084D01*
X01349918Y00943836D01*
Y00941503D01*
X01351084Y00940337D01*
X01355749D01*
X01356916Y00941503D01*
Y00943836D01*
X01354583Y00942670D02*
X01356916Y00945002D01*
Y00943836D02*
X01355749Y00945002D01*
X01356916Y00952000D02*
Y00947335D01*
X01352251Y00952000D01*
X01351084D01*
X01349918Y00950834D01*
Y00948501D01*
X01351084Y00947335D01*
X01358082Y00954333D02*
Y00958998D01*
X01356916Y00961330D02*
Y00963663D01*
Y00962497D01*
X01349918D01*
X01351084Y00961330D01*
D15*
X01220000Y00825250D02*
D03*
Y01001000D02*
D03*
Y01175250D02*
D03*
D16*
X01418125Y01267500D02*
X01432125D01*
X01156997Y00814496D02*
X01154498Y00816995D01*
X01149499D01*
X01147000Y00814496D01*
Y00804499D01*
X01149499Y00802000D01*
X01154498D01*
X01156997Y00804499D01*
X01161995Y00802000D02*
Y00811997D01*
X01166993Y00816995D01*
X01171992Y00811997D01*
Y00802000D01*
Y00809498D01*
X01161995D01*
X01176990Y00802000D02*
Y00816995D01*
X01186987Y00802000D01*
Y00816995D01*
X01201982Y00802000D02*
X01191985D01*
X01201982Y00811997D01*
Y00814496D01*
X01199483Y00816995D01*
X01194485D01*
X01191985Y00814496D01*
X01158997Y00991496D02*
X01156498Y00993995D01*
X01151499D01*
X01149000Y00991496D01*
Y00981499D01*
X01151499Y00979000D01*
X01156498D01*
X01158997Y00981499D01*
X01163995Y00979000D02*
Y00988997D01*
X01168994Y00993995D01*
X01173992Y00988997D01*
Y00979000D01*
Y00986498D01*
X01163995D01*
X01178990Y00979000D02*
Y00993995D01*
X01188987Y00979000D01*
Y00993995D01*
X01193985Y00979000D02*
X01198984D01*
X01196485D01*
Y00993995D01*
X01193985Y00991496D01*
X01140000Y01150000D02*
Y01164995D01*
X01147498D01*
X01149997Y01162496D01*
Y01157498D01*
X01147498Y01154998D01*
X01140000D01*
X01144998D02*
X01149997Y01150000D01*
X01164992Y01162496D02*
X01162493Y01164995D01*
X01157494D01*
X01154995Y01162496D01*
Y01159997D01*
X01157494Y01157498D01*
X01162493D01*
X01164992Y01154998D01*
Y01152499D01*
X01162493Y01150000D01*
X01157494D01*
X01154995Y01152499D01*
X01177488Y01150000D02*
Y01164995D01*
X01169990Y01157498D01*
X01179987D01*
X01184985Y01162496D02*
X01187485Y01164995D01*
X01192483D01*
X01194982Y01162496D01*
Y01159997D01*
X01192483Y01157498D01*
X01194982Y01154998D01*
Y01152499D01*
X01192483Y01150000D01*
X01187485D01*
X01184985Y01152499D01*
Y01154998D01*
X01187485Y01157498D01*
X01184985Y01159997D01*
Y01162496D01*
X01187485Y01157498D02*
X01192483D01*
X01209977Y01164995D02*
X01199981D01*
Y01157498D01*
X01204979Y01159997D01*
X01207478D01*
X01209977Y01157498D01*
Y01152499D01*
X01207478Y01150000D01*
X01202480D01*
X01199981Y01152499D01*
X01537669Y01342664D02*
X01536003Y01340998D01*
Y01337666D01*
X01537669Y01336000D01*
X01539335D01*
X01541002Y01337666D01*
Y01340998D01*
X01542668Y01342664D01*
X01544334D01*
X01546000Y01340998D01*
Y01337666D01*
X01544334Y01336000D01*
X01536003Y01345997D02*
X01546000D01*
X01542668Y01349329D01*
X01546000Y01352661D01*
X01536003D01*
Y01355994D02*
X01546000D01*
Y01360992D01*
X01544334Y01362658D01*
X01537669D01*
X01536003Y01360992D01*
Y01355994D01*
Y01365990D02*
Y01369323D01*
Y01367657D01*
X01546000D01*
Y01365990D01*
Y01369323D01*
X01536003Y01379319D02*
Y01375987D01*
X01537669Y01374321D01*
X01544334D01*
X01546000Y01375987D01*
Y01379319D01*
X01544334Y01380986D01*
X01537669D01*
X01536003Y01379319D01*
X01461669Y01344664D02*
X01460003Y01342998D01*
Y01339666D01*
X01461669Y01338000D01*
X01468334D01*
X01470000Y01339666D01*
Y01342998D01*
X01468334Y01344664D01*
X01465002D01*
Y01341332D01*
X01470000Y01347997D02*
X01460003D01*
X01470000Y01354661D01*
X01460003D01*
Y01357994D02*
X01470000D01*
Y01362992D01*
X01468334Y01364658D01*
X01461669D01*
X01460003Y01362992D01*
Y01357994D01*
X01493000Y01337000D02*
X01483003D01*
X01493000Y01343665D01*
X01483003D01*
X01493000Y01346997D02*
X01483003D01*
Y01351995D01*
X01484669Y01353661D01*
X01488002D01*
X01489668Y01351995D01*
Y01346997D01*
Y01350329D02*
X01493000Y01353661D01*
X01484669Y01363658D02*
X01483003Y01361992D01*
Y01358660D01*
X01484669Y01356994D01*
X01486335D01*
X01488002Y01358660D01*
Y01361992D01*
X01489668Y01363658D01*
X01491334D01*
X01493000Y01361992D01*
Y01358660D01*
X01491334Y01356994D01*
X01483003Y01366990D02*
Y01373655D01*
Y01370323D01*
X01493000D01*
X01509669Y01342664D02*
X01508003Y01340998D01*
Y01337666D01*
X01509669Y01336000D01*
X01511335D01*
X01513002Y01337666D01*
Y01340998D01*
X01514668Y01342664D01*
X01516334D01*
X01518000Y01340998D01*
Y01337666D01*
X01516334Y01336000D01*
X01508003Y01345997D02*
X01518000D01*
X01514668Y01349329D01*
X01518000Y01352661D01*
X01508003D01*
X01509669Y01362658D02*
X01508003Y01360992D01*
Y01357660D01*
X01509669Y01355994D01*
X01516334D01*
X01518000Y01357660D01*
Y01360992D01*
X01516334Y01362658D01*
X01508003Y01365990D02*
X01518000D01*
Y01372655D01*
X01508003Y01375987D02*
X01518000D01*
X01514668D01*
X01508003Y01382652D01*
X01513002Y01377653D01*
X01518000Y01382652D01*
X01565669Y01335000D02*
Y01341664D01*
X01562337Y01338332D02*
X01569002D01*
X01562337Y01344997D02*
X01560671Y01346663D01*
Y01349995D01*
X01562337Y01351661D01*
X01564003D01*
X01565669Y01349995D01*
Y01348329D01*
Y01349995D01*
X01567336Y01351661D01*
X01569002D01*
X01570668Y01349995D01*
Y01346663D01*
X01569002Y01344997D01*
X01572334Y01356660D02*
X01570668Y01358326D01*
X01569002D01*
Y01356660D01*
X01570668D01*
Y01358326D01*
X01572334Y01356660D01*
X01574000Y01354994D01*
X01562337Y01364990D02*
X01560671Y01366656D01*
Y01369989D01*
X01562337Y01371655D01*
X01564003D01*
X01565669Y01369989D01*
Y01368323D01*
Y01369989D01*
X01567336Y01371655D01*
X01569002D01*
X01570668Y01369989D01*
Y01366656D01*
X01569002Y01364990D01*
X01564003Y01374987D02*
X01570668Y01378319D01*
X01564003Y01381652D01*
X01098998Y01334671D02*
X01089001D01*
Y01339669D01*
X01090668Y01341335D01*
X01094000D01*
X01095666Y01339669D01*
Y01334671D01*
Y01338003D02*
X01098998Y01341335D01*
X01090668Y01344668D02*
X01089001Y01346334D01*
Y01349666D01*
X01090668Y01351332D01*
X01092334D01*
X01094000Y01349666D01*
Y01348000D01*
Y01349666D01*
X01095666Y01351332D01*
X01097332D01*
X01098998Y01349666D01*
Y01346334D01*
X01097332Y01344668D01*
X01098998Y01361329D02*
Y01354664D01*
X01092334Y01361329D01*
X01090668D01*
X01089001Y01359663D01*
Y01356331D01*
X01090668Y01354664D01*
X00986998Y01337337D02*
X00977001D01*
Y01342336D01*
X00978668Y01344002D01*
X00982000D01*
X00983666Y01342336D01*
Y01337337D01*
Y01340669D02*
X00986998Y01344002D01*
X00978668Y01347334D02*
X00977001Y01349000D01*
Y01352332D01*
X00978668Y01353998D01*
X00980334D01*
X00982000Y01352332D01*
Y01350666D01*
Y01352332D01*
X00983666Y01353998D01*
X00985332D01*
X00986998Y01352332D01*
Y01349000D01*
X00985332Y01347334D01*
X00986998Y01357331D02*
Y01360663D01*
Y01358997D01*
X00977001D01*
X00978668Y01357331D01*
X01126998Y01336671D02*
X01117001D01*
Y01341669D01*
X01118668Y01343336D01*
X01122000D01*
X01123666Y01341669D01*
Y01336671D01*
Y01340003D02*
X01126998Y01343336D01*
X01118668Y01346668D02*
X01117001Y01348334D01*
Y01351666D01*
X01118668Y01353332D01*
X01120334D01*
X01122000Y01351666D01*
Y01350000D01*
Y01351666D01*
X01123666Y01353332D01*
X01125332D01*
X01126998Y01351666D01*
Y01348334D01*
X01125332Y01346668D01*
X01118668Y01356664D02*
X01117001Y01358331D01*
Y01361663D01*
X01118668Y01363329D01*
X01125332D01*
X01126998Y01361663D01*
Y01358331D01*
X01125332Y01356664D01*
X01118668D01*
X00957998Y01337671D02*
X00948001D01*
Y01342669D01*
X00949668Y01344335D01*
X00953000D01*
X00954666Y01342669D01*
Y01337671D01*
Y01341003D02*
X00957998Y01344335D01*
Y01354332D02*
Y01347668D01*
X00951334Y01354332D01*
X00949668D01*
X00948001Y01352666D01*
Y01349334D01*
X00949668Y01347668D01*
X00956332Y01357664D02*
X00957998Y01359331D01*
Y01362663D01*
X00956332Y01364329D01*
X00949668D01*
X00948001Y01362663D01*
Y01359331D01*
X00949668Y01357664D01*
X00951334D01*
X00953000Y01359331D01*
Y01364329D01*
X01046332Y01345334D02*
X01039668D01*
X01038001Y01343668D01*
Y01340336D01*
X01039668Y01338669D01*
X01046332D01*
X01047998Y01340336D01*
Y01343668D01*
X01044666Y01342002D02*
X01047998Y01345334D01*
Y01343668D02*
X01046332Y01345334D01*
X01047998Y01353665D02*
X01038001D01*
X01043000Y01348666D01*
Y01355331D01*
X01008668Y01343336D02*
X01007001Y01341669D01*
Y01338337D01*
X01008668Y01336671D01*
X01015332D01*
X01016998Y01338337D01*
Y01341669D01*
X01015332Y01343336D01*
X01016998Y01351666D02*
X01007001D01*
X01012000Y01346668D01*
Y01353332D01*
X01008668Y01356664D02*
X01007001Y01358331D01*
Y01361663D01*
X01008668Y01363329D01*
X01015332D01*
X01016998Y01361663D01*
Y01358331D01*
X01015332Y01356664D01*
X01008668D01*
X01542998Y01253671D02*
X01533002D01*
Y01258669D01*
X01534668Y01260335D01*
X01538000D01*
X01539666Y01258669D01*
Y01253671D01*
Y01257003D02*
X01542998Y01260335D01*
Y01270332D02*
Y01263668D01*
X01536334Y01270332D01*
X01534668D01*
X01533002Y01268666D01*
Y01265334D01*
X01534668Y01263668D01*
Y01273665D02*
X01533002Y01275331D01*
Y01278663D01*
X01534668Y01280329D01*
X01536334D01*
X01538000Y01278663D01*
X01539666Y01280329D01*
X01541332D01*
X01542998Y01278663D01*
Y01275331D01*
X01541332Y01273665D01*
X01539666D01*
X01538000Y01275331D01*
X01536334Y01273665D01*
X01534668D01*
X01538000Y01275331D02*
Y01278663D01*
X01517998Y01254671D02*
X01508002D01*
Y01259669D01*
X01509668Y01261336D01*
X01513000D01*
X01514666Y01259669D01*
Y01254671D01*
Y01258003D02*
X01517998Y01261336D01*
Y01271332D02*
Y01264668D01*
X01511334Y01271332D01*
X01509668D01*
X01508002Y01269666D01*
Y01266334D01*
X01509668Y01264668D01*
X01508002Y01274665D02*
Y01281329D01*
X01509668D01*
X01516332Y01274665D01*
X01517998D01*
X01558668Y01261336D02*
X01557002Y01259669D01*
Y01256337D01*
X01558668Y01254671D01*
X01565332D01*
X01566998Y01256337D01*
Y01259669D01*
X01565332Y01261336D01*
X01558668Y01264668D02*
X01557002Y01266334D01*
Y01269666D01*
X01558668Y01271332D01*
X01560334D01*
X01562000Y01269666D01*
Y01268000D01*
Y01269666D01*
X01563666Y01271332D01*
X01565332D01*
X01566998Y01269666D01*
Y01266334D01*
X01565332Y01264668D01*
Y01274665D02*
X01566998Y01276331D01*
Y01279663D01*
X01565332Y01281329D01*
X01558668D01*
X01557002Y01279663D01*
Y01276331D01*
X01558668Y01274665D01*
X01560334D01*
X01562000Y01276331D01*
Y01281329D01*
X01192673Y00947831D02*
Y00939501D01*
X01194339Y00937835D01*
X01197671D01*
X01199337Y00939501D01*
Y00947831D01*
X01202669Y00946165D02*
X01204335Y00947831D01*
X01207668D01*
X01209334Y00946165D01*
Y00944499D01*
X01207668Y00942833D01*
X01206002D01*
X01207668D01*
X01209334Y00941167D01*
Y00939501D01*
X01207668Y00937835D01*
X01204335D01*
X01202669Y00939501D01*
X01212666Y00936169D02*
X01219331D01*
X01229327Y00937835D02*
X01222663D01*
X01229327Y00944499D01*
Y00946165D01*
X01227661Y00947831D01*
X01224329D01*
X01222663Y00946165D01*
X01192339Y01124831D02*
Y01116501D01*
X01194005Y01114835D01*
X01197337D01*
X01199003Y01116501D01*
Y01124831D01*
X01202336Y01123165D02*
X01204002Y01124831D01*
X01207334D01*
X01209000Y01123165D01*
Y01121499D01*
X01207334Y01119833D01*
X01205668D01*
X01207334D01*
X01209000Y01118167D01*
Y01116501D01*
X01207334Y01114835D01*
X01204002D01*
X01202336Y01116501D01*
X01212332Y01113168D02*
X01218997D01*
X01222329Y01114835D02*
X01225661D01*
X01223995D01*
Y01124831D01*
X01222329Y01123165D01*
X00991169Y00864506D02*
Y00871170D01*
Y00867838D01*
X01001165D01*
Y00874502D02*
Y00877835D01*
Y00876169D01*
X00991169D01*
X00992835Y00874502D01*
X01002831Y00882833D02*
Y00889498D01*
X01001165Y00899494D02*
Y00892830D01*
X00994501Y00899494D01*
X00992835D01*
X00991169Y00897828D01*
Y00894496D01*
X00992835Y00892830D01*
X00993168Y01040172D02*
Y01046836D01*
Y01043504D01*
X01003165D01*
Y01050169D02*
Y01053501D01*
Y01051835D01*
X00993168D01*
X00994835Y01050169D01*
X01004831Y01058499D02*
Y01065164D01*
X01003165Y01068496D02*
Y01071828D01*
Y01070162D01*
X00993168D01*
X00994835Y01068496D01*
X00919168Y00862673D02*
X00929165D01*
Y00867671D01*
X00927499Y00869337D01*
X00920835D01*
X00919168Y00867671D01*
Y00862673D01*
X00920835Y00872669D02*
X00919168Y00874335D01*
Y00877668D01*
X00920835Y00879334D01*
X00922501D01*
X00924167Y00877668D01*
Y00876002D01*
Y00877668D01*
X00925833Y00879334D01*
X00927499D01*
X00929165Y00877668D01*
Y00874335D01*
X00927499Y00872669D01*
X00930831Y00882666D02*
Y00889331D01*
X00929165Y00899327D02*
Y00892663D01*
X00922501Y00899327D01*
X00920835D01*
X00919168Y00897661D01*
Y00894329D01*
X00920835Y00892663D01*
X00923168Y01039339D02*
X00933165D01*
Y01044337D01*
X00931499Y01046003D01*
X00924835D01*
X00923168Y01044337D01*
Y01039339D01*
X00924835Y01049335D02*
X00923168Y01051002D01*
Y01054334D01*
X00924835Y01056000D01*
X00926501D01*
X00928167Y01054334D01*
Y01052668D01*
Y01054334D01*
X00929833Y01056000D01*
X00931499D01*
X00933165Y01054334D01*
Y01051002D01*
X00931499Y01049335D01*
X00934831Y01059332D02*
Y01065997D01*
X00933165Y01069329D02*
Y01072661D01*
Y01070995D01*
X00923168D01*
X00924835Y01069329D01*
X00992002Y01217669D02*
Y01224334D01*
Y01221002D01*
X01001998D01*
Y01234331D02*
Y01227666D01*
X00995334Y01234331D01*
X00993668D01*
X00992002Y01232665D01*
Y01229332D01*
X00993668Y01227666D01*
X01578336Y01232998D02*
Y01224668D01*
X01580002Y01223002D01*
X01583334D01*
X01585000Y01224668D01*
Y01232998D01*
X01588332Y01223002D02*
X01591664D01*
X01589998D01*
Y01232998D01*
X01588332Y01231332D01*
X00928002Y01220669D02*
X00937998D01*
Y01225668D01*
X00936332Y01227334D01*
X00929668D01*
X00928002Y01225668D01*
Y01220669D01*
X00937998Y01235665D02*
X00928002D01*
X00933000Y01230666D01*
Y01237331D01*
X01470336Y01113998D02*
Y01112332D01*
X01473668Y01109000D01*
X01477000Y01112332D01*
Y01113998D01*
X01473668Y01109000D02*
Y01104002D01*
X01480332D02*
X01483665D01*
X01481998D01*
Y01113998D01*
X01480332Y01112332D01*
X01372669Y01075998D02*
Y01067668D01*
X01374335Y01066002D01*
X01377668D01*
X01379334Y01067668D01*
Y01075998D01*
X01389331Y01066002D02*
X01382666D01*
X01389331Y01072666D01*
Y01074332D01*
X01387664Y01075998D01*
X01384332D01*
X01382666Y01074332D01*
X01211669Y01295998D02*
Y01287668D01*
X01213335Y01286002D01*
X01216668D01*
X01218334Y01287668D01*
Y01295998D01*
X01226665Y01286002D02*
Y01295998D01*
X01221666Y01291000D01*
X01228331D01*
X00904240Y00761583D02*
Y00753252D01*
X00905906Y00751586D01*
X00909238D01*
X00910904Y00753252D01*
Y00761583D01*
X00920901D02*
X00914237D01*
Y00756584D01*
X00917569Y00758251D01*
X00919235D01*
X00920901Y00756584D01*
Y00753252D01*
X00919235Y00751586D01*
X00915903D01*
X00914237Y00753252D01*
X01695669Y01121998D02*
Y01113668D01*
X01697336Y01112002D01*
X01700668D01*
X01702334Y01113668D01*
Y01121998D01*
X01705666D02*
X01712331D01*
Y01120332D01*
X01705666Y01113668D01*
Y01112002D01*
X01695669Y01257998D02*
Y01249668D01*
X01697336Y01248002D01*
X01700668D01*
X01702334Y01249668D01*
Y01257998D01*
X01712331D02*
X01708998Y01256332D01*
X01705666Y01253000D01*
Y01249668D01*
X01707332Y01248002D01*
X01710665D01*
X01712331Y01249668D01*
Y01251334D01*
X01710665Y01253000D01*
X01705666D01*
X01363138Y01258124D02*
Y01268120D01*
X01368136D01*
X01369803Y01266454D01*
Y01263122D01*
X01368136Y01261456D01*
X01363138D01*
X01366470D02*
X01369803Y01258124D01*
X01379799Y01268120D02*
X01373135D01*
Y01263122D01*
X01376467Y01264788D01*
X01378133D01*
X01379799Y01263122D01*
Y01259790D01*
X01378133Y01258124D01*
X01374801D01*
X01373135Y01259790D01*
X01818386Y01197134D02*
Y01207131D01*
X01823384D01*
X01825051Y01205465D01*
Y01202132D01*
X01823384Y01200466D01*
X01818386D01*
X01821718D02*
X01825051Y01197134D01*
X01828383D02*
X01831715D01*
X01830049D01*
Y01207131D01*
X01828383Y01205465D01*
X01843378Y01207131D02*
X01836713D01*
Y01202132D01*
X01840046Y01203799D01*
X01841712D01*
X01843378Y01202132D01*
Y01198800D01*
X01841712Y01197134D01*
X01838380D01*
X01836713Y01198800D01*
X01818386Y01171734D02*
Y01181731D01*
X01823384D01*
X01825051Y01180065D01*
Y01176732D01*
X01823384Y01175066D01*
X01818386D01*
X01821718D02*
X01825051Y01171734D01*
X01828383D02*
X01831715D01*
X01830049D01*
Y01181731D01*
X01828383Y01180065D01*
X01836713D02*
X01838380Y01181731D01*
X01841712D01*
X01843378Y01180065D01*
Y01178399D01*
X01841712Y01176732D01*
X01840046D01*
X01841712D01*
X01843378Y01175066D01*
Y01173400D01*
X01841712Y01171734D01*
X01838380D01*
X01836713Y01173400D01*
X00944998Y01182669D02*
X00935002D01*
Y01187668D01*
X00936668Y01189334D01*
X00940000D01*
X00941666Y01187668D01*
Y01182669D01*
Y01186002D02*
X00944998Y01189334D01*
X00936668Y01192666D02*
X00935002Y01194332D01*
Y01197664D01*
X00936668Y01199331D01*
X00938334D01*
X00940000Y01197664D01*
X00941666Y01199331D01*
X00943332D01*
X00944998Y01197664D01*
Y01194332D01*
X00943332Y01192666D01*
X00941666D01*
X00940000Y01194332D01*
X00938334Y01192666D01*
X00936668D01*
X00940000Y01194332D02*
Y01197664D01*
X00927669Y01260002D02*
Y01269998D01*
X00932668D01*
X00934334Y01268332D01*
Y01265000D01*
X00932668Y01263334D01*
X00927669D01*
X00931002D02*
X00934334Y01260002D01*
X00937666Y01261668D02*
X00939332Y01260002D01*
X00942664D01*
X00944331Y01261668D01*
Y01268332D01*
X00942664Y01269998D01*
X00939332D01*
X00937666Y01268332D01*
Y01266666D01*
X00939332Y01265000D01*
X00944331D01*
X00999998Y01181669D02*
X00990002D01*
Y01186668D01*
X00991668Y01188334D01*
X00995000D01*
X00996666Y01186668D01*
Y01181669D01*
Y01185002D02*
X00999998Y01188334D01*
X00990002Y01191666D02*
Y01198331D01*
X00991668D01*
X00998332Y01191666D01*
X00999998D01*
X01002998Y01256504D02*
X00993002D01*
Y01261503D01*
X00994668Y01263169D01*
X00998000D01*
X00999666Y01261503D01*
Y01256504D01*
Y01259836D02*
X01002998Y01263169D01*
Y01266501D02*
Y01269833D01*
Y01268167D01*
X00993002D01*
X00994668Y01266501D01*
Y01274831D02*
X00993002Y01276498D01*
Y01279830D01*
X00994668Y01281496D01*
X01001332D01*
X01002998Y01279830D01*
Y01276498D01*
X01001332Y01274831D01*
X00994668D01*
X01860804Y01159034D02*
Y01169031D01*
X01865802D01*
X01867469Y01167365D01*
Y01164032D01*
X01865802Y01162366D01*
X01860804D01*
X01864136D02*
X01867469Y01159034D01*
X01870801D02*
X01874133D01*
X01872467D01*
Y01169031D01*
X01870801Y01167365D01*
X01885796Y01159034D02*
X01879131D01*
X01885796Y01165698D01*
Y01167365D01*
X01884130Y01169031D01*
X01880798D01*
X01879131Y01167365D01*
X01860804Y01235234D02*
Y01245231D01*
X01865802D01*
X01867469Y01243565D01*
Y01240232D01*
X01865802Y01238566D01*
X01860804D01*
X01864136D02*
X01867469Y01235234D01*
X01870801D02*
X01874133D01*
X01872467D01*
Y01245231D01*
X01870801Y01243565D01*
X01879131D02*
X01880798Y01245231D01*
X01884130D01*
X01885796Y01243565D01*
Y01241898D01*
X01884130Y01240232D01*
X01885796Y01238566D01*
Y01236900D01*
X01884130Y01235234D01*
X01880798D01*
X01879131Y01236900D01*
Y01238566D01*
X01880798Y01240232D01*
X01879131Y01241898D01*
Y01243565D01*
X01880798Y01240232D02*
X01884130D01*
X01860804Y01209834D02*
Y01219831D01*
X01865802D01*
X01867469Y01218165D01*
Y01214832D01*
X01865802Y01213166D01*
X01860804D01*
X01864136D02*
X01867469Y01209834D01*
X01870801D02*
X01874133D01*
X01872467D01*
Y01219831D01*
X01870801Y01218165D01*
X01885796Y01219831D02*
X01882464Y01218165D01*
X01879131Y01214832D01*
Y01211500D01*
X01880798Y01209834D01*
X01884130D01*
X01885796Y01211500D01*
Y01213166D01*
X01884130Y01214832D01*
X01879131D01*
X01860804Y01184434D02*
Y01194431D01*
X01865802D01*
X01867469Y01192765D01*
Y01189432D01*
X01865802Y01187766D01*
X01860804D01*
X01864136D02*
X01867469Y01184434D01*
X01870801D02*
X01874133D01*
X01872467D01*
Y01194431D01*
X01870801Y01192765D01*
X01884130Y01184434D02*
Y01194431D01*
X01879131Y01189432D01*
X01885796D01*
X01818386Y01247934D02*
Y01257931D01*
X01823384D01*
X01825051Y01256265D01*
Y01252932D01*
X01823384Y01251266D01*
X01818386D01*
X01821718D02*
X01825051Y01247934D01*
X01828383D02*
X01831715D01*
X01830049D01*
Y01257931D01*
X01828383Y01256265D01*
X01836713Y01249600D02*
X01838380Y01247934D01*
X01841712D01*
X01843378Y01249600D01*
Y01256265D01*
X01841712Y01257931D01*
X01838380D01*
X01836713Y01256265D01*
Y01254598D01*
X01838380Y01252932D01*
X01843378D01*
X01818386Y01222534D02*
Y01232531D01*
X01823384D01*
X01825051Y01230865D01*
Y01227532D01*
X01823384Y01225866D01*
X01818386D01*
X01821718D02*
X01825051Y01222534D01*
X01828383D02*
X01831715D01*
X01830049D01*
Y01232531D01*
X01828383Y01230865D01*
X01836713Y01232531D02*
X01843378D01*
Y01230865D01*
X01836713Y01224200D01*
Y01222534D01*
X01063998Y01288170D02*
X01054002D01*
Y01293169D01*
X01055668Y01294835D01*
X01059000D01*
X01060666Y01293169D01*
Y01288170D01*
Y01291502D02*
X01063998Y01294835D01*
Y01298167D02*
Y01301499D01*
Y01299833D01*
X01054002D01*
X01055668Y01298167D01*
X01063998Y01306498D02*
Y01309830D01*
Y01308164D01*
X01054002D01*
X01055668Y01306498D01*
X01064165Y00935673D02*
X01054168D01*
Y00940671D01*
X01055835Y00942337D01*
X01059167D01*
X01060833Y00940671D01*
Y00935673D01*
Y00939005D02*
X01064165Y00942337D01*
X01054168Y00952334D02*
X01055835Y00949002D01*
X01059167Y00945669D01*
X01062499D01*
X01064165Y00947336D01*
Y00950668D01*
X01062499Y00952334D01*
X01060833D01*
X01059167Y00950668D01*
Y00945669D01*
X01065831Y00955666D02*
Y00962331D01*
X01064165Y00972327D02*
Y00965663D01*
X01057501Y00972327D01*
X01055835D01*
X01054168Y00970661D01*
Y00967329D01*
X01055835Y00965663D01*
X01061165Y01105339D02*
X01051169D01*
Y01110337D01*
X01052835Y01112003D01*
X01056167D01*
X01057833Y01110337D01*
Y01105339D01*
Y01108671D02*
X01061165Y01112003D01*
X01051169Y01122000D02*
X01052835Y01118668D01*
X01056167Y01115335D01*
X01059499D01*
X01061165Y01117002D01*
Y01120334D01*
X01059499Y01122000D01*
X01057833D01*
X01056167Y01120334D01*
Y01115335D01*
X01062831Y01125332D02*
Y01131997D01*
X01061165Y01135329D02*
Y01138661D01*
Y01136995D01*
X01051169D01*
X01052835Y01135329D01*
X00659334Y01396998D02*
X00656002D01*
X00657668D01*
Y01388668D01*
X00656002Y01387002D01*
X00654335D01*
X00652669Y01388668D01*
X00669331Y01387002D02*
X00662666D01*
X00669331Y01393666D01*
Y01395332D01*
X00667664Y01396998D01*
X00664332D01*
X00662666Y01395332D01*
X01592000Y01308998D02*
X01588668D01*
X01590334D01*
Y01300668D01*
X01588668Y01299002D01*
X01587002D01*
X01585336Y01300668D01*
X01595332Y01299002D02*
X01598665D01*
X01596998D01*
Y01308998D01*
X01595332Y01307332D01*
X01417619Y01331019D02*
Y01321022D01*
X01422617D01*
X01424283Y01322688D01*
Y01329353D01*
X01422617Y01331019D01*
X01417619D01*
X01427616Y01321022D02*
X01430948D01*
X01429282D01*
Y01331019D01*
X01427616Y01329353D01*
X01416669Y01109998D02*
Y01100002D01*
X01421668D01*
X01423334Y01101668D01*
Y01108332D01*
X01421668Y01109998D01*
X01416669D01*
X01433331Y01100002D02*
X01426666D01*
X01433331Y01106666D01*
Y01108332D01*
X01431664Y01109998D01*
X01428332D01*
X01426666Y01108332D01*
X01327668Y01042169D02*
X01326002Y01040502D01*
Y01037170D01*
X01327668Y01035504D01*
X01334332D01*
X01335998Y01037170D01*
Y01040502D01*
X01334332Y01042169D01*
X01335998Y01045501D02*
Y01048833D01*
Y01047167D01*
X01326002D01*
X01327668Y01045501D01*
X01335998Y01060496D02*
Y01053831D01*
X01329334Y01060496D01*
X01327668D01*
X01326002Y01058830D01*
Y01055498D01*
X01327668Y01053831D01*
X01562668Y01087835D02*
X01561002Y01086169D01*
Y01082836D01*
X01562668Y01081170D01*
X01569332D01*
X01570998Y01082836D01*
Y01086169D01*
X01569332Y01087835D01*
X01570998Y01091167D02*
Y01094499D01*
Y01092833D01*
X01561002D01*
X01562668Y01091167D01*
X01570998Y01099498D02*
Y01102830D01*
Y01101164D01*
X01561002D01*
X01562668Y01099498D01*
X01423334Y01158332D02*
X01421668Y01159998D01*
X01418336D01*
X01416669Y01158332D01*
Y01151668D01*
X01418336Y01150002D01*
X01421668D01*
X01423334Y01151668D01*
X01433331Y01159998D02*
X01429998Y01158332D01*
X01426666Y01155000D01*
Y01151668D01*
X01428332Y01150002D01*
X01431664D01*
X01433331Y01151668D01*
Y01153334D01*
X01431664Y01155000D01*
X01426666D01*
X01462668Y01042000D02*
X01461002Y01040334D01*
Y01037002D01*
X01462668Y01035335D01*
X01469332D01*
X01470998Y01037002D01*
Y01040334D01*
X01469332Y01042000D01*
X01470998Y01045332D02*
Y01048664D01*
Y01046998D01*
X01461002D01*
X01462668Y01045332D01*
X01423334Y01186332D02*
X01421668Y01187998D01*
X01418336D01*
X01416669Y01186332D01*
Y01179668D01*
X01418336Y01178002D01*
X01421668D01*
X01423334Y01179668D01*
X01431664Y01178002D02*
Y01187998D01*
X01426666Y01183000D01*
X01433331D01*
X01459668Y01262334D02*
X01458002Y01260668D01*
Y01257336D01*
X01459668Y01255669D01*
X01466332D01*
X01467998Y01257336D01*
Y01260668D01*
X01466332Y01262334D01*
X01458002Y01265666D02*
Y01272331D01*
X01459668D01*
X01466332Y01265666D01*
X01467998D01*
X01081668Y01185169D02*
X01080002Y01183503D01*
Y01180170D01*
X01081668Y01178504D01*
X01088332D01*
X01089998Y01180170D01*
Y01183503D01*
X01088332Y01185169D01*
X01089998Y01188501D02*
Y01191833D01*
Y01190167D01*
X01080002D01*
X01081668Y01188501D01*
X01088332Y01196832D02*
X01089998Y01198498D01*
Y01201830D01*
X01088332Y01203496D01*
X01081668D01*
X01080002Y01201830D01*
Y01198498D01*
X01081668Y01196832D01*
X01083334D01*
X01085000Y01198498D01*
Y01203496D01*
X00925335Y01287332D02*
X00923669Y01288998D01*
X00920337D01*
X00918671Y01287332D01*
Y01280668D01*
X00920337Y01279002D01*
X00923669D01*
X00925335Y01280668D01*
X00935332Y01279002D02*
X00928668D01*
X00935332Y01285666D01*
Y01287332D01*
X00933666Y01288998D01*
X00930334D01*
X00928668Y01287332D01*
X00938664D02*
X00940331Y01288998D01*
X00943663D01*
X00945329Y01287332D01*
Y01285666D01*
X00943663Y01284000D01*
X00941997D01*
X00943663D01*
X00945329Y01282334D01*
Y01280668D01*
X00943663Y01279002D01*
X00940331D01*
X00938664Y01280668D01*
X01245668Y01212336D02*
X01244002Y01210669D01*
Y01207337D01*
X01245668Y01205671D01*
X01252332D01*
X01253998Y01207337D01*
Y01210669D01*
X01252332Y01212336D01*
X01253998Y01222332D02*
Y01215668D01*
X01247334Y01222332D01*
X01245668D01*
X01244002Y01220666D01*
Y01217334D01*
X01245668Y01215668D01*
X01253998Y01232329D02*
Y01225665D01*
X01247334Y01232329D01*
X01245668D01*
X01244002Y01230663D01*
Y01227331D01*
X01245668Y01225665D01*
X01537668Y01086169D02*
X01536002Y01084502D01*
Y01081170D01*
X01537668Y01079504D01*
X01544332D01*
X01545998Y01081170D01*
Y01084502D01*
X01544332Y01086169D01*
X01545998Y01089501D02*
Y01092833D01*
Y01091167D01*
X01536002D01*
X01537668Y01089501D01*
Y01097831D02*
X01536002Y01099498D01*
Y01102830D01*
X01537668Y01104496D01*
X01544332D01*
X01545998Y01102830D01*
Y01099498D01*
X01544332Y01097831D01*
X01537668D01*
X01268668Y01214002D02*
X01267002Y01212336D01*
Y01209003D01*
X01268668Y01207337D01*
X01275332D01*
X01276998Y01209003D01*
Y01212336D01*
X01275332Y01214002D01*
X01276998Y01223998D02*
Y01217334D01*
X01270334Y01223998D01*
X01268668D01*
X01267002Y01222332D01*
Y01219000D01*
X01268668Y01217334D01*
X01276998Y01227331D02*
Y01230663D01*
Y01228997D01*
X01267002D01*
X01268668Y01227331D01*
X00752663Y00682447D02*
X00750996Y00684113D01*
X00747664D01*
X00745998Y00682447D01*
Y00675782D01*
X00747664Y00674116D01*
X00750996D01*
X00752663Y00675782D01*
X00762659Y00674116D02*
X00755995D01*
X00762659Y00680780D01*
Y00682447D01*
X00760993Y00684113D01*
X00757661D01*
X00755995Y00682447D01*
X00765992Y00675782D02*
X00767658Y00674116D01*
X00770990D01*
X00772656Y00675782D01*
Y00682447D01*
X00770990Y00684113D01*
X00767658D01*
X00765992Y00682447D01*
Y00680780D01*
X00767658Y00679114D01*
X00772656D01*
X00760283Y00762457D02*
X00758616Y00764123D01*
X00755284D01*
X00753618Y00762457D01*
Y00755792D01*
X00755284Y00754126D01*
X00758616D01*
X00760283Y00755792D01*
X00770279Y00754126D02*
X00763615D01*
X00770279Y00760790D01*
Y00762457D01*
X00768613Y00764123D01*
X00765281D01*
X00763615Y00762457D01*
X00780276Y00764123D02*
X00773612D01*
Y00759124D01*
X00776944Y00760790D01*
X00778610D01*
X00780276Y00759124D01*
Y00755792D01*
X00778610Y00754126D01*
X00775278D01*
X00773612Y00755792D01*
X00872551Y00741791D02*
X00870884Y00743457D01*
X00867552D01*
X00865886Y00741791D01*
Y00735126D01*
X00867552Y00733460D01*
X00870884D01*
X00872551Y00735126D01*
X00882547Y00733460D02*
X00875883D01*
X00882547Y00740125D01*
Y00741791D01*
X00880881Y00743457D01*
X00877549D01*
X00875883Y00741791D01*
X00885880Y00743457D02*
X00892544D01*
Y00741791D01*
X00885880Y00735126D01*
Y00733460D01*
X01224341Y00758377D02*
X01222674Y00760043D01*
X01219342D01*
X01217676Y00758377D01*
Y00751712D01*
X01219342Y00750046D01*
X01222674D01*
X01224341Y00751712D01*
X01234337Y00750046D02*
X01227673D01*
X01234337Y00756711D01*
Y00758377D01*
X01232671Y00760043D01*
X01229339D01*
X01227673Y00758377D01*
X01244334Y00760043D02*
X01241002Y00758377D01*
X01237670Y00755044D01*
Y00751712D01*
X01239336Y00750046D01*
X01242668D01*
X01244334Y00751712D01*
Y00753378D01*
X01242668Y00755044D01*
X01237670D01*
X01185732Y00741797D02*
X01184066Y00743463D01*
X01180734D01*
X01179068Y00741797D01*
Y00735132D01*
X01180734Y00733466D01*
X01184066D01*
X01185732Y00735132D01*
X01195729Y00733466D02*
X01189065D01*
X01195729Y00740130D01*
Y00741797D01*
X01194063Y00743463D01*
X01190731D01*
X01189065Y00741797D01*
X01199062D02*
X01200728Y00743463D01*
X01204060D01*
X01205726Y00741797D01*
Y00740130D01*
X01204060Y00738464D01*
X01205726Y00736798D01*
Y00735132D01*
X01204060Y00733466D01*
X01200728D01*
X01199062Y00735132D01*
Y00736798D01*
X01200728Y00738464D01*
X01199062Y00740130D01*
Y00741797D01*
X01200728Y00738464D02*
X01204060D01*
X01603334Y01205332D02*
X01601668Y01206998D01*
X01598336D01*
X01596669Y01205332D01*
Y01198668D01*
X01598336Y01197002D01*
X01601668D01*
X01603334Y01198668D01*
X01606666D02*
X01608332Y01197002D01*
X01611664D01*
X01613331Y01198668D01*
Y01205332D01*
X01611664Y01206998D01*
X01608332D01*
X01606666Y01205332D01*
Y01203666D01*
X01608332Y01202000D01*
X01613331D01*
X01347334Y01112332D02*
X01345668Y01113998D01*
X01342336D01*
X01340669Y01112332D01*
Y01105668D01*
X01342336Y01104002D01*
X01345668D01*
X01347334Y01105668D01*
X01350666Y01112332D02*
X01352332Y01113998D01*
X01355665D01*
X01357331Y01112332D01*
Y01110666D01*
X01355665Y01109000D01*
X01353998D01*
X01355665D01*
X01357331Y01107334D01*
Y01105668D01*
X01355665Y01104002D01*
X01352332D01*
X01350666Y01105668D01*
X01602292Y01170838D02*
X01600626Y01172504D01*
X01597294D01*
X01595628Y01170838D01*
Y01164174D01*
X01597294Y01162508D01*
X01600626D01*
X01602292Y01164174D01*
X01605625Y01170838D02*
X01607291Y01172504D01*
X01610623D01*
X01612289Y01170838D01*
Y01169172D01*
X01610623Y01167506D01*
X01612289Y01165840D01*
Y01164174D01*
X01610623Y01162508D01*
X01607291D01*
X01605625Y01164174D01*
Y01165840D01*
X01607291Y01167506D01*
X01605625Y01169172D01*
Y01170838D01*
X01607291Y01167506D02*
X01610623D01*
X01423334Y01216332D02*
X01421668Y01217998D01*
X01418336D01*
X01416669Y01216332D01*
Y01209668D01*
X01418336Y01208002D01*
X01421668D01*
X01423334Y01209668D01*
X01433331Y01217998D02*
X01426666D01*
Y01213000D01*
X01429998Y01214666D01*
X01431664D01*
X01433331Y01213000D01*
Y01209668D01*
X01431664Y01208002D01*
X01428332D01*
X01426666Y01209668D01*
X01424668Y01043168D02*
X01423002Y01041502D01*
Y01038170D01*
X01424668Y01036504D01*
X01431332D01*
X01432998Y01038170D01*
Y01041502D01*
X01431332Y01043168D01*
X01432998Y01046501D02*
Y01049833D01*
Y01048167D01*
X01423002D01*
X01424668Y01046501D01*
Y01054831D02*
X01423002Y01056498D01*
Y01059830D01*
X01424668Y01061496D01*
X01426334D01*
X01428000Y01059830D01*
Y01058164D01*
Y01059830D01*
X01429666Y01061496D01*
X01431332D01*
X01432998Y01059830D01*
Y01056498D01*
X01431332Y01054831D01*
X01501668Y01039334D02*
X01500002Y01037668D01*
Y01034335D01*
X01501668Y01032669D01*
X01508332D01*
X01509998Y01034335D01*
Y01037668D01*
X01508332Y01039334D01*
X01509998Y01049331D02*
Y01042666D01*
X01503334Y01049331D01*
X01501668D01*
X01500002Y01047664D01*
Y01044332D01*
X01501668Y01042666D01*
X01782379Y01218165D02*
X01780712Y01219831D01*
X01777380D01*
X01775714Y01218165D01*
Y01211500D01*
X01777380Y01209834D01*
X01780712D01*
X01782379Y01211500D01*
X01785711Y01218165D02*
X01787377Y01219831D01*
X01790709D01*
X01792375Y01218165D01*
Y01216498D01*
X01790709Y01214832D01*
X01789043D01*
X01790709D01*
X01792375Y01213166D01*
Y01211500D01*
X01790709Y01209834D01*
X01787377D01*
X01785711Y01211500D01*
X01800706Y01209834D02*
Y01219831D01*
X01795708Y01214832D01*
X01802372D01*
X01742247Y01256265D02*
X01740580Y01257931D01*
X01737248D01*
X01735582Y01256265D01*
Y01249600D01*
X01737248Y01247934D01*
X01740580D01*
X01742247Y01249600D01*
X01745579Y01256265D02*
X01747245Y01257931D01*
X01750577D01*
X01752243Y01256265D01*
Y01254598D01*
X01750577Y01252932D01*
X01748911D01*
X01750577D01*
X01752243Y01251266D01*
Y01249600D01*
X01750577Y01247934D01*
X01747245D01*
X01745579Y01249600D01*
X01755576Y01257931D02*
X01762240D01*
Y01256265D01*
X01755576Y01249600D01*
Y01247934D01*
X01742247Y01180065D02*
X01740580Y01181731D01*
X01737248D01*
X01735582Y01180065D01*
Y01173400D01*
X01737248Y01171734D01*
X01740580D01*
X01742247Y01173400D01*
X01745579Y01180065D02*
X01747245Y01181731D01*
X01750577D01*
X01752243Y01180065D01*
Y01178399D01*
X01750577Y01176732D01*
X01748911D01*
X01750577D01*
X01752243Y01175066D01*
Y01173400D01*
X01750577Y01171734D01*
X01747245D01*
X01745579Y01173400D01*
X01755576Y01171734D02*
X01758908D01*
X01757242D01*
Y01181731D01*
X01755576Y01180065D01*
X01782379Y01243565D02*
X01780712Y01245231D01*
X01777380D01*
X01775714Y01243565D01*
Y01236900D01*
X01777380Y01235234D01*
X01780712D01*
X01782379Y01236900D01*
X01785711Y01243565D02*
X01787377Y01245231D01*
X01790709D01*
X01792375Y01243565D01*
Y01241898D01*
X01790709Y01240232D01*
X01789043D01*
X01790709D01*
X01792375Y01238566D01*
Y01236900D01*
X01790709Y01235234D01*
X01787377D01*
X01785711Y01236900D01*
X01802372Y01245231D02*
X01799040Y01243565D01*
X01795708Y01240232D01*
Y01236900D01*
X01797374Y01235234D01*
X01800706D01*
X01802372Y01236900D01*
Y01238566D01*
X01800706Y01240232D01*
X01795708D01*
X01742247Y01230865D02*
X01740580Y01232531D01*
X01737248D01*
X01735582Y01230865D01*
Y01224200D01*
X01737248Y01222534D01*
X01740580D01*
X01742247Y01224200D01*
X01745579Y01230865D02*
X01747245Y01232531D01*
X01750577D01*
X01752243Y01230865D01*
Y01229199D01*
X01750577Y01227532D01*
X01748911D01*
X01750577D01*
X01752243Y01225866D01*
Y01224200D01*
X01750577Y01222534D01*
X01747245D01*
X01745579Y01224200D01*
X01762240Y01232531D02*
X01755576D01*
Y01227532D01*
X01758908Y01229199D01*
X01760574D01*
X01762240Y01227532D01*
Y01224200D01*
X01760574Y01222534D01*
X01757242D01*
X01755576Y01224200D01*
X01080668Y01294335D02*
X01079002Y01292669D01*
Y01289337D01*
X01080668Y01287671D01*
X01087332D01*
X01088998Y01289337D01*
Y01292669D01*
X01087332Y01294335D01*
X01088998Y01304332D02*
Y01297668D01*
X01082334Y01304332D01*
X01080668D01*
X01079002Y01302666D01*
Y01299334D01*
X01080668Y01297668D01*
X01088998Y01312663D02*
X01079002D01*
X01084000Y01307664D01*
Y01314329D01*
X01056668Y01184335D02*
X01055002Y01182669D01*
Y01179337D01*
X01056668Y01177671D01*
X01063332D01*
X01064998Y01179337D01*
Y01182669D01*
X01063332Y01184335D01*
X01064998Y01194332D02*
Y01187668D01*
X01058334Y01194332D01*
X01056668D01*
X01055002Y01192666D01*
Y01189334D01*
X01056668Y01187668D01*
Y01197665D02*
X01055002Y01199331D01*
Y01202663D01*
X01056668Y01204329D01*
X01063332D01*
X01064998Y01202663D01*
Y01199331D01*
X01063332Y01197665D01*
X01056668D01*
X01782379Y01167365D02*
X01780712Y01169031D01*
X01777380D01*
X01775714Y01167365D01*
Y01160700D01*
X01777380Y01159034D01*
X01780712D01*
X01782379Y01160700D01*
X01785711Y01167365D02*
X01787377Y01169031D01*
X01790709D01*
X01792375Y01167365D01*
Y01165698D01*
X01790709Y01164032D01*
X01789043D01*
X01790709D01*
X01792375Y01162366D01*
Y01160700D01*
X01790709Y01159034D01*
X01787377D01*
X01785711Y01160700D01*
X01795708Y01167365D02*
X01797374Y01169031D01*
X01800706D01*
X01802372Y01167365D01*
Y01160700D01*
X01800706Y01159034D01*
X01797374D01*
X01795708Y01160700D01*
Y01167365D01*
X01782379Y01192765D02*
X01780712Y01194431D01*
X01777380D01*
X01775714Y01192765D01*
Y01186100D01*
X01777380Y01184434D01*
X01780712D01*
X01782379Y01186100D01*
X01785711Y01192765D02*
X01787377Y01194431D01*
X01790709D01*
X01792375Y01192765D01*
Y01191098D01*
X01790709Y01189432D01*
X01789043D01*
X01790709D01*
X01792375Y01187766D01*
Y01186100D01*
X01790709Y01184434D01*
X01787377D01*
X01785711Y01186100D01*
X01802372Y01184434D02*
X01795708D01*
X01802372Y01191098D01*
Y01192765D01*
X01800706Y01194431D01*
X01797374D01*
X01795708Y01192765D01*
X01742247Y01205465D02*
X01740580Y01207131D01*
X01737248D01*
X01735582Y01205465D01*
Y01198800D01*
X01737248Y01197134D01*
X01740580D01*
X01742247Y01198800D01*
X01745579Y01205465D02*
X01747245Y01207131D01*
X01750577D01*
X01752243Y01205465D01*
Y01203799D01*
X01750577Y01202132D01*
X01748911D01*
X01750577D01*
X01752243Y01200466D01*
Y01198800D01*
X01750577Y01197134D01*
X01747245D01*
X01745579Y01198800D01*
X01755576Y01205465D02*
X01757242Y01207131D01*
X01760574D01*
X01762240Y01205465D01*
Y01203799D01*
X01760574Y01202132D01*
X01758908D01*
X01760574D01*
X01762240Y01200466D01*
Y01198800D01*
X01760574Y01197134D01*
X01757242D01*
X01755576Y01198800D01*
X01080835Y00837172D02*
X01079168Y00835506D01*
Y00832173D01*
X01080835Y00830507D01*
X01087499D01*
X01089165Y00832173D01*
Y00835506D01*
X01087499Y00837172D01*
X01089165Y00840504D02*
Y00843836D01*
Y00842170D01*
X01079168D01*
X01080835Y00840504D01*
X01089165Y00853833D02*
X01079168D01*
X01084167Y00848835D01*
Y00855499D01*
X01090831Y00858831D02*
Y00865496D01*
X01089165Y00875493D02*
Y00868828D01*
X01082501Y00875493D01*
X01080835D01*
X01079168Y00873827D01*
Y00870494D01*
X01080835Y00868828D01*
X01079835Y00940172D02*
X01078168Y00938506D01*
Y00935173D01*
X01079835Y00933507D01*
X01086499D01*
X01088165Y00935173D01*
Y00938506D01*
X01086499Y00940172D01*
X01088165Y00943504D02*
Y00946836D01*
Y00945170D01*
X01078168D01*
X01079835Y00943504D01*
Y00951835D02*
X01078168Y00953501D01*
Y00956833D01*
X01079835Y00958499D01*
X01081501D01*
X01083167Y00956833D01*
X01084833Y00958499D01*
X01086499D01*
X01088165Y00956833D01*
Y00953501D01*
X01086499Y00951835D01*
X01084833D01*
X01083167Y00953501D01*
X01081501Y00951835D01*
X01079835D01*
X01083167Y00953501D02*
Y00956833D01*
X01089831Y00961832D02*
Y00968496D01*
X01088165Y00978493D02*
Y00971828D01*
X01081501Y00978493D01*
X01079835D01*
X01078168Y00976827D01*
Y00973494D01*
X01079835Y00971828D01*
X01244835Y00865172D02*
X01243168Y00863506D01*
Y00860173D01*
X01244835Y00858507D01*
X01251499D01*
X01253165Y00860173D01*
Y00863506D01*
X01251499Y00865172D01*
X01253165Y00868504D02*
Y00871836D01*
Y00870170D01*
X01243168D01*
X01244835Y00868504D01*
X01243168Y00883499D02*
X01244835Y00880167D01*
X01248167Y00876835D01*
X01251499D01*
X01253165Y00878501D01*
Y00881833D01*
X01251499Y00883499D01*
X01249833D01*
X01248167Y00881833D01*
Y00876835D01*
X01254831Y00886831D02*
Y00893496D01*
X01253165Y00903493D02*
Y00896828D01*
X01246501Y00903493D01*
X01244835D01*
X01243168Y00901827D01*
Y00898494D01*
X01244835Y00896828D01*
X01055835Y00837172D02*
X01054168Y00835506D01*
Y00832173D01*
X01055835Y00830507D01*
X01062499D01*
X01064165Y00832173D01*
Y00835506D01*
X01062499Y00837172D01*
X01064165Y00840504D02*
Y00843836D01*
Y00842170D01*
X01054168D01*
X01055835Y00840504D01*
X01054168Y00855499D02*
Y00848835D01*
X01059167D01*
X01057501Y00852167D01*
Y00853833D01*
X01059167Y00855499D01*
X01062499D01*
X01064165Y00853833D01*
Y00850501D01*
X01062499Y00848835D01*
X01065831Y00858831D02*
Y00865496D01*
X01064165Y00875493D02*
Y00868828D01*
X01057501Y00875493D01*
X01055835D01*
X01054168Y00873827D01*
Y00870494D01*
X01055835Y00868828D01*
X01266835Y00865172D02*
X01265169Y00863506D01*
Y00860173D01*
X01266835Y00858507D01*
X01273499D01*
X01275165Y00860173D01*
Y00863506D01*
X01273499Y00865172D01*
X01275165Y00868504D02*
Y00871836D01*
Y00870170D01*
X01265169D01*
X01266835Y00868504D01*
X01265169Y00876835D02*
Y00883499D01*
X01266835D01*
X01273499Y00876835D01*
X01275165D01*
X01276831Y00886831D02*
Y00893496D01*
X01275165Y00903493D02*
Y00896828D01*
X01268501Y00903493D01*
X01266835D01*
X01265169Y00901827D01*
Y00898494D01*
X01266835Y00896828D01*
X01080835Y01110838D02*
X01079168Y01109172D01*
Y01105839D01*
X01080835Y01104173D01*
X01087499D01*
X01089165Y01105839D01*
Y01109172D01*
X01087499Y01110838D01*
X01089165Y01114170D02*
Y01117502D01*
Y01115836D01*
X01079168D01*
X01080835Y01114170D01*
Y01122501D02*
X01079168Y01124167D01*
Y01127499D01*
X01080835Y01129165D01*
X01082501D01*
X01084167Y01127499D01*
X01085833Y01129165D01*
X01087499D01*
X01089165Y01127499D01*
Y01124167D01*
X01087499Y01122501D01*
X01085833D01*
X01084167Y01124167D01*
X01082501Y01122501D01*
X01080835D01*
X01084167Y01124167D02*
Y01127499D01*
X01090831Y01132498D02*
Y01139162D01*
X01089165Y01142494D02*
Y01145827D01*
Y01144161D01*
X01079168D01*
X01080835Y01142494D01*
X01245835Y01040838D02*
X01244168Y01039172D01*
Y01035839D01*
X01245835Y01034173D01*
X01252499D01*
X01254165Y01035839D01*
Y01039172D01*
X01252499Y01040838D01*
X01254165Y01044170D02*
Y01047502D01*
Y01045836D01*
X01244168D01*
X01245835Y01044170D01*
X01244168Y01059165D02*
X01245835Y01055833D01*
X01249167Y01052501D01*
X01252499D01*
X01254165Y01054167D01*
Y01057499D01*
X01252499Y01059165D01*
X01250833D01*
X01249167Y01057499D01*
Y01052501D01*
X01255831Y01062498D02*
Y01069162D01*
X01254165Y01072494D02*
Y01075827D01*
Y01074161D01*
X01244168D01*
X01245835Y01072494D01*
X01267835Y01040838D02*
X01266169Y01039172D01*
Y01035839D01*
X01267835Y01034173D01*
X01274499D01*
X01276165Y01035839D01*
Y01039172D01*
X01274499Y01040838D01*
X01276165Y01044170D02*
Y01047502D01*
Y01045836D01*
X01266169D01*
X01267835Y01044170D01*
X01266169Y01052501D02*
Y01059165D01*
X01267835D01*
X01274499Y01052501D01*
X01276165D01*
X01277831Y01062498D02*
Y01069162D01*
X01276165Y01072494D02*
Y01075827D01*
Y01074161D01*
X01266169D01*
X01267835Y01072494D01*
X01080835Y01005838D02*
X01079168Y01004172D01*
Y01000839D01*
X01080835Y00999173D01*
X01087499D01*
X01089165Y01000839D01*
Y01004172D01*
X01087499Y01005838D01*
X01089165Y01009170D02*
Y01012502D01*
Y01010836D01*
X01079168D01*
X01080835Y01009170D01*
X01089165Y01022499D02*
X01079168D01*
X01084167Y01017501D01*
Y01024165D01*
X01090831Y01027498D02*
Y01034162D01*
X01089165Y01037494D02*
Y01040827D01*
Y01039161D01*
X01079168D01*
X01080835Y01037494D01*
X01053835Y01005838D02*
X01052169Y01004172D01*
Y01000839D01*
X01053835Y00999173D01*
X01060499D01*
X01062165Y01000839D01*
Y01004172D01*
X01060499Y01005838D01*
X01062165Y01009170D02*
Y01012502D01*
Y01010836D01*
X01052169D01*
X01053835Y01009170D01*
X01052169Y01024165D02*
Y01017501D01*
X01057167D01*
X01055501Y01020833D01*
Y01022499D01*
X01057167Y01024165D01*
X01060499D01*
X01062165Y01022499D01*
Y01019167D01*
X01060499Y01017501D01*
X01063831Y01027498D02*
Y01034162D01*
X01062165Y01037494D02*
Y01040827D01*
Y01039161D01*
X01052169D01*
X01053835Y01037494D01*
X01341002Y01198335D02*
X01350998D01*
Y01203334D01*
X01349332Y01205000D01*
X01347666D01*
X01346000Y01203334D01*
Y01198335D01*
Y01203334D01*
X01344334Y01205000D01*
X01342668D01*
X01341002Y01203334D01*
Y01198335D01*
X01350998Y01208332D02*
Y01211665D01*
Y01209998D01*
X01341002D01*
X01342668Y01208332D01*
M02*
