G04*
G04 #@! TF.GenerationSoftware,Altium Limited,Altium Designer,22.2.1 (43)*
G04*
G04 Layer_Color=8421504*
%FSAX44Y44*%
%MOMM*%
G71*
G04*
G04 #@! TF.SameCoordinates,153B5C95-5CF5-4743-8735-2B8DBF92E26D*
G04*
G04*
G04 #@! TF.FilePolarity,Positive*
G04*
G01*
G75*
%ADD17R,0.7000X0.9000*%
%ADD18R,0.9000X0.6000*%
%ADD19O,0.2540X1.5000*%
%ADD20O,1.5000X0.2540*%
%ADD21R,0.6000X0.9000*%
%ADD22O,1.6000X0.6500*%
%ADD23O,1.3000X0.6000*%
G04:AMPARAMS|DCode=24|XSize=1.6mm|YSize=1.8mm|CornerRadius=0.16mm|HoleSize=0mm|Usage=FLASHONLY|Rotation=0.000|XOffset=0mm|YOffset=0mm|HoleType=Round|Shape=RoundedRectangle|*
%AMROUNDEDRECTD24*
21,1,1.6000,1.4800,0,0,0.0*
21,1,1.2800,1.8000,0,0,0.0*
1,1,0.3200,0.6400,-0.7400*
1,1,0.3200,-0.6400,-0.7400*
1,1,0.3200,-0.6400,0.7400*
1,1,0.3200,0.6400,0.7400*
%
%ADD24ROUNDEDRECTD24*%
G04:AMPARAMS|DCode=25|XSize=1.5mm|YSize=0.8mm|CornerRadius=0.08mm|HoleSize=0mm|Usage=FLASHONLY|Rotation=180.000|XOffset=0mm|YOffset=0mm|HoleType=Round|Shape=RoundedRectangle|*
%AMROUNDEDRECTD25*
21,1,1.5000,0.6400,0,0,180.0*
21,1,1.3400,0.8000,0,0,180.0*
1,1,0.1600,-0.6700,0.3200*
1,1,0.1600,0.6700,0.3200*
1,1,0.1600,0.6700,-0.3200*
1,1,0.1600,-0.6700,-0.3200*
%
%ADD25ROUNDEDRECTD25*%
G04:AMPARAMS|DCode=26|XSize=2.2mm|YSize=2mm|CornerRadius=0.2mm|HoleSize=0mm|Usage=FLASHONLY|Rotation=180.000|XOffset=0mm|YOffset=0mm|HoleType=Round|Shape=RoundedRectangle|*
%AMROUNDEDRECTD26*
21,1,2.2000,1.6000,0,0,180.0*
21,1,1.8000,2.0000,0,0,180.0*
1,1,0.4000,-0.9000,0.8000*
1,1,0.4000,0.9000,0.8000*
1,1,0.4000,0.9000,-0.8000*
1,1,0.4000,-0.9000,-0.8000*
%
%ADD26ROUNDEDRECTD26*%
%ADD27R,0.9000X0.7000*%
G04:AMPARAMS|DCode=28|XSize=2mm|YSize=2.4mm|CornerRadius=0.5mm|HoleSize=0mm|Usage=FLASHONLY|Rotation=180.000|XOffset=0mm|YOffset=0mm|HoleType=Round|Shape=RoundedRectangle|*
%AMROUNDEDRECTD28*
21,1,2.0000,1.4000,0,0,180.0*
21,1,1.0000,2.4000,0,0,180.0*
1,1,1.0000,-0.5000,0.7000*
1,1,1.0000,0.5000,0.7000*
1,1,1.0000,0.5000,-0.7000*
1,1,1.0000,-0.5000,-0.7000*
%
%ADD28ROUNDEDRECTD28*%
%ADD29R,0.8000X0.4000*%
%ADD30O,2.0000X0.6000*%
%ADD31R,2.0000X0.6000*%
%ADD32R,1.1000X1.7000*%
G04:AMPARAMS|DCode=33|XSize=2mm|YSize=3mm|CornerRadius=0.2mm|HoleSize=0mm|Usage=FLASHONLY|Rotation=180.000|XOffset=0mm|YOffset=0mm|HoleType=Round|Shape=RoundedRectangle|*
%AMROUNDEDRECTD33*
21,1,2.0000,2.6000,0,0,180.0*
21,1,1.6000,3.0000,0,0,180.0*
1,1,0.4000,-0.8000,1.3000*
1,1,0.4000,0.8000,1.3000*
1,1,0.4000,0.8000,-1.3000*
1,1,0.4000,-0.8000,-1.3000*
%
%ADD33ROUNDEDRECTD33*%
G04:AMPARAMS|DCode=34|XSize=2mm|YSize=3.2mm|CornerRadius=0.2mm|HoleSize=0mm|Usage=FLASHONLY|Rotation=90.000|XOffset=0mm|YOffset=0mm|HoleType=Round|Shape=RoundedRectangle|*
%AMROUNDEDRECTD34*
21,1,2.0000,2.8000,0,0,90.0*
21,1,1.6000,3.2000,0,0,90.0*
1,1,0.4000,1.4000,0.8000*
1,1,0.4000,1.4000,-0.8000*
1,1,0.4000,-1.4000,-0.8000*
1,1,0.4000,-1.4000,0.8000*
%
%ADD34ROUNDEDRECTD34*%
%ADD35R,1.2000X0.7000*%
D17*
X01078000Y01357000D02*
D03*
X01059000D02*
D03*
X01068500Y01336000D02*
D03*
D18*
X00968000Y01339200D02*
D03*
Y01354800D02*
D03*
X01025000Y01354800D02*
D03*
Y01339200D02*
D03*
X00997000Y01354800D02*
D03*
Y01339200D02*
D03*
X01108000Y01354800D02*
D03*
Y01339200D02*
D03*
X01138000D02*
D03*
Y01354800D02*
D03*
X01550000Y01272800D02*
D03*
Y01257200D02*
D03*
X01575000Y01272800D02*
D03*
Y01257200D02*
D03*
X01525000D02*
D03*
Y01272800D02*
D03*
X01477500Y01257200D02*
D03*
Y01272800D02*
D03*
X01345000Y01057800D02*
D03*
Y01042200D02*
D03*
X01415000Y01057800D02*
D03*
Y01042200D02*
D03*
X01580000Y01097800D02*
D03*
Y01082200D02*
D03*
X01555000Y01097800D02*
D03*
Y01082200D02*
D03*
X01520000Y01034700D02*
D03*
Y01050300D02*
D03*
X01480000Y01034700D02*
D03*
Y01050300D02*
D03*
X01096000Y00938450D02*
D03*
Y00954050D02*
D03*
Y00833651D02*
D03*
Y00849251D02*
D03*
X01072000Y00954050D02*
D03*
Y00938450D02*
D03*
Y00833651D02*
D03*
Y00849251D02*
D03*
X01271000Y01009401D02*
D03*
Y01025001D02*
D03*
X01249000Y01009401D02*
D03*
Y01025001D02*
D03*
X01271000Y00833651D02*
D03*
Y00849251D02*
D03*
X01249000Y00833651D02*
D03*
Y00849251D02*
D03*
X01271000Y01182450D02*
D03*
Y01198050D02*
D03*
X01249000D02*
D03*
Y01182450D02*
D03*
X01096000Y01304050D02*
D03*
Y01288450D02*
D03*
X01072000D02*
D03*
Y01304050D02*
D03*
X01096000Y01199251D02*
D03*
Y01183651D02*
D03*
X01072000Y01199251D02*
D03*
Y01183651D02*
D03*
X01096000Y01114200D02*
D03*
Y01129800D02*
D03*
X01072000D02*
D03*
Y01114200D02*
D03*
X01096000Y01009401D02*
D03*
Y01025001D02*
D03*
X01072000Y01009401D02*
D03*
Y01025001D02*
D03*
X00869000Y00707400D02*
D03*
Y00723000D02*
D03*
X01368250Y00837275D02*
D03*
Y00821675D02*
D03*
Y00981675D02*
D03*
Y00997275D02*
D03*
X01393250Y00901675D02*
D03*
Y00917275D02*
D03*
X01368250D02*
D03*
Y00901675D02*
D03*
X01393250Y00981675D02*
D03*
Y00997275D02*
D03*
X01668250Y00901075D02*
D03*
Y00916675D02*
D03*
X01693250Y00901075D02*
D03*
Y00916675D02*
D03*
Y00981675D02*
D03*
Y00997275D02*
D03*
X01668250Y00981675D02*
D03*
Y00997275D02*
D03*
X01548250Y00981675D02*
D03*
Y00997275D02*
D03*
Y00917275D02*
D03*
Y00901675D02*
D03*
Y00837275D02*
D03*
Y00821675D02*
D03*
X01573250Y00901675D02*
D03*
Y00917275D02*
D03*
Y00981675D02*
D03*
Y00997275D02*
D03*
X01488250Y00837275D02*
D03*
Y00821675D02*
D03*
Y00981675D02*
D03*
Y00997275D02*
D03*
Y00917275D02*
D03*
Y00901675D02*
D03*
X01513250D02*
D03*
Y00917275D02*
D03*
Y00981675D02*
D03*
Y00997275D02*
D03*
X01773000Y01050600D02*
D03*
Y01035000D02*
D03*
X01823000Y01050600D02*
D03*
Y01035000D02*
D03*
X01798000D02*
D03*
Y01050600D02*
D03*
X01773000Y01000600D02*
D03*
Y00985000D02*
D03*
X01823000Y01000600D02*
D03*
Y00985000D02*
D03*
X01798000D02*
D03*
Y01000600D02*
D03*
X01773000Y00950600D02*
D03*
Y00935000D02*
D03*
X01823000Y00950600D02*
D03*
Y00935000D02*
D03*
X01798000D02*
D03*
Y00950600D02*
D03*
X01823000Y00900600D02*
D03*
Y00885000D02*
D03*
X01798000D02*
D03*
Y00900600D02*
D03*
X01773000D02*
D03*
Y00885000D02*
D03*
X01453250Y00901675D02*
D03*
Y00917275D02*
D03*
X01428250Y00837275D02*
D03*
Y00821675D02*
D03*
Y00917275D02*
D03*
Y00901675D02*
D03*
Y00981675D02*
D03*
Y00997275D02*
D03*
X01453250Y00981675D02*
D03*
Y00997275D02*
D03*
X01182000Y00707400D02*
D03*
Y00723000D02*
D03*
D19*
X01552500Y01119926D02*
D03*
X01547500D02*
D03*
X01542500D02*
D03*
X01537500D02*
D03*
X01532500D02*
D03*
X01527500D02*
D03*
X01522500D02*
D03*
X01517500D02*
D03*
X01512500D02*
D03*
X01507500D02*
D03*
X01502500D02*
D03*
X01497500D02*
D03*
X01492500D02*
D03*
X01487500D02*
D03*
X01482500D02*
D03*
X01477500D02*
D03*
X01552500Y01235926D02*
D03*
X01547500D02*
D03*
X01542500D02*
D03*
X01537500D02*
D03*
X01532500D02*
D03*
X01527500D02*
D03*
X01522500D02*
D03*
X01517500D02*
D03*
X01512500D02*
D03*
X01507500D02*
D03*
X01502500D02*
D03*
X01497500D02*
D03*
X01492500D02*
D03*
X01487500D02*
D03*
X01482500D02*
D03*
X01477500D02*
D03*
D20*
X01573000Y01140426D02*
D03*
Y01145426D02*
D03*
Y01150426D02*
D03*
Y01155426D02*
D03*
Y01160426D02*
D03*
Y01165426D02*
D03*
Y01170426D02*
D03*
Y01175426D02*
D03*
Y01180426D02*
D03*
Y01215426D02*
D03*
Y01210426D02*
D03*
Y01205426D02*
D03*
Y01200426D02*
D03*
Y01195426D02*
D03*
Y01190426D02*
D03*
Y01185426D02*
D03*
X01457000Y01140426D02*
D03*
Y01150426D02*
D03*
Y01155426D02*
D03*
Y01160426D02*
D03*
Y01165426D02*
D03*
Y01170426D02*
D03*
Y01175426D02*
D03*
Y01145426D02*
D03*
Y01180426D02*
D03*
Y01215426D02*
D03*
Y01210426D02*
D03*
Y01205426D02*
D03*
Y01200426D02*
D03*
Y01195426D02*
D03*
Y01190426D02*
D03*
Y01185426D02*
D03*
D21*
X01597200Y01215426D02*
D03*
X01612800D02*
D03*
X01432800Y01200000D02*
D03*
X01417200D02*
D03*
X01432800Y01170000D02*
D03*
X01417200D02*
D03*
X01432800Y01140426D02*
D03*
X01417200D02*
D03*
X01364700Y01109926D02*
D03*
X01380300D02*
D03*
X00968750Y01284500D02*
D03*
X00953150D02*
D03*
X00968750Y01266250D02*
D03*
X00953150D02*
D03*
Y01191451D02*
D03*
X00968750D02*
D03*
X01792800Y01223100D02*
D03*
X01777200D02*
D03*
X01752800Y01235800D02*
D03*
X01737200D02*
D03*
X01792800Y01197700D02*
D03*
X01777200D02*
D03*
X01792800Y01146900D02*
D03*
X01777200D02*
D03*
X01835600Y01185000D02*
D03*
X01820000D02*
D03*
X01877800Y01172300D02*
D03*
X01862200D02*
D03*
X01835600Y01159600D02*
D03*
X01820000D02*
D03*
X01877800Y01223100D02*
D03*
X01862200D02*
D03*
X01835600Y01235800D02*
D03*
X01820000D02*
D03*
X01877800Y01197700D02*
D03*
X01862200D02*
D03*
X01835600Y01210400D02*
D03*
X01820000D02*
D03*
X01752800Y01159600D02*
D03*
X01737200D02*
D03*
X01792800Y01172300D02*
D03*
X01777200D02*
D03*
X01752800Y01185000D02*
D03*
X01737200D02*
D03*
X01752800Y01210400D02*
D03*
X01737200D02*
D03*
X01877800Y01146900D02*
D03*
X01862200D02*
D03*
X01612800Y01150426D02*
D03*
X01597200D02*
D03*
X01364700Y01245926D02*
D03*
X01380300D02*
D03*
D22*
X01646750Y01087700D02*
D03*
Y01100400D02*
D03*
Y01075000D02*
D03*
Y01062300D02*
D03*
X01710750D02*
D03*
X01710750Y01100400D02*
D03*
Y01087700D02*
D03*
Y01075000D02*
D03*
D23*
X01650000Y01146900D02*
D03*
Y01159600D02*
D03*
Y01172300D02*
D03*
Y01185000D02*
D03*
Y01197700D02*
D03*
Y01210400D02*
D03*
Y01223100D02*
D03*
Y01235800D02*
D03*
X01707500D02*
D03*
Y01223100D02*
D03*
Y01210400D02*
D03*
Y01197700D02*
D03*
Y01185000D02*
D03*
Y01172300D02*
D03*
Y01159600D02*
D03*
Y01146900D02*
D03*
D24*
X01372500Y01213551D02*
D03*
Y01142301D02*
D03*
D25*
X01415000Y01085000D02*
D03*
D26*
X01441000D02*
D03*
D27*
X01389250Y01040500D02*
D03*
Y01059500D02*
D03*
X01368250Y01050000D02*
D03*
X00947750Y01053847D02*
D03*
X00968750Y01063347D02*
D03*
Y01044347D02*
D03*
X00947750Y00878313D02*
D03*
X00968750Y00887813D02*
D03*
Y00868813D02*
D03*
X00947750Y01228002D02*
D03*
X00968750Y01237502D02*
D03*
Y01218502D02*
D03*
X01389250Y00869475D02*
D03*
X01368250Y00859975D02*
D03*
Y00878975D02*
D03*
X01389250Y00948975D02*
D03*
X01368250Y00939475D02*
D03*
Y00958475D02*
D03*
X01689250Y00948975D02*
D03*
X01668250Y00939475D02*
D03*
Y00958475D02*
D03*
X01569250Y00869475D02*
D03*
X01548250Y00859975D02*
D03*
Y00878975D02*
D03*
X01569250Y00948975D02*
D03*
X01548250Y00939475D02*
D03*
Y00958475D02*
D03*
X01509250Y00948975D02*
D03*
X01488250Y00939475D02*
D03*
Y00958475D02*
D03*
X01509250Y00869475D02*
D03*
X01488250Y00859975D02*
D03*
Y00878975D02*
D03*
X01449250Y00948975D02*
D03*
X01428250Y00939475D02*
D03*
Y00958475D02*
D03*
X01449250Y00869475D02*
D03*
X01428250Y00859975D02*
D03*
Y00878975D02*
D03*
D28*
X01480000Y01085000D02*
D03*
X01520000D02*
D03*
D29*
X01019500Y01060250D02*
D03*
X01042500D02*
D03*
X01019500Y01047250D02*
D03*
X01042500D02*
D03*
X01019500Y00884717D02*
D03*
X01042500D02*
D03*
X01019500Y00871717D02*
D03*
X01042500D02*
D03*
X01019500Y01234405D02*
D03*
X01042500D02*
D03*
X01019500Y01221405D02*
D03*
X01042500D02*
D03*
D30*
X01124100Y00884451D02*
D03*
Y00897151D02*
D03*
Y00909851D02*
D03*
X01220100Y00884451D02*
D03*
Y00897151D02*
D03*
X01124100Y00871751D02*
D03*
X01124100Y00859051D02*
D03*
X01124100Y00846351D02*
D03*
X01220100Y00909851D02*
D03*
Y00846351D02*
D03*
Y00871751D02*
D03*
Y00859051D02*
D03*
X01124100Y00833651D02*
D03*
X01220100Y00922551D02*
D03*
X01124100D02*
D03*
X01124100Y01060201D02*
D03*
Y01072901D02*
D03*
Y01085601D02*
D03*
X01220100Y01060201D02*
D03*
Y01072901D02*
D03*
X01124100Y01047501D02*
D03*
X01124100Y01034801D02*
D03*
X01124100Y01022101D02*
D03*
X01220100Y01085601D02*
D03*
Y01022101D02*
D03*
Y01047501D02*
D03*
Y01034801D02*
D03*
X01124100Y01009401D02*
D03*
X01220100Y01098301D02*
D03*
X01124100D02*
D03*
Y01272551D02*
D03*
X01220100D02*
D03*
X01124100Y01183651D02*
D03*
X01220100Y01209051D02*
D03*
Y01221751D02*
D03*
Y01196351D02*
D03*
Y01259851D02*
D03*
X01124100Y01196351D02*
D03*
X01124100Y01209051D02*
D03*
X01124100Y01221751D02*
D03*
X01220100Y01247151D02*
D03*
Y01234451D02*
D03*
X01124100Y01259851D02*
D03*
Y01247151D02*
D03*
Y01234451D02*
D03*
D31*
X01220100Y00833651D02*
D03*
Y01009401D02*
D03*
Y01183651D02*
D03*
D32*
X01014000Y01266250D02*
D03*
X01048000D02*
D03*
Y01191451D02*
D03*
X01014000D02*
D03*
D33*
X00828000Y00643000D02*
D03*
X00762000D02*
D03*
Y00723000D02*
D03*
X00828000D02*
D03*
D34*
X01235000D02*
D03*
Y00673250D02*
D03*
D35*
X01425125Y01273000D02*
D03*
Y01310000D02*
D03*
M02*
