M48
;Layer_Color=9474304
;FILE_FORMAT=4:4
METRIC,LZ
;TYPE=PLATED
T1F00S00C0.3000
T2F00S00C0.5000
T3F00S00C0.6500
T4F00S00C0.9000
T5F00S00C1.2000
T6F00S00C2.2000
T7F00S00C3.2000
T8F00S00C4.0000
%
T01
X00555Y01007
X00637Y00968
X00638Y00955
X00641Y01054
Y0107
X00785Y00915
X00961Y00878
X0096Y01054
X012659
Y010409
X01279Y010413
X01279416Y01054416
X01279Y00878
Y008653
X012659Y008649
Y00878
X01351Y00822
X01415
X01474
X01532
X01531426Y00967057
X01470907Y00968051
X01411426Y00968057
X01416845Y01109357
X01442426Y01119057
Y01149057
X01502Y01157
X01495Y01165
X015075Y01137
X01534426Y01136057
X01560426Y01145426
X01567426Y01082057
X01580426Y01071057
X01521931Y01103201
X0151466Y01104534
X01508205Y01107835
X01597Y01097689
Y01134
X01615426Y01130057
X01633Y01159
X01646Y01112
X0163Y01075
X01633Y01062
X016787Y010623
X01694Y01076
X01693Y0104485
X01652426Y01013057
X01592426Y00967057
X01757Y00951
X01755926Y010006
Y00901
X01764Y01161
Y01182
X01806Y01167
X01590845Y01187
X01603155Y01191
X01621Y01198
X016317Y011977
X01589Y01205
X01597374Y01230258
X01765Y01208
X01805Y01204
Y01223
X01570426Y01232057
X01483Y01215
X01486Y01199
X01494Y01192
X0146829Y01219951
X01460426Y01233057
X014447Y012313
X01394Y01231
X01372Y01198
X01454426Y01273057
X01489Y01257
X01512Y01281
X01245574Y01236426
X01236Y01228
X00961
X00953015Y01206432
Y01253732
X00871Y01323
X00852Y01304
T02
X0164Y00723
X01739
X01084Y00921
Y01098
X01558Y00808
X01632Y00881
X01084Y01277
T03
X01288Y00723
X01065Y00772
X00709Y00943
X00685Y00948
X01287Y0081925
T04
X009366Y006214
X00962
X009366Y00723
X01089
X011144
Y006214
X014642Y0131
X014896
X01515
X015404
X015658
T05
X00575Y00878
X006
X00625
Y00915
X006
X00575
Y0095
X006
Y00975
Y01
X00625
Y01025
X006
Y0105
Y01075
Y011
X00625
Y01125
Y0115
Y01175
X006
Y0115
Y01125
X00575
Y0115
Y01175
Y011
Y01075
Y0105
Y01025
Y01
Y00975
X00625
Y0095
Y0105
Y01075
T06
X0066Y008135
Y012395
T07
X0194Y0054
X0054
X0194Y0151
X0054
T08
X006215Y007725
Y012805
M30
