G04*
G04 #@! TF.GenerationSoftware,Altium Limited,Altium Designer,22.2.1 (43)*
G04*
G04 Layer_Physical_Order=2*
G04 Layer_Color=16711680*
%FSAX44Y44*%
%MOMM*%
G71*
G04*
G04 #@! TF.SameCoordinates,153B5C95-5CF5-4743-8735-2B8DBF92E26D*
G04*
G04*
G04 #@! TF.FilePolarity,Positive*
G04*
G01*
G75*
%ADD59C,0.7000*%
%ADD60C,0.3810*%
%ADD61C,0.3000*%
%ADD62C,0.5000*%
%ADD63C,1.5000*%
%ADD64C,1.5240*%
%ADD65C,1.8000*%
%ADD66C,5.8000*%
%ADD67C,0.8000*%
%ADD68C,1.0000*%
%ADD69C,0.6000*%
G36*
X01947322Y01546810D02*
X01952064Y01545540D01*
X01956600Y01543661D01*
X01960851Y01541206D01*
X01964746Y01538218D01*
X01968218Y01534746D01*
X01971206Y01530851D01*
X01973661Y01526600D01*
X01975540Y01522064D01*
X01976810Y01517322D01*
X01977451Y01512455D01*
Y01510000D01*
Y00540000D01*
Y00537545D01*
X01976810Y00532678D01*
X01975540Y00527936D01*
X01973661Y00523400D01*
X01971206Y00519149D01*
X01968218Y00515254D01*
X01964746Y00511782D01*
X01960851Y00508794D01*
X01956600Y00506339D01*
X01952064Y00504460D01*
X01947322Y00503190D01*
X01942455Y00502549D01*
X00537545D01*
X00532678Y00503190D01*
X00527936Y00504460D01*
X00523400Y00506339D01*
X00519149Y00508794D01*
X00515254Y00511782D01*
X00511782Y00515254D01*
X00508794Y00519149D01*
X00506339Y00523400D01*
X00504460Y00527936D01*
X00503190Y00532678D01*
X00502549Y00537545D01*
Y00540000D01*
Y01510000D01*
Y01512455D01*
X00503190Y01517322D01*
X00504460Y01522064D01*
X00506339Y01526600D01*
X00508794Y01530851D01*
X00511782Y01534746D01*
X00515254Y01538218D01*
X00519149Y01541206D01*
X00523400Y01543661D01*
X00527936Y01545540D01*
X00532678Y01546810D01*
X00537545Y01547451D01*
X01942455D01*
X01947322Y01546810D01*
D02*
G37*
%LPC*%
G36*
X01941270Y01540996D02*
Y01511270D01*
X01970996D01*
X01970713Y01514865D01*
X01969574Y01519609D01*
X01967707Y01524117D01*
X01965157Y01528278D01*
X01961988Y01531988D01*
X01958278Y01535157D01*
X01954117Y01537707D01*
X01949609Y01539574D01*
X01944865Y01540713D01*
X01941270Y01540996D01*
D02*
G37*
G36*
X01938730D02*
X01935136Y01540713D01*
X01930391Y01539574D01*
X01925883Y01537707D01*
X01921722Y01535157D01*
X01918012Y01531988D01*
X01914843Y01528278D01*
X01912293Y01524117D01*
X01910426Y01519609D01*
X01909287Y01514865D01*
X01909004Y01511270D01*
X01938730D01*
Y01540996D01*
D02*
G37*
G36*
X00541270D02*
Y01511270D01*
X00570996D01*
X00570713Y01514865D01*
X00569574Y01519609D01*
X00567707Y01524117D01*
X00565157Y01528278D01*
X00561988Y01531988D01*
X00558278Y01535157D01*
X00554117Y01537707D01*
X00549609Y01539574D01*
X00544865Y01540713D01*
X00541270Y01540996D01*
D02*
G37*
G36*
X00538730D02*
X00535136Y01540713D01*
X00530391Y01539574D01*
X00525883Y01537707D01*
X00521722Y01535157D01*
X00518012Y01531988D01*
X00514843Y01528278D01*
X00512293Y01524117D01*
X00510426Y01519609D01*
X00509287Y01514865D01*
X00509004Y01511270D01*
X00538730D01*
Y01540996D01*
D02*
G37*
G36*
X01970996Y01508730D02*
X01941270D01*
Y01479004D01*
X01944865Y01479287D01*
X01949609Y01480426D01*
X01954117Y01482293D01*
X01958278Y01484843D01*
X01961988Y01488012D01*
X01965157Y01491722D01*
X01967707Y01495883D01*
X01969574Y01500391D01*
X01970713Y01505135D01*
X01970996Y01508730D01*
D02*
G37*
G36*
X01938730D02*
X01909004D01*
X01909287Y01505135D01*
X01910426Y01500391D01*
X01912293Y01495883D01*
X01914843Y01491722D01*
X01918012Y01488012D01*
X01921722Y01484843D01*
X01925883Y01482293D01*
X01930391Y01480426D01*
X01935136Y01479287D01*
X01938730Y01479004D01*
Y01508730D01*
D02*
G37*
G36*
X00570996D02*
X00541270D01*
Y01479004D01*
X00544865Y01479287D01*
X00549609Y01480426D01*
X00554117Y01482293D01*
X00558278Y01484843D01*
X00561988Y01488012D01*
X00565157Y01491722D01*
X00567707Y01495883D01*
X00569574Y01500391D01*
X00570713Y01505135D01*
X00570996Y01508730D01*
D02*
G37*
G36*
X00538730D02*
X00509004D01*
X00509287Y01505135D01*
X00510426Y01500391D01*
X00512293Y01495883D01*
X00514843Y01491722D01*
X00518012Y01488012D01*
X00521722Y01484843D01*
X00525883Y01482293D01*
X00530391Y01480426D01*
X00535136Y01479287D01*
X00538730Y01479004D01*
Y01508730D01*
D02*
G37*
G36*
X00871000Y01328098D02*
X00869049Y01327710D01*
X00867395Y01326605D01*
X00866290Y01324951D01*
X00865902Y01323000D01*
X00865911Y01322957D01*
X00852043Y01309090D01*
X00852000Y01309098D01*
X00850049Y01308710D01*
X00848395Y01307605D01*
X00847290Y01305951D01*
X00846902Y01304000D01*
X00847290Y01302049D01*
X00848395Y01300395D01*
X00850049Y01299290D01*
X00852000Y01298902D01*
X00853951Y01299290D01*
X00855605Y01300395D01*
X00856710Y01302049D01*
X00857098Y01304000D01*
X00857089Y01304043D01*
X00870957Y01317910D01*
X00871000Y01317902D01*
X00872951Y01318290D01*
X00874605Y01319395D01*
X00875710Y01321049D01*
X00876098Y01323000D01*
X00875710Y01324951D01*
X00874605Y01326605D01*
X00872951Y01327710D01*
X00871000Y01328098D01*
D02*
G37*
G36*
X01465470Y01319415D02*
Y01311270D01*
X01473615D01*
X01473455Y01312480D01*
X01472498Y01314791D01*
X01470975Y01316775D01*
X01468991Y01318298D01*
X01466680Y01319256D01*
X01465470Y01319415D01*
D02*
G37*
G36*
X01462930D02*
X01461720Y01319256D01*
X01459409Y01318298D01*
X01457424Y01316775D01*
X01455902Y01314791D01*
X01454944Y01312480D01*
X01454785Y01311270D01*
X01462930D01*
Y01319415D01*
D02*
G37*
G36*
X01473615Y01308730D02*
X01465470D01*
Y01300585D01*
X01466680Y01300744D01*
X01468991Y01301702D01*
X01470975Y01303224D01*
X01472498Y01305209D01*
X01473455Y01307520D01*
X01473615Y01308730D01*
D02*
G37*
G36*
X01462930D02*
X01454785D01*
X01454944Y01307520D01*
X01455902Y01305209D01*
X01457424Y01303224D01*
X01459409Y01301702D01*
X01461720Y01300744D01*
X01462930Y01300585D01*
Y01308730D01*
D02*
G37*
G36*
X01565800Y01319582D02*
X01563320Y01319256D01*
X01561009Y01318298D01*
X01559025Y01316775D01*
X01557502Y01314791D01*
X01556544Y01312480D01*
X01556218Y01310000D01*
X01556544Y01307520D01*
X01557502Y01305209D01*
X01559025Y01303224D01*
X01561009Y01301702D01*
X01563320Y01300744D01*
X01565800Y01300418D01*
X01568280Y01300744D01*
X01570591Y01301702D01*
X01572575Y01303224D01*
X01574098Y01305209D01*
X01575055Y01307520D01*
X01575382Y01310000D01*
X01575055Y01312480D01*
X01574098Y01314791D01*
X01572575Y01316775D01*
X01570591Y01318298D01*
X01568280Y01319256D01*
X01565800Y01319582D01*
D02*
G37*
G36*
X01540400D02*
X01537920Y01319256D01*
X01535609Y01318298D01*
X01533625Y01316775D01*
X01532102Y01314791D01*
X01531145Y01312480D01*
X01530818Y01310000D01*
X01531145Y01307520D01*
X01531651Y01306298D01*
X01525103Y01299750D01*
X01518398D01*
X01518145Y01301020D01*
X01519791Y01301702D01*
X01521775Y01303224D01*
X01523298Y01305209D01*
X01524255Y01307520D01*
X01524582Y01310000D01*
X01524255Y01312480D01*
X01523298Y01314791D01*
X01521775Y01316775D01*
X01519791Y01318298D01*
X01517480Y01319256D01*
X01515000Y01319582D01*
X01512520Y01319256D01*
X01510209Y01318298D01*
X01508224Y01316775D01*
X01506702Y01314791D01*
X01505744Y01312480D01*
X01505418Y01310000D01*
X01505744Y01307520D01*
X01506251Y01306298D01*
X01494708Y01294755D01*
X01493538Y01295381D01*
X01493582Y01295600D01*
Y01301366D01*
X01494391Y01301702D01*
X01496375Y01303224D01*
X01497898Y01305209D01*
X01498855Y01307520D01*
X01499182Y01310000D01*
X01498855Y01312480D01*
X01497898Y01314791D01*
X01496375Y01316775D01*
X01494391Y01318298D01*
X01492080Y01319256D01*
X01489600Y01319582D01*
X01487120Y01319256D01*
X01484809Y01318298D01*
X01482825Y01316775D01*
X01481302Y01314791D01*
X01480345Y01312480D01*
X01480018Y01310000D01*
X01480345Y01307520D01*
X01481302Y01305209D01*
X01482825Y01303224D01*
X01484809Y01301702D01*
X01485618Y01301366D01*
Y01297249D01*
X01431351Y01242981D01*
X01390000D01*
X01388476Y01242678D01*
X01387185Y01241815D01*
X01369185Y01223815D01*
X01368322Y01222524D01*
X01368018Y01221000D01*
Y01201041D01*
X01367290Y01199951D01*
X01366902Y01198000D01*
X01367290Y01196049D01*
X01368395Y01194395D01*
X01370049Y01193290D01*
X01372000Y01192902D01*
X01373951Y01193290D01*
X01375605Y01194395D01*
X01376710Y01196049D01*
X01377098Y01198000D01*
X01376710Y01199951D01*
X01375981Y01201041D01*
Y01219351D01*
X01387724Y01231094D01*
X01388989Y01230562D01*
X01389290Y01229049D01*
X01390395Y01227395D01*
X01392049Y01226290D01*
X01394000Y01225902D01*
X01395951Y01226290D01*
X01397265Y01227169D01*
X01441884D01*
X01442749Y01226590D01*
X01444700Y01226202D01*
X01446651Y01226590D01*
X01448305Y01227695D01*
X01449410Y01229349D01*
X01449798Y01231300D01*
X01449410Y01233251D01*
X01448305Y01234905D01*
X01446651Y01236010D01*
X01444700Y01236398D01*
X01442749Y01236010D01*
X01441434Y01235132D01*
X01436523D01*
X01436236Y01235559D01*
X01436032Y01236402D01*
X01463552Y01263922D01*
X01464723Y01263296D01*
X01464722Y01263290D01*
Y01223580D01*
X01464685Y01223556D01*
X01463580Y01221902D01*
X01463192Y01219951D01*
X01463580Y01218000D01*
X01464685Y01216346D01*
X01466339Y01215241D01*
X01468290Y01214853D01*
X01470241Y01215241D01*
X01471895Y01216346D01*
X01473000Y01218000D01*
X01473388Y01219951D01*
X01473000Y01221902D01*
X01471895Y01223556D01*
X01471859Y01223580D01*
Y01261812D01*
X01474204Y01264157D01*
X01474356Y01264138D01*
X01475431Y01263589D01*
Y01219257D01*
X01475703Y01217892D01*
X01476477Y01216734D01*
X01477953Y01215257D01*
X01477902Y01215000D01*
X01478290Y01213049D01*
X01479395Y01211395D01*
X01481049Y01210290D01*
X01483000Y01209902D01*
X01484951Y01210290D01*
X01486605Y01211395D01*
X01487710Y01213049D01*
X01488098Y01215000D01*
X01487710Y01216951D01*
X01486605Y01218605D01*
X01484951Y01219710D01*
X01483257Y01220047D01*
X01482569Y01220736D01*
Y01262522D01*
X01512659Y01292613D01*
X01526581D01*
X01527947Y01292885D01*
X01529105Y01293658D01*
X01536698Y01301251D01*
X01537920Y01300744D01*
X01540400Y01300418D01*
X01542880Y01300744D01*
X01545191Y01301702D01*
X01547175Y01303224D01*
X01548698Y01305209D01*
X01549655Y01307520D01*
X01549982Y01310000D01*
X01549655Y01312480D01*
X01548698Y01314791D01*
X01547175Y01316775D01*
X01545191Y01318298D01*
X01542880Y01319256D01*
X01540400Y01319582D01*
D02*
G37*
G36*
X00621500Y01303109D02*
X00617089Y01302674D01*
X00612848Y01301388D01*
X00608939Y01299299D01*
X00605513Y01296487D01*
X00602701Y01293061D01*
X00600612Y01289152D01*
X00599326Y01284911D01*
X00598891Y01280500D01*
X00599326Y01276089D01*
X00600612Y01271848D01*
X00602701Y01267939D01*
X00605513Y01264513D01*
X00608939Y01261701D01*
X00612848Y01259612D01*
X00617089Y01258326D01*
X00621500Y01257891D01*
X00625911Y01258326D01*
X00630152Y01259612D01*
X00634061Y01261701D01*
X00637487Y01264513D01*
X00640299Y01267939D01*
X00642388Y01271848D01*
X00643674Y01276089D01*
X00644109Y01280500D01*
X00643674Y01284911D01*
X00642388Y01289152D01*
X00640299Y01293061D01*
X00637487Y01296487D01*
X00634061Y01299299D01*
X00630152Y01301388D01*
X00625911Y01302674D01*
X00621500Y01303109D01*
D02*
G37*
G36*
X01512000Y01286098D02*
X01510049Y01285710D01*
X01508395Y01284605D01*
X01507290Y01282951D01*
X01506910Y01281041D01*
X01487711Y01261842D01*
X01487049Y01261710D01*
X01485395Y01260605D01*
X01484290Y01258951D01*
X01483902Y01257000D01*
X01484290Y01255049D01*
X01485395Y01253395D01*
X01487049Y01252290D01*
X01489000Y01251902D01*
X01490951Y01252290D01*
X01492605Y01253395D01*
X01493710Y01255049D01*
X01494090Y01256959D01*
X01513289Y01276159D01*
X01513951Y01276290D01*
X01515605Y01277395D01*
X01516710Y01279049D01*
X01517098Y01281000D01*
X01516710Y01282951D01*
X01515605Y01284605D01*
X01513951Y01285710D01*
X01512000Y01286098D01*
D02*
G37*
G36*
X01245574Y01241524D02*
X01243623Y01241136D01*
X01241969Y01240031D01*
X01240864Y01238377D01*
X01240606Y01237079D01*
X01236522Y01232994D01*
X01236000Y01233098D01*
X01234049Y01232710D01*
X01232395Y01231605D01*
X01231290Y01229951D01*
X01230902Y01228000D01*
X01231290Y01226049D01*
X01232395Y01224395D01*
X01234049Y01223290D01*
X01236000Y01222902D01*
X01237951Y01223290D01*
X01239605Y01224395D01*
X01240710Y01226049D01*
X01240968Y01227347D01*
X01245052Y01231432D01*
X01245574Y01231328D01*
X01247525Y01231716D01*
X01249179Y01232821D01*
X01250284Y01234475D01*
X01250672Y01236426D01*
X01250284Y01238377D01*
X01249179Y01240031D01*
X01247525Y01241136D01*
X01245574Y01241524D01*
D02*
G37*
G36*
X00660000Y01253117D02*
X00656476Y01252653D01*
X00653192Y01251292D01*
X00650372Y01249128D01*
X00648208Y01246308D01*
X00646848Y01243024D01*
X00646384Y01239500D01*
X00646848Y01235976D01*
X00648208Y01232692D01*
X00650372Y01229872D01*
X00653192Y01227708D01*
X00656476Y01226348D01*
X00660000Y01225883D01*
X00663524Y01226348D01*
X00666808Y01227708D01*
X00669628Y01229872D01*
X00671792Y01232692D01*
X00673152Y01235976D01*
X00673616Y01239500D01*
X00673152Y01243024D01*
X00671792Y01246308D01*
X00669628Y01249128D01*
X00666808Y01251292D01*
X00663524Y01252653D01*
X00660000Y01253117D01*
D02*
G37*
G36*
X01597374Y01235356D02*
X01595423Y01234968D01*
X01593770Y01233863D01*
X01592664Y01232209D01*
X01592276Y01230258D01*
X01592664Y01228307D01*
X01593018Y01227777D01*
Y01209856D01*
X01591749Y01209177D01*
X01590951Y01209710D01*
X01589000Y01210098D01*
X01587049Y01209710D01*
X01585395Y01208605D01*
X01584290Y01206951D01*
X01583902Y01205000D01*
X01584290Y01203049D01*
X01585018Y01201959D01*
Y01197649D01*
X01581185Y01193815D01*
X01580322Y01192524D01*
X01580018Y01191000D01*
Y01090000D01*
X01580322Y01088476D01*
X01581185Y01087185D01*
X01626335Y01042035D01*
X01627626Y01041172D01*
X01629150Y01040869D01*
X01689959D01*
X01691049Y01040140D01*
X01693000Y01039752D01*
X01694951Y01040140D01*
X01696605Y01041245D01*
X01697710Y01042899D01*
X01698098Y01044850D01*
X01697710Y01046801D01*
X01696605Y01048455D01*
X01694951Y01049560D01*
X01693000Y01049948D01*
X01691049Y01049560D01*
X01689959Y01048831D01*
X01630799D01*
X01629469Y01050161D01*
X01629995Y01051431D01*
X01671400D01*
X01672766Y01051703D01*
X01673923Y01052477D01*
X01678657Y01057210D01*
X01678700Y01057202D01*
X01680651Y01057590D01*
X01682305Y01058695D01*
X01683410Y01060349D01*
X01683798Y01062300D01*
X01683410Y01064251D01*
X01682305Y01065905D01*
X01680651Y01067010D01*
X01678700Y01067398D01*
X01676749Y01067010D01*
X01675095Y01065905D01*
X01673990Y01064251D01*
X01673602Y01062300D01*
X01673611Y01062257D01*
X01669922Y01058569D01*
X01638068D01*
X01637469Y01059689D01*
X01637710Y01060049D01*
X01638098Y01062000D01*
X01637710Y01063951D01*
X01636605Y01065605D01*
X01634951Y01066710D01*
X01633471Y01067004D01*
X01631431Y01069045D01*
X01631799Y01070260D01*
X01631951Y01070290D01*
X01633605Y01071395D01*
X01634710Y01073049D01*
X01635098Y01075000D01*
X01634710Y01076951D01*
X01633605Y01078605D01*
X01631951Y01079710D01*
X01630000Y01080098D01*
X01629957Y01080089D01*
X01606724Y01103323D01*
Y01187371D01*
X01606760Y01187395D01*
X01607676Y01188767D01*
X01609083Y01189156D01*
X01629019Y01169221D01*
Y01162041D01*
X01628290Y01160951D01*
X01627902Y01159000D01*
X01628290Y01157049D01*
X01629395Y01155395D01*
X01631049Y01154290D01*
X01633000Y01153902D01*
X01634951Y01154290D01*
X01636605Y01155395D01*
X01637710Y01157049D01*
X01638098Y01159000D01*
X01637710Y01160951D01*
X01636982Y01162041D01*
Y01170870D01*
X01636678Y01172393D01*
X01635815Y01173685D01*
X01600981Y01208519D01*
Y01226657D01*
X01602084Y01228307D01*
X01602472Y01230258D01*
X01602084Y01232209D01*
X01600979Y01233863D01*
X01599325Y01234968D01*
X01597374Y01235356D01*
D02*
G37*
G36*
X01486000Y01204098D02*
X01484049Y01203710D01*
X01482395Y01202605D01*
X01481290Y01200951D01*
X01480902Y01199000D01*
X01481290Y01197049D01*
X01481857Y01196200D01*
Y01195904D01*
X01464522Y01178569D01*
X01444000D01*
X01442634Y01178297D01*
X01441477Y01177523D01*
X01317522Y01053569D01*
X01285379D01*
X01284514Y01054416D01*
X01284126Y01056367D01*
X01283021Y01058021D01*
X01281367Y01059126D01*
X01279416Y01059514D01*
X01277465Y01059126D01*
X01275811Y01058021D01*
X01274706Y01056367D01*
X01274318Y01054416D01*
X01274706Y01052465D01*
X01274763Y01052380D01*
X01273776Y01051571D01*
X01270911Y01054435D01*
X01270610Y01055951D01*
X01269505Y01057605D01*
X01267851Y01058710D01*
X01265900Y01059098D01*
X01263949Y01058710D01*
X01262295Y01057605D01*
X01261190Y01055951D01*
X01260802Y01054000D01*
X01261190Y01052049D01*
X01262295Y01050395D01*
X01263949Y01049290D01*
X01265900Y01048902D01*
X01266276Y01048977D01*
X01268650Y01046604D01*
X01267851Y01045610D01*
X01265900Y01045998D01*
X01263949Y01045610D01*
X01262295Y01044505D01*
X01261190Y01042851D01*
X01260802Y01040900D01*
X01261190Y01038949D01*
X01262295Y01037295D01*
X01263949Y01036190D01*
X01265900Y01035802D01*
X01267851Y01036190D01*
X01269505Y01037295D01*
X01270610Y01038949D01*
X01270998Y01040900D01*
X01270610Y01042851D01*
X01271604Y01043650D01*
X01273911Y01041343D01*
X01273902Y01041300D01*
X01274290Y01039349D01*
X01275395Y01037695D01*
X01277049Y01036590D01*
X01279000Y01036202D01*
X01280951Y01036590D01*
X01282605Y01037695D01*
X01283710Y01039349D01*
X01284098Y01041300D01*
X01285320Y01041431D01*
X01321000D01*
X01322366Y01041703D01*
X01323523Y01042477D01*
X01447478Y01166431D01*
X01468000D01*
X01469366Y01166703D01*
X01470523Y01167477D01*
X01491023Y01187976D01*
X01492049Y01187290D01*
X01494000Y01186902D01*
X01495951Y01187290D01*
X01497605Y01188395D01*
X01498710Y01190049D01*
X01499098Y01192000D01*
X01498710Y01193951D01*
X01497605Y01195605D01*
X01495951Y01196710D01*
X01494000Y01197098D01*
X01492049Y01196710D01*
X01491806Y01196548D01*
X01491669Y01196610D01*
X01490777Y01197387D01*
X01491098Y01199000D01*
X01490710Y01200951D01*
X01489605Y01202605D01*
X01487951Y01203710D01*
X01486000Y01204098D01*
D02*
G37*
G36*
X00625000Y01184582D02*
X00622520Y01184256D01*
X00620209Y01183298D01*
X00618224Y01181776D01*
X00616702Y01179791D01*
X00615745Y01177480D01*
X00615418Y01175000D01*
X00615745Y01172520D01*
X00616702Y01170209D01*
X00618224Y01168225D01*
X00620209Y01166702D01*
X00622520Y01165745D01*
X00625000Y01165418D01*
X00627480Y01165745D01*
X00629791Y01166702D01*
X00631775Y01168225D01*
X00633298Y01170209D01*
X00634255Y01172520D01*
X00634582Y01175000D01*
X00634255Y01177480D01*
X00633298Y01179791D01*
X00631775Y01181776D01*
X00629791Y01183298D01*
X00627480Y01184256D01*
X00625000Y01184582D01*
D02*
G37*
G36*
X00600000D02*
X00597520Y01184256D01*
X00595209Y01183298D01*
X00593224Y01181776D01*
X00591702Y01179791D01*
X00590745Y01177480D01*
X00590418Y01175000D01*
X00590745Y01172520D01*
X00591702Y01170209D01*
X00593224Y01168225D01*
X00595209Y01166702D01*
X00597520Y01165745D01*
X00600000Y01165418D01*
X00602480Y01165745D01*
X00604791Y01166702D01*
X00606775Y01168225D01*
X00608298Y01170209D01*
X00609255Y01172520D01*
X00609582Y01175000D01*
X00609255Y01177480D01*
X00608298Y01179791D01*
X00606775Y01181776D01*
X00604791Y01183298D01*
X00602480Y01184256D01*
X00600000Y01184582D01*
D02*
G37*
G36*
X00575000D02*
X00572520Y01184256D01*
X00570209Y01183298D01*
X00568224Y01181776D01*
X00566702Y01179791D01*
X00565745Y01177480D01*
X00565418Y01175000D01*
X00565745Y01172520D01*
X00566702Y01170209D01*
X00568224Y01168225D01*
X00570209Y01166702D01*
X00572520Y01165745D01*
X00575000Y01165418D01*
X00577480Y01165745D01*
X00579791Y01166702D01*
X00581775Y01168225D01*
X00583298Y01170209D01*
X00584255Y01172520D01*
X00584582Y01175000D01*
X00584255Y01177480D01*
X00583298Y01179791D01*
X00581775Y01181776D01*
X00579791Y01183298D01*
X00577480Y01184256D01*
X00575000Y01184582D01*
D02*
G37*
G36*
X01153000Y01298289D02*
X00951000Y01298289D01*
X00950220Y01298134D01*
X00949558Y01297692D01*
X00930558Y01278692D01*
X00930116Y01278030D01*
X00929961Y01277250D01*
Y01182250D01*
X00930116Y01181470D01*
X00930558Y01180808D01*
X00951558Y01159808D01*
X00952220Y01159366D01*
X00953000Y01159211D01*
X01151000Y01159211D01*
X01151780Y01159366D01*
X01152442Y01159808D01*
X01173442Y01180808D01*
X01173884Y01181470D01*
X01174039Y01182250D01*
Y01277250D01*
X01173884Y01278030D01*
X01173442Y01278692D01*
X01154442Y01297692D01*
X01153780Y01298134D01*
X01153000Y01298289D01*
D02*
G37*
G36*
X01495000Y01170098D02*
X01493049Y01169710D01*
X01491395Y01168605D01*
X01490290Y01166951D01*
X01489902Y01165000D01*
X01490290Y01163049D01*
X01490976Y01162023D01*
X01471522Y01142569D01*
X01432000D01*
X01430634Y01142297D01*
X01429477Y01141523D01*
X01324477Y01036523D01*
X01323703Y01035366D01*
X01323431Y01034000D01*
Y00899478D01*
X01301522Y00877569D01*
X01285241D01*
X01284098Y00878000D01*
X01283710Y00879951D01*
X01282605Y00881605D01*
X01280951Y00882710D01*
X01279000Y00883098D01*
X01277049Y00882710D01*
X01275395Y00881605D01*
X01274290Y00879951D01*
X01273902Y00878000D01*
X01274091Y00877052D01*
X01272920Y00876427D01*
X01270911Y00878435D01*
X01270610Y00879951D01*
X01269505Y00881605D01*
X01267851Y00882710D01*
X01265900Y00883098D01*
X01263949Y00882710D01*
X01262295Y00881605D01*
X01261190Y00879951D01*
X01260802Y00878000D01*
X01261190Y00876049D01*
X01262295Y00874395D01*
X01263949Y00873290D01*
X01265900Y00872902D01*
X01266276Y00872977D01*
X01268650Y00870604D01*
X01267851Y00869610D01*
X01265900Y00869998D01*
X01263949Y00869610D01*
X01262295Y00868505D01*
X01261190Y00866851D01*
X01260802Y00864900D01*
X01261190Y00862949D01*
X01262295Y00861295D01*
X01263949Y00860190D01*
X01265900Y00859802D01*
X01267851Y00860190D01*
X01269505Y00861295D01*
X01270610Y00862949D01*
X01270998Y00864900D01*
X01270610Y00866851D01*
X01271604Y00867650D01*
X01273911Y00865343D01*
X01273902Y00865300D01*
X01274290Y00863349D01*
X01275395Y00861695D01*
X01277049Y00860590D01*
X01279000Y00860202D01*
X01280951Y00860590D01*
X01282605Y00861695D01*
X01283710Y00863349D01*
X01284098Y00865300D01*
X01285320Y00865431D01*
X01305000D01*
X01306366Y00865703D01*
X01307523Y00866477D01*
X01334523Y00893477D01*
X01335297Y00894634D01*
X01335569Y00896000D01*
Y01030522D01*
X01411554Y01106508D01*
X01412818Y01106383D01*
X01413240Y01105752D01*
X01414894Y01104647D01*
X01416845Y01104259D01*
X01418796Y01104647D01*
X01420450Y01105752D01*
X01421555Y01107406D01*
X01421943Y01109357D01*
X01421934Y01109399D01*
X01437966Y01125431D01*
X01499500D01*
X01500866Y01125703D01*
X01502023Y01126477D01*
X01507457Y01131911D01*
X01507500Y01131902D01*
X01509451Y01132290D01*
X01511105Y01133395D01*
X01512210Y01135049D01*
X01512598Y01137000D01*
X01512210Y01138951D01*
X01511105Y01140605D01*
X01509451Y01141710D01*
X01507500Y01142098D01*
X01505549Y01141710D01*
X01503895Y01140605D01*
X01502790Y01138951D01*
X01502402Y01137000D01*
X01502410Y01136957D01*
X01498022Y01132569D01*
X01480275D01*
X01479789Y01133742D01*
X01498904Y01152857D01*
X01499200D01*
X01500049Y01152290D01*
X01502000Y01151902D01*
X01503951Y01152290D01*
X01505605Y01153395D01*
X01506710Y01155049D01*
X01507098Y01157000D01*
X01506710Y01158951D01*
X01505605Y01160605D01*
X01503951Y01161710D01*
X01502000Y01162098D01*
X01500388Y01161777D01*
X01499610Y01162669D01*
X01499548Y01162806D01*
X01499710Y01163049D01*
X01500098Y01165000D01*
X01499710Y01166951D01*
X01498605Y01168605D01*
X01496951Y01169710D01*
X01495000Y01170098D01*
D02*
G37*
G36*
X00625000Y01159582D02*
X00622520Y01159256D01*
X00620209Y01158298D01*
X00618224Y01156776D01*
X00616702Y01154791D01*
X00615745Y01152480D01*
X00615418Y01150000D01*
X00615745Y01147520D01*
X00616702Y01145209D01*
X00618224Y01143225D01*
X00620209Y01141702D01*
X00622520Y01140745D01*
X00625000Y01140418D01*
X00627480Y01140745D01*
X00629791Y01141702D01*
X00631775Y01143225D01*
X00633298Y01145209D01*
X00634255Y01147520D01*
X00634582Y01150000D01*
X00634255Y01152480D01*
X00633298Y01154791D01*
X00631775Y01156776D01*
X00629791Y01158298D01*
X00627480Y01159256D01*
X00625000Y01159582D01*
D02*
G37*
G36*
X00600000D02*
X00597520Y01159256D01*
X00595209Y01158298D01*
X00593224Y01156776D01*
X00591702Y01154791D01*
X00590745Y01152480D01*
X00590418Y01150000D01*
X00590745Y01147520D01*
X00591702Y01145209D01*
X00593224Y01143225D01*
X00595209Y01141702D01*
X00597520Y01140745D01*
X00600000Y01140418D01*
X00602480Y01140745D01*
X00604791Y01141702D01*
X00606775Y01143225D01*
X00608298Y01145209D01*
X00609255Y01147520D01*
X00609582Y01150000D01*
X00609255Y01152480D01*
X00608298Y01154791D01*
X00606775Y01156776D01*
X00604791Y01158298D01*
X00602480Y01159256D01*
X00600000Y01159582D01*
D02*
G37*
G36*
X00575000D02*
X00572520Y01159256D01*
X00570209Y01158298D01*
X00568224Y01156776D01*
X00566702Y01154791D01*
X00565745Y01152480D01*
X00565418Y01150000D01*
X00565745Y01147520D01*
X00566702Y01145209D01*
X00568224Y01143225D01*
X00570209Y01141702D01*
X00572520Y01140745D01*
X00575000Y01140418D01*
X00577480Y01140745D01*
X00579791Y01141702D01*
X00581775Y01143225D01*
X00583298Y01145209D01*
X00584255Y01147520D01*
X00584582Y01150000D01*
X00584255Y01152480D01*
X00583298Y01154791D01*
X00581775Y01156776D01*
X00579791Y01158298D01*
X00577480Y01159256D01*
X00575000Y01159582D01*
D02*
G37*
G36*
X00625000Y01134582D02*
X00622520Y01134256D01*
X00620209Y01133298D01*
X00618224Y01131776D01*
X00616702Y01129791D01*
X00615745Y01127480D01*
X00615418Y01125000D01*
X00615745Y01122520D01*
X00616702Y01120209D01*
X00618224Y01118225D01*
X00620209Y01116702D01*
X00622520Y01115745D01*
X00625000Y01115418D01*
X00627480Y01115745D01*
X00629791Y01116702D01*
X00631775Y01118225D01*
X00633298Y01120209D01*
X00634255Y01122520D01*
X00634582Y01125000D01*
X00634255Y01127480D01*
X00633298Y01129791D01*
X00631775Y01131776D01*
X00629791Y01133298D01*
X00627480Y01134256D01*
X00625000Y01134582D01*
D02*
G37*
G36*
X00600000D02*
X00597520Y01134256D01*
X00595209Y01133298D01*
X00593224Y01131776D01*
X00591702Y01129791D01*
X00590745Y01127480D01*
X00590418Y01125000D01*
X00590745Y01122520D01*
X00591702Y01120209D01*
X00593224Y01118225D01*
X00595209Y01116702D01*
X00597520Y01115745D01*
X00600000Y01115418D01*
X00602480Y01115745D01*
X00604791Y01116702D01*
X00606775Y01118225D01*
X00608298Y01120209D01*
X00609255Y01122520D01*
X00609582Y01125000D01*
X00609255Y01127480D01*
X00608298Y01129791D01*
X00606775Y01131776D01*
X00604791Y01133298D01*
X00602480Y01134256D01*
X00600000Y01134582D01*
D02*
G37*
G36*
X00575000D02*
X00572520Y01134256D01*
X00570209Y01133298D01*
X00568224Y01131776D01*
X00566702Y01129791D01*
X00565745Y01127480D01*
X00565418Y01125000D01*
X00565745Y01122520D01*
X00566702Y01120209D01*
X00568224Y01118225D01*
X00570209Y01116702D01*
X00572520Y01115745D01*
X00575000Y01115418D01*
X00577480Y01115745D01*
X00579791Y01116702D01*
X00581775Y01118225D01*
X00583298Y01120209D01*
X00584255Y01122520D01*
X00584582Y01125000D01*
X00584255Y01127480D01*
X00583298Y01129791D01*
X00581775Y01131776D01*
X00579791Y01133298D01*
X00577480Y01134256D01*
X00575000Y01134582D01*
D02*
G37*
G36*
X00626270Y01109415D02*
Y01101270D01*
X00634415D01*
X00634255Y01102480D01*
X00633298Y01104791D01*
X00631775Y01106776D01*
X00629791Y01108298D01*
X00627480Y01109256D01*
X00626270Y01109415D01*
D02*
G37*
G36*
X00623730D02*
X00622520Y01109256D01*
X00620209Y01108298D01*
X00618224Y01106776D01*
X00616702Y01104791D01*
X00615745Y01102480D01*
X00615585Y01101270D01*
X00623730D01*
Y01109415D01*
D02*
G37*
G36*
X00634415Y01098730D02*
X00626270D01*
Y01090585D01*
X00627480Y01090745D01*
X00629791Y01091702D01*
X00631775Y01093225D01*
X00633298Y01095209D01*
X00634255Y01097520D01*
X00634415Y01098730D01*
D02*
G37*
G36*
X00623730D02*
X00615585D01*
X00615745Y01097520D01*
X00616702Y01095209D01*
X00618224Y01093225D01*
X00620209Y01091702D01*
X00622520Y01090745D01*
X00623730Y01090585D01*
Y01098730D01*
D02*
G37*
G36*
X00600000Y01109582D02*
X00597520Y01109256D01*
X00595209Y01108298D01*
X00593224Y01106776D01*
X00591702Y01104791D01*
X00590745Y01102480D01*
X00590418Y01100000D01*
X00590745Y01097520D01*
X00591702Y01095209D01*
X00593224Y01093225D01*
X00595209Y01091702D01*
X00597520Y01090745D01*
X00600000Y01090418D01*
X00602480Y01090745D01*
X00604791Y01091702D01*
X00606775Y01093225D01*
X00608298Y01095209D01*
X00609255Y01097520D01*
X00609582Y01100000D01*
X00609255Y01102480D01*
X00608298Y01104791D01*
X00606775Y01106776D01*
X00604791Y01108298D01*
X00602480Y01109256D01*
X00600000Y01109582D01*
D02*
G37*
G36*
X00575000D02*
X00572520Y01109256D01*
X00570209Y01108298D01*
X00568224Y01106776D01*
X00566702Y01104791D01*
X00565745Y01102480D01*
X00565418Y01100000D01*
X00565745Y01097520D01*
X00566702Y01095209D01*
X00568224Y01093225D01*
X00570209Y01091702D01*
X00572520Y01090745D01*
X00575000Y01090418D01*
X00577480Y01090745D01*
X00579791Y01091702D01*
X00581775Y01093225D01*
X00583298Y01095209D01*
X00584255Y01097520D01*
X00584582Y01100000D01*
X00584255Y01102480D01*
X00583298Y01104791D01*
X00581775Y01106776D01*
X00579791Y01108298D01*
X00577480Y01109256D01*
X00575000Y01109582D01*
D02*
G37*
G36*
X01621000Y01203098D02*
X01619049Y01202710D01*
X01617395Y01201605D01*
X01616290Y01199951D01*
X01615902Y01198000D01*
X01616290Y01196049D01*
X01617395Y01194395D01*
X01619049Y01193290D01*
X01621000Y01192902D01*
X01621043Y01192911D01*
X01642431Y01171522D01*
Y01115629D01*
X01642395Y01115605D01*
X01641290Y01113951D01*
X01640902Y01112000D01*
X01641290Y01110049D01*
X01642395Y01108395D01*
X01644049Y01107290D01*
X01646000Y01106902D01*
X01647951Y01107290D01*
X01649605Y01108395D01*
X01650710Y01110049D01*
X01651098Y01112000D01*
X01651083Y01112074D01*
X01652254Y01112700D01*
X01688911Y01076043D01*
X01688902Y01076000D01*
X01689290Y01074049D01*
X01690395Y01072395D01*
X01692049Y01071290D01*
X01694000Y01070902D01*
X01695951Y01071290D01*
X01697605Y01072395D01*
X01698710Y01074049D01*
X01699098Y01076000D01*
X01698710Y01077951D01*
X01697605Y01079605D01*
X01695951Y01080710D01*
X01694000Y01081098D01*
X01693957Y01081089D01*
X01656569Y01118478D01*
Y01176400D01*
X01656297Y01177766D01*
X01655523Y01178923D01*
X01636789Y01197657D01*
X01636798Y01197700D01*
X01636410Y01199651D01*
X01635305Y01201305D01*
X01633651Y01202410D01*
X01631700Y01202798D01*
X01629749Y01202410D01*
X01628095Y01201305D01*
X01627047Y01199737D01*
X01626691Y01199695D01*
X01625732Y01199838D01*
X01625710Y01199951D01*
X01624605Y01201605D01*
X01622951Y01202710D01*
X01621000Y01203098D01*
D02*
G37*
G36*
X00600000Y01084582D02*
X00597520Y01084256D01*
X00595209Y01083298D01*
X00593224Y01081776D01*
X00591702Y01079791D01*
X00590745Y01077480D01*
X00590418Y01075000D01*
X00590745Y01072520D01*
X00591251Y01071298D01*
X00585477Y01065523D01*
X00584703Y01064366D01*
X00584431Y01063000D01*
Y01055317D01*
X00583824Y01055035D01*
X00583161Y01054969D01*
X00581775Y01056776D01*
X00579791Y01058298D01*
X00577480Y01059256D01*
X00575000Y01059582D01*
X00572520Y01059256D01*
X00570209Y01058298D01*
X00568224Y01056776D01*
X00566702Y01054791D01*
X00565745Y01052480D01*
X00565418Y01050000D01*
X00565745Y01047520D01*
X00566702Y01045209D01*
X00568224Y01043225D01*
X00570031Y01041839D01*
X00569965Y01041177D01*
X00569683Y01040569D01*
X00565000D01*
X00563634Y01040297D01*
X00562477Y01039523D01*
X00552477Y01029523D01*
X00551703Y01028366D01*
X00551431Y01027000D01*
Y01010629D01*
X00551395Y01010605D01*
X00550290Y01008951D01*
X00549902Y01007000D01*
X00550290Y01005049D01*
X00551395Y01003395D01*
X00553049Y01002290D01*
X00555000Y01001902D01*
X00556951Y01002290D01*
X00558605Y01003395D01*
X00559710Y01005049D01*
X00560098Y01007000D01*
X00559710Y01008951D01*
X00558605Y01010605D01*
X00558569Y01010629D01*
Y01025522D01*
X00566478Y01033431D01*
X00568296D01*
X00568727Y01032161D01*
X00568224Y01031776D01*
X00566702Y01029791D01*
X00565745Y01027480D01*
X00565418Y01025000D01*
X00565745Y01022520D01*
X00566702Y01020209D01*
X00568224Y01018225D01*
X00570209Y01016702D01*
X00572520Y01015745D01*
X00575000Y01015418D01*
X00577480Y01015745D01*
X00579791Y01016702D01*
X00581775Y01018225D01*
X00583298Y01020209D01*
X00584255Y01022520D01*
X00584582Y01025000D01*
X00584255Y01027480D01*
X00583298Y01029791D01*
X00581775Y01031776D01*
X00581238Y01032188D01*
X00581559Y01033543D01*
X00582366Y01033703D01*
X00583523Y01034477D01*
X00590523Y01041477D01*
X00591297Y01042634D01*
X00591457Y01043441D01*
X00592812Y01043762D01*
X00593224Y01043225D01*
X00595209Y01041702D01*
X00597520Y01040745D01*
X00600000Y01040418D01*
X00602480Y01040745D01*
X00604791Y01041702D01*
X00606775Y01043225D01*
X00608298Y01045209D01*
X00609255Y01047520D01*
X00609582Y01050000D01*
X00609255Y01052480D01*
X00608298Y01054791D01*
X00606775Y01056776D01*
X00604791Y01058298D01*
X00602480Y01059256D01*
X00600000Y01059582D01*
X00597520Y01059256D01*
X00595209Y01058298D01*
X00593224Y01056776D01*
X00592839Y01056273D01*
X00591569Y01056704D01*
Y01061522D01*
X00596298Y01066251D01*
X00597520Y01065745D01*
X00600000Y01065418D01*
X00602480Y01065745D01*
X00604791Y01066702D01*
X00606775Y01068225D01*
X00608298Y01070209D01*
X00609255Y01072520D01*
X00609582Y01075000D01*
X00609255Y01077480D01*
X00608298Y01079791D01*
X00606775Y01081776D01*
X00604791Y01083298D01*
X00602480Y01084256D01*
X00600000Y01084582D01*
D02*
G37*
G36*
X00575000D02*
X00572520Y01084256D01*
X00570209Y01083298D01*
X00568224Y01081776D01*
X00566702Y01079791D01*
X00565745Y01077480D01*
X00565418Y01075000D01*
X00565745Y01072520D01*
X00566702Y01070209D01*
X00568224Y01068225D01*
X00570209Y01066702D01*
X00572520Y01065745D01*
X00575000Y01065418D01*
X00577480Y01065745D01*
X00579791Y01066702D01*
X00581775Y01068225D01*
X00583298Y01070209D01*
X00584255Y01072520D01*
X00584582Y01075000D01*
X00584255Y01077480D01*
X00583298Y01079791D01*
X00581775Y01081776D01*
X00579791Y01083298D01*
X00577480Y01084256D01*
X00575000Y01084582D01*
D02*
G37*
G36*
X00641000Y01075098D02*
X00639049Y01074710D01*
X00637395Y01073605D01*
X00636290Y01071951D01*
X00635902Y01070000D01*
X00636290Y01068049D01*
X00637395Y01066395D01*
X00639049Y01065290D01*
X00641000Y01064902D01*
X00642951Y01065290D01*
X00644605Y01066395D01*
X00645710Y01068049D01*
X00646098Y01070000D01*
X00645710Y01071951D01*
X00644605Y01073605D01*
X00642951Y01074710D01*
X00641000Y01075098D01*
D02*
G37*
G36*
X00625000Y01084582D02*
X00622520Y01084256D01*
X00620209Y01083298D01*
X00618224Y01081776D01*
X00616702Y01079791D01*
X00615745Y01077480D01*
X00615418Y01075000D01*
X00615745Y01072520D01*
X00616702Y01070209D01*
X00618224Y01068225D01*
X00620209Y01066702D01*
X00622520Y01065745D01*
X00623986Y01065552D01*
X00624326Y01065044D01*
X00629630Y01059740D01*
X00628910Y01058663D01*
X00627480Y01059256D01*
X00625000Y01059582D01*
X00622520Y01059256D01*
X00620209Y01058298D01*
X00618224Y01056776D01*
X00616702Y01054791D01*
X00615745Y01052480D01*
X00615418Y01050000D01*
X00615745Y01047520D01*
X00616702Y01045209D01*
X00618224Y01043225D01*
X00620209Y01041702D01*
X00622520Y01040745D01*
X00625000Y01040418D01*
X00627480Y01040745D01*
X00629791Y01041702D01*
X00631775Y01043225D01*
X00633298Y01045209D01*
X00634255Y01047520D01*
X00634582Y01050000D01*
X00634255Y01052480D01*
X00633663Y01053910D01*
X00634740Y01054630D01*
X00636034Y01053335D01*
X00636290Y01052049D01*
X00637395Y01050395D01*
X00639049Y01049290D01*
X00641000Y01048902D01*
X00642951Y01049290D01*
X00644605Y01050395D01*
X00645710Y01052049D01*
X00646098Y01054000D01*
X00645710Y01055951D01*
X00644605Y01057605D01*
X00642951Y01058710D01*
X00641665Y01058966D01*
X00632049Y01068581D01*
X00633298Y01070209D01*
X00634255Y01072520D01*
X00634582Y01075000D01*
X00634255Y01077480D01*
X00633298Y01079791D01*
X00631775Y01081776D01*
X00629791Y01083298D01*
X00627480Y01084256D01*
X00625000Y01084582D01*
D02*
G37*
G36*
Y01034582D02*
X00622520Y01034256D01*
X00620209Y01033298D01*
X00618224Y01031776D01*
X00616702Y01029791D01*
X00615745Y01027480D01*
X00615418Y01025000D01*
X00615745Y01022520D01*
X00616702Y01020209D01*
X00618224Y01018225D01*
X00620209Y01016702D01*
X00622520Y01015745D01*
X00625000Y01015418D01*
X00627480Y01015745D01*
X00629791Y01016702D01*
X00631775Y01018225D01*
X00633298Y01020209D01*
X00634255Y01022520D01*
X00634582Y01025000D01*
X00634255Y01027480D01*
X00633298Y01029791D01*
X00631775Y01031776D01*
X00629791Y01033298D01*
X00627480Y01034256D01*
X00625000Y01034582D01*
D02*
G37*
G36*
X00600000D02*
X00597520Y01034256D01*
X00595209Y01033298D01*
X00593224Y01031776D01*
X00591702Y01029791D01*
X00590745Y01027480D01*
X00590418Y01025000D01*
X00590745Y01022520D01*
X00591702Y01020209D01*
X00593224Y01018225D01*
X00595209Y01016702D01*
X00597520Y01015745D01*
X00600000Y01015418D01*
X00602480Y01015745D01*
X00604791Y01016702D01*
X00606775Y01018225D01*
X00608298Y01020209D01*
X00609255Y01022520D01*
X00609582Y01025000D01*
X00609255Y01027480D01*
X00608298Y01029791D01*
X00606775Y01031776D01*
X00604791Y01033298D01*
X00602480Y01034256D01*
X00600000Y01034582D01*
D02*
G37*
G36*
X00626270Y01009415D02*
Y01001270D01*
X00634415D01*
X00634255Y01002480D01*
X00633298Y01004791D01*
X00631775Y01006776D01*
X00629791Y01008298D01*
X00627480Y01009256D01*
X00626270Y01009415D01*
D02*
G37*
G36*
X00623730D02*
X00622520Y01009256D01*
X00620209Y01008298D01*
X00618224Y01006776D01*
X00616702Y01004791D01*
X00615745Y01002480D01*
X00615585Y01001270D01*
X00623730D01*
Y01009415D01*
D02*
G37*
G36*
X01508205Y01112933D02*
X01506254Y01112545D01*
X01504600Y01111440D01*
X01503495Y01109786D01*
X01503107Y01107835D01*
X01503495Y01105884D01*
X01504600Y01104230D01*
X01504636Y01104206D01*
Y01101795D01*
X01504908Y01100430D01*
X01505681Y01099272D01*
X01706477Y00898477D01*
X01707634Y00897703D01*
X01709000Y00897431D01*
X01752297D01*
X01752321Y00897395D01*
X01753975Y00896290D01*
X01755926Y00895902D01*
X01757876Y00896290D01*
X01759530Y00897395D01*
X01760636Y00899049D01*
X01761024Y00901000D01*
X01760636Y00902951D01*
X01759530Y00904605D01*
X01757876Y00905710D01*
X01755926Y00906098D01*
X01753975Y00905710D01*
X01752321Y00904605D01*
X01752297Y00904569D01*
X01710478D01*
X01668789Y00946258D01*
X01669275Y00947431D01*
X01753371D01*
X01753395Y00947395D01*
X01755049Y00946290D01*
X01757000Y00945902D01*
X01758951Y00946290D01*
X01760605Y00947395D01*
X01761710Y00949049D01*
X01762098Y00951000D01*
X01761710Y00952951D01*
X01760605Y00954605D01*
X01758951Y00955710D01*
X01757000Y00956098D01*
X01755049Y00955710D01*
X01753395Y00954605D01*
X01753371Y00954569D01*
X01667478D01*
X01626189Y00995858D01*
X01626675Y00997031D01*
X01752297D01*
X01752321Y00996995D01*
X01753975Y00995890D01*
X01755926Y00995502D01*
X01757876Y00995890D01*
X01759530Y00996995D01*
X01760636Y00998649D01*
X01761024Y01000600D01*
X01760636Y01002551D01*
X01759530Y01004205D01*
X01757876Y01005310D01*
X01755926Y01005698D01*
X01753975Y01005310D01*
X01752321Y01004205D01*
X01752297Y01004169D01*
X01626010D01*
X01527020Y01103158D01*
X01527029Y01103201D01*
X01526641Y01105152D01*
X01525536Y01106806D01*
X01523882Y01107911D01*
X01521931Y01108299D01*
X01519980Y01107911D01*
X01518899Y01107189D01*
X01518265Y01108139D01*
X01516611Y01109244D01*
X01514660Y01109632D01*
X01513011Y01109304D01*
X01512915Y01109786D01*
X01511810Y01111440D01*
X01510156Y01112545D01*
X01508205Y01112933D01*
D02*
G37*
G36*
X00600000Y01009582D02*
X00597520Y01009256D01*
X00595209Y01008298D01*
X00593224Y01006776D01*
X00591702Y01004791D01*
X00590745Y01002480D01*
X00590418Y01000000D01*
X00590745Y00997520D01*
X00591702Y00995209D01*
X00593224Y00993225D01*
X00595209Y00991702D01*
X00597520Y00990745D01*
X00600000Y00990418D01*
X00602480Y00990745D01*
X00604791Y00991702D01*
X00606775Y00993225D01*
X00608298Y00995209D01*
X00609255Y00997520D01*
X00609582Y01000000D01*
X00609255Y01002480D01*
X00608298Y01004791D01*
X00606775Y01006776D01*
X00604791Y01008298D01*
X00602480Y01009256D01*
X00600000Y01009582D01*
D02*
G37*
G36*
X00575000D02*
X00572520Y01009256D01*
X00570209Y01008298D01*
X00568224Y01006776D01*
X00566702Y01004791D01*
X00565745Y01002480D01*
X00565418Y01000000D01*
X00565745Y00997520D01*
X00566702Y00995209D01*
X00568224Y00993225D01*
X00570209Y00991702D01*
X00572520Y00990745D01*
X00575000Y00990418D01*
X00577480Y00990745D01*
X00579791Y00991702D01*
X00581775Y00993225D01*
X00583298Y00995209D01*
X00584255Y00997520D01*
X00584582Y01000000D01*
X00584255Y01002480D01*
X00583298Y01004791D01*
X00581775Y01006776D01*
X00579791Y01008298D01*
X00577480Y01009256D01*
X00575000Y01009582D01*
D02*
G37*
G36*
X01153000Y01124039D02*
X00951000Y01124039D01*
X00950220Y01123884D01*
X00949558Y01123442D01*
X00930558Y01104442D01*
X00930116Y01103780D01*
X00929961Y01103000D01*
Y01008000D01*
X00930116Y01007220D01*
X00930558Y01006558D01*
X00951558Y00985558D01*
X00952220Y00985116D01*
X00953000Y00984961D01*
X01151000Y00984961D01*
X01151780Y00985116D01*
X01152442Y00985558D01*
X01173442Y01006558D01*
X01173884Y01007220D01*
X01174039Y01008000D01*
Y01103000D01*
X01173884Y01103780D01*
X01173442Y01104442D01*
X01154442Y01123442D01*
X01153780Y01123884D01*
X01153000Y01124039D01*
D02*
G37*
G36*
X00634415Y00998730D02*
X00625000D01*
X00615585D01*
X00615745Y00997520D01*
X00616702Y00995209D01*
X00617248Y00994497D01*
X00616687Y00993358D01*
X00612750D01*
X00610604Y00992931D01*
X00608785Y00991715D01*
X00601459Y00984390D01*
X00600000Y00984582D01*
X00597520Y00984256D01*
X00595209Y00983298D01*
X00593224Y00981776D01*
X00591702Y00979791D01*
X00590745Y00977480D01*
X00590418Y00975000D01*
X00590745Y00972520D01*
X00591702Y00970209D01*
X00593224Y00968225D01*
X00595209Y00966702D01*
X00597520Y00965745D01*
X00600000Y00965418D01*
X00602480Y00965745D01*
X00604791Y00966702D01*
X00606775Y00968225D01*
X00608298Y00970209D01*
X00609255Y00972520D01*
X00609582Y00975000D01*
X00609390Y00976459D01*
X00615073Y00982142D01*
X00616905D01*
X00617532Y00980872D01*
X00616702Y00979791D01*
X00615745Y00977480D01*
X00615418Y00975000D01*
X00615745Y00972520D01*
X00616702Y00970209D01*
X00618224Y00968225D01*
X00620209Y00966702D01*
X00622520Y00965745D01*
X00623112Y00965667D01*
X00623356Y00964442D01*
X00624219Y00963150D01*
X00626735Y00960635D01*
X00626142Y00959432D01*
X00625000Y00959582D01*
X00622520Y00959256D01*
X00620209Y00958298D01*
X00618224Y00956776D01*
X00616702Y00954791D01*
X00615745Y00952480D01*
X00615418Y00950000D01*
X00615745Y00947520D01*
X00616702Y00945209D01*
X00618224Y00943225D01*
X00618676Y00942878D01*
X00618245Y00941608D01*
X00606755D01*
X00606324Y00942878D01*
X00606775Y00943225D01*
X00608298Y00945209D01*
X00609255Y00947520D01*
X00609582Y00950000D01*
X00609255Y00952480D01*
X00608298Y00954791D01*
X00606775Y00956776D01*
X00604791Y00958298D01*
X00602480Y00959256D01*
X00600000Y00959582D01*
X00597520Y00959256D01*
X00595209Y00958298D01*
X00594128Y00957468D01*
X00592858Y00958095D01*
Y00962750D01*
X00592431Y00964896D01*
X00591215Y00966715D01*
X00584390Y00973541D01*
X00584582Y00975000D01*
X00584255Y00977480D01*
X00583298Y00979791D01*
X00581775Y00981776D01*
X00579791Y00983298D01*
X00577480Y00984256D01*
X00575000Y00984582D01*
X00572520Y00984256D01*
X00570209Y00983298D01*
X00568224Y00981776D01*
X00566702Y00979791D01*
X00565745Y00977480D01*
X00565418Y00975000D01*
X00565745Y00972520D01*
X00566702Y00970209D01*
X00568224Y00968225D01*
X00570209Y00966702D01*
X00572520Y00965745D01*
X00575000Y00965418D01*
X00576459Y00965610D01*
X00581642Y00960427D01*
Y00958313D01*
X00580503Y00957752D01*
X00579791Y00958298D01*
X00577480Y00959256D01*
X00575000Y00959582D01*
X00572520Y00959256D01*
X00570209Y00958298D01*
X00568224Y00956776D01*
X00566702Y00954791D01*
X00565745Y00952480D01*
X00565418Y00950000D01*
X00565745Y00947520D01*
X00566702Y00945209D01*
X00568224Y00943225D01*
X00570209Y00941702D01*
X00572520Y00940744D01*
X00575000Y00940418D01*
X00577480Y00940744D01*
X00579791Y00941702D01*
X00580744Y00942433D01*
X00581148Y00942386D01*
X00582259Y00941995D01*
X00583285Y00940461D01*
X00591711Y00932035D01*
X00593530Y00930819D01*
X00595676Y00930392D01*
X00673000D01*
X00675146Y00930819D01*
X00676965Y00932035D01*
X00686002Y00941071D01*
X00686827Y00941180D01*
X00688530Y00941886D01*
X00689992Y00943008D01*
X00691115Y00944470D01*
X00691820Y00946173D01*
X00692060Y00948000D01*
X00691820Y00949827D01*
X00691377Y00950896D01*
X00692454Y00951616D01*
X00702072Y00941998D01*
X00702180Y00941173D01*
X00702886Y00939470D01*
X00704008Y00938008D01*
X00705470Y00936886D01*
X00707173Y00936180D01*
X00709000Y00935940D01*
X00710827Y00936180D01*
X00712530Y00936886D01*
X00713992Y00938008D01*
X00715115Y00939470D01*
X00715820Y00941173D01*
X00716060Y00943000D01*
X00715820Y00944827D01*
X00715115Y00946530D01*
X00713992Y00947992D01*
X00712530Y00949115D01*
X00710827Y00949820D01*
X00710002Y00949929D01*
X00668215Y00991715D01*
X00666396Y00992931D01*
X00664250Y00993358D01*
X00633313D01*
X00632752Y00994497D01*
X00633298Y00995209D01*
X00634255Y00997520D01*
X00634415Y00998730D01*
D02*
G37*
G36*
X00625000Y00924582D02*
X00622520Y00924256D01*
X00620209Y00923298D01*
X00618224Y00921776D01*
X00616702Y00919791D01*
X00615745Y00917480D01*
X00615418Y00915000D01*
X00615745Y00912520D01*
X00616702Y00910209D01*
X00618224Y00908225D01*
X00620209Y00906702D01*
X00622520Y00905745D01*
X00625000Y00905418D01*
X00627480Y00905745D01*
X00629791Y00906702D01*
X00631775Y00908225D01*
X00633298Y00910209D01*
X00633633Y00911019D01*
X00781959D01*
X00783049Y00910290D01*
X00785000Y00909902D01*
X00786951Y00910290D01*
X00788605Y00911395D01*
X00789710Y00913049D01*
X00790098Y00915000D01*
X00789710Y00916951D01*
X00788605Y00918605D01*
X00786951Y00919710D01*
X00785000Y00920098D01*
X00783049Y00919710D01*
X00781959Y00918981D01*
X00633633D01*
X00633298Y00919791D01*
X00631775Y00921776D01*
X00629791Y00923298D01*
X00627480Y00924256D01*
X00625000Y00924582D01*
D02*
G37*
G36*
X00600000D02*
X00597520Y00924256D01*
X00595209Y00923298D01*
X00593224Y00921776D01*
X00591702Y00919791D01*
X00590745Y00917480D01*
X00590418Y00915000D01*
X00590745Y00912520D01*
X00591702Y00910209D01*
X00593224Y00908225D01*
X00595209Y00906702D01*
X00597520Y00905745D01*
X00600000Y00905418D01*
X00602480Y00905745D01*
X00604791Y00906702D01*
X00606775Y00908225D01*
X00608298Y00910209D01*
X00609255Y00912520D01*
X00609582Y00915000D01*
X00609255Y00917480D01*
X00608298Y00919791D01*
X00606775Y00921776D01*
X00604791Y00923298D01*
X00602480Y00924256D01*
X00600000Y00924582D01*
D02*
G37*
G36*
X00575000D02*
X00572520Y00924256D01*
X00570209Y00923298D01*
X00568224Y00921776D01*
X00566702Y00919791D01*
X00565745Y00917480D01*
X00565418Y00915000D01*
X00565745Y00912520D01*
X00566702Y00910209D01*
X00568224Y00908225D01*
X00570209Y00906702D01*
X00572520Y00905745D01*
X00575000Y00905418D01*
X00577480Y00905745D01*
X00579791Y00906702D01*
X00581775Y00908225D01*
X00583298Y00910209D01*
X00584255Y00912520D01*
X00584582Y00915000D01*
X00584255Y00917480D01*
X00583298Y00919791D01*
X00581775Y00921776D01*
X00579791Y00923298D01*
X00577480Y00924256D01*
X00575000Y00924582D01*
D02*
G37*
G36*
X00626270Y00887415D02*
Y00879270D01*
X00634415D01*
X00634255Y00880480D01*
X00633298Y00882791D01*
X00631775Y00884775D01*
X00629791Y00886298D01*
X00627480Y00887255D01*
X00626270Y00887415D01*
D02*
G37*
G36*
X00576270D02*
Y00879270D01*
X00584415D01*
X00584255Y00880480D01*
X00583298Y00882791D01*
X00581775Y00884775D01*
X00579791Y00886298D01*
X00577480Y00887255D01*
X00576270Y00887415D01*
D02*
G37*
G36*
X00623730Y00887415D02*
X00622520Y00887255D01*
X00620209Y00886298D01*
X00618224Y00884775D01*
X00616702Y00882791D01*
X00615745Y00880480D01*
X00615585Y00879270D01*
X00623730D01*
Y00887415D01*
D02*
G37*
G36*
X00573730D02*
X00572520Y00887255D01*
X00570209Y00886298D01*
X00568224Y00884775D01*
X00566702Y00882791D01*
X00565745Y00880480D01*
X00565585Y00879270D01*
X00573730D01*
Y00887415D01*
D02*
G37*
G36*
X00634415Y00876730D02*
X00626270D01*
Y00868585D01*
X00627480Y00868745D01*
X00629791Y00869702D01*
X00631775Y00871225D01*
X00633298Y00873209D01*
X00634255Y00875520D01*
X00634415Y00876730D01*
D02*
G37*
G36*
X00584415D02*
X00576270D01*
Y00868585D01*
X00577480Y00868745D01*
X00579791Y00869702D01*
X00581775Y00871225D01*
X00583298Y00873209D01*
X00584255Y00875520D01*
X00584415Y00876730D01*
D02*
G37*
G36*
X00623730D02*
X00615585D01*
X00615745Y00875520D01*
X00616702Y00873209D01*
X00618224Y00871225D01*
X00620209Y00869702D01*
X00622520Y00868745D01*
X00623730Y00868585D01*
Y00876730D01*
D02*
G37*
G36*
X00573730D02*
X00565585D01*
X00565745Y00875520D01*
X00566702Y00873209D01*
X00568224Y00871225D01*
X00570209Y00869702D01*
X00572520Y00868745D01*
X00573730Y00868585D01*
Y00876730D01*
D02*
G37*
G36*
X00600000Y00887582D02*
X00597520Y00887255D01*
X00595209Y00886298D01*
X00593224Y00884775D01*
X00591702Y00882791D01*
X00590745Y00880480D01*
X00590418Y00878000D01*
X00590745Y00875520D01*
X00591702Y00873209D01*
X00593224Y00871225D01*
X00595209Y00869702D01*
X00597520Y00868745D01*
X00600000Y00868418D01*
X00602480Y00868745D01*
X00604791Y00869702D01*
X00606775Y00871225D01*
X00608298Y00873209D01*
X00609255Y00875520D01*
X00609582Y00878000D01*
X00609255Y00880480D01*
X00608298Y00882791D01*
X00606775Y00884775D01*
X00604791Y00886298D01*
X00602480Y00887255D01*
X00600000Y00887582D01*
D02*
G37*
G36*
X01153000Y00948289D02*
X00951000Y00948289D01*
X00950220Y00948134D01*
X00949558Y00947692D01*
X00930558Y00928692D01*
X00930116Y00928030D01*
X00929961Y00927250D01*
Y00832250D01*
X00930116Y00831470D01*
X00930558Y00830808D01*
X00951558Y00809808D01*
X00952220Y00809366D01*
X00953000Y00809211D01*
X01151000Y00809211D01*
X01151780Y00809366D01*
X01152442Y00809808D01*
X01173442Y00830808D01*
X01173884Y00831470D01*
X01174039Y00832250D01*
Y00927250D01*
X01173884Y00928030D01*
X01173442Y00928692D01*
X01154442Y00947692D01*
X01153780Y00948134D01*
X01153000Y00948289D01*
D02*
G37*
G36*
X01632000Y00887117D02*
X01629659Y00886652D01*
X01628670Y00885991D01*
X01628663Y00885990D01*
X01626843Y00884774D01*
X01555737Y00813667D01*
X01555659Y00813652D01*
X01553674Y00812326D01*
X01552348Y00810341D01*
X01551882Y00808000D01*
X01552348Y00805659D01*
X01553674Y00803674D01*
X01555659Y00802348D01*
X01558000Y00801882D01*
X01560341Y00802348D01*
X01562326Y00803674D01*
X01563652Y00805659D01*
X01563667Y00805737D01*
X01633015Y00875084D01*
X01634341Y00875348D01*
X01636326Y00876674D01*
X01637652Y00878659D01*
X01638118Y00881000D01*
X01637652Y00883341D01*
X01636326Y00885326D01*
X01634341Y00886652D01*
X01632000Y00887117D01*
D02*
G37*
G36*
X00660000Y00827116D02*
X00656476Y00826653D01*
X00653192Y00825292D01*
X00650372Y00823128D01*
X00648208Y00820308D01*
X00646848Y00817024D01*
X00646384Y00813500D01*
X00646848Y00809976D01*
X00648208Y00806692D01*
X00650372Y00803872D01*
X00653192Y00801708D01*
X00656476Y00800348D01*
X00660000Y00799883D01*
X00663524Y00800348D01*
X00666808Y00801708D01*
X00669628Y00803872D01*
X00671792Y00806692D01*
X00673152Y00809976D01*
X00673616Y00813500D01*
X00673152Y00817024D01*
X00671792Y00820308D01*
X00669628Y00823128D01*
X00666808Y00825292D01*
X00663524Y00826653D01*
X00660000Y00827116D01*
D02*
G37*
G36*
X00621500Y00795109D02*
X00617089Y00794674D01*
X00612848Y00793388D01*
X00608939Y00791299D01*
X00605513Y00788487D01*
X00602701Y00785061D01*
X00600612Y00781152D01*
X00599326Y00776911D01*
X00598891Y00772500D01*
X00599326Y00768089D01*
X00600612Y00763848D01*
X00602701Y00759939D01*
X00605513Y00756513D01*
X00608939Y00753701D01*
X00612848Y00751612D01*
X00617089Y00750326D01*
X00621500Y00749891D01*
X00625911Y00750326D01*
X00630152Y00751612D01*
X00634061Y00753701D01*
X00637487Y00756513D01*
X00640299Y00759939D01*
X00642388Y00763848D01*
X00643674Y00768089D01*
X00644109Y00772500D01*
X00643674Y00776911D01*
X00642388Y00781152D01*
X00640299Y00785061D01*
X00637487Y00788487D01*
X00634061Y00791299D01*
X00630152Y00793388D01*
X00625911Y00794674D01*
X00621500Y00795109D01*
D02*
G37*
G36*
X01065000Y00779060D02*
X01063173Y00778820D01*
X01061470Y00778114D01*
X01060008Y00776992D01*
X01058885Y00775530D01*
X01058180Y00773827D01*
X01057940Y00772000D01*
X01058180Y00770173D01*
X01058885Y00768470D01*
X01060008Y00767008D01*
X01061470Y00765885D01*
X01063173Y00765180D01*
X01064228Y00765041D01*
X01096751Y00732518D01*
X01095912Y00731561D01*
X01094548Y00732608D01*
X01091872Y00733717D01*
X01090270Y00733928D01*
Y00724270D01*
X01099928D01*
X01099717Y00725872D01*
X01098608Y00728547D01*
X01097561Y00729912D01*
X01098518Y00730751D01*
X01103650Y00725620D01*
X01103305Y00723000D01*
X01103683Y00720128D01*
X01104791Y00717453D01*
X01106555Y00715155D01*
X01108852Y00713391D01*
X01111528Y00712283D01*
X01114400Y00711905D01*
X01117272Y00712283D01*
X01119948Y00713391D01*
X01122245Y00715155D01*
X01124008Y00717453D01*
X01125117Y00720128D01*
X01125495Y00723000D01*
X01125117Y00725872D01*
X01124008Y00728547D01*
X01122245Y00730845D01*
X01119948Y00732608D01*
X01117272Y00733717D01*
X01114400Y00734095D01*
X01111528Y00733717D01*
X01111447Y00733683D01*
X01071898Y00773232D01*
X01071820Y00773827D01*
X01071115Y00775530D01*
X01069992Y00776992D01*
X01068530Y00778114D01*
X01066827Y00778820D01*
X01065000Y00779060D01*
D02*
G37*
G36*
X01739000Y00729118D02*
X01736659Y00728652D01*
X01735067Y00727588D01*
X01643933D01*
X01642341Y00728652D01*
X01640000Y00729118D01*
X01637659Y00728652D01*
X01635674Y00727326D01*
X01634348Y00725341D01*
X01633882Y00723000D01*
X01634348Y00720659D01*
X01635674Y00718674D01*
X01637659Y00717348D01*
X01640000Y00716882D01*
X01642341Y00717348D01*
X01643933Y00718412D01*
X01735067D01*
X01736659Y00717348D01*
X01739000Y00716882D01*
X01741341Y00717348D01*
X01743326Y00718674D01*
X01744652Y00720659D01*
X01745117Y00723000D01*
X01744652Y00725341D01*
X01743326Y00727326D01*
X01741341Y00728652D01*
X01739000Y00729118D01*
D02*
G37*
G36*
X01087730Y00733928D02*
X01086128Y00733717D01*
X01083453Y00732608D01*
X01081155Y00730845D01*
X01079391Y00728547D01*
X01078283Y00725872D01*
X01078072Y00724270D01*
X01087730D01*
Y00733928D01*
D02*
G37*
G36*
X01287000Y00826311D02*
X01285173Y00826070D01*
X01283470Y00825365D01*
X01282007Y00824243D01*
X01280885Y00822780D01*
X01280180Y00821077D01*
X01279940Y00819250D01*
X01280180Y00817423D01*
X01280885Y00815720D01*
X01282007Y00814258D01*
X01282912Y00813564D01*
Y00727868D01*
X01281886Y00726530D01*
X01281180Y00724827D01*
X01280940Y00723000D01*
X01281180Y00721173D01*
X01281886Y00719470D01*
X01283008Y00718008D01*
X01284470Y00716886D01*
X01286173Y00716180D01*
X01288000Y00715940D01*
X01289827Y00716180D01*
X01291530Y00716886D01*
X01292992Y00718008D01*
X01294115Y00719470D01*
X01294820Y00721173D01*
X01295060Y00723000D01*
X01294820Y00724827D01*
X01294115Y00726530D01*
X01292992Y00727992D01*
X01292088Y00728686D01*
Y00814382D01*
X01293114Y00815720D01*
X01293820Y00817423D01*
X01294060Y00819250D01*
X01293820Y00821077D01*
X01293114Y00822780D01*
X01291992Y00824243D01*
X01290530Y00825365D01*
X01288827Y00826070D01*
X01287000Y00826311D01*
D02*
G37*
G36*
X01099928Y00721730D02*
X01090270D01*
Y00712072D01*
X01091872Y00712283D01*
X01094548Y00713391D01*
X01096845Y00715155D01*
X01098608Y00717453D01*
X01099717Y00720128D01*
X01099928Y00721730D01*
D02*
G37*
G36*
X01087730D02*
X01078072D01*
X01078283Y00720128D01*
X01079391Y00717453D01*
X01081155Y00715155D01*
X01083453Y00713391D01*
X01086128Y00712283D01*
X01087730Y00712072D01*
Y00721730D01*
D02*
G37*
G36*
X00936600Y00734095D02*
X00933728Y00733717D01*
X00931053Y00732608D01*
X00928755Y00730845D01*
X00926992Y00728548D01*
X00925883Y00725872D01*
X00925505Y00723000D01*
X00925883Y00720128D01*
X00926992Y00717452D01*
X00928755Y00715155D01*
X00931053Y00713391D01*
X00933728Y00712283D01*
X00936600Y00711905D01*
X00939472Y00712283D01*
X00942147Y00713391D01*
X00944445Y00715155D01*
X00946208Y00717452D01*
X00947317Y00720128D01*
X00947695Y00723000D01*
X00947317Y00725872D01*
X00946208Y00728548D01*
X00944445Y00730845D01*
X00942147Y00732608D01*
X00939472Y00733717D01*
X00936600Y00734095D01*
D02*
G37*
G36*
X00937870Y00632328D02*
Y00622670D01*
X00947528D01*
X00947317Y00624272D01*
X00946208Y00626947D01*
X00944445Y00629245D01*
X00942148Y00631008D01*
X00939472Y00632117D01*
X00937870Y00632328D01*
D02*
G37*
G36*
X00935330D02*
X00933728Y00632117D01*
X00931052Y00631008D01*
X00928755Y00629245D01*
X00926992Y00626947D01*
X00925883Y00624272D01*
X00925672Y00622670D01*
X00935330D01*
Y00632328D01*
D02*
G37*
G36*
X00947528Y00620130D02*
X00937870D01*
Y00610472D01*
X00939472Y00610683D01*
X00942148Y00611791D01*
X00944445Y00613555D01*
X00946208Y00615853D01*
X00947317Y00618528D01*
X00947528Y00620130D01*
D02*
G37*
G36*
X00935330D02*
X00925672D01*
X00925883Y00618528D01*
X00926992Y00615853D01*
X00928755Y00613555D01*
X00931052Y00611791D01*
X00933728Y00610683D01*
X00935330Y00610472D01*
Y00620130D01*
D02*
G37*
G36*
X01114400Y00632495D02*
X01111528Y00632117D01*
X01108852Y00631008D01*
X01106555Y00629245D01*
X01104791Y00626947D01*
X01103683Y00624272D01*
X01103305Y00621400D01*
X01103683Y00618528D01*
X01104791Y00615853D01*
X01106555Y00613555D01*
X01108852Y00611791D01*
X01111528Y00610683D01*
X01114400Y00610305D01*
X01117272Y00610683D01*
X01119948Y00611791D01*
X01122245Y00613555D01*
X01124008Y00615853D01*
X01125117Y00618528D01*
X01125495Y00621400D01*
X01125117Y00624272D01*
X01124008Y00626947D01*
X01122245Y00629245D01*
X01119948Y00631008D01*
X01117272Y00632117D01*
X01114400Y00632495D01*
D02*
G37*
G36*
X00962000D02*
X00959128Y00632117D01*
X00956452Y00631008D01*
X00954155Y00629245D01*
X00952392Y00626947D01*
X00951283Y00624272D01*
X00950905Y00621400D01*
X00951283Y00618528D01*
X00952392Y00615853D01*
X00954155Y00613555D01*
X00956452Y00611791D01*
X00959128Y00610683D01*
X00962000Y00610305D01*
X00964872Y00610683D01*
X00967548Y00611791D01*
X00969845Y00613555D01*
X00971609Y00615853D01*
X00972717Y00618528D01*
X00973095Y00621400D01*
X00972717Y00624272D01*
X00971609Y00626947D01*
X00969845Y00629245D01*
X00967548Y00631008D01*
X00964872Y00632117D01*
X00962000Y00632495D01*
D02*
G37*
G36*
X01941270Y00570996D02*
Y00541270D01*
X01970996D01*
X01970713Y00544865D01*
X01969574Y00549609D01*
X01967707Y00554117D01*
X01965157Y00558278D01*
X01961988Y00561988D01*
X01958278Y00565157D01*
X01954117Y00567707D01*
X01949609Y00569574D01*
X01944865Y00570713D01*
X01941270Y00570996D01*
D02*
G37*
G36*
X01938730D02*
X01935136Y00570713D01*
X01930391Y00569574D01*
X01925883Y00567707D01*
X01921722Y00565157D01*
X01918012Y00561988D01*
X01914843Y00558278D01*
X01912293Y00554117D01*
X01910426Y00549609D01*
X01909287Y00544865D01*
X01909004Y00541270D01*
X01938730D01*
Y00570996D01*
D02*
G37*
G36*
X00541270D02*
Y00541270D01*
X00570996D01*
X00570713Y00544865D01*
X00569574Y00549609D01*
X00567707Y00554117D01*
X00565157Y00558278D01*
X00561988Y00561988D01*
X00558278Y00565157D01*
X00554117Y00567707D01*
X00549609Y00569574D01*
X00544865Y00570713D01*
X00541270Y00570996D01*
D02*
G37*
G36*
X00538730D02*
X00535136Y00570713D01*
X00530391Y00569574D01*
X00525883Y00567707D01*
X00521722Y00565157D01*
X00518012Y00561988D01*
X00514843Y00558278D01*
X00512293Y00554117D01*
X00510426Y00549609D01*
X00509287Y00544865D01*
X00509004Y00541270D01*
X00538730D01*
Y00570996D01*
D02*
G37*
G36*
X01970996Y00538730D02*
X01941270D01*
Y00509004D01*
X01944865Y00509287D01*
X01949609Y00510426D01*
X01954117Y00512293D01*
X01958278Y00514843D01*
X01961988Y00518012D01*
X01965157Y00521722D01*
X01967707Y00525883D01*
X01969574Y00530391D01*
X01970713Y00535136D01*
X01970996Y00538730D01*
D02*
G37*
G36*
X01938730D02*
X01909004D01*
X01909287Y00535136D01*
X01910426Y00530391D01*
X01912293Y00525883D01*
X01914843Y00521722D01*
X01918012Y00518012D01*
X01921722Y00514843D01*
X01925883Y00512293D01*
X01930391Y00510426D01*
X01935136Y00509287D01*
X01938730Y00509004D01*
Y00538730D01*
D02*
G37*
G36*
X00570996D02*
X00541270D01*
Y00509004D01*
X00544865Y00509287D01*
X00549609Y00510426D01*
X00554117Y00512293D01*
X00558278Y00514843D01*
X00561988Y00518012D01*
X00565157Y00521722D01*
X00567707Y00525883D01*
X00569574Y00530391D01*
X00570713Y00535136D01*
X00570996Y00538730D01*
D02*
G37*
G36*
X00538730D02*
X00509004D01*
X00509287Y00535136D01*
X00510426Y00530391D01*
X00512293Y00525883D01*
X00514843Y00521722D01*
X00518012Y00518012D01*
X00521722Y00514843D01*
X00525883Y00512293D01*
X00530391Y00510426D01*
X00535136Y00509287D01*
X00538730Y00509004D01*
Y00538730D01*
D02*
G37*
%LPD*%
G36*
X01172000Y01277250D02*
Y01182250D01*
X01151000Y01161250D01*
X00953000Y01161250D01*
X00932000Y01182250D01*
Y01277250D01*
X00951000Y01296250D01*
X01153000Y01296250D01*
X01172000Y01277250D01*
D02*
G37*
%LPC*%
G36*
X00954009Y01258732D02*
X00952020D01*
X00950182Y01257971D01*
X00948776Y01256564D01*
X00948015Y01254726D01*
Y01252737D01*
X00948776Y01250899D01*
X00949033Y01250642D01*
Y01209522D01*
X00948776Y01209264D01*
X00948015Y01207427D01*
Y01205437D01*
X00948776Y01203600D01*
X00950182Y01202193D01*
X00952020Y01201432D01*
X00954009D01*
X00955847Y01202193D01*
X00957253Y01203600D01*
X00958015Y01205437D01*
Y01207427D01*
X00957253Y01209264D01*
X00956996Y01209522D01*
Y01250642D01*
X00957253Y01250899D01*
X00958015Y01252737D01*
Y01254726D01*
X00957253Y01256564D01*
X00955847Y01257971D01*
X00954009Y01258732D01*
D02*
G37*
%LPD*%
G36*
X01172000Y01103000D02*
Y01008000D01*
X01151000Y00987000D01*
X00953000Y00987000D01*
X00932000Y01008000D01*
Y01103000D01*
X00951000Y01122000D01*
X01153000Y01122000D01*
X01172000Y01103000D01*
D02*
G37*
G36*
X00688616Y00955454D02*
X00687896Y00954377D01*
X00686827Y00954820D01*
X00685000Y00955060D01*
X00683173Y00954820D01*
X00681470Y00954115D01*
X00680008Y00952992D01*
X00678885Y00951530D01*
X00678180Y00949827D01*
X00678072Y00949002D01*
X00670677Y00941608D01*
X00631755D01*
X00631324Y00942878D01*
X00631775Y00943225D01*
X00633298Y00945209D01*
X00634255Y00947520D01*
X00634551Y00949764D01*
X00635647Y00950559D01*
X00636049Y00950290D01*
X00638000Y00949902D01*
X00639951Y00950290D01*
X00641605Y00951395D01*
X00642710Y00953049D01*
X00643098Y00955000D01*
X00642710Y00956951D01*
X00641605Y00958605D01*
X00639951Y00959710D01*
X00638665Y00959966D01*
X00636906Y00961724D01*
X00637438Y00962989D01*
X00638951Y00963290D01*
X00640605Y00964395D01*
X00641710Y00966049D01*
X00642098Y00968000D01*
X00641710Y00969951D01*
X00640605Y00971605D01*
X00638951Y00972710D01*
X00637000Y00973098D01*
X00635575Y00972814D01*
X00634522Y00973609D01*
X00634422Y00973781D01*
X00634582Y00975000D01*
X00634255Y00977480D01*
X00633298Y00979791D01*
X00632468Y00980872D01*
X00633095Y00982142D01*
X00661927D01*
X00688616Y00955454D01*
D02*
G37*
G36*
X01172000Y00927250D02*
Y00832250D01*
X01151000Y00811250D01*
X00953000Y00811250D01*
X00932000Y00832250D01*
Y00927250D01*
X00951000Y00946250D01*
X01153000Y00946250D01*
X01172000Y00927250D01*
D02*
G37*
D59*
X01630809Y00880809D02*
X01631809D01*
X01558000Y00808000D02*
X01630809Y00880809D01*
X01631809D02*
X01632000Y00881000D01*
X01065200Y00772000D02*
X01114200Y00723000D01*
X01065000Y00772000D02*
X01065200D01*
X01114200Y00723000D02*
X01114400D01*
X00595676Y00936000D02*
X00673000D01*
X00685000Y00948000D01*
X00587250Y00944426D02*
X00595676Y00936000D01*
X00587250Y00944426D02*
Y00962750D01*
X00575000Y00975000D02*
X00587250Y00962750D01*
X00664250Y00987750D02*
X00709000Y00943000D01*
X00709000D01*
X00612750Y00987750D02*
X00664250D01*
X00600000Y00975000D02*
X00612750Y00987750D01*
D60*
X00625000Y00915000D02*
X00785000D01*
X00785000Y00915000D01*
X01597000Y01206870D02*
X01633000Y01170870D01*
Y01159000D02*
Y01170870D01*
X01489000Y01257500D02*
X01512000Y01280500D01*
Y01281000D01*
X01489000Y01257000D02*
Y01257500D01*
X01489600Y01295600D02*
Y01310000D01*
X01433000Y01239000D02*
X01489600Y01295600D01*
X01390000Y01239000D02*
X01433000D01*
X01584000Y01191000D02*
X01589000Y01196000D01*
X01584000Y01090000D02*
X01629150Y01044850D01*
X01584000Y01090000D02*
Y01191000D01*
X01597000Y01097689D02*
Y01134000D01*
Y01206870D01*
X00627034Y00965966D02*
X00630845Y00962155D01*
Y00962155D02*
Y00962155D01*
X00627034Y00965966D02*
Y00972966D01*
X00625000Y00975000D02*
X00627034Y00972966D01*
X00630845Y00962155D02*
X00638000Y00955000D01*
X00625000Y01075000D02*
X00627141Y01072859D01*
Y01067859D02*
X00641000Y01054000D01*
X00627141Y01067859D02*
Y01072859D01*
X00953015Y01206432D02*
Y01253732D01*
X01372000Y01198000D02*
Y01221000D01*
X01390000Y01239000D01*
X01394000Y01231000D02*
X01394150Y01231150D01*
X01444550D01*
X01444700Y01231300D01*
X01629150Y01044850D02*
X01693000D01*
X01597155Y01097689D02*
X01632845Y01062000D01*
X01633000D01*
X01589000Y01196000D02*
Y01205000D01*
X01597000Y01097689D02*
X01597155D01*
X01597000Y01206870D02*
Y01230000D01*
D61*
X00852000Y01304000D02*
X00871000Y01323000D01*
X00588000Y01063000D02*
X00600000Y01075000D01*
X00588000Y01044000D02*
Y01063000D01*
X00581000Y01037000D02*
X00588000Y01044000D01*
X00555000Y01027000D02*
X00565000Y01037000D01*
X00581000D01*
X00555000Y01007000D02*
Y01027000D01*
X01319000Y01050000D02*
X01444000Y01175000D01*
X01466000D01*
X01283832Y01050000D02*
X01319000D01*
X01321000Y01045000D02*
X01446000Y01170000D01*
X01282700Y01045000D02*
X01321000D01*
X01266100Y01054200D02*
X01279000Y01041300D01*
X01327000Y00898000D02*
Y01034000D01*
X01283000Y00874000D02*
X01303000D01*
X01327000Y00898000D01*
X01332000Y01032000D02*
X01411095Y01111095D01*
X01332000Y00896000D02*
Y01032000D01*
X01305000Y00869000D02*
X01332000Y00896000D01*
X01282700Y00869000D02*
X01305000D01*
X01327000Y01034000D02*
X01432000Y01139000D01*
X01236000Y01228000D02*
X01236574D01*
X01245000Y01236426D01*
X01245574D01*
X01416845Y01109357D02*
X01436488Y01129000D01*
X01499500D02*
X01507500Y01137000D01*
X01436488Y01129000D02*
X01499500D01*
X01468290Y01219951D02*
Y01263290D01*
X01515000Y01310000D01*
X01497426Y01156426D02*
X01501426D01*
X01433357Y01134000D02*
X01475000D01*
X01497426Y01156426D01*
X01494697Y01164697D02*
X01495000Y01165000D01*
X01473000Y01139000D02*
X01494697Y01160697D01*
Y01164697D01*
X01501426Y01156426D02*
X01502000Y01157000D01*
X01432000Y01139000D02*
X01473000D01*
X01493697Y01191697D02*
X01494000Y01192000D01*
X01489697Y01191697D02*
X01493697D01*
X01446000Y01170000D02*
X01468000D01*
X01489697Y01191697D01*
X01466000Y01175000D02*
X01485426Y01194426D01*
Y01198426D01*
X01486000Y01199000D01*
X01511181Y01296181D02*
X01526581D01*
X01479000Y01219257D02*
Y01264000D01*
X01511181Y01296181D01*
X01526581D02*
X01540400Y01310000D01*
X01479000Y01219257D02*
X01483000Y01215257D01*
Y01215000D02*
Y01215257D01*
X01603155Y01101845D02*
Y01191000D01*
X01590845Y01093155D02*
Y01187000D01*
Y01093155D02*
X01629000Y01055000D01*
X01603155Y01101845D02*
X01630000Y01075000D01*
X01279000Y01041300D02*
X01282700Y01045000D01*
X01279416Y01054416D02*
X01283832Y01050000D01*
X01266100Y00878200D02*
X01279000Y00865300D01*
Y00878000D02*
X01283000Y00874000D01*
X01279000Y00865300D02*
X01282700Y00869000D01*
X01411095Y01111738D02*
X01433357Y01134000D01*
X01411095Y01111095D02*
Y01111738D01*
X01521931Y01103201D02*
X01624532Y01000600D01*
X01755926D01*
X01515234Y01101766D02*
X01666000Y00951000D01*
X01515234Y01101766D02*
Y01103960D01*
X01666000Y00951000D02*
X01757000D01*
X01508205Y01101795D02*
Y01107835D01*
Y01101795D02*
X01709000Y00901000D01*
X01514660Y01104534D02*
X01515234Y01103960D01*
X01709000Y00901000D02*
X01757000D01*
X01629000Y01055000D02*
X01671400D01*
X01678700Y01062300D01*
X01653000Y01117000D02*
X01694000Y01076000D01*
X01653000Y01117000D02*
Y01176400D01*
X01631700Y01197700D02*
X01653000Y01176400D01*
X01621000Y01198000D02*
X01646000Y01173000D01*
Y01112000D02*
Y01173000D01*
D62*
X00852000Y01304000D02*
X00852000D01*
X01640000Y00723000D02*
X01739000D01*
X01287000Y00819250D02*
X01287500Y00818750D01*
Y00723500D02*
Y00818750D01*
Y00723500D02*
X01288000Y00723000D01*
D63*
X01565800Y01310000D02*
D03*
X01540400D02*
D03*
X01515000D02*
D03*
X01489600D02*
D03*
X01464200D02*
D03*
X00625000Y01175000D02*
D03*
Y01150000D02*
D03*
Y01125000D02*
D03*
Y01100000D02*
D03*
Y01025000D02*
D03*
Y01000000D02*
D03*
Y00915000D02*
D03*
Y00878000D02*
D03*
X00600000Y01175000D02*
D03*
Y01150000D02*
D03*
Y01125000D02*
D03*
Y01100000D02*
D03*
Y01075000D02*
D03*
Y01050000D02*
D03*
Y01025000D02*
D03*
Y01000000D02*
D03*
Y00975000D02*
D03*
Y00950000D02*
D03*
Y00915000D02*
D03*
Y00878000D02*
D03*
X00575000Y01175000D02*
D03*
Y01150000D02*
D03*
Y01125000D02*
D03*
Y01100000D02*
D03*
Y01075000D02*
D03*
Y01050000D02*
D03*
Y01025000D02*
D03*
Y01000000D02*
D03*
Y00975000D02*
D03*
Y00950000D02*
D03*
Y00915000D02*
D03*
Y00878000D02*
D03*
X00625000Y01050000D02*
D03*
Y00950000D02*
D03*
Y01075000D02*
D03*
Y00975000D02*
D03*
D64*
X00621500Y01280500D02*
D03*
X00660000Y01239500D02*
D03*
Y00813500D02*
D03*
X00621500Y00772500D02*
D03*
D65*
X01114400Y00621400D02*
D03*
X00962000D02*
D03*
X00936600D02*
D03*
Y00723000D02*
D03*
X01089000D02*
D03*
X01114400D02*
D03*
D66*
X00540000Y01510000D02*
D03*
Y00540000D02*
D03*
X01940000D02*
D03*
Y01510000D02*
D03*
D67*
X01632000Y00881000D02*
D03*
X01558000Y00808000D02*
D03*
X01739000Y00723000D02*
D03*
X01640000D02*
D03*
X01084000Y01277000D02*
D03*
Y01098000D02*
D03*
Y00921000D02*
D03*
D68*
X01065000Y00772000D02*
D03*
X01287000Y00819250D02*
D03*
X01288000Y00723000D02*
D03*
X00685000Y00948000D02*
D03*
X00709000Y00943000D02*
D03*
D69*
X00785000Y00915000D02*
D03*
X01633000Y01159000D02*
D03*
X00852000Y01304000D02*
D03*
X00871000Y01323000D02*
D03*
X01512000Y01281000D02*
D03*
X01534426Y01136057D02*
D03*
X01805000Y01223000D02*
D03*
X01806000Y01167000D02*
D03*
X01764000Y01161000D02*
D03*
Y01182000D02*
D03*
X01805000Y01204000D02*
D03*
X01765000Y01208000D02*
D03*
X01532000Y00822000D02*
D03*
X01474000D02*
D03*
X01415000D02*
D03*
X01351000D02*
D03*
X01245574Y01236426D02*
D03*
X01236000Y01228000D02*
D03*
X00555000Y01007000D02*
D03*
X01652426Y01013057D02*
D03*
X01592426Y00967057D02*
D03*
X01531426D02*
D03*
X01470907Y00968051D02*
D03*
X01411426Y00968057D02*
D03*
X01442426Y01119057D02*
D03*
Y01149057D02*
D03*
X01468290Y01219951D02*
D03*
X01502000Y01157000D02*
D03*
X01495000Y01165000D02*
D03*
X01494000Y01192000D02*
D03*
X01486000Y01199000D02*
D03*
X01483000Y01215000D02*
D03*
X01460426Y01233057D02*
D03*
X01454426Y01273057D02*
D03*
X01580426Y01071057D02*
D03*
X01567426Y01082057D02*
D03*
X01570426Y01232057D02*
D03*
X01560426Y01145426D02*
D03*
X01590845Y01187000D02*
D03*
X01603155Y01191000D02*
D03*
X01615426Y01130057D02*
D03*
X00961000Y00878000D02*
D03*
Y01228000D02*
D03*
X00960000Y01054000D02*
D03*
X00638000Y00955000D02*
D03*
X00637000Y00968000D02*
D03*
X00641000Y01070000D02*
D03*
Y01054000D02*
D03*
X00953015Y01253732D02*
D03*
Y01206432D02*
D03*
X01279416Y01054416D02*
D03*
X01279000Y01041300D02*
D03*
X01265900Y00864900D02*
D03*
Y00878000D02*
D03*
X01279000D02*
D03*
Y00865300D02*
D03*
X01416845Y01109357D02*
D03*
X01265900Y01040900D02*
D03*
Y01054000D02*
D03*
X01489000Y01257000D02*
D03*
X01372000Y01198000D02*
D03*
X01394000Y01231000D02*
D03*
X01597374Y01230258D02*
D03*
X01693000Y01044850D02*
D03*
X01633000Y01062000D02*
D03*
X01521931Y01103201D02*
D03*
X01508205Y01107835D02*
D03*
X01514660Y01104534D02*
D03*
X01755926Y01000600D02*
D03*
X01757000Y00951000D02*
D03*
X01755926Y00901000D02*
D03*
X01507500Y01137000D02*
D03*
X01589000Y01205000D02*
D03*
X01597000Y01097689D02*
D03*
X01630000Y01075000D02*
D03*
X01678700Y01062300D02*
D03*
X01694000Y01076000D02*
D03*
X01646000Y01112000D02*
D03*
X01621000Y01198000D02*
D03*
X01631700Y01197700D02*
D03*
X01444700Y01231300D02*
D03*
X01597000Y01134000D02*
D03*
M02*
